<?xml version="1.0" encoding="utf-8"?>
<!-- Generator: Adobe Illustrator 19.2.1, SVG Export Plug-In . SVG Version: 6.00 Build 0)  -->
<svg version="1.1" id="Layer_1" xmlns="http://www.w3.org/2000/svg" xmlns:xlink="http://www.w3.org/1999/xlink" x="0px" y="0px"
	 viewBox="0 0 600 108" style="enable-background:new 0 0 600 108;" xml:space="preserve">
<style type="text/css">
	.st0{fill:none;stroke:#BDBDBD;stroke-width:12;stroke-linecap:square;}
	.st1{fill:#00B140;}
	.st2{fill:#FFFFFF;stroke:#FFFFFF;stroke-linecap:round;stroke-linejoin:round;}
	.st3{fill:#00B140;stroke:#00B140;stroke-linecap:round;stroke-linejoin:round;}
	.st4{fill:none;stroke:#FFFFFF;stroke-width:3;stroke-linejoin:round;}
	.st5{fill:#BDBDBD;}
	.st6{fill:#FFFFFF;stroke:#FFFFFF;}
	.st7{fill:none;stroke:#FFFFFF;stroke-linecap:round;stroke-linejoin:round;}
	.st8{fill:none;stroke:#BDBDBD;stroke-width:3;stroke-linecap:square;stroke-linejoin:round;}
	.st9{fill:none;stroke:#BDBDBD;stroke-width:3;}
	.st10{fill:#FFFFFF;}
</style>
<title>ProgressBar01_ChooseStops</title>
<desc>Created with Sketch.</desc>
<g id="Booking">
	<g id="ProgressBar01_ChooseStops">
		<path id="Line3" class="st0" d="M383.9,55.1h144.1"/>
		<path id="Line2" class="st0" d="M253,56h89.2"/>
		<path id="Line1" class="st0" d="M96,56h89.2"/>
		<ellipse id="Bubble1" class="st1" cx="53.9" cy="53.7" rx="53.9" ry="53.7"/>
		<g id="ProgressBar_Icon1_ChooseDates" transform="translate(27.966292, 27.842105)">
			<path id="Stroke-1780" class="st2" d="M41.4,15.5c0,8.5-15.4,31.7-15.4,31.7S10.6,23.9,10.6,15.5C10.6,7,17.5,0.1,26,0.1
				C34.5,0.1,41.4,7,41.4,15.5L41.4,15.5z"/>
			<path id="Stroke-1779" class="st3" d="M33.8,14.7c0,4.3-3.5,7.8-7.9,7.8c-4.3,0-7.9-3.5-7.9-7.8s3.5-7.8,7.9-7.8
				C30.3,6.8,33.8,10.3,33.8,14.7L33.8,14.7z"/>
			<path id="Stroke-1781" class="st4" d="M37.2,43.1c8.6,0.7,14.6,2.3,14.6,4c0,2.5-11.6,4.5-25.8,4.5c-14.3,0-25.8-2-25.8-4.5
				c0-1.8,5.9-3.3,14.5-4"/>
		</g>
		<path id="Bubble2" class="st5" d="M218,107.4c29.8,0,53.9-24,53.9-53.7S247.8,0,218,0S164,24,164,53.7S188.2,107.4,218,107.4z"/>
		<g id="ProgressBar_Icon2_ChooseDates" transform="translate(195.623891, 31.578947)">
			<polyline id="Stroke-1351" class="st6" points="8.4,4.4 0.9,4.4 0.9,44.5 44,44.5 44,4.4 36.5,4.4 			"/>
			<polygon id="Stroke-1352" class="st6" points="14,7.9 8.4,7.9 8.4,0.9 14,0.9 			"/>
			<polygon id="Stroke-1353" class="st6" points="36.5,7.9 30.9,7.9 30.9,0.9 36.5,0.9 			"/>
			<path id="Stroke-1354" class="st7" d="M14,4.4h16.9"/>
			<g id="Group-10" transform="translate(0.000000, 12.631579)">
				<path id="Stroke-1355" class="st8" d="M0.9,0H44"/>
				<path id="Stroke-1356" class="st9" d="M12,7v21"/>
				<path id="Stroke-1357" class="st9" d="M21,7v21"/>
				<path id="Stroke-1358" class="st9" d="M30,7v21"/>
				<path id="Stroke-1359" class="st9" d="M4.7,10h35.6"/>
				<path id="Stroke-1360" class="st9" d="M4.7,17h35.6"/>
				<path id="Stroke-1361" class="st9" d="M4.7,24h35.6"/>
			</g>
		</g>
		<ellipse id="Bubble3" class="st5" cx="382.4" cy="53.7" rx="53.9" ry="53.7"/>
		<g id="ProgressBar_Icon3_ReviewBooking" transform="translate(360.000000, 25.263158)">
			<path id="Fill-71" class="st10" d="M18.7,34.7c-0.3,0-0.5-0.1-0.7-0.3l-5.3-5.3c-0.4-0.4-0.4-1.1,0-1.5c0.4-0.4,1.1-0.4,1.5,0
				l4.4,4.4l9-11.3c0.4-0.5,1-0.5,1.5-0.2c0.5,0.4,0.5,1,0.2,1.5l-9.7,12.2C19.3,34.6,19,34.7,18.7,34.7
				C18.7,34.7,18.7,34.7,18.7,34.7"/>
			<path id="Fill-73" class="st10" d="M30.5,4.2h-4.3C25.7,1.8,23.6,0,21.1,0c-2.5,0-4.7,1.8-5.2,4.2h-4.3c-0.6,0-1.1,0.5-1.1,1.1
				v8.4c0,0.6,0.5,1.1,1.1,1.1h18.9c0.6,0,1.1-0.5,1.1-1.1V5.3C31.6,4.7,31.1,4.2,30.5,4.2"/>
			<path id="Fill-75" class="st10" d="M41.1,6.3h-7.4v4.2h3.2c0.6,0,1.1,0.5,1.1,1.1v25.3c0,0.3-0.1,0.5-0.3,0.7L30.3,46
				c-0.2,0.2-0.5,0.4-0.8,0.4l-24.2,0c-0.6,0-1.1-0.5-1.1-1.1V11.6c0-0.6,0.5-1.1,1.1-1.1h3.2V6.3H1.1C0.5,6.3,0,6.8,0,7.4v42.1
				c0,0.6,0.5,1.1,1.1,1.1h40c0.6,0,1.1-0.5,1.1-1.1V7.4C42.1,6.8,41.6,6.3,41.1,6.3"/>
			<path id="Fill-77" class="st10" d="M36.4,35.8h-5.9c-0.6,0-1.1,0.5-1.1,1.1v6.3L36.4,35.8z"/>
		</g>
		<ellipse id="Bubble4" class="st5" cx="546.1" cy="53.7" rx="53.9" ry="53.7"/>
		<g id="ProgressBar_Icon4_Payment" transform="translate(521.052632, 34.736842)">
			<path id="Fill-5" class="st10" d="M5.3,0C2.4,0,0,2.4,0,5.3v3.2h50.5V5.3c0-2.9-2.4-5.3-5.3-5.3H5.3z"/>
			<path id="Fill-7" class="st10" d="M7.4,22h6.3c0.6,0,1.1,0.5,1.1,1.1c0,0.6-0.5,1.1-1.1,1.1H7.4c-0.6,0-1.1-0.5-1.1-1.1
				C6.3,22.5,6.8,22,7.4,22L7.4,22z M7.4,17.8h16.8c0.6,0,1.1,0.5,1.1,1.1c0,0.6-0.5,1.1-1.1,1.1H7.4c-0.6,0-1.1-0.5-1.1-1.1
				C6.3,18.2,6.8,17.8,7.4,17.8L7.4,17.8z M36.8,17.8h6.3c0.6,0,1.1,0.5,1.1,1.1c0,0.6-0.5,1.1-1.1,1.1h-6.3c-0.6,0-1.1-0.5-1.1-1.1
				C35.8,18.2,36.3,17.8,36.8,17.8L36.8,17.8z M0,29.4c0,2.9,2.4,5.3,5.3,5.3h40c2.9,0,5.3-2.4,5.3-5.3V13.5H0V29.4z"/>
		</g>
	</g>
</g>
</svg>
