<?xml version="1.0" standalone="no"?>
<!DOCTYPE svg PUBLIC "-//W3C//DTD SVG 20010904//EN"
 "http://www.w3.org/TR/2001/REC-SVG-20010904/DTD/svg10.dtd">
<svg version="1.0" xmlns="http://www.w3.org/2000/svg"
 width="1000.000000pt" height="1000.000000pt" viewBox="0 0 1000.000000 1000.000000"
 preserveAspectRatio="xMidYMid meet">
<metadata>
Created by potrace 1.11, written by Peter Selinger 2001-2013
</metadata>
<g transform="translate(0.000000,1000.000000) scale(0.100000,-0.100000)"
fill="#000000" stroke="none">
<path d="M0 5000 l0 -5000 5000 0 5000 0 0 5000 0 5000 -5000 0 -5000 0 0
-5000z m7354 3165 c273 -62 431 -213 496 -475 18 -73 23 -134 31 -425 5 -187
12 -346 14 -353 3 -8 13 -11 22 -8 32 10 135 -13 174 -39 21 -14 52 -49 69
-78 l30 -52 0 -233 c0 -210 -2 -236 -19 -270 -43 -82 -122 -132 -212 -132
l-51 0 6 -287 c20 -883 36 -1599 41 -1828 3 -143 10 -461 16 -707 10 -400 9
-459 -6 -560 -26 -180 -84 -299 -196 -402 -91 -85 -235 -144 -391 -162 l-58
-7 0 -219 c0 -251 -5 -271 -73 -316 l-41 -27 -395 0 c-394 0 -396 0 -432 23
-72 44 -73 51 -79 305 l-5 227 -1350 0 -1350 0 -5 -222 c-6 -252 -8 -260 -84
-301 -40 -22 -49 -22 -426 -22 -383 0 -385 0 -428 23 -74 39 -82 69 -82 319
l0 212 -37 6 c-21 3 -74 15 -118 27 -217 55 -361 198 -426 423 -22 74 -23 99
-24 325 0 273 12 998 20 1160 5 92 32 1421 38 1850 l2 155 -70 6 c-79 6 -116
22 -161 71 -62 66 -64 74 -64 330 l0 233 30 52 c17 29 48 64 69 78 34 23 137
48 180 44 9 -1 21 -1 27 0 7 1 13 101 17 319 11 498 41 617 196 773 84 83 184
135 325 165 l101 22 2285 1 2285 1 109 -25z"/>
<path d="M4065 7864 c-404 -14 -877 -43 -980 -60 -206 -34 -335 -94 -456 -214
-97 -96 -140 -171 -180 -320 l-23 -85 -4 -1235 c-3 -1288 -1 -1376 39 -1520
52 -189 177 -342 348 -426 126 -62 194 -78 536 -128 1227 -181 2166 -171 3435
35 337 55 557 224 644 494 45 142 46 169 46 1465 0 1333 0 1331 -56 1488 -87
242 -291 393 -604 445 -52 9 -180 21 -285 27 -104 5 -266 15 -360 21 -154 10
-1882 20 -2100 13z m312 -577 c114 -58 242 -210 331 -394 121 -249 234 -620
276 -914 20 -132 22 -335 4 -342 -26 -9 -138 36 -344 138 -364 181 -494 281
-676 525 -109 145 -178 325 -178 464 0 209 167 460 359 538 65 26 159 20 228
-15z m1526 -1331 c96 -19 166 -48 243 -102 106 -74 173 -164 214 -284 31 -90
39 -280 17 -367 -22 -83 -64 -166 -80 -156 -96 57 -420 302 -556 419 -152 131
-351 323 -351 339 0 34 134 113 236 139 113 29 175 31 277 12z m-1805 -206
c110 -12 357 -72 637 -155 173 -51 217 -68 204 -78 -2 -2 -40 -28 -84 -58
-303 -202 -746 -417 -1002 -486 -77 -21 -121 -27 -208 -27 -259 0 -375 95
-375 307 0 159 52 268 172 357 169 127 372 170 656 140z m1542 -515 c127 -105
304 -237 417 -310 51 -33 92 -65 93 -70 0 -12 -205 -258 -219 -263 -10 -3
-172 106 -306 206 -171 129 -324 260 -480 414 -117 115 -148 150 -140 161 6 8
57 70 114 137 l103 121 162 -158 c88 -88 204 -195 256 -238z m-654 -184 c192
-185 525 -456 737 -600 26 -17 47 -35 47 -40 0 -4 -19 -21 -42 -38 -181 -129
-450 -151 -639 -51 -225 118 -356 358 -329 600 12 105 66 248 93 248 5 0 65
-54 133 -119z"/>
<path d="M3011 3409 c-74 -14 -133 -50 -212 -127 -94 -90 -130 -161 -137 -268
-8 -125 25 -220 106 -307 99 -105 194 -148 332 -148 179 0 325 93 403 259 29
62 32 75 32 167 -1 87 -4 108 -28 158 -30 67 -137 184 -203 222 -82 48 -190
64 -293 44z"/>
<path d="M6712 3410 c-24 -5 -64 -19 -90 -32 -63 -31 -183 -151 -215 -214 -54
-107 -54 -251 0 -363 36 -75 125 -161 209 -202 66 -33 73 -34 184 -34 150 0
203 20 301 112 98 93 133 166 137 291 3 77 0 103 -17 151 -42 111 -161 231
-269 271 -62 24 -178 33 -240 20z"/>
</g>
</svg>
