<?xml version="1.0" encoding="UTF-8" standalone="no"?>
<svg width="17px" height="17px" viewBox="0 0 17 17" version="1.1" xmlns="http://www.w3.org/2000/svg" xmlns:xlink="http://www.w3.org/1999/xlink">
    <!-- Generator: Sketch 40.2 (33826) - http://www.bohemiancoding.com/sketch -->
    <title>Icon_TimeLeft</title>
    <desc>Created with Sketch.</desc>
    <defs></defs>
    <g id="Symbols" stroke="none" stroke-width="1" fill="none" fill-rule="evenodd" stroke-linejoin="round">
        <g id="Icon_TimeLeft" stroke="#6A6A6A">
            <g>
                <polyline id="Stroke-1495" stroke-linecap="round" points="10.625 8.87855831 8.14583333 8.87855831 8.14583333 4.97199265"></polyline>
                <path d="M16.6458333,13.850551 C16.6458333,15.4131772 15.3708333,16.6916896 13.8125,16.6916896 L3.1875,16.6916896 C1.62916667,16.6916896 0.354166667,15.4131772 0.354166667,13.850551 L0.354166667,3.19628099 C0.354166667,1.63365473 1.62916667,0.355142332 3.1875,0.355142332 L13.8125,0.355142332 C15.3708333,0.355142332 16.6458333,1.63365473 16.6458333,3.19628099 L16.6458333,13.850551 L16.6458333,13.850551 Z" id="Stroke-1496"></path>
                <path d="M14.5208333,8.52341598 C14.5208333,11.8574922 11.8249167,14.5608356 8.5,14.5608356 C5.17508333,14.5608356 2.47916667,11.8574922 2.47916667,8.52341598 C2.47916667,5.18933976 5.17508333,2.48599633 8.5,2.48599633 C11.8249167,2.48599633 14.5208333,5.18933976 14.5208333,8.52341598 L14.5208333,8.52341598 Z" id="Stroke-1497"></path>
            </g>
        </g>
    </g>
</svg>