<?xml version="1.0" encoding="UTF-8" standalone="no"?>
<svg width="255px" height="189px" viewBox="0 0 255 189" version="1.1" xmlns="http://www.w3.org/2000/svg" xmlns:xlink="http://www.w3.org/1999/xlink">
    <!-- Generator: Sketch 3.7.2 (28276) - http://www.bohemiancoding.com/sketch -->
    <title>introActivate</title>
    <desc>Created with Sketch.</desc>
    <defs>
        <polygon id="path-1" points="0 0.371237358 269.539535 0.371237358 269.539535 129.38255 0 129.38255"></polygon>
        <polygon id="path-3" points="0.380930233 167.087704 175.876221 167.087704 175.876221 0.234575933 0.380930233 0.234575933"></polygon>
        <polygon id="path-5" points="0.380930233 167.087704 175.876221 167.087704 175.876221 0.234575933 0.380930233 0.234575933"></polygon>
        <polygon id="path-7" points="0.380930233 167.087704 175.876221 167.087704 175.876221 0.234575933 0.380930233 0.234575933"></polygon>
        <polyline id="path-9" points="0.380930233 167.087704 175.876221 167.087704 175.876221 0.234575933 0.380930233 0.234575933"></polyline>
    </defs>
    <g id="Main" stroke="none" stroke-width="1" fill="none" fill-rule="evenodd">
        <g id="0IntroTutorial3" transform="translate(-53.000000, -209.000000)">
            <g id="introActivate" transform="translate(53.000000, 209.000000)">
                <g id="Group-33-+-Group-80">
                    <g id="Group-33">
                        <path d="M62.7962965,90.2322505 C62.7962965,96.6485306 57.5982733,101.850042 51.1862965,101.850042 C44.7743198,101.850042 39.5768198,96.6485306 39.5768198,90.2322505 C39.5768198,83.8159704 44.7743198,78.6144586 51.1862965,78.6144586 C57.5982733,78.6144586 62.7962965,83.8159704 62.7962965,90.2322505" id="Fill-1" fill="#666666"></path>
                        <path d="M57.4378953,90.2322505 C57.4378953,93.6870094 54.639,96.4877832 51.1865581,96.4877832 C47.7341163,96.4877832 44.9346977,93.6870094 44.9346977,90.2322505 C44.9346977,86.7774916 47.7341163,83.9767178 51.1865581,83.9767178 C54.639,83.9767178 57.4378953,86.7774916 57.4378953,90.2322505" id="Fill-3" fill="#666666"></path>
                        <path d="M169.056,90.2322505 C169.056,96.6485306 163.857977,101.850042 157.446,101.850042 C151.034023,101.850042 145.836,96.6485306 145.836,90.2322505 C145.836,83.8159704 151.034023,78.6144586 157.446,78.6144586 C163.857977,78.6144586 169.056,83.8159704 169.056,90.2322505" id="Fill-5" fill="#666666"></path>
                        <path d="M163.697651,90.2322505 C163.697651,93.6870094 160.898756,96.4877832 157.446314,96.4877832 C153.993349,96.4877832 151.194453,93.6870094 151.194453,90.2322505 C151.194453,86.7774916 153.993349,83.9767178 157.446314,83.9767178 C160.898756,83.9767178 163.697651,86.7774916 163.697651,90.2322505" id="Fill-7" fill="#666666"></path>
                        <path d="M201.589535,90.6214476 L0,90.6214476 L0,20.9152195 C0,13.332343 6.14302326,7.18572056 13.720814,7.18572056 L187.868721,7.18572056 C195.446512,7.18572056 201.589535,13.332343 201.589535,20.9152195 L201.589535,90.6214476 Z" id="Fill-9" fill="#EFD35E"></path>
                        <path d="M254.873773,90.6214476 L79.7724942,90.6214476 L79.7724942,20.9152195 C79.7724942,13.332343 85.1081337,7.18572056 91.6901686,7.18572056 L242.956099,7.18572056 C249.538134,7.18572056 254.873773,13.332343 254.873773,20.9152195 L254.873773,90.6214476 Z" id="Fill-11" fill="#FFE76D"></path>
                        <path d="M137.297512,90.6214476 C137.297512,97.0377277 132.099488,102.23924 125.687512,102.23924 C119.275535,102.23924 114.078035,97.0377277 114.078035,90.6214476 C114.078035,84.2051675 119.275535,79.0036556 125.687512,79.0036556 C132.099488,79.0036556 137.297512,84.2051675 137.297512,90.6214476" id="Fill-13" fill="#666666"></path>
                        <path d="M131.939163,90.6214476 C131.939163,94.0762065 129.140267,96.8769803 125.687826,96.8769803 C122.235384,96.8769803 119.435965,94.0762065 119.435965,90.6214476 C119.435965,87.1666886 122.235384,84.3659148 125.687826,84.3659148 C129.140267,84.3659148 131.939163,87.1666886 131.939163,90.6214476" id="Fill-15" fill="#BFB4A5"></path>
                        <path d="M243.557267,90.6214476 C243.557267,97.0377277 238.359244,102.23924 231.947267,102.23924 C225.535291,102.23924 220.337791,97.0377277 220.337791,90.6214476 C220.337791,84.2051675 225.535291,79.0036556 231.947267,79.0036556 C238.359244,79.0036556 243.557267,84.2051675 243.557267,90.6214476" id="Fill-17" fill="#666666"></path>
                        <path d="M238.198866,90.6214476 C238.198866,94.0762065 235.399971,96.8769803 231.947529,96.8769803 C228.495087,96.8769803 225.696192,94.0762065 225.696192,90.6214476 C225.696192,87.1666886 228.495087,84.3659148 231.947529,84.3659148 C235.399971,84.3659148 238.198866,87.1666886 238.198866,90.6214476" id="Fill-19" fill="#BFB4A5"></path>
                        <mask id="mask-2" fill="white">
                            <use xlink:href="#path-1"></use>
                        </mask>
                        <g id="Clip-22"></g>
                        <polygon id="Fill-21" fill="#272C44" mask="url(#mask-2)" points="165.24 65.6540336 142.690814 65.6540336 142.690814 19.8085761 165.24 19.8085761"></polygon>
                        <polygon id="Fill-23" fill="#272C44" mask="url(#mask-2)" points="137.413256 65.6540336 114.86407 65.6540336 114.86407 19.8085761 137.413256 19.8085761"></polygon>
                        <polygon id="Fill-24" fill="#272C44" mask="url(#mask-2)" points="109.586512 84.1368368 87.0373256 84.1368368 87.0373256 19.8085761 109.586512 19.8085761"></polygon>
                        <polygon id="Fill-25" fill="#272C44" mask="url(#mask-2)" points="220.892965 84.1368368 198.343779 84.1368368 198.343779 19.8085761 220.892965 19.8085761"></polygon>
                        <polygon id="Fill-26" fill="#272C44" mask="url(#mask-2)" points="193.066221 65.6540336 170.517035 65.6540336 170.517035 19.8085761 193.066221 19.8085761"></polygon>
                        <polygon id="Fill-27" fill="#272C44" mask="url(#mask-2)" points="248.719709 65.6540336 226.170523 65.6540336 226.170523 19.8085761 248.719709 19.8085761"></polygon>
                        <polygon id="Fill-28" fill="#272C44" mask="url(#mask-2)" points="73.2134302 65.6540336 6.76412791 65.6540336 6.76412791 19.8085761 73.2134302 19.8085761"></polygon>
                        <path d="M17.2669709,78.8818123 C17.2669709,81.7841658 14.9159826,84.1367321 12.0155756,84.1367321 C9.1151686,84.1367321 6.76418023,81.7841658 6.76418023,78.8818123 C6.76418023,75.9794587 9.1151686,73.6268925 12.0155756,73.6268925 C14.9159826,73.6268925 17.2669709,75.9794587 17.2669709,78.8818123" id="Fill-29" fill="#FFFFFF" mask="url(#mask-2)"></path>
                        <path d="M73.2134826,78.8818123 C73.2134826,81.7841658 70.8619709,84.1367321 67.9620872,84.1367321 C65.0616802,84.1367321 62.7106919,81.7841658 62.7106919,78.8818123 C62.7106919,75.9794587 65.0616802,73.6268925 67.9620872,73.6268925 C70.8619709,73.6268925 73.2134826,75.9794587 73.2134826,78.8818123" id="Fill-30" fill="#FFFFFF" mask="url(#mask-2)"></path>
                        <path d="M156.76739,7.62277532 C155.458727,3.4203056 151.56832,0.371342079 146.970471,0.371342079 L114.624366,0.371342079 C110.026517,0.371342079 106.13611,3.4203056 104.827448,7.62277532 L156.76739,7.62277532 Z" id="Fill-31" fill="#FFE76D" mask="url(#mask-2)"></path>
                        <path d="M177.304657,7.62277532 C175.995994,3.4203056 172.105064,0.371342079 167.507738,0.371342079 L135.161634,0.371342079 C130.563785,0.371342079 126.672855,3.4203056 125.364715,7.62277532 L177.304657,7.62277532 Z" id="Fill-32" fill="#FFE76D" mask="url(#mask-2)"></path>
                    </g>
                    <g id="Group-80" transform="translate(93.662791, 20.944280)">
                        <g id="Group-36">
                            <mask id="mask-4" fill="white">
                                <use xlink:href="#path-3"></use>
                            </mask>
                            <g id="Clip-35"></g>
                            <path d="M98.7014826,162.654952 L98.5157267,192.180103 C98.4000872,194.896052 98.9222965,197.60153 100.040494,200.078714 L123.836076,255.570583 L136.039448,252.757766 L117.868866,192.69219 L119.677238,163.016764 L98.7014826,162.654952 Z" id="Fill-34" fill="#F7C985" mask="url(#mask-4)"></path>
                        </g>
                        <path d="M68.2195291,135.720241 C66.4556337,135.720241 64.6870291,135.409742 62.99325,134.782985 L39.9516802,127.396461 C36.242843,126.206826 34.1995291,122.23422 35.387843,118.52237 C36.5756337,114.811567 40.5460988,112.767405 44.2554593,113.954946 L67.4670872,121.396449 C67.601564,121.439908 67.7349942,121.486509 67.8663314,121.53887 C68.1441802,121.644638 68.4162733,121.62893 68.6779012,121.486509 C68.9395291,121.345659 69.1033081,121.126267 69.1645291,120.835665 C69.2173779,120.584334 69.2848779,120.336144 69.364936,120.092667 L80.4302267,86.4430638 C81.6467965,82.7395915 85.6319128,80.7263226 89.3329012,81.9442325 C93.032843,83.162666 95.0447616,87.1520276 93.8276686,90.8534055 L82.8644128,124.194604 C81.8587151,128.342095 79.1545291,131.862305 75.3897035,133.89966 C73.1580174,135.108668 70.6934826,135.720241 68.2195291,135.720241" id="Fill-37" fill="#EDB072"></path>
                        <path d="M79.5958953,23.4340309 C79.5958953,23.4340309 94.9042674,22.6030666 103.577233,41.619949 C113.382523,63.1192521 115.017174,86.0422426 115.15636,85.933856 C115.15636,85.933856 109.008628,90.6384648 98.039093,96.4374122 C87.0329302,102.256257 65.972407,104.390479 65.972407,104.390479 C65.972407,104.390479 69.0826395,84.3902626 64.2032791,67.4322029 C62.5037442,61.5248688 58.4035116,45.8737322 58.4035116,45.8737322 C58.4035116,45.8737322 58.3171744,27.1741557 79.5958953,23.4340309" id="Fill-39" fill="#544666"></path>
                        <g id="Group-43">
                            <mask id="mask-6" fill="white">
                                <use xlink:href="#path-5"></use>
                            </mask>
                            <g id="Clip-42"></g>
                            <polygon id="Fill-41" fill="#F7C985" mask="url(#mask-6)" points="81.3423663 151.526837 60.1860872 192.782355 37.4019593 247.609244 49.3363779 253.037477 75.9177733 200.924968 99.7866105 160.21243"></polygon>
                        </g>
                        <path d="M94.5848198,42.2841968 C94.5848198,42.2841968 83.94075,22.7777419 66.4394128,30.4679578 C45.4144709,39.7064796 49.9688895,51.3530699 54.711157,64.2269951 C58.0385407,73.2597393 67.5487151,92.8206493 85.7015058,84.2455376 C101.827203,76.6275795 102.447785,53.876332 94.5848198,42.2841968" id="Fill-44" fill="#F7C985"></path>
                        <path d="M76.6535756,55.1738825 C77.0140988,58.6422552 81.3414244,59.5941728 83.1110756,56.4698098 C83.347064,56.0530187 83.4632267,55.5686822 83.4407267,55.0901054 C83.2732849,51.5023503 78.9831105,50.3938743 77.0952035,53.3250262 C76.740436,53.8753372 76.5860756,54.5225154 76.6535756,55.1738825" id="Fill-46" fill="#272C44"></path>
                        <path d="M58.0312674,63.3284855 C59.0013837,64.909255 61.0687674,65.4030164 62.6484767,64.432249 C64.228186,63.460958 64.7216163,61.3927104 63.7515,59.8119409 C62.7808605,58.2311714 60.714,57.73741 59.1342907,58.7081774 C57.5545814,59.6789447 57.0606279,61.747716 58.0312674,63.3284855" id="Fill-48" fill="#272C44"></path>
                        <path d="M95.9832209,46.1703032 C88.5692093,43.9130335 82.6166512,41.3358398 77.3286279,29.7421338 C74.481593,39.9189593 66.9896163,51.9818172 47.3387442,54.542779 C46.8934535,38.4041643 55.5130465,28.0828233 69.6226395,24.5924591 C87.0198488,20.2889332 95.5546744,29.7761683 97.7335116,34.215832 C105.639907,50.3240775 99.5183372,63.2100456 99.5183372,63.2100456 C99.5183372,63.2100456 100.44764,53.6505527 95.9832209,46.1703032" id="Fill-50" fill="#544666"></path>
                        <path d="M92.9193488,46.8986929 C92.9193488,46.8986929 98.4177209,41.063093 101.447372,46.4798073 C104.770047,52.4201286 97.9446977,57.2451671 97.3340581,56.4320054 L92.9193488,46.8986929 Z" id="Fill-52" fill="#F7C985"></path>
                        <path d="M70.9210988,78.4904684 C71.1513314,78.4716186 76.6272035,77.994089 83.0119709,74.5827894 L82.1025523,72.8779251 C76.067843,76.1007261 70.8174942,76.5588822 70.7646453,76.5625475 L70.9210988,78.4904684 Z" id="Fill-54" fill="#272C44"></path>
                        <polygon id="Fill-56" fill="#F7C985" points="86.5862791 69.6488931 87.9085465 91.132488 104.539709 87.0598728 98.7917442 55.3544222"></polygon>
                        <g id="Group-60">
                            <mask id="mask-8" fill="white">
                                <use xlink:href="#path-7"></use>
                            </mask>
                            <g id="Clip-59"></g>
                            <path d="M119.134622,174.959297 C119.134622,174.959297 120.227703,157.167131 118.773052,149.264855 C116.241541,135.513364 111.901657,130.808755 111.901657,130.808755 L112.263227,82.6772299 L87.4002035,90.2768618 L79.1024128,107.771095 C76.9732849,112.8438 77.2448547,118.606618 79.8417733,123.456266 L87.1286337,133.703779 L70.3122384,173.149711 L119.134622,174.959297 Z" id="Fill-58" fill="#E0603C" mask="url(#mask-8)"></path>
                        </g>
                        <path d="M50.7404826,126.361552 L64.8563547,126.361552 C65.9374012,126.361552 66.7175756,125.32481 66.4187965,124.284927 L57.3905407,94.0754211 C57.1901337,93.3785002 56.5528081,92.8983526 55.8280988,92.8983526 L41.7122267,92.8983526 C40.630657,92.8983526 39.8510058,93.9350944 40.1497849,94.9744543 L49.1780407,125.184483 C49.3784477,125.881404 50.0157733,126.361552 50.7404826,126.361552" id="Fill-61" fill="#BFB4A5"></path>
                        <path d="M47.0352035,126.361552 L61.1510756,126.361552 C62.2321221,126.361552 63.0122965,125.32481 62.7135174,124.284927 L53.6847384,94.0754211 C53.4843314,93.3785002 52.8475291,92.8983526 52.1222965,92.8983526 L38.0069477,92.8983526 C36.9253779,92.8983526 36.1452035,93.9350944 36.4445058,94.9744543 L45.4727616,125.184483 C45.6731686,125.881404 46.3104942,126.361552 47.0352035,126.361552" id="Fill-63" fill="#6A6C75"></path>
                        <path d="M45.2420058,106.871905 C45.7772965,108.799302 47.7719477,110.361745 49.6980523,110.361745 C51.624157,110.361745 52.7517733,108.799302 52.2164826,106.871905 C51.6817151,104.944507 49.6865407,103.382064 47.760436,103.382064 C45.8348547,103.382064 44.7072384,104.944507 45.2420058,106.871905" id="Fill-65" fill="#BFB4A5"></path>
                        <path d="M45.8464709,96.5407199 C45.8464709,97.443942 46.5785058,98.1764681 47.4811221,98.1764681 L50.7504244,98.1764681 C51.653564,98.1764681 52.3850756,97.443942 52.3850756,96.5407199 C52.3850756,95.6374978 51.653564,94.9049717 50.7504244,94.9049717 L47.4811221,94.9049717 C46.5785058,94.9049717 45.8464709,95.6374978 45.8464709,96.5407199" id="Fill-67" fill="#BFB4A5"></path>
                        <path d="M49.6880058,96.4861601 C49.6880058,96.8924791 50.0171337,97.2223515 50.4237035,97.2223515 C50.82975,97.2223515 51.1594012,96.8924791 51.1594012,96.4861601 C51.1594012,96.079841 50.82975,95.7499686 50.4237035,95.7499686 C50.0171337,95.7499686 49.6880058,96.079841 49.6880058,96.4861601" id="Fill-69" fill="#272C44"></path>
                        <path d="M46.7319244,96.5270538 C46.7319244,97.0915021 47.18925,97.5496582 47.753843,97.5496582 C48.3179128,97.5496582 48.7752384,97.0915021 48.7752384,96.5270538 C48.7752384,95.9626054 48.3179128,95.5044493 47.753843,95.5044493 C47.18925,95.5044493 46.7319244,95.9626054 46.7319244,96.5270538" id="Fill-71" fill="#FFFFFF"></path>
                        <g id="Group-75">
                            <mask id="mask-10" fill="white">
                                <use xlink:href="#path-9"></use>
                            </mask>
                            <g id="Clip-74"></g>
                            <path d="M121.760738,167.088123 L98.705564,167.088123 C95.8119593,167.088123 93.4656802,164.740792 93.4656802,161.844722 L93.4656802,149.260875 C93.4656802,146.365329 95.8119593,144.017475 98.705564,144.017475 L121.760738,144.017475 C124.654343,144.017475 127.000622,146.365329 127.000622,149.260875 L127.000622,161.844722 C127.000622,164.740792 124.654343,167.088123 121.760738,167.088123" id="Fill-73" fill="#707070" mask="url(#mask-10)"></path>
                        </g>
                        <path d="M97.42725,149.610331 L94.189343,149.281505 L100.148703,88.2907158 C100.178529,85.0244554 101.936145,78.858983 108.42661,78.3395649 C114.984052,77.8128162 117.579924,83.4552052 118.032017,86.5099284 L126.712308,148.669932 L123.491145,149.136466 L114.811901,86.9816983 C114.720331,86.3973529 113.774285,81.1947938 108.686145,81.5859282 C103.463006,82.0037666 103.402831,88.1168783 103.402831,88.3765873 L103.394459,88.5409999 L97.42725,149.610331 Z" id="Fill-76" fill="#707070"></path>
                        <path d="M102.783663,133.781063 C102.141628,133.781063 101.496453,133.735509 100.852326,133.643354 L62.8048256,128.204125 C58.9494767,127.652767 56.270407,124.079149 56.8213953,120.220689 C57.3723837,116.362753 60.9425581,113.680314 64.8,114.232719 L102.317965,119.59655 L102.317965,88.6482346 C102.317965,84.7505042 105.475291,81.5910596 109.369884,81.5910596 C113.265,81.5910596 116.422326,84.7505042 116.422326,88.6482346 L116.422326,120.129581 C116.422326,124.089621 114.70814,127.848072 111.719302,130.442545 C109.221802,132.609754 106.04564,133.781063 102.783663,133.781063" id="Fill-78" fill="#F7C985"></path>
                    </g>
                </g>
            </g>
        </g>
    </g>
</svg>