<?xml version="1.0" encoding="UTF-8" standalone="no"?>
<svg width="203px" height="222px" viewBox="0 0 203 222" version="1.1" xmlns="http://www.w3.org/2000/svg" xmlns:xlink="http://www.w3.org/1999/xlink">
    <!-- Generator: Sketch 3.8.3 (29802) - http://www.bohemiancoding.com/sketch -->
    <title>introSuggest</title>
    <desc>Created with Sketch.</desc>
    <defs></defs>
    <g id="Main" stroke="none" stroke-width="1" fill="none" fill-rule="evenodd">
        <g id="New0IntroTutorial2" transform="translate(-86.000000, -183.000000)">
            <g id="introSuggest" transform="translate(86.000000, 183.000000)">
                <polyline id="Fill-1" fill="#595959" points="121.13883 194.517949 87.7424885 182.418433 88.5963282 180.0642 121.992153 192.164749 121.13883 194.517949"></polyline>
                <polyline id="Fill-2" fill="#595959" points="87.4155191 195.741014 86.418598 193.445121 118.144967 179.675958 119.141888 181.972367 87.4155191 195.741014"></polyline>
                <path d="M86.6236641,177.335149 L81.599285,216.17534 C81.4768651,216.992609 82.0264631,217.758767 82.8394962,217.905391 L82.8689389,217.910553 C83.6644097,218.054595 84.4340534,217.554321 84.6262061,216.769577 L93.4838244,178.213856 L86.6236641,177.335149" id="Fill-3" fill="#595959"></path>
                <path d="M128.886405,216.09067 C129.053763,216.899679 128.548071,217.694749 127.743819,217.886805 C126.92872,218.080926 126.132216,217.624019 125.897191,216.851149 L113.425346,177.068749 L121.252468,175.817288 L128.886405,216.09067 Z" id="Fill-4" fill="#595959"></path>
                <path d="M141.082934,180.793186 L75.188514,180.793186 L80.2753944,132.725023 C80.6793282,128.908172 83.9190636,126.022688 87.7595344,126.060377 L129.575985,126.454814 C133.411807,126.491986 136.592656,129.434777 136.926858,133.254209 L141.082934,180.793186" id="Fill-5" fill="#BFB4A5"></path>
                <path d="M142.68059,177.368191 C142.68059,179.259837 141.145952,180.793186 139.253868,180.793186 L71.2468015,180.793186 C69.3547176,180.793186 67.8205954,179.259837 67.8205954,177.368191 C67.8205954,175.476544 69.3547176,173.943195 71.2468015,173.943195 L139.253868,173.943195 C141.145952,173.943195 142.68059,175.476544 142.68059,177.368191" id="Fill-6" fill="#BFB4A5"></path>
                <path d="M79.3125649,108.907521 C79.9014198,107.6256 81.1943181,106.797488 82.6049873,106.797488 L100.848127,106.797488 C103.980939,106.797488 106.520247,104.258944 106.520247,101.127712 C106.520247,97.9964791 103.980939,95.4579349 100.848127,95.4579349 L82.6049873,95.4579349 C76.7753232,95.4579349 71.435855,98.8798326 69.0029542,104.174791 L67.6155293,107.193991 L77.8719364,112.042367 L79.3125649,108.907521" id="Fill-7" fill="#FFE76D"></path>
                <path d="M136.916527,108.907521 C136.327155,107.6256 135.034774,106.797488 133.623588,106.797488 L115.380964,106.797488 C112.248153,106.797488 109.708328,104.258944 109.708328,101.127712 C109.708328,97.9964791 112.248153,95.4579349 115.380964,95.4579349 L133.623588,95.4579349 C139.453768,95.4579349 144.79272,98.8798326 147.226137,104.174791 L148.613046,107.193991 L138.356639,112.042367 L136.916527,108.907521" id="Fill-8" fill="#FFE76D"></path>
                <path d="M134.20831,153.4464 L82.7769949,153.4464 L82.7769949,102.797358 C82.7769949,93.8905116 90.000799,86.6703488 98.9121374,86.6703488 L118.073168,86.6703488 C126.98399,86.6703488 134.20831,93.8905116 134.20831,102.797358 L134.20831,153.4464" id="Fill-9" fill="#FFE76D"></path>
                <path d="M145.637262,101.505628 C140.847392,91.6782558 123.514394,85.4416047 108.072448,85.1896605 C93.451799,84.9511395 77.8187328,89.7256884 70.5076336,101.568614 L145.637262,101.505628" id="Fill-10" fill="#FFE76D"></path>
                <path d="M86.0435903,79.117186 C86.0435903,79.117186 80.0620636,78.2379628 80.9417303,84.0404233 C81.8213969,89.8434 86.923257,90.194986 86.923257,90.194986 L86.0435903,79.117186" id="Fill-11" fill="#F7C985"></path>
                <path d="M128.794461,89.3157628 L129.14674,78.2379628 C129.14674,78.2379628 133.896837,77.5342744 133.896837,81.9303907 C133.896837,86.678093 131.257837,88.9641767 128.794461,89.3157628" id="Fill-12" fill="#F7C985"></path>
                <path d="M107.447435,54.9661674 C99.0815623,54.5257814 84.1112163,58.4866744 85.1014224,77.6845116 C86.2858473,100.652219 90.1289008,112.618019 109.40202,112.176084 C128.67514,111.733633 129.508835,93.6256605 129.932397,81.6639907 C130.783137,57.6064186 115.813308,55.4060372 107.447435,54.9661674" id="Fill-13" fill="#F7C985"></path>
                <path d="M97.9405267,85.9160651 C97.9405267,87.6079116 96.444112,88.9786326 94.598,88.9786326 C92.751888,88.9786326 91.2549567,87.6079116 91.2549567,85.9160651 C91.2549567,84.2247349 92.751888,82.8534977 94.598,82.8534977 C96.444112,82.8534977 97.9405267,84.2247349 97.9405267,85.9160651" id="Fill-14" fill="#272C44"></path>
                <path d="M124.69727,86.3853628 C124.69727,88.076693 123.200855,89.4479302 121.354743,89.4479302 C119.508631,89.4479302 118.012216,88.076693 118.012216,86.3853628 C118.012216,84.6935163 119.508631,83.3222791 121.354743,83.3222791 C123.200855,83.3222791 124.69727,84.6935163 124.69727,86.3853628" id="Fill-15" fill="#272C44"></path>
                <path d="M107.648369,103.334805 C103.369873,103.334805 100.402354,102.700298 100.210718,102.657963 L100.519608,101.25007 C100.591407,101.265558 107.689176,102.776707 115.697087,101.072986 L115.997196,102.48346 C112.969242,103.12726 110.0947,103.334805 107.648369,103.334805" id="Fill-16" fill="#272C44"></path>
                <path d="M85.2228092,78.9999907 C85.2228092,78.9999907 93.0809237,67.0424512 92.7291603,57.7814372 C87.6856692,60.2430558 81.7041425,60.7123535 85.2228092,78.9999907" id="Fill-17" fill="#666666"></path>
                <path d="M122.871819,55.5542093 C122.871819,55.5542093 118.297346,62.822386 129.909153,78.179107 C129.909153,78.179107 131.509392,73.6167488 129.498504,65.5772512 C127.563031,57.840293 122.871819,55.5542093 122.871819,55.5542093" id="Fill-18" fill="#666666"></path>
                <path d="M127.73917,61.1811349 C127.73917,61.1811349 123.692601,66.6320093 105.923644,67.8633349 C96.2690051,68.5319163 80.5899669,64.5219767 80.9417303,57.840293 C81.2490712,52.0027256 89.386117,48.8720093 89.386117,48.8720093 L87.5684148,56.0229907 C87.5684148,56.0229907 95.4854148,51.0997535 105.513511,51.3341442 C117.853122,51.6227442 123.164697,53.4441767 127.73917,61.1811349" id="Fill-19" fill="#666666"></path>
                <path d="M116.37117,140.815633 L100.614135,140.815633 C99.2215445,140.815633 98.0929059,139.687563 98.0929059,138.295674 L98.0929059,108.070633 C98.0929059,106.678744 99.2215445,105.550674 100.614135,105.550674 L116.37117,105.550674 C117.763761,105.550674 118.892399,106.678744 118.892399,108.070633 L118.892399,138.295674 C118.892399,139.687563 117.763761,140.815633 116.37117,140.815633" id="Fill-20" fill="#6A6C75"></path>
                <path d="M106.475824,109.469749 C106.475824,110.333484 105.77488,111.034074 104.910193,111.034074 L101.779448,111.034074 C100.914761,111.034074 100.213817,110.333484 100.213817,109.469749 C100.213817,108.605498 100.914761,107.904907 101.779448,107.904907 L104.910193,107.904907 C105.77488,107.904907 106.475824,108.605498 106.475824,109.469749" id="Fill-21" fill="#BFB4A5"></path>
                <path d="M102.797031,109.417605 C102.797031,109.806363 102.481425,110.121293 102.092471,110.121293 C101.703517,110.121293 101.387911,109.806363 101.387911,109.417605 C101.387911,109.02833 101.703517,108.7134 102.092471,108.7134 C102.481425,108.7134 102.797031,109.02833 102.797031,109.417605" id="Fill-22" fill="#272C44"></path>
                <path d="M105.627667,109.456326 C105.627667,109.996353 105.189641,110.434674 104.649341,110.434674 C104.109041,110.434674 103.671015,109.996353 103.671015,109.456326 C103.671015,108.916298 104.109041,108.478493 104.649341,108.478493 C105.189641,108.478493 105.627667,108.916298 105.627667,109.456326" id="Fill-23" fill="#FFFFFF"></path>
                <path d="M111.801346,119.573847 C111.801346,121.399926 110.319911,122.88113 108.492394,122.88113 C106.665394,122.88113 105.183443,121.399926 105.183443,119.573847 C105.183443,117.747251 106.665394,116.266047 108.492394,116.266047 C110.319911,116.266047 111.801346,117.747251 111.801346,119.573847" id="Fill-24" fill="#BFB4A5"></path>
                <path d="M100.091397,129.476595 L69.8841705,129.427033 L77.8719364,112.042367 L67.6155293,107.193991 L59.5745598,124.693786 C57.9484936,128.232879 58.2331069,132.302707 60.3359389,135.580563 C62.438771,138.858419 66.0199389,140.815633 69.9156794,140.815633 L100.091397,140.815633 C103.224209,140.815633 105.764033,138.277088 105.764033,135.145856 C105.764033,132.014623 103.224209,129.476595 100.091397,129.476595" id="Fill-25" fill="#F7C985"></path>
                <path d="M116.137178,129.476595 L146.344921,129.427033 L138.356639,112.042367 L148.613046,107.193991 L156.654532,124.693786 C158.280598,128.232879 157.995985,132.302707 155.893153,135.580563 C153.790321,138.858419 150.208636,140.815633 146.312896,140.815633 L116.137178,140.815633 C113.004366,140.815633 110.465059,138.277088 110.465059,135.145856 C110.465059,132.014623 113.004366,129.476595 116.137178,129.476595" id="Fill-26" fill="#F7C985"></path>
                <path d="M125.801631,173.857493 L91.2012366,173.857493 C86.5456667,173.857493 82.771313,170.077814 82.771313,165.415814 L82.771313,153.194456 L134.231555,153.194456 L134.231555,165.415814 C134.231555,170.077814 130.457201,173.857493 125.801631,173.857493" id="Fill-27" fill="#261E3D"></path>
                <path d="M78.4876514,213.439577 L63.5586285,213.439577 L63.5586285,166.250121 C63.5586285,162.171 66.8675802,158.864233 70.9487583,158.864233 L71.0980382,158.864233 C75.1792163,158.864233 78.4876514,162.171 78.4876514,166.250121 L78.4876514,213.439577" id="Fill-28" fill="#261E3D"></path>
                <path d="M78.4876514,211.59233 L62.6045802,211.403372 C62.6045802,211.403372 51.6374148,211.403372 51.8264682,221.60866 L78.4876514,221.60866 L78.4876514,211.59233" id="Fill-29" fill="#595959"></path>
                <path d="M100.765997,158.864233 L100.765997,173.78573 L70.9487583,173.78573 C66.8675802,173.78573 63.5586285,170.478447 63.5586285,166.399326 L63.5586285,166.250121 C63.5586285,162.171 66.8675802,158.864233 70.9487583,158.864233 L100.765997,158.864233" id="Fill-30" fill="#261E3D"></path>
                <path d="M114.016784,213.439577 L99.0877608,213.439577 L99.0877608,166.250121 C99.0877608,162.171 102.396712,158.864233 106.477891,158.864233 L106.62717,158.864233 C110.708349,158.864233 114.016784,162.171 114.016784,166.250121 L114.016784,213.439577" id="Fill-31" fill="#261E3D"></path>
                <path d="M114.016784,211.59233 L98.1337125,211.403372 C98.1337125,211.403372 87.1665471,211.403372 87.3556005,221.60866 L114.016784,221.60866 L114.016784,211.59233" id="Fill-32" fill="#595959"></path>
                <polyline id="Fill-33" fill="#BFB4A5" points="170.188382 221.60866 183.340509 221.60866 183.340509 146.192679 180.209763 146.192679 180.209763 218.479493 172.647626 218.479493 154.909145 145.821991 151.867761 146.563884 170.188382 221.60866"></polyline>
                <polyline id="Fill-34" fill="#BFB4A5" points="20.2628092 221.60866 33.4139033 221.60866 51.7350407 146.563884 48.6936565 145.821991 30.9556921 218.479493 23.3935547 218.479493 23.3935547 146.192679 20.2628092 146.192679 20.2628092 221.60866"></polyline>
                <polygon id="Fill-35" fill="#595959" points="0.342465649 140.351498 202.575921 140.351498 202.575921 147.444656 0.342465649 147.444656"></polygon>
                <path d="M62.5942494,57.7654326 C71.1078524,57.7654326 78.010369,50.8669116 78.010369,42.3570837 L78.010369,15.7909116 C78.010369,7.2816 71.1078524,0.38307907 62.5942494,0.38307907 L36.0146794,0.38307907 C27.5005598,0.38307907 20.5985598,7.2816 20.5985598,15.7909116 L20.5985598,42.3570837 C20.5985598,50.8669116 27.5005598,57.7654326 36.0146794,57.7654326 L62.5942494,57.7654326 Z" id="Fill-36" fill="#BFB4A5"></path>
                <polyline id="Fill-37" fill="#BFB4A5" points="57.4551985 53.514907 65.2518448 69.1003395 36.1918524 53.514907 57.4551985 53.514907"></polyline>
                <path d="M27.4401247,15.0619256 C27.4401247,19.2861209 33.6716565,25.6327395 33.6716565,25.6327395 C33.6716565,25.6327395 39.9037048,19.2861209 39.9037048,15.0619256 C39.9037048,11.6219581 37.1133588,8.83353488 33.6716565,8.83353488 C30.2299542,8.83353488 27.4401247,11.6219581 27.4401247,15.0619256 L27.4401247,15.0619256 Z M31.0930916,14.9906791 C31.0930916,13.5672977 32.2475573,12.413414 33.6716565,12.413414 C35.0957557,12.413414 36.2502214,13.5672977 36.2502214,14.9906791 C36.2502214,16.4140605 35.0957557,17.5679442 33.6716565,17.5679442 C32.2475573,17.5679442 31.0930916,16.4140605 31.0930916,14.9906791 L31.0930916,14.9906791 Z" id="Fill-38" fill="#595959"></path>
                <path d="M57.3270967,35.3026465 C57.3270967,39.5268419 63.5586285,45.8734605 63.5586285,45.8734605 C63.5586285,45.8734605 69.7906768,39.5268419 69.7906768,35.3026465 C69.7906768,31.8626791 67.0003308,29.0742558 63.5586285,29.0742558 C60.1169262,29.0742558 57.3270967,31.8626791 57.3270967,35.3026465 L57.3270967,35.3026465 Z M60.9800636,35.2308837 C60.9800636,33.8075023 62.1345293,32.6536186 63.5586285,32.6536186 C64.9827277,32.6536186 66.1377099,33.8075023 66.1377099,35.2308837 C66.1377099,36.6542651 64.9827277,37.8081488 63.5586285,37.8081488 C62.1345293,37.8081488 60.9800636,36.6542651 60.9800636,35.2308837 L60.9800636,35.2308837 Z" id="Fill-39" fill="#595959"></path>
                <path d="M35.905173,26.6265767 C36.1055903,26.710214 36.3555954,26.7804279 36.6479567,26.8392837" id="Stroke-40" stroke="#BFB4A5" stroke-width="2.7"></path>
                <path d="M37.6577913,26.9884884 C42.944056,27.5600093 55.1607303,26.5140279 50.7221069,32.7832047 C39.7368626,48.2973907 53.3667888,46.1341814 59.2610204,45.7139302" id="Stroke-41" stroke="#595959" stroke-width="2.7" stroke-dasharray="2.669399976730347,1.779299974441528"></path>
                <path d="M59.7718779,45.6814047 C60.0549415,45.6659163 60.3142443,45.6566233 60.5446209,45.6566233" id="Stroke-42" stroke="#BFB4A5" stroke-width="2.7"></path>
            </g>
        </g>
    </g>
</svg>