<?xml version="1.0" encoding="UTF-8" standalone="no"?>
<svg width="250px" height="66px" viewBox="0 0 250 66" version="1.1" xmlns="http://www.w3.org/2000/svg" xmlns:xlink="http://www.w3.org/1999/xlink">
    <!-- Generator: Sketch 41.2 (35397) - http://www.bohemiancoding.com/sketch -->
    <title>logo</title>
    <desc>Created with Sketch.</desc>
    <defs>
        <polygon id="path-1" points="0 0.148846154 249.88378 0.148846154 249.88378 66 0 66"></polygon>
    </defs>
    <g id="Page-1" stroke="none" stroke-width="1" fill="none" fill-rule="evenodd">
        <g id="logo">
            <g id="Main">
                <g id="00IntroSplash">
                    <g id="logo">
                        <g id="Group-3">
                            <g id="Fill-1-Clipped">
                                <mask id="mask-2" fill="white">
                                    <use xlink:href="#path-1"></use>
                                </mask>
                                <g id="path-1"></g>
                                <path d="M56.9015481,34.6015385 C56.9015481,39.5268462 54.435975,42.2766923 49.504598,42.8513077 C43.504829,43.8364615 37.6282116,44.37 31.8749769,44.4519231 C26.1217421,44.37 20.2453558,43.8364615 14.2455869,42.8513077 C9.3142098,42.2766923 6.84863678,39.5268462 6.84863678,34.6015385 L6.84863678,11.8223077 C6.84863678,6.897 9.43759242,4.22907692 14.6155037,3.81876923 C20.4507625,3.40823077 26.2039972,3.24415385 31.8749769,3.32630769 C37.5461876,3.24415385 43.2991913,3.40823077 49.1346811,3.81876923 C54.3125924,4.22907692 56.9015481,6.897 56.9015481,11.8223077 L56.9015481,34.6015385 Z M53.3262246,55.0412308 C52.5043669,55.8623077 51.4771026,56.2726154 50.2442006,56.2726154 C49.0935536,56.2726154 48.1074168,55.8623077 47.2853281,55.0412308 C46.3814464,54.2203846 45.9292745,53.1943846 45.9292745,51.963 C45.9292745,50.8137692 46.3814464,49.8288462 47.2853281,49.008 C48.1074168,48.105 49.0935536,47.6533846 50.2442006,47.6533846 C51.4771026,47.6533846 52.5043669,48.105 53.3262246,49.008 C54.2303373,49.8288462 54.6825092,50.8137692 54.6825092,51.963 C54.6825092,53.1943846 54.2303373,54.2203846 53.3262246,55.0412308 L53.3262246,55.0412308 Z M16.5880083,55.0412308 C15.7661506,55.8623077 14.7797828,56.2726154 13.6291359,56.2726154 C12.3964649,56.2726154 11.3689695,55.8623077 10.5471118,55.0412308 C9.64299908,54.2203846 9.19105823,53.1943846 9.19105823,51.963 C9.19105823,50.8137692 9.64299908,49.8288462 10.5471118,49.008 C11.3689695,48.105 12.3964649,47.6533846 13.6291359,47.6533846 C14.7797828,47.6533846 15.7661506,48.105 16.5880083,49.008 C17.4921211,49.8288462 17.9440619,50.8137692 17.9440619,51.963 C17.9440619,53.1943846 17.4921211,54.2203846 16.5880083,55.0412308 L16.5880083,55.0412308 Z M63.3821396,13.6001538 C62.9422135,13.1607692 62.4198013,12.9408462 61.814903,12.9408462 L61.0803835,12.9408462 L60.9576941,7.29046154 C60.793415,2.52946154 58.2867144,0.148846154 53.4375924,0.148846154 L10.6582486,0.148846154 C5.80912662,0.148846154 3.3435536,2.52946154 3.26129852,7.29046154 L3.13860906,12.9408462 L2.22710259,12.9408462 C1.62220425,12.9408462 1.09979205,13.1607692 0.659865989,13.6001538 C0.219939926,14.0395385 -2.31053605e-05,14.5613077 -2.31053605e-05,15.1654615 L-2.31053605e-05,18.7493077 C-2.31053605e-05,19.3534615 0.219939926,19.8752308 0.659865989,20.3146154 C1.09979205,20.754 1.62220425,20.9736923 2.22710259,20.9736923 L2.96439464,20.9736923 L2.27516174,52.7259231 C2.12590111,57.3426923 4.14877542,59.8580769 8.32807301,60.2868462 L8.32807301,64.1529231 C8.32807301,65.3021538 9.0676756,65.8767692 10.5471118,65.8767692 L16.2180915,65.8767692 C17.6975277,65.8767692 18.4371303,65.3021538 18.4371303,64.1529231 L18.4371303,60.36 L45.3128235,60.36 L45.3128235,64.2761538 C45.3128235,65.4253846 46.0526571,66 47.5320933,66 L53.203073,66 C54.6825092,66 55.4221118,65.4253846 55.4221118,64.2761538 L55.4221118,60.3226154 C59.845171,60.0009231 62.0205407,57.4703077 61.9440619,52.7259231 L61.254829,20.9736923 L61.814903,20.9736923 C62.4198013,20.9736923 62.9422135,20.754 63.3821396,20.3146154 C63.8220656,19.8752308 64.0420287,19.3534615 64.0420287,18.7493077 L64.0420287,15.1654615 C64.0420287,14.5613077 63.8220656,14.0395385 63.3821396,13.6001538 L63.3821396,13.6001538 Z" id="Fill-1" fill="#FFFFFF" mask="url(#mask-2)"></path>
                            </g>
                        </g>
                        <path d="M34.6324168,25.6199769 L32.3655499,28.3139769 C35.0543207,31.2009 38.1490527,33.7758231 41.64628,36.0415154 L43.913147,33.3477462 C40.3604667,31.0776692 37.2652726,28.5027462 34.6324168,25.6199769" id="Fill-4" fill="#FFFFFF"></path>
                        <path d="M29.9881932,33.8187923 C30.1917514,35.4909462 30.922805,36.8552538 32.1811229,37.9114846 C33.4396719,38.9679462 34.879598,39.4257923 36.5009011,39.2854846 C37.9403651,39.1608692 39.142768,38.6501769 40.1157348,37.7658692 C36.6580176,35.3677154 33.595171,32.8179462 30.9329713,30.1142538 C30.2356516,31.2071769 29.9163355,32.4404077 29.9881932,33.8187923" id="Fill-6" fill="#FFFFFF"></path>
                        <path d="M44.1593115,23.6766 C42.9007625,22.6201385 41.403073,22.1673692 39.665781,22.3178308 C38.3055684,22.4355231 37.1463725,22.9517538 36.1828789,23.8554462 C38.7930915,26.6198308 41.860097,29.1714462 45.3776571,31.5128308 C46.0756701,30.4120615 46.3473891,29.1707538 46.1784889,27.7842923 C46.0909196,26.1022154 45.4178604,24.7330615 44.1593115,23.6766" id="Fill-8" fill="#FFFFFF"></path>
                        <path d="M24.5047366,24.5775692 C21.19189,24.0488769 18.7168438,24.4379538 17.0802911,25.7450308 C15.9723891,26.4237231 15.3679529,27.5249538 15.2667514,29.0487231 C15.1001617,31.1607231 16.1320471,32.2949538 18.3626386,32.4514154 C19.782463,32.6780308 22.0056608,32.0775692 25.0320009,30.6500308 C27.6680915,29.4313385 29.9733133,28.0954154 31.9474353,26.6424923 C28.7101433,25.6409538 26.2293207,24.9525692 24.5047366,24.5775692" id="Fill-10" fill="#FFFFFF"></path>
                        <path d="M27.2881932,23.3750538 C30.4069547,25.0278231 32.1038124,25.7547462 32.3783041,25.5562846 C32.5876386,23.2656692 32.1313078,20.3625923 31.0093115,16.8470538 C29.6484057,12.5949 28.0541359,10.0234385 26.2265018,9.1329 C25.0610675,8.47636154 23.8022874,8.76020769 22.4501617,9.98443846 C21.2237292,11.3143615 20.5499769,12.6253615 20.4286738,13.9179 C20.3579713,15.7885154 21.0398105,17.5940538 22.4741913,19.3345154 C23.7301987,21.0320538 25.334866,22.3788231 27.2881932,23.3750538" id="Fill-12" fill="#FFFFFF"></path>
                        <path d="M85.2856747,21.6033923 C84.0816543,23.7860077 83.0081793,25.4226231 82.0636322,26.5137 C81.1193161,27.6050077 80.3512939,28.1503154 79.7584104,28.1503154 C78.9437153,28.1503154 78.5361368,27.2166231 78.5361368,25.3485462 C78.5361368,23.5363154 78.795841,21.9084692 79.3138632,20.4659308 C79.8325786,19.0233923 80.5594732,17.7428538 81.4943161,16.6238538 C82.42939,15.5050846 83.5405268,14.5527 84.8272643,13.7664692 C86.1142329,12.9807 87.5215804,12.3333923 89.0493068,11.8245462 C90.5770333,11.3161615 92.192098,10.9416231 93.8961183,10.7009308 C95.5996765,10.4609308 97.3494455,10.3404692 99.1456562,10.3404692 C101.238078,10.3404692 103.339741,10.4930077 105.450647,10.7980846 C107.561784,11.1031615 109.589279,11.5333154 111.533595,12.0880846 C113.477911,12.6428538 115.292606,13.3134692 116.97768,14.0992385 C118.662292,14.8857 120.130176,15.7547769 121.379945,16.7069308 C122.629945,17.6597769 123.611229,18.6906231 124.324261,19.8001615 C125.03683,20.9099308 125.393577,22.0658538 125.393577,23.2679308 C125.393577,24.6922385 125.083503,26.0973923 124.463124,27.4845462 C123.842514,28.8717 122.87024,30.1247769 121.546765,31.2435462 C120.222597,32.3627769 118.528281,33.2826231 116.463817,34.0037769 C114.39866,34.7251615 111.922458,35.1135462 109.033826,35.1689308 C110.867006,35.1689308 112.468438,35.4601615 113.839048,36.0428538 C115.209196,36.6253154 116.356839,37.4115462 117.283133,38.4008538 C118.208965,39.3903923 118.903281,40.5324692 119.366312,41.8268538 C119.828882,43.1217 120.060628,44.4809308 120.060628,45.9047769 C120.060628,47.0699308 119.903281,48.2537769 119.588586,49.4558538 C119.273429,50.6581615 118.801155,51.8138538 118.171996,52.9233923 C117.542375,54.0331615 116.755407,55.0734692 115.811091,56.0443154 C114.866774,57.0153923 113.760028,57.8613923 112.491774,58.5827769 C111.22329,59.3039308 109.792837,59.8725462 108.200416,60.2888538 C106.607763,60.7049308 104.857763,60.9128538 102.950878,60.9128538 C101.747089,60.9128538 100.478835,60.8341615 99.1456562,60.6772385 C97.8124769,60.5198538 96.4654344,60.3070846 95.1042976,60.0391615 C93.7433919,59.7707769 92.4053604,59.4516231 91.0906654,59.0819308 C89.7757394,58.7117769 88.5354436,58.3148538 87.368854,57.8890846 C86.8503697,57.7598538 86.3919593,57.5657769 85.993854,57.3066231 C85.5955176,57.0479308 85.3968115,56.5852385 85.3968115,55.9194692 C85.3968115,52.8497769 85.4753697,49.7053154 85.6329482,46.4874692 C85.7898336,43.2693923 86.1093808,40.1256231 86.5911275,37.0552385 C87.0724122,33.9855462 87.7669593,31.0589308 88.6743068,28.2751615 C89.5811922,25.4920846 90.7852126,23.0000077 92.2852126,20.7989308 C93.5996765,19.8929308 94.7939926,19.4394692 95.8681608,19.4394692 C97.2195933,19.4394692 98.3494455,20.1980077 99.256793,21.7143923 C98.4048983,22.8613154 97.6777726,24.1374692 97.0763401,25.5426231 C96.4744455,26.9484692 95.9695933,28.4233154 95.5627079,29.9673923 C95.1551294,31.5119308 94.8265712,33.0883154 94.5765712,34.6972385 C94.3265712,36.3063923 94.127403,37.8786231 93.9795287,39.4134692 C93.886414,40.2827769 93.8080869,41.2074692 93.7433919,42.1875462 C93.6782348,43.1678538 93.6183919,44.1666231 93.5627079,45.1836231 C93.5072551,46.2008538 93.4656654,47.2134692 93.4377079,48.2212385 C93.4099815,49.2294692 93.3961183,50.1957 93.3961183,51.1201615 C93.3961183,51.2685462 93.4005083,51.4718538 93.4099815,51.7305462 C93.4192237,51.9897 93.442098,52.2576231 93.4795287,52.5350077 C93.5164972,52.8123923 93.5719501,53.0669308 93.6461183,53.2979308 C93.7198244,53.5293923 93.8309612,53.7001615 93.9795287,53.8111615 C95.1086876,54.1813154 96.321719,54.4956231 97.6179298,54.7543154 C98.9139094,55.0134692 100.210351,55.1427 101.506562,55.1427 C103.080268,55.1427 104.607763,54.9534692 106.08951,54.5740846 C107.570795,54.1951615 108.885259,53.5940077 110.033826,52.7708538 C111.181701,51.9481615 112.102911,50.8940077 112.797458,49.6083923 C113.491774,48.3232385 113.839048,46.7648538 113.839048,44.9339308 C113.839048,43.8615462 113.635028,42.9691615 113.227911,42.2567769 C112.820564,41.5450846 112.287754,40.9485462 111.630869,40.4676231 C110.97329,39.9869308 110.223521,39.6031615 109.3811,39.3163154 C108.538216,39.0297 107.677079,38.7710077 106.797921,38.5395462 C105.918299,38.3085462 105.057163,38.0817 104.214741,37.8599308 C103.371858,37.6379308 102.621858,37.3561615 101.964972,37.0137 C101.307394,36.6717 100.774815,36.2463923 100.36793,35.7375462 C99.9603512,35.2291615 99.756793,34.5680077 99.756793,33.7540846 C99.756793,33.3657 99.7798983,33.0285462 99.8261091,32.7414692 C99.8720887,32.4550846 99.9832255,32.2192385 100.159519,32.0341615 C100.335351,31.8495462 100.594362,31.7108538 100.937246,31.6180846 C101.279667,31.5257769 101.747089,31.4793923 102.339972,31.4793923 C103.135721,31.4793923 103.862847,31.5119308 104.520194,31.5763154 C105.177311,31.6413923 105.88549,31.6734692 106.645194,31.6734692 C108.422689,31.6734692 110.028974,31.4563154 111.464048,31.0215462 C112.898891,30.5872385 114.120933,29.9999308 115.130638,29.2600846 C116.139649,28.5204692 116.917375,27.6557769 117.463586,26.6662385 C118.009566,25.6769308 118.283133,24.6181615 118.283133,23.4897 C118.283133,22.7503154 118.070102,22.0707 117.64427,21.4508538 C117.217976,20.8314692 116.620702,20.2767 115.85268,19.7863154 C115.084196,19.2963923 114.18147,18.8664692 113.144501,18.4963154 C112.107301,18.1266231 110.978142,17.8167 109.755869,17.5670077 C108.533826,17.3173154 107.246627,17.1327 105.895194,17.0122385 C104.543299,16.8922385 103.173152,16.8317769 101.784288,16.8317769 C100.024815,16.8317769 98.2889094,16.9289308 96.5763401,17.1232385 C94.8635397,17.3173154 93.2711183,17.6133923 91.7990758,18.0107769 C90.3270333,18.4088538 89.0215804,18.9080077 87.8827172,19.5089308 C86.743854,20.1100846 85.8780961,20.8083923 85.2856747,21.6033923" id="Fill-14" fill="#FFFFFF"></path>
                        <path d="M128.754459,45.4610077 C129.421049,45.4610077 130.147482,45.2902385 130.934912,44.9477769 C131.72165,44.6057769 132.452934,44.1666231 133.128997,43.6300846 C133.804829,43.0940077 134.374376,42.5113154 134.837408,41.8824692 C135.299977,41.2538538 135.531724,40.6434692 135.531724,40.0515462 C135.531724,39.2191615 135.378997,38.5351615 135.073313,37.9986231 C134.76786,37.4623154 134.39286,37.1941615 133.948544,37.1941615 C133.152103,37.1941615 132.47165,37.3423154 131.906955,37.6379308 C131.341798,37.9340077 130.869755,38.3175462 130.490365,38.7892385 C130.110744,39.2607 129.805291,39.7974692 129.573775,40.3981615 C129.342029,40.9995462 129.166428,41.6048538 129.046049,42.2152385 C128.925439,42.8256231 128.846881,43.4175462 128.809912,43.9907769 C128.772713,44.5642385 128.754459,45.0543923 128.754459,45.4610077 M132.448544,58.4994692 C130.708018,58.4994692 129.184912,58.1851615 127.879459,57.5563154 C126.574006,56.9277 125.486206,56.0817 124.615827,55.0178538 C123.745217,53.9547 123.092491,52.7249308 122.657648,51.3283154 C122.222574,49.9321615 122.004921,48.4665462 122.004921,46.9312385 C122.004921,45.8957769 122.106585,44.8000846 122.310605,43.6439308 C122.514164,42.4882385 122.824469,41.3553923 123.241058,40.2456231 C123.657648,39.1358538 124.180753,38.0773154 124.810374,37.0693154 C125.439533,36.0615462 126.17567,35.1737769 127.018554,34.4060077 C127.860975,33.6387 128.805291,33.0285462 129.851502,32.5750846 C130.897482,32.1220846 132.059681,31.8954692 133.337408,31.8954692 C134.374376,31.8954692 135.337177,32.0618538 136.22604,32.3948538 C137.114903,32.7276231 137.888008,33.1949308 138.545356,33.7958538 C139.202241,34.3970077 139.716104,35.1230077 140.086945,35.9733923 C140.457093,36.8244692 140.642398,37.7766231 140.642398,38.8307769 C140.642398,39.9777 140.360051,41.1243923 139.795356,42.2708538 C139.230199,43.4175462 138.448082,44.4996231 137.448313,45.5163923 C136.448313,46.5338538 135.258156,47.4400846 133.878997,48.2350846 C132.499376,49.0305462 131.004228,49.6499308 129.393323,50.0939308 C129.671049,50.5930846 129.944154,51.0093923 130.212639,51.3421615 C130.480892,51.6751615 130.754228,51.9343154 131.031955,52.1189308 C131.309912,52.3040077 131.601502,52.4337 131.906955,52.5073154 C132.212408,52.5813923 132.541197,52.6183154 132.893091,52.6183154 C134.003997,52.6183154 135.174977,52.3963154 136.406724,51.9525462 C137.638008,51.5085462 138.836945,50.9537769 140.003535,50.2880077 C141.170125,49.6222385 142.271557,48.8964692 143.308757,48.1102385 C144.345726,47.3244692 145.225347,46.5802385 145.94762,45.8770846 L149.530568,49.5945462 C147.900947,51.2775462 146.169663,52.7664692 144.336483,54.0608538 C143.540273,54.6156231 142.683988,55.1613923 141.767398,55.6974692 C140.850809,56.2342385 139.887777,56.7100846 138.878766,57.1261615 C137.869062,57.5424692 136.823313,57.8752385 135.739903,58.1249308 C134.656724,58.3746231 133.559681,58.4994692 132.448544,58.4994692" id="Fill-16" fill="#FFFFFF"></path>
                        <path d="M150.613863,45.4610077 C151.280453,45.4610077 152.006885,45.2902385 152.794316,44.9477769 C153.581054,44.6057769 154.312338,44.1666231 154.988401,43.6300846 C155.664233,43.0940077 156.23378,42.5113154 156.696811,41.8824692 C157.159381,41.2538538 157.391128,40.6434692 157.391128,40.0515462 C157.391128,39.2191615 157.238401,38.5351615 156.932717,37.9986231 C156.627264,37.4623154 156.252264,37.1941615 155.807948,37.1941615 C155.011506,37.1941615 154.331054,37.3423154 153.766359,37.6379308 C153.201201,37.9340077 152.729159,38.3175462 152.349769,38.7892385 C151.970148,39.2607 151.664695,39.7974692 151.433179,40.3981615 C151.201433,40.9995462 151.025832,41.6048538 150.905453,42.2152385 C150.784843,42.8256231 150.706285,43.4175462 150.669316,43.9907769 C150.632116,44.5642385 150.613863,45.0543923 150.613863,45.4610077 M154.307948,58.4994692 C152.567421,58.4994692 151.044316,58.1851615 149.738863,57.5563154 C148.43341,56.9277 147.34561,56.0817 146.475231,55.0178538 C145.604621,53.9547 144.951895,52.7249308 144.517052,51.3283154 C144.081978,49.9321615 143.864325,48.4665462 143.864325,46.9312385 C143.864325,45.8957769 143.965989,44.8000846 144.170009,43.6439308 C144.373567,42.4882385 144.683872,41.3553923 145.100462,40.2456231 C145.517052,39.1358538 146.040157,38.0773154 146.669778,37.0693154 C147.298937,36.0615462 148.035074,35.1737769 148.877957,34.4060077 C149.720379,33.6387 150.664695,33.0285462 151.710906,32.5750846 C152.756885,32.1220846 153.919085,31.8954692 155.196811,31.8954692 C156.23378,31.8954692 157.19658,32.0618538 158.085444,32.3948538 C158.974307,32.7276231 159.747412,33.1949308 160.40476,33.7958538 C161.061645,34.3970077 161.575508,35.1230077 161.946349,35.9733923 C162.316497,36.8244692 162.501802,37.7766231 162.501802,38.8307769 C162.501802,39.9777 162.219455,41.1243923 161.65476,42.2708538 C161.089603,43.4175462 160.307486,44.4996231 159.307717,45.5163923 C158.307717,46.5338538 157.11756,47.4400846 155.738401,48.2350846 C154.35878,49.0305462 152.863632,49.6499308 151.252726,50.0939308 C151.530453,50.5930846 151.803558,51.0093923 152.072043,51.3421615 C152.340296,51.6751615 152.613632,51.9343154 152.891359,52.1189308 C153.169316,52.3040077 153.460906,52.4337 153.766359,52.5073154 C154.071811,52.5813923 154.400601,52.6183154 154.752495,52.6183154 C155.863401,52.6183154 157.034381,52.3963154 158.266128,51.9525462 C159.497412,51.5085462 160.696349,50.9537769 161.862939,50.2880077 C163.029529,49.6222385 164.130961,48.8964692 165.168161,48.1102385 C166.205129,47.3244692 167.08475,46.5802385 167.807024,45.8770846 L171.389972,49.5945462 C169.760351,51.2775462 168.029067,52.7664692 166.195887,54.0608538 C165.399677,54.6156231 164.543392,55.1613923 163.626802,55.6974692 C162.710213,56.2342385 161.747181,56.7100846 160.73817,57.1261615 C159.728466,57.5424692 158.682717,57.8752385 157.599307,58.1249308 C156.516128,58.3746231 155.419085,58.4994692 154.307948,58.4994692" id="Fill-18" fill="#FFFFFF"></path>
                        <path d="M173.00097,36.3063462 C173.83415,34.8268846 174.718392,33.1625769 175.653466,31.3129615 C176.588309,29.4638077 177.472782,27.5588077 178.306192,25.5981923 C179.139372,23.6380385 179.861645,21.6822692 180.472551,19.7308846 C181.083688,17.7799615 181.472551,15.9628846 181.63914,14.2796538 C181.63914,13.7435769 181.625277,13.2857308 181.597551,12.9065769 C181.569824,12.5276538 181.481793,12.3377308 181.333688,12.3377308 C180.796257,12.3377308 180.21793,12.6845769 179.597782,13.3780385 C178.976941,14.0715 178.357024,15.0105 177.736645,16.1938846 C177.116035,17.3777308 176.523845,18.7554231 175.95915,20.3271923 C175.393993,21.8994231 174.889603,23.5729615 174.445287,25.3485 C174.00097,27.1240385 173.649076,28.9505769 173.389834,30.8274231 C173.130129,32.7047308 173.00097,34.5308077 173.00097,36.3063462 M172.973244,58.4994231 C171.973244,58.4994231 171.042791,58.0605 170.181654,57.1817308 C169.320749,56.3034231 168.570749,55.1244231 167.931885,53.6447308 C167.293022,52.1652692 166.793022,50.4501923 166.432116,48.4985769 C166.07098,46.5476538 165.890527,44.4995769 165.890527,42.3538846 C165.890527,40.7082692 166.010675,38.9188846 166.251433,36.9859615 C166.491959,35.0535 166.844085,33.0605769 167.306885,31.0076538 C167.769455,28.9549615 168.320749,26.8930385 168.959612,24.8214231 C169.598475,22.7502692 170.320518,20.7621923 171.126201,18.8569615 C171.931654,16.9524231 172.806654,15.1722692 173.75097,13.5167308 C174.695287,11.8618846 175.685582,10.4193462 176.723013,9.18911538 C177.75975,7.95934615 178.84293,6.99311538 179.972551,6.29019231 C181.10171,5.5875 182.250277,5.23603846 183.416867,5.23603846 C184.212616,5.23603846 184.870425,5.41626923 185.388909,5.77696154 C185.906932,6.13765385 186.314741,6.61396154 186.610952,7.20565385 C186.906932,7.79757692 187.115342,8.46796154 187.235952,9.21680769 C187.356331,9.96588462 187.416405,10.7288077 187.416405,11.5055769 C187.416405,13.2441923 187.217468,15.0148846 186.819362,16.8181154 C186.420795,18.6211154 185.884057,20.4338077 185.208226,22.2552692 C184.532163,24.0771923 183.750046,25.9032692 182.861414,27.7341923 C181.972551,29.5651154 181.046257,31.3821923 180.083688,33.1854231 C179.120887,34.9886538 178.153235,36.7641923 177.181192,38.5118077 C176.20915,40.2594231 175.296719,41.9655 174.445287,43.6300385 C174.352403,43.8151154 174.255129,44.0555769 174.153697,44.3514231 C174.051802,44.6475 173.954529,44.9664231 173.862107,45.3084231 C173.768993,45.6508846 173.676802,46.0157308 173.58415,46.4041154 C173.491266,46.7925 173.41756,47.1718846 173.362107,47.5415769 L173.362107,47.9299615 C173.362107,48.4111154 173.412939,48.8779615 173.514834,49.3309615 C173.616266,49.7841923 173.741266,50.1908077 173.889834,50.5515 C174.037939,50.9121923 174.195287,51.1990385 174.361876,51.4115769 C174.528697,51.6243462 174.685582,51.7305 174.83415,51.7305 C175.185582,51.7305 175.588309,51.6568846 176.042329,51.5087308 C176.495887,51.3608077 176.977172,51.1618846 177.486645,50.9121923 C177.995887,50.6625 178.518762,50.3761154 179.055961,50.0521154 C179.59293,49.7288077 180.111414,49.4001923 180.611414,49.0674231 C181.778004,48.2906538 183.000277,47.3938846 184.277773,46.3764231 L186.555499,52.2021923 C184.907163,53.3860385 183.278004,54.4401923 181.666867,55.3646538 C180.962847,55.7530385 180.236414,56.1370385 179.486645,56.5159615 C178.736645,56.8953462 177.982024,57.2329615 177.222782,57.5285769 C176.463309,57.8246538 175.723013,58.0605 175.000739,58.2358846 C174.278697,58.4119615 173.602403,58.4994231 172.973244,58.4994231" id="Fill-20" fill="#FFFFFF"></path>
                        <path d="M187.222066,24.0723692 C187.222066,23.6472923 187.314487,23.1663692 187.499792,22.6298308 C187.684635,22.0937538 187.985929,21.5895231 188.402518,21.1178308 C188.819108,20.6463692 189.374561,20.2487538 190.069108,19.9249846 C190.763424,19.6016769 191.62872,19.4394462 192.666151,19.4394462 C193.314025,19.4394462 193.925162,19.5137538 194.49933,19.6614462 C195.073036,19.8096 195.572805,20.0359846 195.999099,20.3410615 C196.424931,20.6463692 196.762962,21.0486 197.012962,21.5479846 C197.262962,22.0471385 197.387962,22.6392923 197.387962,23.3232923 C197.387962,23.9523692 197.286067,24.5627538 197.082278,25.1542154 C196.878258,25.7463692 196.554552,26.2734462 196.110236,26.7354462 C195.66592,27.1981385 195.105615,27.5726769 194.429783,27.8590615 C193.753489,28.1459077 192.943877,28.2889846 191.999561,28.2889846 C190.36994,28.2889846 189.166382,27.9054462 188.388655,27.1379077 C187.610929,26.3706 187.222066,25.3485231 187.222066,24.0723692 L187.222066,24.0723692 Z M199.637731,52.5906 C198.971141,53.2007538 198.142121,53.8526769 197.151825,54.5463692 C196.161067,55.2398308 195.091751,55.8779077 193.943646,56.4603692 C192.79531,57.0430615 191.624561,57.5286 190.430245,57.9169846 C189.235698,58.3053692 188.101225,58.4994462 187.02775,58.4994462 C186.064718,58.4994462 185.254182,58.3656 184.597297,58.0972154 C183.939949,57.8292923 183.40714,57.4547538 183.000254,56.9736 C182.592676,56.4929077 182.301086,55.9056 182.125254,55.2121385 C181.94896,54.5184462 181.861391,53.7557538 181.861391,52.9233692 C181.861391,51.7582154 181.995633,50.4038308 182.264117,48.8592923 C182.532371,47.3152154 182.861391,45.7155231 183.250254,44.0599846 C183.639117,42.4051385 184.050855,40.7544462 184.48616,39.1081385 C184.921003,37.4622923 185.305476,35.9456769 185.638886,34.5585231 C185.768045,34.0778308 186.02775,33.6666 186.416613,33.3241385 C186.805476,32.9821385 187.245171,32.7047538 187.735929,32.4919846 C188.226225,32.2794462 188.735929,32.1222923 189.263655,32.0202923 C189.791382,31.9187538 190.267814,31.8677538 190.694108,31.8677538 C191.471835,31.8677538 191.999561,32.0112923 192.277287,32.2976769 C192.555014,32.5845231 192.693877,32.9682923 192.693877,33.4489846 C192.693877,33.8560615 192.600994,34.4433692 192.416151,35.2104462 C192.230846,35.9782154 191.999561,36.8472923 191.721604,37.8181385 C191.443877,38.7892154 191.147666,39.8343692 190.832971,40.9529077 C190.517814,42.0721385 190.221835,43.1909077 189.944108,44.3096769 C189.666382,45.4289077 189.434404,46.5199846 189.249792,47.5831385 C189.064487,48.6469846 188.971835,49.6039846 188.971835,50.4543692 C188.971835,51.2867538 189.064487,51.9481385 189.249792,52.4380615 C189.434404,52.9282154 189.814487,53.1730615 190.388424,53.1730615 C191.055014,53.1730615 191.79531,52.9420615 192.610467,52.4796 C193.425162,52.0173692 194.24933,51.4579846 195.082509,50.8012154 C195.91592,50.1449077 196.730384,49.4652923 197.526825,48.7621385 C198.322574,48.0596769 199.026594,47.4582923 199.637731,46.9591385 L199.637731,52.5906 Z" id="Fill-22" fill="#FFFFFF"></path>
                        <path d="M197.665689,52.7015077 C197.665689,51.4809692 197.739395,50.0709692 197.887962,48.4710462 C198.036067,46.8713538 198.221141,45.2439692 198.443415,43.5884308 C198.665689,41.9335846 198.915689,40.3382769 199.193415,38.8029692 C199.471141,37.2681231 199.739164,35.9552769 199.998868,34.8637385 C200.202426,34.0133538 200.59591,33.3012 201.179321,32.7277385 C201.7625,32.1547385 202.55409,31.8676615 203.55409,31.8676615 C204.55409,31.8676615 205.248406,32.1729692 205.637269,32.7831231 C206.026132,33.3935077 206.220679,34.2074308 206.220679,35.2244308 C206.220679,35.5018154 206.192722,35.8763538 206.137269,36.3480462 C206.081585,36.8195077 206.012269,37.3375846 205.928859,37.9015846 C205.845679,38.4658154 205.757648,39.0482769 205.664995,39.6492 C205.572112,40.2503538 205.484543,40.8053538 205.401132,41.3137385 C205.317953,41.8225846 205.248406,42.2663538 205.192953,42.6452769 C205.137269,43.0246615 205.109543,43.2789692 205.109543,43.4082 L205.664995,43.4082 C205.776132,43.2048923 205.951964,42.8767385 206.192722,42.4232769 C206.433249,41.9702769 206.710975,41.4480462 207.026132,40.8558923 C207.340827,40.2642 207.678859,39.6402 208.039764,38.9834308 C208.400901,38.3271231 208.73847,37.6982769 209.053628,37.0968923 C209.368323,36.4962 209.65506,35.9642769 209.914764,35.5018154 C210.173775,35.0398154 210.368323,34.6973538 210.497944,34.4753538 C211.090596,33.4768154 211.765966,32.7925846 212.52567,32.4224308 C213.284681,32.0527385 214.127103,31.8676615 215.053165,31.8676615 C215.978997,31.8676615 216.715134,32.2560462 217.261345,33.0328154 C217.807324,33.8095846 218.080661,34.8824308 218.080661,36.2508923 C218.080661,36.4544308 218.039071,36.7966615 217.955661,37.2773538 C217.872482,37.7582769 217.765504,38.3315077 217.636345,38.9972769 C217.506724,39.6630462 217.362777,40.3938923 217.205892,41.1888923 C217.048313,41.9843538 216.904598,42.7978154 216.775208,43.6299692 C216.645587,44.4623538 216.539302,45.2855077 216.455892,46.0989692 C216.372482,46.9131231 216.330892,47.6619692 216.330892,48.3462 C216.330892,49.4928923 216.474145,50.4362769 216.761345,51.1756615 C217.048313,51.9157385 217.497482,52.2854308 218.108618,52.2854308 C218.386345,52.2854308 218.705661,52.2021231 219.066798,52.0357385 C219.427934,51.8693538 219.816798,51.6522 220.233387,51.3838154 C220.649977,51.1158923 221.075809,50.8059692 221.511114,50.4545077 C221.945726,50.1032769 222.376409,49.7425846 222.802703,49.3724308 C223.783988,48.5035846 224.811714,47.5232769 225.885652,46.4319692 L226.357925,52.6461231 L224.969062,53.7002769 C224.209589,54.2737385 223.436714,54.8472 222.649746,55.4202 C221.862546,55.9936615 221.042999,56.5068923 220.191798,56.9598923 C219.339903,57.4131231 218.45104,57.7830462 217.525208,58.0694308 C216.598914,58.3562769 215.626872,58.4993538 214.608849,58.4993538 C213.590365,58.4993538 212.733849,57.7643538 212.039533,56.2941231 C211.345217,54.8236615 210.997944,52.6738154 210.997944,49.8441231 C210.997944,48.7345846 211.07165,47.5371231 211.220217,46.2517385 C211.368323,44.9663538 211.553396,43.5840462 211.77567,42.1043538 L211.331354,42.1043538 L204.05409,56.5297385 C203.68348,57.2882769 203.266659,57.8058923 202.80409,58.0832769 C202.341289,58.3606615 201.804321,58.4993538 201.193184,58.4993538 C200.433711,58.4993538 199.822574,58.3378154 199.360005,58.0140462 C198.896973,57.6905077 198.540689,57.2559692 198.290689,56.7102 C198.040689,56.1648923 197.874099,55.5450462 197.790689,54.8513538 C197.707278,54.1578923 197.665689,53.4413538 197.665689,52.7015077" id="Fill-24" fill="#FFFFFF"></path>
                        <path d="M229.107648,45.4610077 C229.774238,45.4610077 230.50067,45.2902385 231.288101,44.9477769 C232.074838,44.6057769 232.806123,44.1666231 233.482417,43.6300846 C234.158018,43.0940077 234.727565,42.5113154 235.190596,41.8824692 C235.653165,41.2538538 235.884912,40.6434692 235.884912,40.0515462 C235.884912,39.2191615 235.732186,38.5351615 235.426502,37.9986231 C235.121049,37.4623154 234.746049,37.1941615 234.301733,37.1941615 C233.505291,37.1941615 232.824838,37.3423154 232.260143,37.6379308 C231.694986,37.9340077 231.222944,38.3175462 230.843554,38.7892385 C230.463933,39.2607 230.15848,39.7974692 229.926964,40.3981615 C229.695217,40.9995462 229.519616,41.6048538 229.399238,42.2152385 C229.278628,42.8256231 229.200069,43.4175462 229.163101,43.9907769 C229.125901,44.5642385 229.107648,45.0543923 229.107648,45.4610077 M232.801733,58.4994692 C231.061206,58.4994692 229.538101,58.1851615 228.232648,57.5563154 C226.927195,56.9277 225.839395,56.0817 224.969016,55.0178538 C224.098406,53.9547 223.445679,52.7249308 223.010836,51.3283154 C222.575762,49.9321615 222.35811,48.4665462 222.35811,46.9312385 C222.35811,45.8957769 222.459774,44.8000846 222.663794,43.6439308 C222.867352,42.4882385 223.177657,41.3553923 223.594247,40.2456231 C224.010836,39.1358538 224.533942,38.0773154 225.163563,37.0693154 C225.792722,36.0615462 226.528859,35.1737769 227.371742,34.4060077 C228.214164,33.6387 229.15848,33.0285462 230.20469,32.5750846 C231.25067,32.1220846 232.41287,31.8954692 233.690596,31.8954692 C234.727565,31.8954692 235.690365,32.0618538 236.579228,32.3948538 C237.468091,32.7276231 238.241197,33.1949308 238.898544,33.7958538 C239.555661,34.3970077 240.069293,35.1230077 240.440134,35.9733923 C240.810282,36.8244692 240.995587,37.7766231 240.995587,38.8307769 C240.995587,39.9777 240.713239,41.1243923 240.148544,42.2708538 C239.583387,43.4175462 238.801271,44.4996231 237.801502,45.5163923 C236.801502,46.5338538 235.611345,47.4400846 234.232186,48.2350846 C232.852565,49.0305462 231.357417,49.6499308 229.746511,50.0939308 C230.024238,50.5930846 230.297343,51.0093923 230.565827,51.3421615 C230.83408,51.6751615 231.107417,51.9343154 231.385143,52.1189308 C231.663101,52.3040077 231.95469,52.4337 232.260143,52.5073154 C232.565596,52.5813923 232.894385,52.6183154 233.24628,52.6183154 C234.357186,52.6183154 235.528165,52.3963154 236.759912,51.9525462 C237.991197,51.5085462 239.190134,50.9537769 240.356724,50.2880077 C241.523313,49.6222385 242.624746,48.8964692 243.661945,48.1102385 C244.698914,47.3244692 245.578535,46.5802385 246.300809,45.8770846 L249.883757,49.5945462 C248.254136,51.2775462 246.522851,52.7664692 244.689672,54.0608538 C243.893461,54.6156231 243.037177,55.1613923 242.120587,55.6974692 C241.203997,56.2342385 240.240966,56.7100846 239.231955,57.1261615 C238.22225,57.5424692 237.176502,57.8752385 236.093323,58.1249308 C235.009912,58.3746231 233.91287,58.4994692 232.801733,58.4994692" id="Fill-26" fill="#FFFFFF"></path>
                    </g>
                </g>
            </g>
        </g>
    </g>
</svg>