<?xml version="1.0" encoding="UTF-8" standalone="no"?>
<svg width="10px" height="10px" viewBox="0 0 10 10" version="1.1" xmlns="http://www.w3.org/2000/svg" xmlns:xlink="http://www.w3.org/1999/xlink">
    <!-- Generator: Sketch 3.7.2 (28276) - http://www.bohemiancoding.com/sketch -->
    <title>RoutePairSmallEnd</title>
    <desc>Created with Sketch.</desc>
    <defs></defs>
    <g id="Main" stroke="none" stroke-width="1" fill="none" fill-rule="evenodd" stroke-linejoin="round">
        <g id="1MainTabList" transform="translate(-79.000000, -300.000000)">
            <g id="Group-6" transform="translate(0.000000, 207.000000)">
                <g id="Route" transform="translate(80.000000, 74.000000)">
                    <g id="Location-+-Journey-Line-+-Location">
                        <g id="RoutePairSmallEnd" transform="translate(0.000000, 20.138889)">
                            <path d="M7.86111111,3.86989883 C7.86111111,6.00709253 6.10158937,7.73979767 3.93055556,7.73979767 C1.75952174,7.73979767 0,6.00709253 0,3.86989883 C0,1.73236863 1.75952174,0 3.93055556,0 C6.10158937,0 7.86111111,1.73236863 7.86111111,3.86989883 L7.86111111,3.86989883 Z" id="Stroke-365" stroke="#777777"></path>
                            <path d="M3.81662641,4.97596096 C3.15595129,4.97596096 2.62037037,4.44864518 2.62037037,3.79816567 C2.62037037,3.14768615 3.15595129,2.62037037 3.81662641,2.62037037 C4.47764332,2.62037037 5.01288245,3.14768615 5.01288245,3.79816567 C5.01288245,4.44864518 4.47764332,4.97596096 3.81662641,4.97596096 Z" id="Stroke-972" stroke="#FF6C6A" stroke-linecap="round" fill="#FF6C6A"></path>
                        </g>
                    </g>
                </g>
            </g>
        </g>
    </g>
</svg>