<?xml version="1.0" encoding="UTF-8" standalone="no"?>
<svg width="105px" height="29px" viewBox="0 0 210 57" version="1.1" xmlns="http://www.w3.org/2000/svg" xmlns:xlink="http://www.w3.org/1999/xlink">
    <!-- Generator: Sketch 42 (36781) - http://www.bohemiancoding.com/sketch -->
    <title>TapToSelectMultipleDays</title>
    <desc>Created with Sketch.</desc>
    <defs>
        <rect id="path-1" x="0" y="0" width="42" height="29"></rect>
        <mask id="mask-2" maskContentUnits="userSpaceOnUse" maskUnits="objectBoundingBox" x="0" y="0" width="42" height="29" fill="white">
            <use xlink:href="#path-1"></use>
        </mask>
        <rect id="path-3" x="42" y="0" width="42" height="29"></rect>
        <mask id="mask-4" maskContentUnits="userSpaceOnUse" maskUnits="objectBoundingBox" x="0" y="0" width="42" height="29" fill="white">
            <use xlink:href="#path-3"></use>
        </mask>
        <rect id="path-5" x="84" y="0" width="42" height="29"></rect>
        <mask id="mask-6" maskContentUnits="userSpaceOnUse" maskUnits="objectBoundingBox" x="0" y="0" width="42" height="29" fill="white">
            <use xlink:href="#path-5"></use>
        </mask>
        <rect id="path-7" x="126" y="0" width="42" height="29"></rect>
        <mask id="mask-8" maskContentUnits="userSpaceOnUse" maskUnits="objectBoundingBox" x="0" y="0" width="42" height="29" fill="white">
            <use xlink:href="#path-7"></use>
        </mask>
        <rect id="path-9" x="168" y="0" width="42" height="29"></rect>
        <mask id="mask-10" maskContentUnits="userSpaceOnUse" maskUnits="objectBoundingBox" x="0" y="0" width="42" height="29" fill="white">
            <use xlink:href="#path-9"></use>
        </mask>
    </defs>
    <g id="Booking" stroke="none" stroke-width="1" fill="none" fill-rule="evenodd">
        <g id="4BookingSelectDaysIntro" transform="translate(-84.000000, -262.000000)">
            <g id="TapToSelectMultipleDays" transform="translate(84.000000, 262.000000)">
                <g id="Group-8">
                    <use id="Rectangle" stroke="#493762" mask="url(#mask-2)" stroke-width="2" fill="#493762" xlink:href="#path-1"></use>
                    <use id="Rectangle" stroke="#CFCFCF" mask="url(#mask-4)" stroke-width="2" fill="#E8E8E8" xlink:href="#path-3"></use>
                    <use id="Rectangle" stroke="#493762" mask="url(#mask-6)" stroke-width="2" fill="#493762" xlink:href="#path-5"></use>
                    <use id="Rectangle" stroke="#493762" mask="url(#mask-8)" stroke-width="2" fill="#493762" xlink:href="#path-7"></use>
                    <use id="Rectangle" stroke="#CFCFCF" mask="url(#mask-10)" stroke-width="2" fill="#E8E8E8" xlink:href="#path-9"></use>
                    <path d="M63.6575,9.1325 C64.1125023,9.1325 64.537498,9.19999932 64.9325,9.335 C65.327502,9.47000067 65.6687486,9.66624871 65.95625,9.92375 C66.2437514,10.1812513 66.4699992,10.4949981 66.635,10.865 C66.8000008,11.2350018 66.8825,11.6549976 66.8825,12.125 C66.8825,12.525002 66.8225006,12.8949983 66.7025,13.235 C66.5824994,13.5750017 66.420001,13.9012484 66.215,14.21375 C66.009999,14.5262516 65.7737513,14.8287485 65.50625,15.12125 C65.2387487,15.4137515 64.9550015,15.7124985 64.655,16.0175 L61.8275,18.9125 C62.027501,18.8574997 62.229999,18.8137502 62.435,18.78125 C62.640001,18.7487498 62.8374991,18.7325 63.0275,18.7325 L66.6275,18.7325 C66.7725007,18.7325 66.8874996,18.7749996 66.9725,18.86 C67.0575004,18.9450004 67.1,19.0549993 67.1,19.19 L67.1,20 L59.93,20 L59.93,19.5425 C59.93,19.4474995 59.9487498,19.3500005 59.98625,19.25 C60.0237502,19.1499995 60.0849996,19.0575004 60.17,18.9725 L63.6125,15.515 C63.8975014,15.2249985 64.1574988,14.9462513 64.3925,14.67875 C64.6275012,14.4112487 64.8287492,14.1425013 64.99625,13.8725 C65.1637508,13.6024986 65.2924996,13.3287514 65.3825,13.05125 C65.4725005,12.7737486 65.5175,12.4775016 65.5175,12.1625 C65.5175,11.8474984 65.4675005,11.5712512 65.3675,11.33375 C65.2674995,11.0962488 65.1300009,10.9000008 64.955,10.745 C64.7799991,10.5899992 64.5750012,10.4737504 64.34,10.39625 C64.1049988,10.3187496 63.8525014,10.28 63.5825,10.28 C63.3124987,10.28 63.0625012,10.3199996 62.8325,10.4 C62.6024989,10.4800004 62.3987509,10.5912493 62.22125,10.73375 C62.0437491,10.8762507 61.8937506,11.044999 61.77125,11.24 C61.6487494,11.435001 61.5625003,11.6499988 61.5125,11.885 C61.4724998,12.0300007 61.4125004,12.1349997 61.3325,12.2 C61.2524996,12.2650003 61.1475007,12.2975 61.0175,12.2975 C60.9924999,12.2975 60.9662501,12.29625 60.93875,12.29375 C60.9112499,12.29125 60.8800002,12.2875 60.845,12.2825 L60.1475,12.1625 C60.2175004,11.6724975 60.352499,11.2387519 60.5525,10.86125 C60.752501,10.4837481 61.0062485,10.1675013 61.31375,9.9125 C61.6212515,9.65749872 61.973748,9.46375066 62.37125,9.33125 C62.768752,9.19874934 63.1974977,9.1325 63.6575,9.1325 Z" id="2" fill="#2F2F2F"></path>
                    <path d="M105.8,9.1325 C106.255002,9.1325 106.674998,9.19749935 107.06,9.3275 C107.445002,9.45750065 107.776249,9.6424988 108.05375,9.8825 C108.331251,10.1225012 108.547499,10.4124983 108.7025,10.7525 C108.857501,11.0925017 108.935,11.4699979 108.935,11.885 C108.935,12.2250017 108.89125,12.5287487 108.80375,12.79625 C108.71625,13.0637513 108.591251,13.298749 108.42875,13.50125 C108.266249,13.703751 108.070001,13.8749993 107.84,14.015 C107.609999,14.1550007 107.352501,14.2674996 107.0675,14.3525 C107.767504,14.5375009 108.293748,14.8474978 108.64625,15.2825 C108.998752,15.7175022 109.175,16.2624967 109.175,16.9175 C109.175,17.4125025 109.081251,17.857498 108.89375,18.2525 C108.706249,18.647502 108.450002,18.9837486 108.125,19.26125 C107.799998,19.5387514 107.421252,19.7512493 106.98875,19.89875 C106.556248,20.0462507 106.092502,20.12 105.5975,20.12 C105.027497,20.12 104.540002,20.0487507 104.135,19.90625 C103.729998,19.7637493 103.387501,19.5675012 103.1075,19.3175 C102.827499,19.0674987 102.597501,18.7712517 102.4175,18.42875 C102.237499,18.0862483 102.085001,17.715002 101.96,17.315 L102.53,17.075 C102.635001,17.0299998 102.739999,17.0075 102.845,17.0075 C102.945001,17.0075 103.03375,17.0287498 103.11125,17.07125 C103.18875,17.1137502 103.2475,17.1799995 103.2875,17.27 C103.2975,17.2900001 103.3075,17.3112499 103.3175,17.33375 C103.3275,17.3562501 103.3375,17.3799999 103.3475,17.405 C103.4175,17.5500007 103.5025,17.7137491 103.6025,17.89625 C103.702501,18.0787509 103.837499,18.2499992 104.0075,18.41 C104.177501,18.5700008 104.388749,18.7049994 104.64125,18.815 C104.893751,18.9250005 105.207498,18.98 105.5825,18.98 C105.957502,18.98 106.286249,18.9187506 106.56875,18.79625 C106.851251,18.6737494 107.086249,18.515001 107.27375,18.32 C107.461251,18.124999 107.6025,17.9075012 107.6975,17.6675 C107.7925,17.4274988 107.84,17.1900012 107.84,16.955 C107.84,16.6649985 107.80125,16.4000012 107.72375,16.16 C107.64625,15.9199988 107.506251,15.7125009 107.30375,15.5375 C107.101249,15.3624991 106.821252,15.2250005 106.46375,15.125 C106.106248,15.0249995 105.647503,14.975 105.0875,14.975 L105.0875,14.0075 C105.542502,14.0025 105.931248,13.9525005 106.25375,13.8575 C106.576252,13.7624995 106.839999,13.6325008 107.045,13.4675 C107.250001,13.3024992 107.39875,13.1050011 107.49125,12.875 C107.58375,12.6449988 107.63,12.3900014 107.63,12.11 C107.63,11.7999984 107.58125,11.5300011 107.48375,11.3 C107.38625,11.0699988 107.252501,10.8800007 107.0825,10.73 C106.912499,10.5799992 106.711251,10.4675004 106.47875,10.3925 C106.246249,10.3174996 105.995001,10.28 105.725,10.28 C105.454999,10.28 105.205001,10.3199996 104.975,10.4 C104.744999,10.4800004 104.541251,10.5912493 104.36375,10.73375 C104.186249,10.8762507 104.037501,11.046249 103.9175,11.24375 C103.797499,11.441251 103.7075,11.6549988 103.6475,11.885 C103.6075,12.0300007 103.5475,12.1349997 103.4675,12.2 C103.3875,12.2650003 103.285001,12.2975 103.16,12.2975 C103.135,12.2975 103.10875,12.29625 103.08125,12.29375 C103.05375,12.29125 103.0225,12.2875 102.9875,12.2825 L102.29,12.1625 C102.36,11.6724975 102.494999,11.2387519 102.695,10.86125 C102.895001,10.4837481 103.148748,10.1675013 103.45625,9.9125 C103.763752,9.65749872 104.116248,9.46375066 104.51375,9.33125 C104.911252,9.19874934 105.339998,9.1325 105.8,9.1325 Z" id="3" fill="#FFFFFF"></path>
                    <path d="M149.9225,16.1225 L151.55,16.1225 L151.55,16.8875 C151.55,16.9675004 151.52625,17.0349997 151.47875,17.09 C151.43125,17.1450003 151.357501,17.1725 151.2575,17.1725 L149.9225,17.1725 L149.9225,20 L148.745,20 L148.745,17.1725 L143.9825,17.1725 C143.8825,17.1725 143.79625,17.1437503 143.72375,17.08625 C143.65125,17.0287497 143.605,16.9575004 143.585,16.8725 L143.45,16.19 L148.6775,9.2525 L149.9225,9.2525 L149.9225,16.1225 Z M148.745,11.69 C148.745,11.5599993 148.74875,11.4200007 148.75625,11.27 C148.76375,11.1199992 148.78,10.9650008 148.805,10.805 L144.8975,16.1225 L148.745,16.1225 L148.745,11.69 Z" id="4" fill="#FFFFFF"></path>
                    <path d="M19.3025,18.98 L21.6125,18.98 L21.6125,11.6525 C21.6125,11.4324989 21.6199999,11.2100011 21.635,10.985 L19.715,12.6275 C19.6649997,12.6675002 19.6150002,12.6962499 19.565,12.71375 C19.5149997,12.7312501 19.4675002,12.74 19.4225,12.74 C19.3474996,12.74 19.2800003,12.7237502 19.22,12.69125 C19.1599997,12.6587498 19.1150001,12.6200002 19.085,12.575 L18.665,11.9975 L21.86,9.23 L22.9475,9.23 L22.9475,18.98 L25.0625,18.98 L25.0625,20 L19.3025,20 L19.3025,18.98 Z" id="1" fill="#FFFFFF"></path>
                </g>
                <g id="Stroke-109-+-Stroke-111-+-Stroke-113" transform="translate(177.000000, 6.000000)" stroke="#493762" stroke-linecap="round" stroke-linejoin="round">
                    <path d="M0,51 L0,13.7307692 C0,6.15138462 5.14871429,0 11.5,0 C17.8545714,0 23,6.15138462 23,13.7307692 L23,51" id="Stroke-109" fill="#FFFFFF"></path>
                    <path d="M11.5,5 C7.36,5 4,8.80233333 4,13.5 L4,22 L19,22 L19,13.5 C19,8.80233333 15.645,5 11.5,5 Z" id="Stroke-113"></path>
                </g>
            </g>
        </g>
    </g>
</svg>
