<?xml version="1.0" encoding="utf-8"?>
<!-- Generator: Adobe Illustrator 19.2.1, SVG Export Plug-In . SVG Version: 6.00 Build 0)  -->
<svg version="1.1" id="Layer_1" xmlns="http://www.w3.org/2000/svg" xmlns:xlink="http://www.w3.org/1999/xlink" x="0px" y="0px"
	 viewBox="0 0 30 28" style="enable-background:new 0 0 30 28;" xml:space="preserve">
<style type="text/css">
	.st0{fill:none;stroke:#898D97;stroke-linecap:round;stroke-linejoin:round;}
	.st1{fill:none;stroke:#898D97;stroke-linecap:round;stroke-linejoin:round;stroke-dasharray:1,2;}
</style>
<title>MenuKickstartNormal</title>
<desc>Created with Sketch.</desc>
<g id="Kickstarter">
	<g id="Kickstart_List" transform="translate(-217.000000, -617.000000)">
		<g id="Menu-Bar" transform="translate(0.000000, 603.000000)">
			<g id="Icons" transform="translate(27.000000, 12.500000)">
				<g id="MenuKickstart" transform="translate(190.000000, 2.000000)">
					<g id="MenuKickstartNormal">
						<g transform="translate(0.583831, 0.000000)">
							<g id="Group">
								<path id="Stroke-136" class="st0" d="M19.3,10.2c0-5.3-4.3-9.6-9.7-9.6S0,4.9,0,10.2c0,4.6,3.3,8.5,7.7,9.4l2,7l2-7
									C16.1,18.7,19.3,14.8,19.3,10.2L19.3,10.2z"/>
								<path id="Stroke-138" class="st0" d="M15.9,10.2c0,3.4-2.8,6.2-6.3,6.2c-3.5,0-6.3-2.8-6.3-6.2C3.4,6.8,6.2,4,9.7,4
									C13.1,4,15.9,6.8,15.9,10.2L15.9,10.2z"/>
								<path id="Stroke-140" class="st0" d="M9.7,6.8v5.7"/>
								<path id="Stroke-142" class="st0" d="M12.5,9.6H6.8"/>
							</g>
							<path id="Path-2" class="st1" d="M29.2,12.5c0,0-13,1.8-6.6,7.1s4.8,7.1-13.5,7.1"/>
						</g>
					</g>
				</g>
			</g>
		</g>
	</g>
</g>
</svg>
