<?xml version="1.0" encoding="utf-8"?>
<!-- Generator: Adobe Illustrator 19.2.1, SVG Export Plug-In . SVG Version: 6.00 Build 0)  -->
<svg version="1.1" id="Layer_1" xmlns="http://www.w3.org/2000/svg" xmlns:xlink="http://www.w3.org/1999/xlink" x="0px" y="0px"
	 viewBox="0 0 27 26" style="enable-background:new 0 0 27 26;" xml:space="preserve">
<style type="text/css">
	.st0{fill:none;stroke:#898D97;stroke-linecap:round;stroke-linejoin:round;}
</style>
<title>MenuRoutesNormal</title>
<desc>Created with Sketch.</desc>
<g id="Add-Payment-Method">
	<g id="Main_Settings_Payment-Method-Added" transform="translate(-32.000000, -928.000000)">
		<g id="Menu-Bar" transform="translate(0.000000, 914.000000)">
			<g id="Icons" transform="translate(27.000000, 12.500000)">
				<g id="MenuRoutes" transform="translate(5.000000, 1.000000)">
					<g id="MenuRoutesNormal">
						<g id="Group-6" transform="translate(0.734375, 0.367188)">
							<g>
								<path id="Stroke-160" class="st0" d="M3.7,17.8V7.5c0-2.6,2-4.8,4.5-4.8c2.5,0,4.5,2.1,4.5,4.8v10.9c0,2.6,2,4.8,4.5,4.8
									c2.5,0,4.5-2.1,4.5-4.8V8.2"/>
								<path id="Stroke-1104" class="st0" d="M24.9,4.1c0,1.9-1.5,3.4-3.4,3.4S18,5.9,18,4.1s1.5-3.4,3.4-3.4S24.9,2.2,24.9,4.1
									L24.9,4.1z"/>
								<path id="Stroke-1104_1_" class="st0" d="M7.1,21.8c0,1.9-1.5,3.4-3.4,3.4s-3.4-1.5-3.4-3.4s1.5-3.4,3.4-3.4
									S7.1,19.9,7.1,21.8L7.1,21.8z"/>
							</g>
						</g>
					</g>
				</g>
			</g>
		</g>
	</g>
</g>
</svg>
