<?xml version="1.0" encoding="UTF-8" standalone="no"?>
<svg width="19px" height="26px" viewBox="0 0 19 26" version="1.1" xmlns="http://www.w3.org/2000/svg" xmlns:xlink="http://www.w3.org/1999/xlink">
    <!-- Generator: Sketch 3.7.2 (28276) - http://www.bohemiancoding.com/sketch -->
    <title>MenuSuggestNormal</title>
    <desc>Created with Sketch.</desc>
    <defs></defs>
    <g id="Main" stroke="none" stroke-width="1" fill="none" fill-rule="evenodd" stroke-linejoin="round">
        <g id="1MainTabMap" transform="translate(-130.000000, -616.000000)" stroke="#FFFFFF">
            <g id="Menu-Bar" transform="translate(0.000000, 603.000000)">
                <g id="Icons" transform="translate(27.000000, 11.500000)">
                    <g id="MenuSuggest" transform="translate(104.000000, 2.500000)">
                        <g id="MenuSuggestNormal">
                            <g id="Group" transform="translate(2.967033, 2.478966)">
                                <path d="M10.4606932,5.45372596 C10.4606932,8.23428717 8.21206255,10.4879345 5.43956044,10.4879345 C2.66622147,10.4879345 0.418427726,8.23428717 0.418427726,5.45372596 C0.418427726,2.67316476 2.66622147,0.419517382 5.43956044,0.419517382 C8.21206255,0.419517382 10.4606932,2.67316476 10.4606932,5.45372596 L10.4606932,5.45372596 Z" id="Stroke-218"></path>
                                <path d="M3.34742181,5.45372596 L7.53169907,5.45372596" id="Stroke-220" stroke-linecap="round"></path>
                                <path d="M5.43956044,7.55131287 L5.43956044,3.35613905" id="Stroke-222" stroke-linecap="round"></path>
                            </g>
                            <g id="Group-2" stroke-linecap="round">
                                <path d="M8.54700855,24.6682447 C8.54700855,24.6682447 0,13.9241029 0,8.9702708 C0,4.01419618 3.82478632,0 8.54700855,0 C13.267094,0 17.0940171,4.01419618 17.0940171,8.9702708 C17.0940171,13.9241029 8.54700855,24.6682447 8.54700855,24.6682447 Z" id="Stroke-146"></path>
                            </g>
                        </g>
                    </g>
                </g>
            </g>
        </g>
    </g>
</svg>