<?xml version="1.0" encoding="UTF-8" standalone="no"?>
<svg width="30px" height="28px" viewBox="0 0 30 28" version="1.1" xmlns="http://www.w3.org/2000/svg" xmlns:xlink="http://www.w3.org/1999/xlink">
    <!-- Generator: Sketch 40.2 (33826) - http://www.bohemiancoding.com/sketch -->
    <title>MenuKickstartNormal</title>
    <desc>Created with Sketch.</desc>
    <defs></defs>
    <g id="Kickstarter" stroke="none" stroke-width="1" fill="none" fill-rule="evenodd" stroke-linecap="round" stroke-linejoin="round">
        <g id="Kickstart_List" transform="translate(-217.000000, -617.000000)" stroke="#FFFFFF">
            <g id="Menu-Bar" transform="translate(0.000000, 603.000000)">
                <g id="Icons" transform="translate(27.000000, 12.500000)">
                    <g id="MenuKickstart" transform="translate(190.000000, 2.000000)">
                        <g id="MenuKickstartNormal">
                            <g transform="translate(0.583831, 0.000000)">
                                <g id="Group">
                                    <path d="M19.3391079,10.1896552 C19.3391079,4.87631609 15.0094229,0.566091954 9.66955396,0.566091954 C4.32968499,0.566091954 0,4.87631609 0,10.1896552 C0,14.818023 3.28423556,18.6810345 7.65828674,19.6026322 L9.66955396,26.6063218 L11.6808212,19.6026322 C16.0548724,18.6810345 19.3391079,14.818023 19.3391079,10.1896552 L19.3391079,10.1896552 Z" id="Stroke-136"></path>
                                    <path d="M15.9263242,10.1896552 C15.9263242,13.6292299 13.1244287,16.4166667 9.66955396,16.4166667 C6.21354162,16.4166667 3.41278375,13.6292299 3.41278375,10.1896552 C3.41278375,6.75121264 6.21354162,3.96264368 9.66955396,3.96264368 C13.1244287,3.96264368 15.9263242,6.75121264 15.9263242,10.1896552 L15.9263242,10.1896552 Z" id="Stroke-138"></path>
                                    <path d="M9.66955396,6.79310345 L9.66955396,12.454023" id="Stroke-140"></path>
                                    <path d="M12.5135404,9.62356322 L6.8255675,9.62356322" id="Stroke-142"></path>
                                </g>
                                <path d="M29.2152953,12.454023 C29.2152953,12.454023 16.2484945,14.2979147 22.5896956,19.5851251 C28.9308966,24.8723355 27.3867009,26.7162273 9.10075667,26.7162273" id="Path-2" stroke-dasharray="1,2"></path>
                            </g>
                        </g>
                    </g>
                </g>
            </g>
        </g>
    </g>
</svg>