<?xml version="1.0" encoding="UTF-8" standalone="no"?>
<svg width="27px" height="26px" viewBox="0 0 27 26" version="1.1" xmlns="http://www.w3.org/2000/svg" xmlns:xlink="http://www.w3.org/1999/xlink">
    <!-- Generator: Sketch 40.2 (33826) - http://www.bohemiancoding.com/sketch -->
    <title>MenuRoutesNormal</title>
    <desc>Created with Sketch.</desc>
    <defs></defs>
    <g id="Add-Payment-Method" stroke="none" stroke-width="1" fill="none" fill-rule="evenodd" stroke-linecap="round" stroke-linejoin="round">
        <g id="Main_Settings_Payment-Method-Added" transform="translate(-32.000000, -928.000000)" stroke="#FFFFFF">
            <g id="Menu-Bar" transform="translate(0.000000, 914.000000)">
                <g id="Icons" transform="translate(27.000000, 12.500000)">
                    <g id="MenuRoutes" transform="translate(5.000000, 1.000000)">
                        <g id="MenuRoutesNormal">
                            <g transform="translate(0.734375, 0.367188)" id="Group-6">
                                <g>
                                    <path d="M3.66417969,17.7556023 L3.66417969,7.50169601 C3.66417969,4.85755539 5.66373698,2.71653976 8.13032552,2.71653976 C10.5981901,2.71653976 12.5964714,4.85755539 12.5964714,7.50169601 L12.5964714,18.439196 C12.5964714,21.0833366 14.5960286,23.2243523 17.0626172,23.2243523 C19.5304818,23.2243523 21.528763,21.0833366 21.528763,18.439196 L21.528763,8.18528976" id="Stroke-160"></path>
                                    <path d="M24.875,4.05078125 C24.875,5.9375 23.34375,7.46875 21.4570312,7.46875 C19.5703125,7.46875 18.0390625,5.9375 18.0390625,4.05078125 C18.0390625,2.1640625 19.5703125,0.6328125 21.4570312,0.6328125 C23.34375,0.6328125 24.875,2.1640625 24.875,4.05078125 L24.875,4.05078125 Z" id="Stroke-1104"></path>
                                    <path d="M7.1015625,21.8242188 C7.1015625,23.7109375 5.5703125,25.2421875 3.68359375,25.2421875 C1.796875,25.2421875 0.265625,23.7109375 0.265625,21.8242188 C0.265625,19.9375 1.796875,18.40625 3.68359375,18.40625 C5.5703125,18.40625 7.1015625,19.9375 7.1015625,21.8242188 L7.1015625,21.8242188 Z" id="Stroke-1104"></path>
                                </g>
                            </g>
                        </g>
                    </g>
                </g>
            </g>
        </g>
    </g>
</svg>