<?xml version="1.0" encoding="UTF-8" standalone="no"?>
<svg width="153px" height="108px" viewBox="0 0 153 108" version="1.1" xmlns="http://www.w3.org/2000/svg" xmlns:xlink="http://www.w3.org/1999/xlink">
    <!-- Generator: Sketch 3.7.2 (28276) - http://www.bohemiancoding.com/sketch -->
    <title>bgSuggest</title>
    <desc>Created with Sketch.</desc>
    <defs></defs>
    <g id="Main" stroke="none" stroke-width="1" fill="none" fill-rule="evenodd">
        <g id="1MainSuggestNewUser" transform="translate(-111.000000, -168.000000)">
            <g id="Route" transform="translate(0.000000, 98.000000)">
                <g id="bgSuggest" transform="translate(111.000000, 70.000000)">
                    <path d="M130.469858,35.9547563 C127.597388,31.2082712 123.445712,27.730047 117.543744,27.730047 L13.0126525,27.730047 L13.0126525,78.673122 L9.9831543,78.673122 L9.9831543,81.521013 L13.0126525,81.521013 L13.0126525,83.4196071 L25.3029933,83.4196071 C25.9387666,88.9597044 30.7262163,93.231541 36.6358442,93.231541 C42.5378122,93.231541 47.1682335,88.9597044 47.9686951,83.4196071 L86.9117259,83.4196071 C87.5474992,88.9597044 92.3349489,93.231541 98.2445768,93.231541 C104.146545,93.231541 108.776966,88.9597044 109.577428,83.4196071 L131.442668,83.4196071 C133.514676,83.4196071 135.272628,81.6766977 135.272628,79.622419 L135.272628,54.7850119 C135.272628,50.0385268 134.315138,44.0237809 131.921413,38.8026473 L134.636854,38.8026473 L134.636854,43.0744839 L137.509324,43.0744839 L137.509324,36.110441 L130.469858,36.110441 L130.469858,35.9547563 Z" id="Path" fill="#FFE76E"></path>
                    <g id="Page-1" transform="translate(0.000000, 31.800249)" fill="#493762">
                        <polygon id="Fill-1" points="11.9686242 39.0768623 19.9502604 39.0768623 19.9502604 41.9247534 11.9686242 41.9247534"></polygon>
                        <polygon id="Fill-2" points="11.9686242 43.8233474 19.9502604 43.8233474 19.9502604 46.6712385 11.9686242 46.6712385"></polygon>
                        <polygon id="Fill-3" points="11.9686242 48.7331116 19.9502604 48.7331116 19.9502604 51.5810026 11.9686242 51.5810026"></polygon>
                        <polygon id="Fill-4" points="14.0406325 67.7190519 131.011433 67.7190519 131.011433 70.5669429 14.0406325 70.5669429"></polygon>
                        <polygon id="Fill-5" points="0.635773319 67.7190519 11.0111343 67.7190519 11.0111343 70.5669429 0.635773319 70.5669429"></polygon>
                        <path d="M97.9856903,51.4177235 L95.5919655,52.9973538 L95.7489938,53.1530385 C95.9060222,53.3087232 95.9060222,53.4720023 96.0707105,53.7833717 C96.2277388,54.2580202 96.3924271,54.576984 96.3924271,55.0516325 C96.3924271,55.526281 96.2353987,56.1566142 96.0707105,56.6312627 C95.4349371,58.0552083 94.1557306,58.8488206 92.5624673,58.8488206 C91.926694,58.8488206 91.2832608,58.6931359 90.6474875,58.3741721 C90.4904591,58.3741721 90.4904591,58.2184873 90.4904591,58.2184873 L89.6899975,59.3234691 L89.6899975,59.3234691 L88.8895359,60.4284508 C90.0040542,61.2220631 91.2832608,61.5334325 92.7194957,61.5334325 C95.9136821,61.5334325 98.6214637,59.3158747 99.2648969,56.3122989 C99.4219252,55.8376504 99.4219252,55.3630019 99.4219252,54.7326687 C99.4219252,54.2580202 99.4219252,53.7833717 99.2648969,53.4644079 C98.9431803,53.0049481 98.4644353,52.2113358 97.9856903,51.4177235 L97.9856903,51.4177235 Z" id="Fill-6"></path>
                        <path d="M24.5730218,53.7909661 C24.4159934,54.2656146 24.4159934,54.7402631 24.4159934,55.2149116 C24.4159934,55.6895601 24.4159934,56.1642086 24.5730218,56.6388571 C24.7300501,57.4324694 25.0517667,58.2184873 25.5305117,59.0120997 L26.64503,58.2184873 L26.64503,58.2184873 L27.7595483,57.424875 L27.6025199,57.2691903 C27.4454916,57.1135056 27.4454916,56.9502265 27.4454916,56.7945418 C27.2884632,56.3198933 27.123775,55.8452448 27.123775,55.3705963 C27.123775,54.8959478 27.2808033,54.4212993 27.4454916,53.9466508 C28.0812649,52.5227053 29.3604715,51.5734082 30.9537347,51.5734082 C31.589508,51.5734082 32.2329413,51.729093 32.8687146,52.0480567 C33.025743,52.0480567 33.025743,52.2037415 33.025743,52.2037415 L34.1479212,50.943075 L34.9483828,49.8380933 C33.8338645,49.044481 32.5546579,48.7331116 31.118423,48.7331116 C27.9242366,48.5698325 25.216455,50.7873903 24.5730218,53.7909661 L24.5730218,53.7909661 Z" id="Fill-7"></path>
                        <path d="M124.795409,9.01832164 C121.922939,4.27183657 117.771262,0.793612305 111.869294,0.793612305 L7.33820289,0.793612305 L7.33820289,51.7366873 L4.30870472,51.7366873 L4.30870472,54.5845784 L7.33820289,54.5845784 L7.33820289,56.4831724 L19.6285437,56.4831724 C20.2643171,62.0232698 25.0517667,66.2951064 30.9613946,66.2951064 C36.8633626,66.2951064 41.493784,62.0232698 42.2942456,56.4831724 L81.2372763,56.4831724 C81.8730497,62.0232698 86.6604993,66.2951064 92.5701272,66.2951064 C98.4720952,66.2951064 103.102517,62.0232698 103.902978,56.4831724 L125.768218,56.4831724 C127.840227,56.4831724 129.598178,54.7402631 129.598178,52.6859843 L129.598178,27.8485772 C129.598178,23.1020922 128.640688,17.0873463 126.246963,11.8662127 L128.962405,11.8662127 L128.962405,16.1380493 L131.834875,16.1380493 L131.834875,9.17400635 L124.795409,9.17400635 L124.795409,9.01832164 Z M39.2570875,56.6388571 C38.6213142,60.5993243 35.1054111,63.6029 30.9613946,63.6029 C26.8097183,63.6029 23.3014751,60.5993243 22.6657018,56.6388571 C22.5086735,56.1642086 22.5086735,55.6895601 22.5086735,55.2149116 C22.5086735,54.7402631 22.5086735,54.2656146 22.6657018,53.7909661 C23.3014751,49.8380933 26.8173782,46.8269232 30.9613946,46.8269232 C35.113071,46.8269232 38.6213142,49.8304989 39.2570875,53.7909661 C39.4141158,54.2656146 39.4141158,54.7402631 39.4141158,55.2149116 C39.4141158,55.6895601 39.4141158,56.1642086 39.2570875,56.6388571 L39.2570875,56.6388571 Z M47.0740353,28.953559 L33.1904312,28.953559 L33.1904312,13.7648067 L47.0740353,13.7648067 L47.0740353,28.953559 Z M63.6730809,53.7909661 L49.9465051,53.7909661 L49.9465051,31.80145 L63.6730809,31.80145 L63.6730809,53.7909661 Z M63.6730809,28.953559 L49.9465051,28.953559 L49.9465051,13.7648067 L63.6730809,13.7648067 L63.6730809,28.953559 Z M66.5455507,53.7909661 L66.5455507,31.80145 L97.1852288,31.80145 L97.1852288,44.9359235 C95.7489938,44.3055903 94.1557306,43.9866265 92.5548074,43.9866265 C86.8098678,43.9866265 82.0224181,48.2584631 81.2219565,53.7985604 L66.5455507,53.7985604 L66.5455507,53.7909661 Z M66.5455507,28.953559 L66.5455507,13.7648067 L80.4291548,13.7648067 L80.4291548,28.953559 L66.5455507,28.953559 Z M83.3016246,28.953559 L83.3016246,13.7648067 L97.0282004,13.7648067 L97.0282004,28.953559 L83.3016246,28.953559 Z M100.85816,56.6388571 C100.222387,60.5917299 96.7064838,63.6029 92.5624673,63.6029 C88.410791,63.6029 84.9025478,60.5993243 84.2667745,56.6388571 C84.1097462,56.1642086 84.1097462,55.6895601 84.1097462,55.2149116 C84.1097462,54.7402631 84.1097462,54.2656146 84.2667745,53.7909661 C84.9025478,49.8380933 88.4184509,46.8269232 92.5624673,46.8269232 C96.7141437,46.8269232 100.222387,49.8304989 100.85816,53.7909661 C101.015189,54.2656146 101.015189,54.7402631 101.015189,55.2149116 C101.015189,55.6895601 101.015189,56.1642086 100.85816,56.6388571 L100.85816,56.6388571 Z M113.784274,51.892372 C113.784274,52.8416691 112.983813,53.7909661 111.869294,53.7909661 L103.887658,53.7909661 C103.565942,50.943075 102.129707,48.5698325 100.057699,46.8269232 L100.057699,31.7938556 L113.462558,31.7938556 L113.784274,31.7938556 L113.784274,51.892372 Z M113.784274,15.6634008 L113.784274,28.6345952 C113.784274,28.7902799 113.627246,28.953559 113.462558,28.953559 L100.057699,28.953559 L100.057699,13.7648067 L112.183351,13.7648067 C112.983813,13.7648067 113.776614,14.3951399 113.941303,15.0330675 L113.941303,15.6634008 L113.784274,15.6634008 Z M126.710388,52.8416691 C126.710388,53.3163176 126.231644,53.7909661 125.752899,53.7909661 L116.177999,53.7909661 C116.499716,53.1606328 116.499716,52.5227053 116.499716,51.892372 L116.499716,15.6634008 L116.656744,14.0837705 C116.656744,12.3408612 115.220509,10.9169157 113.462558,10.9169157 L112.026323,10.9169157 L112.183351,10.9169157 L112.026323,10.9169157 L16.4343573,10.9169157 C14.6764058,10.9169157 13.2401709,12.3408612 13.2401709,14.0837705 L13.2401709,28.4789105 C13.2401709,30.2218198 14.6764058,31.6457653 16.4343573,31.6457653 L47.0740353,31.6457653 L47.0740353,53.6352814 L42.2865856,53.6352814 C41.6508123,48.095184 36.8633626,43.8233474 30.9537347,43.8233474 C25.0517667,43.8233474 20.4213454,48.095184 19.6208838,53.6352814 L10.2106727,53.6352814 L10.2106727,3.79718806 L111.861635,3.79718806 C116.327368,3.79718806 119.843271,6.1704306 122.551052,11.0726004 C121.114817,11.2282851 120.000299,12.4965459 120.000299,14.0761761 L120.000299,36.384656 C120.000299,38.1275653 121.436534,39.3882318 123.029797,39.3882318 L126.710388,39.3882318 L126.710388,52.8416691 Z M30.3179614,13.7648067 L30.3179614,28.953559 L16.4343573,28.953559 C16.277329,28.953559 16.1126407,28.7978743 16.1126407,28.6345952 L16.1126407,14.2394552 C16.1126407,14.0837705 16.269669,13.9204914 16.4343573,13.9204914 L30.3179614,13.9204914 L30.3179614,13.7648067 Z M126.710388,27.8485772 L126.710388,36.3922504 L123.037457,36.3922504 C122.880429,36.3922504 122.880429,36.2365657 122.880429,36.2365657 L122.880429,13.9204914 C122.880429,13.7648067 123.037457,13.7648067 123.037457,13.7648067 L123.994947,13.7648067 C125.909927,18.6669765 126.710388,24.2070739 126.710388,27.8485772 L126.710388,27.8485772 Z" id="Fill-8"></path>
                    </g>
                    <g id="Page-1" transform="translate(4.863814, 75.574574)" fill="#493762">
                        <polygon id="Fill-1" points="11.9686242 0.166350969 19.9502604 0.166350969 19.9502604 3.01424201 11.9686242 3.01424201"></polygon>
                        <polygon id="Fill-2" points="11.9686242 4.91283604 19.9502604 4.91283604 19.9502604 7.76072709 11.9686242 7.76072709"></polygon>
                        <polygon id="Fill-3" points="11.9686242 9.82260021 19.9502604 9.82260021 19.9502604 12.6704913 11.9686242 12.6704913"></polygon>
                        <polygon id="Fill-4" points="14.0406325 28.8085405 131.011433 28.8085405 131.011433 31.6564316 14.0406325 31.6564316"></polygon>
                        <polygon id="Fill-5" points="0.635773319 28.8085405 11.0111343 28.8085405 11.0111343 31.6564316 0.635773319 31.6564316"></polygon>
                        <path d="M97.9856903,12.5072122 L95.5919655,14.0868424 L95.7489938,14.2425271 C95.9060222,14.3982118 95.9060222,14.5614909 96.0707105,14.8728603 C96.2277388,15.3475088 96.3924271,15.6664726 96.3924271,16.1411211 C96.3924271,16.6157696 96.2353987,17.2461029 96.0707105,17.7207514 C95.4349371,19.1446969 94.1557306,19.9383092 92.5624673,19.9383092 C91.926694,19.9383092 91.2832608,19.7826245 90.6474875,19.4636607 C90.4904591,19.4636607 90.4904591,19.307976 90.4904591,19.307976 L89.6899975,20.4129577 L89.6899975,20.4129577 L88.8895359,21.5179394 C90.0040542,22.3115517 91.2832608,22.6229212 92.7194957,22.6229212 C95.9136821,22.6229212 98.6214637,20.4053633 99.2648969,17.4017876 C99.4219252,16.9271391 99.4219252,16.4524906 99.4219252,15.8221573 C99.4219252,15.3475088 99.4219252,14.8728603 99.2648969,14.5538965 C98.9431803,14.0944368 98.4644353,13.3008245 97.9856903,12.5072122 L97.9856903,12.5072122 Z" id="Fill-6"></path>
                        <path d="M24.5730218,14.8804547 C24.4159934,15.3551032 24.4159934,15.8297517 24.4159934,16.3044002 C24.4159934,16.7790487 24.4159934,17.2536972 24.5730218,17.7283457 C24.7300501,18.5219581 25.0517667,19.307976 25.5305117,20.1015883 L26.64503,19.307976 L26.64503,19.307976 L27.7595483,18.5143637 L27.6025199,18.358679 C27.4454916,18.2029943 27.4454916,18.0397152 27.4454916,17.8840305 C27.2884632,17.409382 27.123775,16.9347334 27.123775,16.4600849 C27.123775,15.9854364 27.2808033,15.5107879 27.4454916,15.0361394 C28.0812649,13.6121939 29.3604715,12.6628969 30.9537347,12.6628969 C31.589508,12.6628969 32.2329413,12.8185816 32.8687146,13.1375454 C33.025743,13.1375454 33.025743,13.2932301 33.025743,13.2932301 L34.1479212,12.0325637 L34.9483828,10.9275819 C33.8338645,10.1339696 32.5546579,9.82260021 31.118423,9.82260021 C27.9242366,9.65932112 25.216455,11.8768789 24.5730218,14.8804547 L24.5730218,14.8804547 Z" id="Fill-7"></path>
                    </g>
                    <path d="M141.612516,15.9491015 C141.881594,16.6195598 141.546364,17.4223219 140.80886,17.6913992 C138.864531,18.4280093 136.919308,18.6970866 135.177011,18.6970866 C131.824719,18.6970866 129.27519,17.757551 129.142886,17.6913992 C128.472428,17.4223219 128.070153,16.6857117 128.33923,15.9491015 C128.608307,15.2786433 129.344918,14.8763683 130.081528,15.1454455 C130.148574,15.1454455 135.043813,16.954789 139.870219,15.1454455 C140.540677,14.8727925 141.343439,15.2786433 141.612516,15.9491015 L141.612516,15.9491015 Z M152.406001,4.55131059 L152.406001,22.1852576 C152.406001,24.1304806 150.796007,25.7404744 148.850784,25.7404744 L146.707105,25.7404744 L137.991148,35.3217704 C137.72207,35.5908477 137.386841,35.7901973 136.98546,35.7901973 C136.853156,35.7901973 136.650231,35.7901973 136.517927,35.7240454 C135.979773,35.52112 135.644544,35.0535871 135.644544,34.4492807 L135.644544,25.8030505 L121.097387,25.8030505 C119.152164,25.8030505 117.54217,24.1930567 117.54217,22.2478337 L117.54217,4.55131059 C117.54217,2.60608759 119.152164,0.99609375 121.097387,0.99609375 L148.788208,0.99609375 C150.796007,0.99609375 152.406001,2.60608759 152.406001,4.55131059 L152.406001,4.55131059 Z M149.724168,4.55131059 C149.724168,4.08288373 149.322787,3.67792692 148.850784,3.67792692 L121.097387,3.67792692 C120.62896,3.67792692 120.224003,4.07930795 120.224003,4.55131059 L120.224003,22.1852576 C120.224003,22.6536845 120.625384,23.0586413 121.097387,23.0586413 L136.98546,23.0586413 C137.72207,23.0586413 138.326377,23.6620537 138.326377,24.3995579 L138.326377,30.9012154 L145.03096,23.4600223 C145.300037,23.190945 145.635266,22.9915954 146.036647,22.9915954 L148.784632,22.9915954 C149.253059,22.9915954 149.658016,22.5902144 149.658016,22.1191057 L149.658016,4.55131059 L149.724168,4.55131059 Z M129.945648,11.7234264 C130.885184,11.7234264 131.621794,10.9868162 131.621794,10.0472807 C131.621794,9.10774514 130.885184,8.37113496 129.945648,8.37113496 C129.006113,8.37113496 128.269502,9.10774514 128.269502,10.0472807 C128.269502,10.9868162 129.006113,11.7234264 129.945648,11.7234264 L129.945648,11.7234264 Z M140.002523,8.37113496 C139.062987,8.37113496 138.326377,9.10774514 138.326377,10.0472807 C138.326377,10.9868162 139.062987,11.7234264 140.002523,11.7234264 C140.942058,11.7234264 141.678668,10.9868162 141.678668,10.0472807 C141.678668,9.10774514 140.942058,8.37113496 140.002523,8.37113496 L140.002523,8.37113496 Z" id="Page-1" fill="#493762"></path>
                </g>
            </g>
        </g>
    </g>
</svg>