<?xml version="1.0" encoding="utf-8"?>
<!-- Generator: Adobe Illustrator 19.2.1, SVG Export Plug-In . SVG Version: 6.00 Build 0)  -->
<svg version="1.1" id="Layer_1" xmlns="http://www.w3.org/2000/svg" xmlns:xlink="http://www.w3.org/1999/xlink" x="0px" y="0px"
	 viewBox="0 0 66 86" style="enable-background:new 0 0 66 86;" xml:space="preserve">
<style type="text/css">
	.st0{filter:url(#filter-2);}
	.st1{fill:#493762;stroke:#FFFFFF;stroke-width:3;stroke-linecap:round;stroke-linejoin:round;}
	.st2{fill:#FFFFFF;stroke:#FFFFFF;stroke-linecap:round;stroke-linejoin:round;}
	.st3{fill:#493762;stroke:#FFFFFF;stroke-linecap:round;stroke-linejoin:round;}
	.st4{fill:#493762;stroke:#FFFFFF;}
	.st5{fill:#FFFFFF;}
	.st6{font-family:'Lato-Bold';}
	.st7{font-size:12px;}
</style>
<filter  filterUnits="objectBoundingBox" height="200%" id="filter-2" width="200%" x="-50%" y="-50%">
	<feMorphology  in="SourceAlpha" operator="dilate" radius="1.5" result="shadowSpreadOuter1"></feMorphology>
	<feOffset  dx="0" dy="5" in="shadowSpreadOuter1" result="shadowOffsetOuter1"></feOffset>
	<feGaussianBlur  in="shadowOffsetOuter1" result="shadowBlurOuter1" stdDeviation="2.5"></feGaussianBlur>
	<feComposite  in="shadowBlurOuter1" in2="SourceAlpha" operator="out" result="shadowBlurOuter1"></feComposite>
	<feColorMatrix  in="shadowBlurOuter1" type="matrix" values="0 0 0 0 0   0 0 0 0 0   0 0 0 0 0  0 0 0 0.5 0"></feColorMatrix>
</filter>
<title>BusMarker</title>
<desc>Created with Sketch.</desc>
<g id="Tickets">
	<g id="_x36_TicketDriver" transform="translate(-223.000000, -476.000000)">
		<g id="BusMarker" transform="translate(229.000000, 478.000000)">
			<g id="User-Location">
				<g id="Stroke-128-_x2B_-Stroke-130">
					<g id="Stroke-128">
						<g class="st0">
							<path id="path-1_2_" d="M26.9,0C12,0,0,12.2,0,27.3C0,40.4,9.1,51.4,21.3,54l5.6,19.9L32.5,54c12.2-2.6,21.3-13.6,21.3-26.7
								C53.8,12.2,41.7,0,26.9,0z"/>
						</g>
						<g>
							<path id="path-1_1_" class="st1" d="M26.9,0C12,0,0,12.2,0,27.3C0,40.4,9.1,51.4,21.3,54l5.6,19.9L32.5,54
								c12.2-2.6,21.3-13.6,21.3-26.7C53.8,12.2,41.7,0,26.9,0z"/>
						</g>
					</g>
				</g>
			</g>
			<g id="Group" transform="translate(13.000000, 13.000000)">
				<path id="Stroke-1433" class="st2" d="M25.8,27.2H2.3c-1,0-1.8-0.8-1.8-1.7V2.4c0-3.3,2.8-6,6.3-6h14.4c3.5,0,6.3,2.7,6.3,6
					v23.1C27.6,26.4,26.7,27.2,25.8,27.2z"/>
				<polygon id="Stroke-1434" class="st2" points="5.4,30.9 1.7,30.9 1.7,27.2 5.4,27.2 				"/>
				<polygon id="Stroke-1435" class="st2" points="26.3,30.9 22.6,30.9 22.6,27.2 26.3,27.2 				"/>
				<polygon id="Stroke-1436" class="st3" points="26.3,20 1.7,20 1.7,2.8 26.3,2.8 				"/>
				<polygon id="Stroke-1437" class="st3" points="17.7,1.3 9.1,1.3 9.1,-2.4 17.7,-2.4 				"/>
				<polygon id="Stroke-1440" class="st2" points="-3.2,11.2 0.5,11.2 0.5,6.3 -3.2,6.3 				"/>
				<polygon id="Stroke-1441" class="st2" points="27.6,11.2 31.2,11.2 31.2,6.3 27.6,6.3 				"/>
			</g>
			<path id="Oval-19" class="st4" d="M20.5,39c1.4,0,2.5-1.1,2.5-2.5S21.9,34,20.5,34S18,35.1,18,36.5S19.1,39,20.5,39z"/>
			<circle id="Oval-19_1_" class="st4" cx="33.5" cy="36.5" r="2.5"/>
			<text transform="matrix(1 0 0 1 22.921 28.78)" class="st5 st6 st7">6</text>
		</g>
	</g>
</g>
</svg>
