<?xml version="1.0" encoding="UTF-8" standalone="no"?>
<svg width="208px" height="119px" viewBox="0 0 208 119" version="1.1" xmlns="http://www.w3.org/2000/svg" xmlns:xlink="http://www.w3.org/1999/xlink">
    <!-- Generator: Sketch 3.8.3 (29802) - http://www.bohemiancoding.com/sketch -->
    <title>emergency</title>
    <desc>Created with Sketch.</desc>
    <defs>
        <path d="M23.8034256,39.0248045 L101.001368,39.0248045 C105.409322,39.0248045 109,35.4440311 109,31.0269233 L109,30.6450895 L109,12.5037041 C109,8.07985627 105.418891,4.49920457 101.001368,4.49920457 L9.99863156,4.49920457 C5.59067766,4.49920457 2,8.08435001 2,12.506851 L2,31.017158 C2,35.4438471 5.58110933,39.0248045 9.99863156,39.0248045 L14.1433454,39.0248045 L14.1433454,50.5185547 L23.8034256,39.0248045 Z" id="path-1"></path>
        <mask id="mask-2" maskContentUnits="userSpaceOnUse" maskUnits="objectBoundingBox" x="0" y="0" width="107" height="46.0193501" fill="white">
            <use xlink:href="#path-1"></use>
        </mask>
        <polygon id="path-3" points="50.1926061 99.3272727 100.385212 99.3272727 100.385212 0.3528 0 0.3528 0 49.8400364 0 99.3272727 50.1926061 99.3272727"></polygon>
    </defs>
    <g id="Tickets" stroke="none" stroke-width="1" fill="none" fill-rule="evenodd">
        <g id="6TicketEmergency" transform="translate(-95.000000, -296.000000)">
            <g id="emergency" transform="translate(81.000000, 296.000000)">
                <g id="Group-6" transform="translate(113.000000, 0.000000)">
                    <path d="M21.8034256,35.0248045 L99.0013684,35.0248045 C103.409322,35.0248045 107,31.4440311 107,27.0269233 L107,26.6450895 L107,8.50370413 C107,4.07985627 103.418891,0.499204568 99.0013684,0.499204568 L7.99863156,0.499204568 C3.59067766,0.499204568 0,4.08435001 0,8.50685103 L0,27.017158 C0,31.4438471 3.58110933,35.0248045 7.99863156,35.0248045 L12.1433454,35.0248045 L12.1433454,46.5185547 L21.8034256,35.0248045 Z" id="Combined-Shape" fill="#1CC3A5"></path>
                    <use id="Combined-Shape" stroke="#493762" mask="url(#mask-2)" stroke-width="4" xlink:href="#path-1"></use>
                    <text id="I’m-so-sorry!" font-family="Lato-Bold, Lato" font-size="16" font-weight="bold" fill="#493762">
                        <tspan x="12.588" y="27">I’m so sorry!</tspan>
                    </text>
                </g>
                <g id="Group-2" transform="translate(9.000000, 16.628960)">
                    <g id="Page-1">
                        <g id="Group-3" transform="translate(5.000000, 2.545455)">
                            <mask id="mask-4" fill="white">
                                <use xlink:href="#path-3"></use>
                            </mask>
                            <g id="Clip-2"></g>
                            <path d="M92.3725758,37.0903818 C91.1744545,37.0903818 90.1963636,38.071 90.1963636,39.2781636 L90.1963636,48.5438727 L88.1004545,48.5438727 L88.1004545,18.3550727 C88.1004545,12.5846364 83.871697,7.82394545 75.8735152,4.58110909 C69.1409091,1.85770909 60.0891515,0.3528 50.3837273,0.3528 L50.006303,0.3528 C40.2960606,0.3528 31.242697,1.85770909 24.5100909,4.58110909 C16.5119091,7.82394545 12.2831515,12.5846364 12.2831515,18.3550727 L12.2831515,48.5438727 L10.1872424,48.5438727 L10.1872424,39.2781636 C10.1872424,38.071 9.20915152,36.4835636 8.0110303,36.4835636 L2.16978788,36.4835636 C0.971666667,36.4835636 0,38.071 0,39.2781636 L0,54.4793636 C0,55.6865273 0.971666667,56.6671455 2.16978788,56.6671455 L12.2831515,56.6671455 L12.2831515,81.2748364 C12.2831515,85.6358364 15.4824242,89.2508545 19.6421212,89.8770909 L19.6421212,96.3951273 C19.6421212,98.0133091 20.9478485,99.3272727 22.5539091,99.3272727 L29.8052727,99.3272727 C31.4113333,99.3272727 32.7170606,98.0133091 32.7170606,96.3951273 L32.7170606,89.9725636 L67.6681515,89.9725636 L67.6681515,96.3951273 C67.6681515,98.0133091 68.9722727,99.3272727 70.5783333,99.3272727 L77.831303,99.3272727 C79.4373636,99.3272727 80.7414848,98.0133091 80.7414848,96.3951273 L80.7414848,89.8770909 C84.8947576,89.2508545 88.1004545,85.6293636 88.1004545,81.2748364 L88.1004545,56.6671455 L98.2138182,56.6671455 C99.4119394,56.6671455 100.385212,55.6865273 100.385212,54.4793636 L100.385212,39.2781636 C100.39003,38.071 99.4183636,37.0903818 98.2202424,37.0903818 L92.3725758,37.0903818 Z M2.86681818,53.7851636 L2.86681818,39.9788364 L7.32684848,39.9788364 L7.32684848,49.9856727 C7.32684848,50.7818182 7.96766667,51.4258545 8.75784848,51.4258545 L12.2895758,51.4258545 L12.2895758,53.7851636 L2.86681818,53.7851636 Z M29.8566667,96.3999818 C29.8566667,96.4258727 29.8309697,96.4517636 29.8052727,96.4517636 L22.5539091,96.4517636 C22.5282121,96.4517636 22.5025152,96.4323455 22.5025152,96.3999818 L22.5025152,89.9790364 L29.8566667,89.9790364 L29.8566667,96.3999818 Z M77.8810909,96.3999818 C77.8810909,96.4323455 77.8618182,96.4517636 77.8377273,96.4517636 L70.5847576,96.4517636 C70.5590606,96.4517636 70.5413939,96.4323455 70.5413939,96.3999818 L70.5413939,89.9790364 L77.8875152,89.9790364 L77.8875152,96.3999818 L77.8810909,96.3999818 Z M85.2400606,81.2813091 C85.2400606,84.4917818 82.6494848,87.0954364 79.4678788,87.0954364 L20.9221515,87.0954364 C17.7421515,87.0954364 15.1499697,84.4917818 15.1499697,81.2813091 L15.1499697,18.3550727 C15.1499697,8.43076364 32.6849394,3.23478182 50.006303,3.23478182 L50.3837273,3.23478182 C67.7050909,3.23478182 85.2400606,8.43076364 85.2400606,18.3550727 L85.2400606,81.2813091 Z M97.5296364,53.7851636 L88.1068788,53.7851636 L88.1068788,51.4258545 L91.6386061,51.4258545 C92.4287879,51.4258545 93.0696061,50.7818182 93.0696061,49.9856727 L93.0696061,39.9788364 L97.5296364,39.9788364 L97.5296364,53.7851636 Z" id="Fill-1" fill="#493861" mask="url(#mask-4)"></path>
                        </g>
                        <path d="M79.8135152,64.0234364 L30.5765152,64.0234364 C27.3017576,64.0234364 24.6421212,61.3372545 24.6421212,58.0426364 L24.6421212,33.7828545 C24.6421212,30.4898545 27.3081818,27.8036727 30.5765152,27.8036727 L79.8135152,27.8036727 C83.0882727,27.8036727 85.7479091,30.4833818 85.7479091,33.7828545 L85.7479091,58.0426364 C85.7479091,61.3421091 83.0882727,64.0234364 79.8135152,64.0234364 L79.8135152,64.0234364 Z M30.5765152,30.6921273 C28.8837273,30.6921273 27.5025152,32.0772909 27.5025152,33.7828545 L27.5025152,58.0426364 C27.5025152,59.7498182 28.8837273,61.1414545 30.5765152,61.1414545 L79.8135152,61.1414545 C81.506303,61.1414545 82.8875152,59.7498182 82.8875152,58.0426364 L82.8875152,33.7828545 C82.8875152,32.0772909 81.506303,30.6921273 79.8135152,30.6921273 L30.5765152,30.6921273 Z" id="Fill-4" fill="#493762"></path>
                        <path d="M73.5081212,20.4587455 L36.8819091,20.4587455 C31.2542727,20.4587455 30.8222424,17.3858182 30.8222424,16.4440364 C30.8222424,13.6186909 34.0086667,11.4632727 40.5710303,9.86450909 C45.7088182,8.60718182 51.6191212,8.04405455 55.1958182,8.04405455 C58.7709091,8.04405455 64.6812121,8.60718182 69.819,9.86450909 C76.3813636,11.4697455 79.5742121,13.6186909 79.5742121,16.4440364 C79.5742121,17.3858182 79.1357576,20.4587455 73.5081212,20.4587455 M55.1958182,10.9325091 C51.7893636,10.9325091 46.155303,11.4697455 41.2423636,12.6704364 C35.2581818,14.1316545 33.6762121,15.7805818 33.6762121,16.4505091 C33.6762121,17.1333818 34.9305455,17.5832364 36.8754848,17.5832364 L73.501697,17.5832364 C75.4466364,17.5832364 76.7009697,17.1398545 76.7009697,16.4505091 C76.7009697,15.7805818 75.1206061,14.1316545 69.1348182,12.6704364 C64.2363333,11.4697455 58.6022727,10.9325091 55.1958182,10.9325091" id="Fill-10" fill="#493762"></path>
                    </g>
                    <g id="Page-1" transform="translate(32.000000, 34.000000)" fill="#493762">
                        <path d="M0.8896,12.3896 C0.7336,12.3896 0.5776,12.3466 0.4326,12.2606 C0.0106,12.0066 -0.1264,11.4596 0.1276,11.0376 L6.5066,0.4326 C6.7606,0.0106 7.3076,-0.1264 7.7336,0.1276 C8.1556,0.3816 8.2916,0.9286 8.0386,1.3506 L1.6596,11.9556 C1.4876,12.2366 1.1946,12.3896 0.8896,12.3896" id="Fill-1"></path>
                        <path d="M6.9716,12.3896 C6.8156,12.3896 6.6596,12.3466 6.5146,12.2606 C6.0926,12.0066 5.9556,11.4596 6.2096,11.0376 L9.1626,6.1316 C9.4166,5.7096 9.9636,5.5726 10.3856,5.8266 C10.8076,6.0806 10.9446,6.6276 10.6906,7.0496 L7.7376,11.9596 C7.5736,12.2366 7.2766,12.3896 6.9716,12.3896" id="Fill-6"></path>
                        <path d="M3.9326,12.3896 C3.7766,12.3896 3.6206,12.3466 3.4756,12.2606 C3.0536,12.0066 2.9166,11.4596 3.1706,11.0376 L7.8346,3.2796 C8.0886,2.8576 8.6356,2.7216 9.0616,2.9756 C9.4836,3.2286 9.6206,3.7756 9.3666,4.1976 L4.7026,11.9556 C4.5306,12.2366 4.2336,12.3896 3.9326,12.3896" id="Fill-4"></path>
                    </g>
                    <path d="M57.4697668,74.6129166 C57.6506183,74.3249115 58.1003462,73.7937021 58.8253524,73.2448924 C60.0513012,72.3072759 61.5445259,71.7504661 63.3770471,71.7504661 C65.2095684,71.7504661 66.7027931,72.3072759 67.9287418,73.2448924 C68.6537481,73.7937021 69.103476,74.3249115 69.2843274,74.6129166 C69.834884,75.4945321 70.9920132,75.7633368 71.8674622,75.2193272 C72.7477126,74.6689175 73.0165891,73.5136972 72.4740347,72.6384818 C72.0675191,71.9872703 71.3233074,71.1136549 70.2045892,70.2560398 C68.3528625,68.849615 66.0722138,68 63.3770471,68 C60.6818805,68 58.4012318,68.849615 56.5495051,70.2560398 C55.4307869,71.1136549 54.6865752,71.9872703 54.2800596,72.6384818 C53.7375052,73.5136972 54.0063817,74.6689175 54.8866321,75.2193272 C55.7620811,75.7633368 56.9192102,75.4945321 57.4697668,74.6129166" id="Fill-1" fill="#493762"></path>
                    <g id="Group-4" transform="translate(47.000000, 48.000000)" fill="#493762">
                        <path d="M4,8 C1.79180887,8 0,6.20943557 0,3.99951237 C0,1.79056443 1.79180887,0 4,0 C6.20819113,0 8,1.79056443 8,3.99951237 C8,6.20943557 6.20819113,8 4,8" id="Path"></path>
                        <path d="M27.7477681,8 C29.9562733,8 31.7471992,6.20943557 31.7471992,3.99951237 C31.7471992,1.79056443 29.9562733,0 27.7477681,0 C25.5381251,0 23.7471992,1.79056443 23.7471992,3.99951237 C23.7471992,6.20943557 25.5381251,8 27.7477681,8" id="Path"></path>
                    </g>
                </g>
            </g>
        </g>
    </g>
</svg>