<?xml version="1.0" encoding="UTF-8" standalone="no"?>
<svg width="15px" height="16px" viewBox="0 0 15 16" version="1.1" xmlns="http://www.w3.org/2000/svg" xmlns:xlink="http://www.w3.org/1999/xlink">
    <!-- Generator: Sketch 40.2 (33826) - http://www.bohemiancoding.com/sketch -->
    <title>Icon_Notification</title>
    <desc>Created with Sketch.</desc>
    <defs></defs>
    <g id="Symbols" stroke="none" stroke-width="1" fill="none" fill-rule="evenodd" stroke-linecap="round" stroke-linejoin="round">
        <g id="Kickstarter_CampaignStatus" transform="translate(-2.000000, -2.000000)" stroke="#6A6A6A">
            <g id="Group" transform="translate(2.000000, 0.000000)">
                <g id="Icon_Notification" transform="translate(0.000000, 3.000000)">
                    <g>
                        <path d="M17.0833333,9.16666667 C17.0833333,6.12416667 15.1591667,3.53666667 12.4666667,2.53416667 C12.2816667,1.33583333 11.25,0.416666667 10,0.416666667 C8.75,0.416666667 7.715,1.33583333 7.53083333,2.53416667 C4.8375,3.53666667 2.91666667,6.12416667 2.91666667,9.16666667 L2.91666667,13.75 C2.91666667,15.1308333 1.79666667,16.25 0.416666667,16.25 L19.5833333,16.25 C18.2008333,16.25 17.0833333,15.1308333 17.0833333,13.75 L17.0833333,9.16666667 Z" id="Stroke-1310"></path>
                        <path d="M12.5,16.25 C12.5,17.6308333 11.38,18.75 10,18.75 C8.6175,18.75 7.5,17.6308333 7.5,16.25" id="Stroke-1311"></path>
                    </g>
                </g>
            </g>
        </g>
    </g>
</svg>