<?xml version="1.0" encoding="UTF-8" standalone="no"?>
<svg width="51px" height="51px" viewBox="0 0 51 51" version="1.1" xmlns="http://www.w3.org/2000/svg" xmlns:xlink="http://www.w3.org/1999/xlink">
    <!-- Generator: Sketch 3.8.3 (29802) - http://www.bohemiancoding.com/sketch -->
    <title>Icon_Trackable_Active</title>
    <desc>Created with Sketch.</desc>
    <defs></defs>
    <g id="Symbols" stroke="none" stroke-width="1" fill="none" fill-rule="evenodd">
        <g id="Icon_Trackable_Active">
            <g id="Group">
                <polygon id="Rectangle-33" fill="#493861" points="0 0 51 0 51 51"></polygon>
                <g id="TrackingOnly" transform="translate(32.000000, 9.000000)" stroke="#FFFFFF" stroke-linecap="round" stroke-linejoin="round">
                    <path d="M11,5.45454545 C11,8.46681818 5.5,15 5.5,15 C5.5,15 0,8.46681818 0,5.45454545 C0,2.44227273 2.46125,0 5.5,0 C8.53875,0 11,2.44227273 11,5.45454545 L11,5.45454545 Z" id="Stroke-204"></path>
                    <path d="M5.5,8 C4.11833333,8 3,6.88166667 3,5.5 C3,4.11833333 4.11833333,3 5.5,3 C6.88,3 8,4.11833333 8,5.5 C8,6.88166667 6.88,8 5.5,8 Z" id="Stroke-206"></path>
                </g>
            </g>
        </g>
    </g>
</svg>