<?xml version="1.0" encoding="UTF-8" standalone="no"?>
<svg width="20px" height="20px" viewBox="0 0 20 20" version="1.1" xmlns="http://www.w3.org/2000/svg" xmlns:xlink="http://www.w3.org/1999/xlink">
    <!-- Generator: Sketch 3.8.3 (29802) - http://www.bohemiancoding.com/sketch -->
    <title>Group</title>
    <desc>Created with Sketch.</desc>
    <defs></defs>
    <g id="Beeline-Lite-In-App" stroke="none" stroke-width="1" fill="none" fill-rule="evenodd" stroke-linecap="round" stroke-linejoin="round">
        <g id="7LiteMenuRoutes" transform="translate(-21.000000, -346.000000)" stroke="#6A6A6A">
            <g id="Group" transform="translate(22.000000, 347.000000)">
                <polyline id="Stroke-1351" points="3.375 1.875 0.375 1.875 0.375 17.625 17.625 17.625 17.625 1.875 14.625 1.875"></polyline>
                <polygon id="Stroke-1352" points="5.625 3.375 3.375 3.375 3.375 0.375 5.625 0.375"></polygon>
                <polygon id="Stroke-1353" points="14.625 3.375 12.375 3.375 12.375 0.375 14.625 0.375"></polygon>
                <path d="M5.625,1.875 L12.375,1.875" id="Stroke-1354"></path>
                <path d="M0.375,5.625 L17.625,5.625" id="Stroke-1355"></path>
                <path d="M4.875,7.125 L4.875,16.125" id="Stroke-1356"></path>
                <path d="M8.625,7.125 L8.625,16.125" id="Stroke-1357"></path>
                <path d="M12.375,7.125 L12.375,16.125" id="Stroke-1358"></path>
                <path d="M1.875,8.625 L16.125,8.625" id="Stroke-1359"></path>
                <path d="M1.875,11.625 L16.125,11.625" id="Stroke-1360"></path>
                <path d="M1.875,14.625 L16.125,14.625" id="Stroke-1361"></path>
            </g>
        </g>
    </g>
</svg>