<?xml version="1.0" encoding="UTF-8" standalone="no"?>
<svg width="320px" height="141px" viewBox="0 0 320 141" version="1.1" xmlns="http://www.w3.org/2000/svg" xmlns:xlink="http://www.w3.org/1999/xlink">
    <!-- Generator: Sketch 40.2 (33826) - http://www.bohemiancoding.com/sketch -->
    <title>Group</title>
    <desc>Created with Sketch.</desc>
    <defs></defs>
    <g id="Kickstarter" stroke="none" stroke-width="1" fill="none" fill-rule="evenodd">
        <g id="Fullflow" transform="translate(-1118.000000, -1983.000000)">
            <g id="Group" transform="translate(1118.000000, 1983.000000)">
                <g id="Group-6" transform="translate(255.149502, 21.262458)">
                    <g id="Group-4"></g>
                </g>
                <g id="Group-2">
                    <path d="M286.511628,71.4793811 L286.511628,110.023304" id="Line" stroke="#A9A9A9" stroke-linecap="square"></path>
                    <g id="KickstartBar" transform="translate(0.000000, 55.282392)">
                        <rect id="Rectangle" fill="#D9D9D9" x="7.39446846" y="4.4549913" width="288.38427" height="8.01898434" rx="4.00949217"></rect>
                        <path d="M0,8.46448347 C0,6.25010209 1.79893438,4.4549913 4.01023624,4.4549913 L225.531288,4.4549913 L225.531288,12.4739756 L4.01023624,12.4739756 C1.79544392,12.4739756 0,10.674359 0,8.46448347 L0,8.46448347 Z" id="Rectangle" fill="#A9A9A9"></path>
                        <rect id="Rectangle" fill="#493861" x="0" y="4.4549913" width="61.9286733" height="8.01898434" rx="4.00949217"></rect>
                        <ellipse id="Oval" stroke="#D9D9D9" stroke-width="6" fill="#FFFFFF" cx="286.997807" cy="8.46448347" rx="8.78093129" ry="8.46448347"></ellipse>
                    </g>
                    <rect id="Rectangle-2" fill="#A9A9A9" x="255.149502" y="0" width="64.1430384" height="39.3391642"></rect>
                    <polygon id="Triangle" fill="#A9A9A9" points="282.10817 35.6797071 293.263481 35.6797071 287.685825 48.4878071"></polygon>
                    <path d="M270.203594,20.2258196 C269.528694,20.1654383 268.913764,20.0021366 268.358784,19.7359098 C267.803805,19.4696829 267.325526,19.1307291 266.923932,18.7190381 L267.367356,18.0438683 C267.4064,17.9834869 267.462176,17.9340848 267.534686,17.8956603 C267.607196,17.8572358 267.682493,17.8380238 267.760581,17.8380238 C267.866557,17.8380238 267.986475,17.8901706 268.12034,17.9944656 C268.254204,18.0987607 268.418743,18.2181493 268.613962,18.352635 C268.809181,18.4871207 269.042046,18.6174876 269.312563,18.7437395 C269.583081,18.8699914 269.907976,18.9550729 270.287259,18.9989866 L270.596819,14.6268502 C270.206381,14.5115767 269.822921,14.3812098 269.446427,14.2357457 C269.069934,14.0902816 268.732489,13.9009065 268.434083,13.667615 C268.135677,13.4343234 267.89584,13.1406549 267.714565,12.7866007 C267.53329,12.4325464 267.442654,11.9892991 267.442654,11.4568454 C267.442654,11.0561329 267.522135,10.6650323 267.681099,10.283532 C267.840063,9.90203168 268.071534,9.56307785 268.375517,9.26666034 C268.679501,8.97024283 269.054595,8.72734879 269.500809,8.53797094 C269.947024,8.34859308 270.460163,8.24292731 271.040242,8.22097046 L271.123907,7.03530635 C271.135062,6.9310113 271.176894,6.83769607 271.249404,6.75535788 C271.321914,6.67301968 271.419522,6.6318512 271.542231,6.6318512 L272.094419,6.6318512 L271.977288,8.26213935 C272.562945,8.33349913 273.067718,8.48170566 273.491622,8.7067634 C273.915526,8.93182114 274.294803,9.20353311 274.629464,9.52190747 L274.269705,10.0653369 C274.158151,10.2300133 274.029866,10.3123502 273.884847,10.3123502 C273.806759,10.3123502 273.710545,10.2780431 273.596203,10.209428 C273.48186,10.1408128 273.343815,10.0612204 273.182062,9.97064841 C273.020309,9.88007639 272.83346,9.78950573 272.621508,9.69893371 C272.409556,9.6083617 272.16693,9.54386441 271.893624,9.50543992 L271.61753,13.4905887 C272.019123,13.6113514 272.415132,13.7430906 272.80557,13.8858101 C273.196008,14.0285297 273.547397,14.2124155 273.859747,14.4374733 C274.172097,14.662531 274.424484,14.943849 274.616914,15.2814356 C274.809344,15.6190222 274.905557,16.040313 274.905557,16.5453206 C274.905557,17.0393498 274.821893,17.5031813 274.654563,17.9368292 C274.487232,18.370477 274.243212,18.7519716 273.922496,19.0813244 C273.601779,19.4106772 273.208558,19.6782723 272.742822,19.8841178 C272.277085,20.0899633 271.745819,20.2093519 271.149006,20.2422872 L271.048609,21.6914322 C271.037453,21.7957272 270.994227,21.8876702 270.918928,21.9672638 C270.843629,22.0468574 270.747416,22.0866536 270.630285,22.0866536 L270.078097,22.0866536 L270.203594,20.2258196 Z M273.491622,16.7758664 C273.491622,16.5014057 273.440029,16.2653731 273.336842,16.0677614 C273.233655,15.8701498 273.09282,15.6999867 272.914334,15.5572672 C272.735849,15.4145476 272.526689,15.2910422 272.286848,15.1867471 C272.047008,15.0824521 271.790438,14.9863923 271.517132,14.8985649 L271.232671,18.9989866 C271.595221,18.9660513 271.917327,18.8878312 272.199,18.7643239 C272.480673,18.6408166 272.717721,18.4830041 272.910151,18.2908816 C273.102581,18.0987592 273.247599,17.8750771 273.345208,17.6198287 C273.442818,17.3645803 273.491622,17.0832623 273.491622,16.7758664 L273.491622,16.7758664 Z M268.848224,11.3086374 C268.848224,11.5721197 268.895633,11.8012909 268.990454,11.9961579 C269.085274,12.191025 269.216348,12.3625603 269.383679,12.5107691 C269.551009,12.6589778 269.746225,12.7879724 269.969332,12.8977567 C270.19244,13.0075409 270.435065,13.1063453 270.697216,13.1941727 L270.948211,9.48073858 C270.585661,9.51367386 270.271921,9.58503256 270.006982,9.69481682 C269.742042,9.80460109 269.524515,9.94182936 269.354396,10.1065058 C269.184276,10.2711821 269.057386,10.4564403 268.973721,10.6622858 C268.890056,10.8681313 268.848224,11.0835797 268.848224,11.3086374 L268.848224,11.3086374 Z M283.924626,8.97024431 C283.924626,9.17883441 283.857695,9.35036975 283.723831,9.48485547 C283.589966,9.61934119 283.364074,9.68658305 283.046146,9.68658305 L279.281228,9.68658305 L278.72904,12.7824838 C279.353741,12.6507427 279.931022,12.5848731 280.460902,12.5848731 C281.085603,12.5848731 281.636391,12.6754438 282.113283,12.8565878 C282.590175,13.0377318 282.990368,13.2874873 283.313873,13.6058616 C283.637379,13.924236 283.881399,14.3002415 284.04594,14.7338893 C284.210482,15.1675371 284.292752,15.6396024 284.292752,16.1500992 C284.292752,16.7758695 284.1812,17.34125 283.958092,17.8462576 C283.734985,18.3512652 283.429611,18.7835343 283.041962,19.1430777 C282.654313,19.5026212 282.198345,19.77845 281.674042,19.9705725 C281.14974,20.1626949 280.583614,20.2587547 279.975646,20.2587547 C279.624252,20.2587547 279.286807,20.2244477 278.963302,20.1558325 C278.639796,20.0872173 278.338606,19.9952744 278.059722,19.8800009 C277.780837,19.7647274 277.521479,19.6329883 277.281639,19.4847795 C277.041798,19.3365708 276.82985,19.1801305 276.645786,19.0154542 L277.097576,18.389687 C277.197974,18.2469674 277.331837,18.1756087 277.499167,18.1756087 C277.605143,18.1756087 277.729245,18.2181495 277.871476,18.3032323 C278.013707,18.3883151 278.185218,18.4830026 278.386015,18.5872977 C278.586811,18.6915927 278.822465,18.7862802 279.092982,18.871363 C279.3635,18.9564458 279.685606,18.9989866 280.059311,18.9989866 C280.477637,18.9989866 280.854125,18.933117 281.188786,18.8013759 C281.523447,18.6696348 281.809299,18.4816321 282.046351,18.2373621 C282.283402,17.9930921 282.466069,17.7007959 282.594356,17.3604647 C282.722642,17.0201334 282.786785,16.6386389 282.786785,16.2159694 C282.786785,15.8481922 282.732403,15.5160997 282.623638,15.2196822 C282.514873,14.9232647 282.350334,14.6707647 282.130016,14.4621746 C281.909697,14.2535845 281.635,14.0916552 281.305917,13.9763817 C280.976834,13.8611082 280.591979,13.8034723 280.151342,13.8034723 C279.850148,13.8034723 279.537802,13.8281734 279.214296,13.8775763 C278.890791,13.9269793 278.556135,14.0065716 278.210318,14.1163559 L277.273272,13.8446412 L278.243784,8.32800958 L283.924626,8.32800958 L283.924626,8.97024431 Z M286.183577,19.2212986 C286.183577,19.0785791 286.210071,18.9440954 286.263059,18.8178435 C286.316046,18.6915916 286.388555,18.581809 286.480587,18.4884923 C286.572619,18.3951757 286.682776,18.3210724 286.811063,18.2661803 C286.93935,18.2112882 287.076001,18.1838425 287.221021,18.1838425 C287.366041,18.1838425 287.502692,18.2112882 287.630979,18.2661803 C287.759265,18.3210724 287.870817,18.3951757 287.965638,18.4884923 C288.060458,18.581809 288.134362,18.6915916 288.18735,18.8178435 C288.240338,18.9440954 288.266831,19.0785791 288.266831,19.2212986 C288.266831,19.3695074 288.240338,19.5053634 288.18735,19.6288707 C288.134362,19.752378 288.060458,19.8607883 287.965638,19.9541049 C287.870817,20.0474215 287.759265,20.1201525 287.630979,20.1723 C287.502692,20.2244476 287.366041,20.2505209 287.221021,20.2505209 C287.076001,20.2505209 286.93935,20.2244476 286.811063,20.1723 C286.682776,20.1201525 286.572619,20.0474215 286.480587,19.9541049 C286.388555,19.8607883 286.316046,19.752378 286.263059,19.6288707 C286.210071,19.5053634 286.183577,19.3695074 286.183577,19.2212986 L286.183577,19.2212986 Z M298.197847,14.2316288 C298.197847,15.2636009 298.0849,16.1569569 297.859004,16.9117237 C297.633108,17.6664905 297.324946,18.2908792 296.934508,18.7849084 C296.54407,19.2789375 296.082524,19.6467093 295.549855,19.8882347 C295.017186,20.1297601 294.446877,20.2505209 293.838909,20.2505209 C293.225364,20.2505209 292.655054,20.1297601 292.127963,19.8882347 C291.600872,19.6467093 291.142115,19.2789375 290.751677,18.7849084 C290.361239,18.2908792 290.054471,17.6664905 289.831364,16.9117237 C289.608256,16.1569569 289.496704,15.2636009 289.496704,14.2316288 C289.496704,13.1996567 289.608256,12.3049284 289.831364,11.547417 C290.054471,10.7899056 290.361239,10.1627724 290.751677,9.6659986 C291.142115,9.16922481 291.600872,8.80008076 292.127963,8.55855538 C292.655054,8.31703 293.225364,8.19626913 293.838909,8.19626913 C294.446877,8.19626913 295.017186,8.31703 295.549855,8.55855538 C296.082524,8.80008076 296.54407,9.16922481 296.934508,9.6659986 C297.324946,10.1627724 297.633108,10.7899056 297.859004,11.547417 C298.0849,12.3049284 298.197847,13.1996567 298.197847,14.2316288 L298.197847,14.2316288 Z M296.650047,14.2316288 C296.650047,13.3313979 296.573355,12.5752701 296.419969,11.9632228 C296.266583,11.3511756 296.060212,10.8585261 295.800849,10.4852596 C295.541487,10.1119931 295.241691,9.84439794 294.901452,9.68246616 C294.561214,9.52053437 294.207036,9.43956969 293.838909,9.43956969 C293.470782,9.43956969 293.116604,9.52053437 292.776366,9.68246616 C292.436127,9.84439794 292.137725,10.1119931 291.881152,10.4852596 C291.624579,10.8585261 291.419602,11.3511756 291.266215,11.9632228 C291.112829,12.5752701 291.036137,13.3313979 291.036137,14.2316288 C291.036137,15.1318598 291.112829,15.8866153 291.266215,16.4959179 C291.419602,17.1052206 291.624579,17.5964978 291.881152,17.9697643 C292.137725,18.3430308 292.436127,18.6106259 292.776366,18.7725577 C293.116604,18.9344895 293.470782,19.0154542 293.838909,19.0154542 C294.207036,19.0154542 294.561214,18.9344895 294.901452,18.7725577 C295.241691,18.6106259 295.541487,18.3430308 295.800849,17.9697643 C296.060212,17.5964978 296.266583,17.1052206 296.419969,16.4959179 C296.573355,15.8866153 296.650047,15.1318598 296.650047,14.2316288 L296.650047,14.2316288 Z M307.902967,14.2316288 C307.902967,15.2636009 307.790021,16.1569569 307.564125,16.9117237 C307.338229,17.6664905 307.030066,18.2908792 306.639628,18.7849084 C306.249191,19.2789375 305.787644,19.6467093 305.254976,19.8882347 C304.722307,20.1297601 304.151997,20.2505209 303.54403,20.2505209 C302.930485,20.2505209 302.360175,20.1297601 301.833084,19.8882347 C301.305993,19.6467093 300.847235,19.2789375 300.456797,18.7849084 C300.06636,18.2908792 299.759592,17.6664905 299.536484,16.9117237 C299.313377,16.1569569 299.201825,15.2636009 299.201825,14.2316288 C299.201825,13.1996567 299.313377,12.3049284 299.536484,11.547417 C299.759592,10.7899056 300.06636,10.1627724 300.456797,9.6659986 C300.847235,9.16922481 301.305993,8.80008076 301.833084,8.55855538 C302.360175,8.31703 302.930485,8.19626913 303.54403,8.19626913 C304.151997,8.19626913 304.722307,8.31703 305.254976,8.55855538 C305.787644,8.80008076 306.249191,9.16922481 306.639628,9.6659986 C307.030066,10.1627724 307.338229,10.7899056 307.564125,11.547417 C307.790021,12.3049284 307.902967,13.1996567 307.902967,14.2316288 L307.902967,14.2316288 Z M306.355168,14.2316288 C306.355168,13.3313979 306.278476,12.5752701 306.12509,11.9632228 C305.971703,11.3511756 305.765332,10.8585261 305.50597,10.4852596 C305.246608,10.1119931 304.946812,9.84439794 304.606573,9.68246616 C304.266334,9.52053437 303.912157,9.43956969 303.54403,9.43956969 C303.175903,9.43956969 302.821725,9.52053437 302.481486,9.68246616 C302.141248,9.84439794 301.842846,10.1119931 301.586273,10.4852596 C301.329699,10.8585261 301.124722,11.3511756 300.971336,11.9632228 C300.81795,12.5752701 300.741258,13.3313979 300.741258,14.2316288 C300.741258,15.1318598 300.81795,15.8866153 300.971336,16.4959179 C301.124722,17.1052206 301.329699,17.5964978 301.586273,17.9697643 C301.842846,18.3430308 302.141248,18.6106259 302.481486,18.7725577 C302.821725,18.9344895 303.175903,19.0154542 303.54403,19.0154542 C303.912157,19.0154542 304.266334,18.9344895 304.606573,18.7725577 C304.946812,18.6106259 305.246608,18.3430308 305.50597,17.9697643 C305.765332,17.5964978 305.971703,17.1052206 306.12509,16.4959179 C306.278476,15.8866153 306.355168,15.1318598 306.355168,14.2316288 L306.355168,14.2316288 Z" id="$5.00" fill="#FFFFFF"></path>
                    <path d="M272.031206,33.5892422 L272.031206,27.3864624 L272.523899,27.3864624 C272.64165,27.3864624 272.716018,27.4428784 272.747005,27.5557123 L272.816725,28.1046308 C273.018142,27.8637154 273.248218,27.670071 273.50696,27.523692 C273.765703,27.377313 274.06395,27.3041246 274.401709,27.3041246 C274.671297,27.3041246 274.916092,27.355204 275.136101,27.4573643 C275.356109,27.5595247 275.543579,27.7104758 275.698514,27.9102222 C275.85345,28.1099685 275.972748,28.3577418 276.056414,28.6535494 C276.140079,28.949357 276.181911,29.2893781 276.181911,29.6736231 C276.181911,30.0151741 276.135431,30.3330863 276.04247,30.6273691 C275.949508,30.9216519 275.816266,31.1762866 275.642738,31.3912808 C275.46921,31.6062749 275.256176,31.7755231 275.003631,31.8990304 C274.751086,32.0225377 274.466783,32.0842905 274.150715,32.0842905 C273.859436,32.0842905 273.610768,32.0370229 273.404703,31.9424865 C273.198639,31.84795 273.016592,31.7137713 272.858558,31.5399462 L272.858558,33.5892422 L272.031206,33.5892422 Z M274.127475,27.9628269 C273.857887,27.9628269 273.621613,28.0238172 273.418647,28.1457997 C273.215682,28.2677822 273.028987,28.4400799 272.858558,28.662698 L272.858558,30.9041155 C273.010395,31.1053867 273.176948,31.2471892 273.358223,31.3295274 C273.539498,31.4118656 273.741686,31.4530341 273.964793,31.4530341 C274.401711,31.4530341 274.737917,31.2990335 274.973419,30.9910276 C275.208921,30.6830218 275.32667,30.2438913 275.32667,29.6736231 C275.32667,29.3717163 275.299557,29.1125074 275.24533,28.8959884 C275.191102,28.6794695 275.112861,28.5018351 275.010603,28.36308 C274.908346,28.2243249 274.78285,28.1229284 274.634112,28.0588876 C274.485373,27.9948468 274.316496,27.9628269 274.127475,27.9628269 L274.127475,27.9628269 Z M279.026515,27.3132732 C279.308498,27.3132732 279.568786,27.3597784 279.807387,27.45279 C280.045988,27.5458017 280.252049,27.6799804 280.425577,27.8553303 C280.599105,28.0306802 280.734672,28.2471959 280.832281,28.5048839 C280.929891,28.762572 280.978695,29.056088 280.978695,29.3854408 C280.978695,29.5135225 280.964751,29.5989089 280.936862,29.6416028 C280.908974,29.6842967 280.856297,29.7056433 280.778829,29.7056433 L277.646046,29.7056433 C277.652243,29.9984014 277.692526,30.253036 277.766895,30.469555 C277.841264,30.686074 277.94352,30.8667579 278.073666,31.0116121 C278.203812,31.1564663 278.358745,31.2647242 278.53847,31.3363889 C278.718196,31.4080536 278.919609,31.4438855 279.142716,31.4438855 C279.35033,31.4438855 279.529278,31.4202517 279.679566,31.3729835 C279.829853,31.3257153 279.959223,31.2746358 280.067678,31.2197437 C280.176133,31.1648516 280.266769,31.1137722 280.339588,31.0665039 C280.412408,31.0192357 280.475156,30.995602 280.527834,30.995602 C280.596006,30.995602 280.648683,31.0215229 280.685868,31.0733654 L280.91827,31.3706963 C280.816013,31.4926788 280.693615,31.5986496 280.551074,31.6886117 C280.408534,31.7785738 280.255924,31.8525246 280.093242,31.9104662 C279.930559,31.9684079 279.762457,32.0118636 279.588929,32.0408344 C279.415401,32.0698053 279.243425,32.0842905 279.072996,32.0842905 C278.747631,32.0842905 278.447835,32.0301615 278.173599,31.921902 C277.899363,31.8136426 277.662315,31.6550677 277.462448,31.4461726 C277.262581,31.2372776 277.106873,30.978831 276.995319,30.6708251 C276.883765,30.3628193 276.827989,30.0090753 276.827989,29.6095826 C276.827989,29.2863289 276.878343,28.9844267 276.979051,28.7038669 C277.079759,28.4233071 277.224622,28.1801082 277.413643,27.9742627 C277.602665,27.7684172 277.833515,27.6067928 278.106202,27.4893846 C278.378889,27.3719764 278.685657,27.3132732 279.026515,27.3132732 L279.026515,27.3132732 Z M279.045107,27.9125093 C278.645373,27.9125093 278.330859,28.0261038 278.101554,28.2532963 C277.872249,28.4804887 277.729711,28.7953513 277.673934,29.1978936 L280.235007,29.1978936 C280.235007,29.0088207 280.208669,28.8357606 280.155991,28.6787082 C280.103312,28.5216557 280.025846,28.3859522 279.923588,28.2715936 C279.821331,28.1572349 279.696609,28.068799 279.54942,28.0062829 C279.402232,27.9437669 279.234129,27.9125093 279.045107,27.9125093 L279.045107,27.9125093 Z M282.033801,32.02025 L282.033801,27.3864624 L282.507902,27.3864624 C282.597765,27.3864624 282.659738,27.4032347 282.693824,27.4367799 C282.72791,27.4703251 282.75115,27.5282659 282.763544,27.6106041 L282.819321,28.3333469 C282.980454,28.0100932 283.179543,27.7577457 283.416595,27.5762967 C283.653647,27.3948477 283.931752,27.3041246 284.250919,27.3041246 C284.381065,27.3041246 284.498815,27.3186098 284.604171,27.3475806 C284.709527,27.3765515 284.807135,27.4169576 284.896998,27.4688001 L284.790093,28.0771849 C284.768402,28.153424 284.720372,28.1915429 284.646003,28.1915429 C284.602621,28.1915429 284.536,28.1770577 284.446137,28.1480869 C284.356275,28.119116 284.230779,28.1046308 284.069645,28.1046308 C283.781465,28.1046308 283.540544,28.1869678 283.346874,28.3516442 C283.153205,28.5163206 282.991299,28.7557077 282.861153,29.0698126 L282.861153,32.02025 L282.033801,32.02025 Z M287.574272,32.02025 L287.574272,27.3864624 L288.048373,27.3864624 C288.138236,27.3864624 288.200209,27.4032347 288.234295,27.4367799 C288.268381,27.4703251 288.291621,27.5282659 288.304016,27.6106041 L288.359792,28.3333469 C288.520925,28.0100932 288.720015,27.7577457 288.957066,27.5762967 C289.194118,27.3948477 289.472223,27.3041246 289.79139,27.3041246 C289.921536,27.3041246 290.039286,27.3186098 290.144642,27.3475806 C290.249998,27.3765515 290.347606,27.4169576 290.437469,27.4688001 L290.330564,28.0771849 C290.308873,28.153424 290.260843,28.1915429 290.186474,28.1915429 C290.143092,28.1915429 290.076471,28.1770577 289.986608,28.1480869 C289.896746,28.119116 289.77125,28.1046308 289.610117,28.1046308 C289.321936,28.1046308 289.081015,28.1869678 288.887345,28.3516442 C288.693676,28.5163206 288.531771,28.7557077 288.401625,29.0698126 L288.401625,32.02025 L287.574272,32.02025 Z M292.240911,27.3864624 L292.240911,32.02025 L291.413559,32.02025 L291.413559,27.3864624 L292.240911,27.3864624 Z M292.426833,25.9318281 C292.426833,26.0111168 292.410565,26.0850676 292.378028,26.1536827 C292.345492,26.2222979 292.30211,26.2832882 292.247883,26.3366556 C292.193655,26.3900229 292.130907,26.4319538 292.059637,26.4624494 C291.988367,26.4929451 291.912449,26.5081926 291.831883,26.5081926 C291.751316,26.5081926 291.676174,26.4929451 291.606452,26.4624494 C291.536731,26.4319538 291.474758,26.3900229 291.420531,26.3366556 C291.366303,26.2832882 291.323696,26.2222979 291.292709,26.1536827 C291.261722,26.0850676 291.246229,26.0111168 291.246229,25.9318281 C291.246229,25.8525395 291.261722,25.777064 291.292709,25.7053992 C291.323696,25.6337345 291.366303,25.5712194 291.420531,25.5178521 C291.474758,25.4644847 291.536731,25.4225538 291.606452,25.3920582 C291.676174,25.3615626 291.751316,25.346315 291.831883,25.346315 C291.912449,25.346315 291.988367,25.3615626 292.059637,25.3920582 C292.130907,25.4225538 292.193655,25.4644847 292.247883,25.5178521 C292.30211,25.5712194 292.345492,25.6337345 292.378028,25.7053992 C292.410565,25.777064 292.426833,25.8525395 292.426833,25.9318281 L292.426833,25.9318281 Z M297.014454,32.02025 C296.896703,32.02025 296.822335,31.9638339 296.791348,31.8510001 L296.716979,31.2883585 C296.515563,31.529274 296.285487,31.722156 296.026744,31.8670102 C295.768002,32.0118644 295.471305,32.0842905 295.136644,32.0842905 C294.867056,32.0842905 294.622261,32.033211 294.402252,31.9310507 C294.182244,31.8288903 293.994774,31.6787016 293.839839,31.48048 C293.684903,31.2822584 293.565604,31.0352476 293.481939,30.73944 C293.398274,30.4436324 293.356442,30.1036112 293.356442,29.7193663 C293.356442,29.3778152 293.402922,29.0599031 293.495883,28.7656203 C293.588845,28.4713375 293.722862,28.2159404 293.897939,27.9994214 C294.073017,27.7829025 294.28605,27.6128919 294.537046,27.4893846 C294.788041,27.3658773 295.073119,27.3041246 295.392286,27.3041246 C295.680466,27.3041246 295.92681,27.3521545 296.131326,27.4482157 C296.335841,27.5442769 296.518662,27.6792181 296.679795,27.8530431 L296.679795,25.2822745 L297.507147,25.2822745 L297.507147,32.02025 L297.014454,32.02025 Z M295.410878,31.4255882 C295.680466,31.4255882 295.91674,31.3645978 296.119705,31.2426153 C296.322671,31.1206328 296.509366,30.9483351 296.679795,30.725717 L296.679795,28.4842995 C296.527958,28.2830284 296.361405,28.1419882 296.18013,28.0611748 C295.998855,27.9803614 295.798217,27.9399553 295.578208,27.9399553 C295.138191,27.9399553 294.800436,28.0939559 294.564934,28.4019617 C294.329432,28.7099676 294.211682,29.149098 294.211682,29.7193663 C294.211682,30.021273 294.238021,30.2797196 294.290699,30.4947138 C294.343377,30.7097079 294.420844,30.8865799 294.523102,31.0253351 C294.625359,31.1640902 294.750855,31.2654866 294.899593,31.3295274 C295.048331,31.3935682 295.218758,31.4255882 295.410878,31.4255882 L295.410878,31.4255882 Z M300.76078,27.3132732 C301.042762,27.3132732 301.30305,27.3597784 301.541651,27.45279 C301.780252,27.5458017 301.986314,27.6799804 302.159842,27.8553303 C302.333369,28.0306802 302.468936,28.2471959 302.566546,28.5048839 C302.664155,28.762572 302.712959,29.056088 302.712959,29.3854408 C302.712959,29.5135225 302.699015,29.5989089 302.671127,29.6416028 C302.643238,29.6842967 302.590561,29.7056433 302.513093,29.7056433 L299.38031,29.7056433 C299.386507,29.9984014 299.42679,30.253036 299.501159,30.469555 C299.575528,30.686074 299.677784,30.8667579 299.80793,31.0116121 C299.938076,31.1564663 300.093009,31.2647242 300.272735,31.3363889 C300.45246,31.4080536 300.653873,31.4438855 300.876981,31.4438855 C301.084595,31.4438855 301.263543,31.4202517 301.41383,31.3729835 C301.564118,31.3257153 301.693487,31.2746358 301.801942,31.2197437 C301.910397,31.1648516 302.001033,31.1137722 302.073853,31.0665039 C302.146672,31.0192357 302.20942,30.995602 302.262099,30.995602 C302.33027,30.995602 302.382948,31.0215229 302.420132,31.0733654 L302.652534,31.3706963 C302.550277,31.4926788 302.42788,31.5986496 302.285339,31.6886117 C302.142798,31.7785738 301.990189,31.8525246 301.827506,31.9104662 C301.664824,31.9684079 301.496721,32.0118636 301.323193,32.0408344 C301.149665,32.0698053 300.977689,32.0842905 300.80726,32.0842905 C300.481895,32.0842905 300.182099,32.0301615 299.907863,31.921902 C299.633627,31.8136426 299.396579,31.6550677 299.196712,31.4461726 C298.996845,31.2372776 298.841137,30.978831 298.729583,30.6708251 C298.61803,30.3628193 298.562254,30.0090753 298.562254,29.6095826 C298.562254,29.2863289 298.612607,28.9844267 298.713315,28.7038669 C298.814023,28.4233071 298.958886,28.1801082 299.147908,27.9742627 C299.336929,27.7684172 299.56778,27.6067928 299.840466,27.4893846 C300.113153,27.3719764 300.419921,27.3132732 300.76078,27.3132732 L300.76078,27.3132732 Z M300.779372,27.9125093 C300.379638,27.9125093 300.065123,28.0261038 299.835818,28.2532963 C299.606514,28.4804887 299.463975,28.7953513 299.408198,29.1978936 L301.969272,29.1978936 C301.969272,29.0088207 301.942933,28.8357606 301.890255,28.6787082 C301.837577,28.5216557 301.76011,28.3859522 301.657853,28.2715936 C301.555595,28.1572349 301.430874,28.068799 301.283685,28.0062829 C301.136496,27.9437669 300.968393,27.9125093 300.779372,27.9125093 L300.779372,27.9125093 Z" id="per-ride" fill="#FFFFFF"></path>
                    <path d="M267.682243,116.943522 C268.044125,116.943522 268.382142,116.997158 268.696303,117.104431 C269.010465,117.211704 269.281872,117.367646 269.510534,117.57226 C269.739196,117.776874 269.91914,118.026182 270.050372,118.320191 C270.181604,118.614199 270.247219,118.947934 270.247219,119.321405 C270.247219,119.639252 270.199499,119.933256 270.104058,120.203426 C270.008616,120.473596 269.879375,120.732837 269.716329,120.981155 C269.553283,121.229473 269.365385,121.469841 269.152631,121.702267 C268.939876,121.934693 268.7142,122.172082 268.475596,122.41444 L266.226768,124.714848 C266.385837,124.671144 266.546892,124.63638 266.709938,124.610555 C266.872984,124.58473 267.030062,124.571818 267.181178,124.571818 L270.044407,124.571818 C270.159732,124.571818 270.251196,124.605588 270.3188,124.673131 C270.386404,124.740674 270.420206,124.82808 270.420206,124.935354 L270.420206,125.578991 L264.717608,125.578991 L264.717608,125.215455 C264.717608,125.139966 264.73252,125.062492 264.762346,124.983031 C264.792171,124.903569 264.840886,124.830068 264.90849,124.762525 L267.646453,122.015147 C267.873126,121.784707 268.079913,121.563211 268.266819,121.35065 C268.453725,121.13809 268.613786,120.92454 268.747006,120.709993 C268.880227,120.495446 268.982626,120.277922 269.054207,120.057416 C269.125788,119.836909 269.161578,119.601507 269.161578,119.351203 C269.161578,119.100898 269.121811,118.881388 269.042277,118.692666 C268.962742,118.503944 268.853384,118.348003 268.714199,118.224837 C268.575013,118.101671 268.41197,118.009298 268.225064,117.947715 C268.038157,117.886132 267.837336,117.855341 267.622592,117.855341 C267.407849,117.855341 267.209016,117.887126 267.026086,117.950695 C266.843157,118.014265 266.681108,118.102664 266.539934,118.215898 C266.39876,118.329131 266.27946,118.46322 266.18203,118.618171 C266.084601,118.773122 266.016003,118.943962 265.976236,119.130697 C265.944422,119.245917 265.896702,119.32935 265.833074,119.381001 C265.769447,119.432651 265.685937,119.458475 265.582542,119.458475 C265.562658,119.458475 265.541781,119.457482 265.519909,119.455496 C265.498037,119.453509 265.473182,119.450529 265.445345,119.446556 L264.890595,119.351203 C264.946269,118.96184 265.053639,118.617179 265.212708,118.317211 C265.371777,118.017243 265.573593,117.765948 265.818162,117.563321 C266.06273,117.360693 266.343085,117.206738 266.659235,117.101451 C266.975385,116.996164 267.316384,116.943522 267.682243,116.943522 L267.682243,116.943522 Z M272.728684,124.768485 L274.565923,124.768485 L274.565923,118.945949 C274.565923,118.771133 274.571888,118.594333 274.583818,118.415544 L273.056763,119.720698 C273.016995,119.752483 272.977229,119.775328 272.937461,119.789234 C272.897694,119.803139 272.859916,119.810092 272.824125,119.810092 C272.764474,119.810092 272.710789,119.79718 272.663069,119.771355 C272.615348,119.74553 272.579558,119.714739 272.555698,119.678981 L272.221654,119.220091 L274.76277,117.020996 L275.627704,117.020996 L275.627704,124.768485 L277.309851,124.768485 L277.309851,125.578991 L272.728684,125.578991 L272.728684,124.768485 Z M281.109594,125.578991 L281.109594,119.54191 L281.741891,119.54191 C281.893007,119.54191 281.988447,119.615411 282.028214,119.762415 L282.10576,120.382214 C282.328456,120.108071 282.577992,119.883595 282.854375,119.708779 C283.130757,119.533963 283.451873,119.446556 283.817732,119.446556 C284.227335,119.446556 284.558392,119.559788 284.810915,119.786254 C285.063437,120.01272 285.245369,120.318643 285.356718,120.704033 C285.440229,120.485513 285.550581,120.296794 285.687778,120.137871 C285.824976,119.978947 285.979071,119.847837 286.150071,119.744537 C286.32107,119.641236 286.503002,119.565749 286.695874,119.518072 C286.888745,119.470394 287.084596,119.446556 287.283432,119.446556 C287.60157,119.446556 287.884908,119.497212 288.133453,119.598526 C288.381999,119.69984 288.592762,119.847835 288.76575,120.042517 C288.938737,120.237198 289.070962,120.476573 289.162426,120.760649 C289.253891,121.044725 289.299623,121.369521 289.299623,121.735045 L289.299623,125.578991 L288.237842,125.578991 L288.237842,121.735045 C288.237842,121.262247 288.134449,120.903681 287.927659,120.659336 C287.720869,120.414991 287.420631,120.29282 287.026935,120.29282 C286.851959,120.29282 286.685933,120.323611 286.528852,120.385194 C286.371771,120.446777 286.233582,120.537164 286.11428,120.656356 C285.994979,120.775549 285.900533,120.925531 285.83094,121.106307 C285.761347,121.287082 285.726551,121.49666 285.726551,121.735045 L285.726551,125.578991 L284.664771,125.578991 L284.664771,121.735045 C284.664771,121.250328 284.567342,120.888782 284.372483,120.650397 C284.177623,120.412011 283.893291,120.29282 283.519479,120.29282 C283.257015,120.29282 283.013444,120.363342 282.788759,120.504386 C282.564074,120.645431 282.358281,120.83713 282.171375,121.079488 L282.171375,125.578991 L281.109594,125.578991 Z M293.349899,119.446556 C293.791315,119.446556 294.189976,119.520057 294.545893,119.667062 C294.901811,119.814066 295.204037,120.02265 295.452583,120.29282 C295.701128,120.562991 295.892008,120.889772 296.025228,121.273176 C296.158449,121.656579 296.225058,122.084673 296.225058,122.557471 C296.225058,123.034242 296.158449,123.463329 296.025228,123.844746 C295.892008,124.226162 295.701128,124.551951 295.452583,124.822121 C295.204037,125.092291 294.901811,125.299882 294.545893,125.4449 C294.189976,125.589918 293.791315,125.662426 293.349899,125.662426 C292.908482,125.662426 292.509821,125.589918 292.153904,125.4449 C291.797987,125.299882 291.494766,125.092291 291.244232,124.822121 C290.993699,124.551951 290.80083,124.226162 290.665622,123.844746 C290.530413,123.463329 290.462809,123.034242 290.462809,122.557471 C290.462809,122.084673 290.530413,121.656579 290.665622,121.273176 C290.80083,120.889772 290.993699,120.562991 291.244232,120.29282 C291.494766,120.02265 291.797987,119.814066 292.153904,119.667062 C292.509821,119.520057 292.908482,119.446556 293.349899,119.446556 L293.349899,119.446556 Z M293.349899,124.83404 C293.946408,124.83404 294.391795,124.634396 294.686072,124.2351 C294.98035,123.835804 295.127487,123.278587 295.127487,122.56343 C295.127487,121.844301 294.98035,121.284104 294.686072,120.882821 C294.391795,120.481539 293.946408,120.280901 293.349899,120.280901 C293.047668,120.280901 292.785208,120.332551 292.562511,120.435851 C292.339814,120.539151 292.153905,120.68814 292.004778,120.882821 C291.85565,121.077503 291.744304,121.316878 291.670734,121.600954 C291.597165,121.88503 291.560381,122.205852 291.560381,122.56343 C291.560381,122.921009 291.597165,123.240838 291.670734,123.522927 C291.744304,123.805016 291.85565,124.042405 292.004778,124.2351 C292.153905,124.427795 292.339814,124.57579 292.562511,124.679091 C292.785208,124.782391 293.047668,124.83404 293.349899,124.83404 L293.349899,124.83404 Z M297.537371,125.578991 L297.537371,119.54191 L298.145808,119.54191 C298.261133,119.54191 298.340666,119.563762 298.38441,119.607466 C298.428154,119.65117 298.457979,119.726657 298.473886,119.833931 L298.545467,120.775548 C298.752256,120.354401 299.007757,120.025633 299.311977,119.789234 C299.616196,119.552835 299.973102,119.434637 300.382705,119.434637 C300.549728,119.434637 300.700841,119.453509 300.83605,119.491253 C300.971259,119.528998 301.096524,119.58164 301.211849,119.649183 L301.074652,120.441811 C301.046815,120.541138 300.985177,120.590801 300.889735,120.590801 C300.834061,120.590801 300.748563,120.571929 300.633238,120.534184 C300.517913,120.49644 300.356858,120.477568 300.150068,120.477568 C299.780232,120.477568 299.471046,120.58484 299.222501,120.799387 C298.973956,121.013934 298.766175,121.325817 298.599152,121.735045 L298.599152,125.578991 L297.537371,125.578991 Z M304.737199,119.446556 C305.099082,119.446556 305.433122,119.507145 305.73933,119.628324 C306.045538,119.749504 306.309986,119.924317 306.532683,120.15277 C306.755379,120.381222 306.929359,120.663308 307.054626,120.999034 C307.179892,121.33476 307.242525,121.717164 307.242525,122.146258 C307.242525,122.313128 307.22463,122.424373 307.188839,122.479996 C307.153049,122.535619 307.085445,122.56343 306.986027,122.56343 L302.965576,122.56343 C302.97353,122.944847 303.025227,123.276595 303.120668,123.558685 C303.216109,123.840774 303.34734,124.076176 303.514362,124.264898 C303.681385,124.45362 303.880218,124.594662 304.110868,124.68803 C304.341518,124.781398 304.600002,124.828081 304.886326,124.828081 C305.152767,124.828081 305.382419,124.79729 305.57529,124.735707 C305.768162,124.674124 305.934188,124.607576 306.073373,124.53606 C306.212558,124.464544 306.328876,124.397996 306.422329,124.336413 C306.515782,124.27483 306.59631,124.244039 306.663914,124.244039 C306.751402,124.244039 306.819005,124.27781 306.866726,124.345353 L307.164979,124.732727 C307.033747,124.891651 306.876669,125.029714 306.693739,125.14692 C306.51081,125.264126 306.314959,125.360472 306.106181,125.435961 C305.897403,125.511449 305.681669,125.568065 305.458972,125.605809 C305.236275,125.643554 305.01557,125.662426 304.79685,125.662426 C304.379294,125.662426 303.994551,125.591904 303.642611,125.45086 C303.290671,125.309815 302.986455,125.103217 302.729957,124.831061 C302.473458,124.558904 302.27363,124.222189 302.130468,123.820907 C301.987306,123.419625 301.915726,122.958754 301.915726,122.438279 C301.915726,122.017131 301.980347,121.623801 302.10959,121.258277 C302.238834,120.892752 302.424743,120.575903 302.667323,120.307719 C302.909904,120.039536 303.206166,119.828965 303.556117,119.676001 C303.906069,119.523037 304.29976,119.446556 304.737199,119.446556 L304.737199,119.446556 Z M304.76106,120.227265 C304.248062,120.227265 303.84443,120.37526 303.550152,120.671255 C303.255875,120.967251 303.072948,121.377466 303.001367,121.901914 L306.288115,121.901914 C306.288115,121.655582 306.254314,121.430113 306.186709,121.225499 C306.119105,121.020885 306.019688,120.844085 305.888456,120.695094 C305.757224,120.546103 305.597163,120.430885 305.408269,120.349437 C305.219374,120.267988 305.00364,120.227265 304.76106,120.227265 L304.76106,120.227265 Z M267.41978,140.248791 L267.41978,134.21171 L268.052077,134.21171 C268.203192,134.21171 268.298632,134.285211 268.3384,134.432216 L268.421911,135.087772 C268.684375,134.797737 268.977654,134.563328 269.301757,134.384539 C269.62586,134.20575 270.000661,134.116356 270.426171,134.116356 C270.756239,134.116356 271.04753,134.170986 271.300052,134.280246 C271.552574,134.389506 271.763338,134.544454 271.932349,134.745095 C272.10136,134.945736 272.229607,135.187098 272.317095,135.469187 C272.404583,135.751277 272.448326,136.06316 272.448326,136.404845 L272.448326,140.248791 L271.386546,140.248791 L271.386546,136.404845 C271.386546,135.94794 271.282158,135.593347 271.07338,135.341056 C270.864602,135.088764 270.545474,134.962621 270.115988,134.962621 C269.801826,134.962621 269.508547,135.038108 269.236141,135.189086 C268.963736,135.340063 268.712211,135.544674 268.481561,135.802925 L268.481561,140.248791 L267.41978,140.248791 Z M276.444917,134.116356 C276.806799,134.116356 277.140839,134.176945 277.447047,134.298124 C277.753255,134.419304 278.017704,134.594117 278.2404,134.82257 C278.463097,135.051023 278.637076,135.333108 278.762343,135.668834 C278.88761,136.00456 278.950243,136.386964 278.950243,136.816058 C278.950243,136.982928 278.932348,137.094173 278.896557,137.149796 C278.860766,137.205419 278.793163,137.233231 278.693745,137.233231 L274.673294,137.233231 C274.681248,137.614647 274.732944,137.946395 274.828386,138.228485 C274.923827,138.510574 275.055057,138.745976 275.22208,138.934698 C275.389102,139.12342 275.587936,139.264463 275.818586,139.35783 C276.049236,139.451198 276.307719,139.497881 276.594044,139.497881 C276.860484,139.497881 277.090137,139.46709 277.283008,139.405507 C277.475879,139.343924 277.641905,139.277376 277.781091,139.20586 C277.920276,139.134345 278.036594,139.067796 278.130047,139.006214 C278.2235,138.944631 278.304027,138.91384 278.371632,138.91384 C278.45912,138.91384 278.526723,138.94761 278.574444,139.015153 L278.872697,139.402527 C278.741465,139.561451 278.584386,139.699514 278.401457,139.81672 C278.218528,139.933926 278.022677,140.030272 277.813898,140.105761 C277.60512,140.18125 277.389386,140.237865 277.166689,140.27561 C276.943993,140.313354 276.723288,140.332226 276.504568,140.332226 C276.087011,140.332226 275.702269,140.261705 275.350328,140.12066 C274.998388,139.979615 274.694173,139.773018 274.437674,139.500861 C274.181175,139.228704 273.981348,138.89199 273.838186,138.490708 C273.695023,138.089425 273.623443,137.628554 273.623443,137.108079 C273.623443,136.686931 273.688064,136.293601 273.817308,135.928077 C273.946552,135.562552 274.132461,135.245703 274.375041,134.97752 C274.617621,134.709336 274.913883,134.498765 275.263835,134.345801 C275.613787,134.192837 276.007477,134.116356 276.444917,134.116356 L276.444917,134.116356 Z M276.468777,134.897065 C275.95578,134.897065 275.552148,135.04506 275.25787,135.341056 C274.963592,135.637051 274.780666,136.047266 274.709084,136.571714 L277.995833,136.571714 C277.995833,136.325383 277.962031,136.099913 277.894427,135.895299 C277.826822,135.690685 277.727406,135.513885 277.596174,135.364894 C277.464942,135.215903 277.304881,135.100685 277.115986,135.019237 C276.927092,134.937788 276.711358,134.897065 276.468777,134.897065 L276.468777,134.897065 Z M282.696301,134.116356 C283.058183,134.116356 283.392223,134.176945 283.698431,134.298124 C284.004639,134.419304 284.269087,134.594117 284.491784,134.82257 C284.714481,135.051023 284.88846,135.333108 285.013727,135.668834 C285.138994,136.00456 285.201626,136.386964 285.201626,136.816058 C285.201626,136.982928 285.183731,137.094173 285.14794,137.149796 C285.11215,137.205419 285.044547,137.233231 284.945128,137.233231 L280.924678,137.233231 C280.932631,137.614647 280.984328,137.946395 281.079769,138.228485 C281.175211,138.510574 281.306441,138.745976 281.473463,138.934698 C281.640486,139.12342 281.839319,139.264463 282.069969,139.35783 C282.300619,139.451198 282.559103,139.497881 282.845427,139.497881 C283.111868,139.497881 283.34152,139.46709 283.534392,139.405507 C283.727263,139.343924 283.893289,139.277376 284.032474,139.20586 C284.17166,139.134345 284.287977,139.067796 284.38143,139.006214 C284.474883,138.944631 284.555411,138.91384 284.623015,138.91384 C284.710503,138.91384 284.778106,138.94761 284.825827,139.015153 L285.12408,139.402527 C284.992848,139.561451 284.83577,139.699514 284.65284,139.81672 C284.469911,139.933926 284.27406,140.030272 284.065282,140.105761 C283.856504,140.18125 283.64077,140.237865 283.418073,140.27561 C283.195376,140.313354 282.974671,140.332226 282.755951,140.332226 C282.338395,140.332226 281.953652,140.261705 281.601712,140.12066 C281.249772,139.979615 280.945557,139.773018 280.689058,139.500861 C280.432559,139.228704 280.232731,138.89199 280.089569,138.490708 C279.946407,138.089425 279.874827,137.628554 279.874827,137.108079 C279.874827,136.686931 279.939448,136.293601 280.068691,135.928077 C280.197935,135.562552 280.383844,135.245703 280.626425,134.97752 C280.869005,134.709336 281.165267,134.498765 281.515219,134.345801 C281.865171,134.192837 282.258861,134.116356 282.696301,134.116356 L282.696301,134.116356 Z M282.720161,134.897065 C282.207163,134.897065 281.803531,135.04506 281.509254,135.341056 C281.214976,135.637051 281.032049,136.047266 280.960468,136.571714 L284.247216,136.571714 C284.247216,136.325383 284.213415,136.099913 284.14581,135.895299 C284.078206,135.690685 283.978789,135.513885 283.847557,135.364894 C283.716325,135.215903 283.556264,135.100685 283.36737,135.019237 C283.178475,134.937788 282.962741,134.897065 282.720161,134.897065 L282.720161,134.897065 Z M290.808783,140.248791 C290.657667,140.248791 290.562227,140.17529 290.52246,140.028286 L290.427019,139.295254 C290.168532,139.609129 289.873264,139.860423 289.541208,140.049145 C289.209151,140.237866 288.828385,140.332226 288.398899,140.332226 C288.052923,140.332226 287.738767,140.265678 287.456419,140.132579 C287.174071,139.999481 286.933483,139.803809 286.734647,139.545558 C286.53581,139.287307 286.382709,138.965491 286.275337,138.580102 C286.167965,138.194712 286.11428,137.751719 286.11428,137.251109 C286.11428,136.806123 286.17393,136.391935 286.293232,136.008532 C286.412534,135.625128 286.584525,135.292387 286.80921,135.010297 C287.033895,134.728208 287.307291,134.506712 287.629406,134.345801 C287.951521,134.184891 288.317374,134.104437 288.726977,134.104437 C289.096812,134.104437 289.412958,134.167013 289.675421,134.292165 C289.937885,134.417317 290.172509,134.593124 290.379299,134.81959 L290.379299,131.470291 L291.441079,131.470291 L291.441079,140.248791 L290.808783,140.248791 Z M288.750837,139.474043 C289.096812,139.474043 289.400033,139.394582 289.660509,139.235658 C289.920984,139.076735 290.160579,138.852258 290.379299,138.562223 L290.379299,135.642016 C290.184439,135.379792 289.970693,135.196039 289.738055,135.090752 C289.505416,134.985465 289.247927,134.932823 288.965579,134.932823 C288.400884,134.932823 287.967427,135.133461 287.665196,135.534743 C287.362965,135.936025 287.211851,136.508141 287.211851,137.251109 C287.211851,137.644445 287.245653,137.98116 287.313257,138.261263 C287.380862,138.541366 287.480279,138.771801 287.611511,138.952577 C287.742743,139.133353 287.903798,139.265456 288.09468,139.348891 C288.285563,139.432326 288.50428,139.474043 288.750837,139.474043 L288.750837,139.474043 Z M295.616622,134.116356 C295.978504,134.116356 296.312544,134.176945 296.618752,134.298124 C296.92496,134.419304 297.189408,134.594117 297.412105,134.82257 C297.634802,135.051023 297.808781,135.333108 297.934048,135.668834 C298.059315,136.00456 298.121947,136.386964 298.121947,136.816058 C298.121947,136.982928 298.104052,137.094173 298.068262,137.149796 C298.032471,137.205419 297.964868,137.233231 297.86545,137.233231 L293.844999,137.233231 C293.852952,137.614647 293.904649,137.946395 294.00009,138.228485 C294.095532,138.510574 294.226762,138.745976 294.393784,138.934698 C294.560807,139.12342 294.75964,139.264463 294.99029,139.35783 C295.220941,139.451198 295.479424,139.497881 295.765748,139.497881 C296.032189,139.497881 296.261842,139.46709 296.454713,139.405507 C296.647584,139.343924 296.81361,139.277376 296.952795,139.20586 C297.091981,139.134345 297.208298,139.067796 297.301751,139.006214 C297.395205,138.944631 297.475732,138.91384 297.543336,138.91384 C297.630824,138.91384 297.698428,138.94761 297.746148,139.015153 L298.044401,139.402527 C297.913169,139.561451 297.756091,139.699514 297.573162,139.81672 C297.390232,139.933926 297.194381,140.030272 296.985603,140.105761 C296.776825,140.18125 296.561091,140.237865 296.338394,140.27561 C296.115697,140.313354 295.894992,140.332226 295.676272,140.332226 C295.258716,140.332226 294.873974,140.261705 294.522033,140.12066 C294.170093,139.979615 293.865878,139.773018 293.609379,139.500861 C293.35288,139.228704 293.153053,138.89199 293.00989,138.490708 C292.866728,138.089425 292.795148,137.628554 292.795148,137.108079 C292.795148,136.686931 292.859769,136.293601 292.989013,135.928077 C293.118256,135.562552 293.304165,135.245703 293.546746,134.97752 C293.789326,134.709336 294.085588,134.498765 294.43554,134.345801 C294.785492,134.192837 295.179182,134.116356 295.616622,134.116356 L295.616622,134.116356 Z M295.640482,134.897065 C295.127484,134.897065 294.723853,135.04506 294.429575,135.341056 C294.135297,135.637051 293.95237,136.047266 293.880789,136.571714 L297.167538,136.571714 C297.167538,136.325383 297.133736,136.099913 297.066132,135.895299 C296.998527,135.690685 296.899111,135.513885 296.767879,135.364894 C296.636647,135.215903 296.476586,135.100685 296.287691,135.019237 C296.098797,134.937788 295.883062,134.897065 295.640482,134.897065 L295.640482,134.897065 Z M303.729104,140.248791 C303.577989,140.248791 303.482549,140.17529 303.442781,140.028286 L303.34734,139.295254 C303.088853,139.609129 302.793586,139.860423 302.461529,140.049145 C302.129472,140.237866 301.748706,140.332226 301.31922,140.332226 C300.973245,140.332226 300.659088,140.265678 300.37674,140.132579 C300.094393,139.999481 299.853804,139.803809 299.654968,139.545558 C299.456131,139.287307 299.30303,138.965491 299.195658,138.580102 C299.088287,138.194712 299.034602,137.751719 299.034602,137.251109 C299.034602,136.806123 299.094252,136.391935 299.213553,136.008532 C299.332855,135.625128 299.504846,135.292387 299.729531,135.010297 C299.954216,134.728208 300.227612,134.506712 300.549727,134.345801 C300.871842,134.184891 301.237695,134.104437 301.647298,134.104437 C302.017134,134.104437 302.333279,134.167013 302.595743,134.292165 C302.858207,134.417317 303.09283,134.593124 303.29962,134.81959 L303.29962,131.470291 L304.361401,131.470291 L304.361401,140.248791 L303.729104,140.248791 Z M301.671158,139.474043 C302.017134,139.474043 302.320354,139.394582 302.58083,139.235658 C302.841306,139.076735 303.0809,138.852258 303.29962,138.562223 L303.29962,135.642016 C303.10476,135.379792 302.891014,135.196039 302.658376,135.090752 C302.425737,134.985465 302.168248,134.932823 301.885901,134.932823 C301.321205,134.932823 300.887749,135.133461 300.585517,135.534743 C300.283286,135.936025 300.132173,136.508141 300.132173,137.251109 C300.132173,137.644445 300.165974,137.98116 300.233579,138.261263 C300.301183,138.541366 300.4006,138.771801 300.531832,138.952577 C300.663064,139.133353 300.824119,139.265456 301.015002,139.348891 C301.205885,139.432326 301.424601,139.474043 301.671158,139.474043 L301.671158,139.474043 Z" id="21-more-needed" fill="#7F7F7F"></path>
                    <path d="M38.1725441,91.5674661 C38.538618,91.5674661 38.8765274,91.617622 39.1862822,91.7179353 C39.4960371,91.8182486 39.762543,91.9610001 39.9858078,92.1461939 C40.2090727,92.3313877 40.3830558,92.5551602 40.5077623,92.8175181 C40.6324688,93.079876 40.6948211,93.3711661 40.6948211,93.691397 C40.6948211,93.9537549 40.6596222,94.1881373 40.5892234,94.3945513 C40.5188245,94.6009652 40.4182563,94.7822981 40.2875156,94.9385554 C40.1567749,95.0948127 39.9988828,95.2269542 39.8138344,95.3349839 C39.628786,95.4430136 39.4216154,95.5298219 39.1923164,95.5954114 C39.755507,95.738165 40.1788994,95.9773701 40.4625061,96.3130339 C40.7461128,96.6486976 40.8879141,97.0692356 40.8879141,97.5746604 C40.8879141,97.9566226 40.8124879,98.2999977 40.6616332,98.6047958 C40.5107786,98.909594 40.3046137,99.1690544 40.0431323,99.3831847 C39.7816509,99.5973151 39.4769291,99.7612863 39.1289577,99.8751033 C38.7809864,99.9889203 38.4078782,100.045828 38.0096219,100.045828 C37.5510238,100.045828 37.1588076,99.9908494 36.8329616,99.8808906 C36.5071155,99.7709318 36.2315585,99.6194995 36.0062823,99.4265893 C35.781006,99.2336791 35.5959604,99.0050839 35.45114,98.7407969 C35.3063195,98.4765099 35.1836262,98.1900425 35.0830565,97.8813861 L35.5416523,97.6961932 C35.6261309,97.6614694 35.7106082,97.6441077 35.7950868,97.6441077 C35.8755426,97.6441077 35.9469461,97.6605049 36.0092993,97.6932996 C36.0716526,97.7260943 36.1189197,97.7772148 36.151102,97.8466625 C36.1591476,97.8620953 36.167193,97.8784924 36.1752386,97.8958543 C36.1832842,97.9132162 36.1913297,97.9315424 36.1993752,97.9508335 C36.2556943,98.0627214 36.3240807,98.1890757 36.4045365,98.3299002 C36.4849923,98.4707246 36.5936061,98.6028661 36.7303809,98.7263287 C36.8671558,98.8497912 37.0371162,98.9539612 37.2402671,99.0388417 C37.443418,99.1237222 37.6958443,99.1661618 37.9975536,99.1661618 C38.2992629,99.1661618 38.5637574,99.1188995 38.791045,99.0243735 C39.0183327,98.9298475 39.207401,98.8073513 39.3582557,98.6568813 C39.5091103,98.5064114 39.6227524,98.338582 39.6991854,98.1533882 C39.7756185,97.9681944 39.8138344,97.7849324 39.8138344,97.6035968 C39.8138344,97.3798209 39.7826582,97.1753392 39.720305,96.9901454 C39.6579517,96.8049515 39.5453153,96.6448385 39.3823923,96.5098013 C39.2194693,96.3747641 38.9941964,96.2686651 38.7065669,96.191501 C38.4189373,96.1143369 38.0498519,96.0757555 37.5992993,96.0757555 L37.5992993,95.3291966 C37.9653733,95.3253384 38.2781405,95.286757 38.5376105,95.2134511 C38.7970805,95.1401452 39.0092795,95.0398334 39.1742139,94.9125126 C39.3391483,94.7851919 39.4588245,94.6327951 39.5332462,94.4553177 C39.6076678,94.2778403 39.644878,94.0810748 39.644878,93.8650154 C39.644878,93.6258067 39.6056564,93.4174668 39.527212,93.2399894 C39.4487676,93.062512 39.3411596,92.9159024 39.2043847,92.8001563 C39.0676098,92.6844101 38.9056949,92.5976018 38.7186352,92.5397288 C38.5315754,92.4818557 38.3294332,92.4529196 38.1122025,92.4529196 C37.8949719,92.4529196 37.6938354,92.4837848 37.508787,92.545516 C37.3237386,92.6072473 37.1598124,92.6930911 37.0170033,92.8030499 C36.8741943,92.9130087 36.754518,93.0441857 36.6579711,93.1965848 C36.5614241,93.3489839 36.489015,93.5139196 36.4407415,93.691397 C36.4085591,93.803285 36.3602864,93.884306 36.2959217,93.9344627 C36.2315571,93.9846194 36.1490911,94.0096973 36.0485214,94.0096973 C36.0284074,94.0096973 36.0072881,94.0087328 35.9851627,94.0068037 C35.9630374,94.0048746 35.9378953,94.001981 35.9097358,93.9981228 L35.3485593,93.9055263 C35.4048784,93.5274223 35.5134921,93.1927281 35.6744037,92.9014336 C35.8353153,92.6101392 36.0394689,92.3661114 36.2868705,92.169343 C36.5342721,91.9725746 36.8178746,91.8230714 37.1376864,91.720829 C37.4574983,91.6185865 37.8024474,91.5674661 38.1725441,91.5674661 L38.1725441,91.5674661 Z M45.8359216,94.0907192 L45.8359216,100.387277 C45.8359216,100.622628 45.8037397,100.841578 45.7393751,101.044133 C45.6750105,101.246689 45.5734365,101.423199 45.4346502,101.573669 C45.295864,101.724139 45.1168525,101.842777 44.8976104,101.929587 C44.6783683,102.016397 44.4158852,102.059801 44.1101531,102.059801 C43.977401,102.059801 43.8567191,102.050155 43.7481038,102.030864 C43.6394884,102.011573 43.5308747,101.982637 43.4222594,101.944055 L43.4705326,101.388476 C43.4785782,101.33832 43.4966805,101.30649 43.52484,101.292986 C43.5529996,101.279483 43.5972496,101.272731 43.6575914,101.272731 C43.6897738,101.272731 43.723967,101.273695 43.7601721,101.275625 C43.7963772,101.277554 43.8406272,101.278518 43.8929235,101.278518 C44.2067012,101.278518 44.4299627,101.208107 44.5627148,101.067283 C44.6954669,100.926458 44.7618419,100.699792 44.7618419,100.387277 L44.7618419,94.0907192 L45.8359216,94.0907192 Z M46.0772878,92.2503649 C46.0772878,92.3506782 46.0561685,92.4442382 46.0139292,92.5310478 C45.9716899,92.6178574 45.9153717,92.6950204 45.8449728,92.762539 C45.774574,92.8300575 45.6931137,92.883107 45.6005895,92.9216891 C45.5080653,92.9602711 45.4095085,92.9795619 45.3049159,92.9795619 C45.2003233,92.9795619 45.1027721,92.9602711 45.0122594,92.9216891 C44.9217466,92.883107 44.841292,92.8300575 44.7708931,92.762539 C44.7004943,92.6950204 44.6451818,92.6178574 44.6049539,92.5310478 C44.564726,92.4442382 44.5446123,92.3506782 44.5446123,92.2503649 C44.5446123,92.1500516 44.564726,92.0545624 44.6049539,91.9638946 C44.6451818,91.8732268 44.7004943,91.7941348 44.7708931,91.7266162 C44.841292,91.6590977 44.9217466,91.6060481 45.0122594,91.5674661 C45.1027721,91.5288841 45.2003233,91.5095933 45.3049159,91.5095933 C45.4095085,91.5095933 45.5080653,91.5288841 45.6005895,91.5674661 C45.6931137,91.6060481 45.774574,91.6590977 45.8449728,91.7266162 C45.9153717,91.7941348 45.9716899,91.8732268 46.0139292,91.9638946 C46.0561685,92.0545624 46.0772878,92.1500516 46.0772878,92.2503649 L46.0772878,92.2503649 Z M50.1805135,93.9981228 C50.6270433,93.9981228 51.030322,94.0694985 51.3903617,94.212252 C51.7504015,94.3550056 52.056129,94.5575583 52.3075534,94.8199162 C52.5589778,95.0822741 52.7520688,95.3996067 52.8868323,95.7719234 C53.0215958,96.1442401 53.0889765,96.5599554 53.0889765,97.0190817 C53.0889765,97.4820663 53.0215958,97.8987461 52.8868323,98.2691337 C52.7520688,98.6395214 52.5589778,98.9558894 52.3075534,99.2182473 C52.056129,99.4806052 51.7504015,99.6821933 51.3903617,99.8230178 C51.030322,99.9638423 50.6270433,100.034253 50.1805135,100.034253 C49.7339838,100.034253 49.3307051,99.9638423 48.9706654,99.8230178 C48.6106256,99.6821933 48.3038925,99.4806052 48.0504567,99.2182473 C47.7970209,98.9558894 47.6019184,98.6395214 47.4651436,98.2691337 C47.3283687,97.8987461 47.2599823,97.4820663 47.2599823,97.0190817 C47.2599823,96.5599554 47.3283687,96.1442401 47.4651436,95.7719234 C47.6019184,95.3996067 47.7970209,95.0822741 48.0504567,94.8199162 C48.3038925,94.5575583 48.6106256,94.3550056 48.9706654,94.212252 C49.3307051,94.0694985 49.7339838,93.9981228 50.1805135,93.9981228 L50.1805135,93.9981228 Z M50.1805135,99.2298218 C50.7839321,99.2298218 51.2344779,99.03595 51.5321644,98.6482004 C51.8298509,98.2604509 51.9786919,97.7193458 51.9786919,97.024869 C51.9786919,96.326534 51.8298509,95.7825353 51.5321644,95.3928567 C51.2344779,95.003178 50.7839321,94.8083416 50.1805135,94.8083416 C49.8747815,94.8083416 49.6092813,94.8584975 49.384005,94.9588109 C49.1587288,95.0591242 48.9706661,95.2038047 48.8198115,95.3928567 C48.6689568,95.5819087 48.5563204,95.814362 48.4818988,96.0902237 C48.4074772,96.3660853 48.3702669,96.6776306 48.3702669,97.024869 C48.3702669,97.3721074 48.4074772,97.6826882 48.4818988,97.9566207 C48.5563204,98.2305533 48.6689568,98.4610775 48.8198115,98.6482004 C48.9706661,98.8353233 49.1587288,98.9790393 49.384005,99.0793526 C49.6092813,99.1796659 49.8747815,99.2298218 50.1805135,99.2298218 L50.1805135,99.2298218 Z M55.6112535,94.0907192 L55.6112535,99.9532316 L54.5371738,99.9532316 L54.5371738,94.0907192 L55.6112535,94.0907192 Z M55.8526197,92.2503649 C55.8526197,92.3506782 55.8315004,92.4442382 55.7892611,92.5310478 C55.7470218,92.6178574 55.6907036,92.6950204 55.6203047,92.762539 C55.5499059,92.8300575 55.4684456,92.883107 55.3759214,92.9216891 C55.2833973,92.9602711 55.1848404,92.9795619 55.0802478,92.9795619 C54.9756553,92.9795619 54.8781041,92.9602711 54.7875913,92.9216891 C54.6970785,92.883107 54.6166239,92.8300575 54.5462251,92.762539 C54.4758262,92.6950204 54.4205137,92.6178574 54.3802858,92.5310478 C54.3400579,92.4442382 54.3199442,92.3506782 54.3199442,92.2503649 C54.3199442,92.1500516 54.3400579,92.0545624 54.3802858,91.9638946 C54.4205137,91.8732268 54.4758262,91.7941348 54.5462251,91.7266162 C54.6166239,91.6590977 54.6970785,91.6060481 54.7875913,91.5674661 C54.8781041,91.5288841 54.9756553,91.5095933 55.0802478,91.5095933 C55.1848404,91.5095933 55.2833973,91.5288841 55.3759214,91.5674661 C55.4684456,91.6060481 55.5499059,91.6590977 55.6203047,91.7266162 C55.6907036,91.7941348 55.7470218,91.8732268 55.7892611,91.9638946 C55.8315004,92.0545624 55.8526197,92.1500516 55.8526197,92.2503649 L55.8526197,92.2503649 Z M57.5059783,99.9532316 L57.5059783,94.0907192 L58.1455988,94.0907192 C58.2984649,94.0907192 58.3950104,94.1620949 58.4352383,94.3048485 L58.5197165,94.941449 C58.7852206,94.6598001 59.081897,94.4321695 59.4097544,94.2585503 C59.7376118,94.0849311 60.1167541,93.9981228 60.5471927,93.9981228 C60.8810843,93.9981228 61.1757493,94.0511723 61.4311965,94.1572729 C61.6866437,94.2633735 61.8998484,94.4138412 62.070817,94.6086806 C62.2417856,94.8035199 62.3715186,95.0379023 62.46002,95.3118348 C62.5485214,95.5857673 62.5927714,95.8886318 62.5927714,96.2204374 L62.5927714,99.9532316 L61.5186917,99.9532316 L61.5186917,96.2204374 C61.5186917,95.7767439 61.4130951,95.4324043 61.2018986,95.1874083 C60.9907021,94.9424123 60.667878,94.8199162 60.2334166,94.8199162 C59.9156162,94.8199162 59.6189398,94.893221 59.3433787,95.0398327 C59.0678175,95.1864445 58.8133799,95.3851391 58.580058,95.6359224 L58.580058,99.9532316 L57.5059783,99.9532316 Z M66.6356556,93.9981228 C67.0017295,93.9981228 67.3396389,94.0569595 67.6493937,94.1746347 C67.9591486,94.29231 68.2266601,94.4620684 68.4519364,94.6839152 C68.6772127,94.9057619 68.8532071,95.1796903 68.979925,95.5057086 C69.1066429,95.8317269 69.1700009,96.2030735 69.1700009,96.6197596 C69.1700009,96.7818042 69.1518986,96.8898323 69.1156935,96.9438471 C69.0794884,96.997862 69.011102,97.024869 68.9105322,97.024869 L64.8435114,97.024869 C64.851557,97.3952566 64.9038525,97.7174119 65.0003995,97.9913444 C65.0969464,98.2652769 65.2296965,98.4938721 65.3986537,98.6771368 C65.5676109,98.8604015 65.7687474,98.9973657 66.0020693,99.0880335 C66.2353911,99.1787013 66.4968686,99.2240346 66.7865095,99.2240346 C67.0560365,99.2240346 67.2883491,99.1941339 67.4834545,99.1343318 C67.6785598,99.0745296 67.8465088,99.0099056 67.9873064,98.940458 C68.1281041,98.8710103 68.245769,98.8063863 68.3403045,98.7465841 C68.4348401,98.686782 68.5163004,98.6568813 68.5846878,98.6568813 C68.6731892,98.6568813 68.7415756,98.6896756 68.7898491,98.7552651 L69.0915569,99.1314381 C68.9588048,99.2857663 68.799907,99.4198369 68.6148586,99.5336539 C68.4298103,99.647471 68.2316908,99.741031 68.0204943,99.8143369 C67.8092978,99.8876428 67.5910647,99.9426214 67.3657884,99.9792743 C67.1405122,100.015927 66.9172506,100.034253 66.6959972,100.034253 C66.2736042,100.034253 65.884405,99.9657713 65.5283881,99.8288051 C65.1723711,99.6918388 64.8646323,99.4912152 64.6051623,99.2269282 C64.3456923,98.9626412 64.1435501,98.6356633 63.9987297,98.2459846 C63.8539092,97.856306 63.7815001,97.408761 63.7815001,96.9033362 C63.7815001,96.4943665 63.8468694,96.11241 63.9776101,95.7574552 C64.1083508,95.4025004 64.2964134,95.0948132 64.5418036,94.8343844 C64.7871939,94.5739556 65.0868873,94.3694738 65.4408928,94.2209329 C65.7948984,94.0723921 66.1931487,93.9981228 66.6356556,93.9981228 L66.6356556,93.9981228 Z M66.6597922,94.7562561 C66.1408523,94.7562561 65.7325452,94.8999721 65.4348587,95.1874083 C65.1371722,95.4748446 64.9521266,95.8731982 64.8797164,96.3824812 L68.204536,96.3824812 C68.204536,96.1432725 68.1703428,95.9243227 68.1019554,95.7256252 C68.033568,95.5269276 67.9329997,95.3552401 67.8002476,95.2105574 C67.6674955,95.0658748 67.5055806,94.9539885 67.3144981,94.8748953 C67.1234156,94.7958021 66.9051824,94.7562561 66.6597922,94.7562561 L66.6597922,94.7562561 Z M74.8421071,99.9532316 C74.6892411,99.9532316 74.5926955,99.8818558 74.5524676,99.7391023 L74.4559211,99.0272671 C74.1944398,99.3320653 73.895752,99.576093 73.559849,99.7593578 C73.223946,99.9426225 72.8387696,100.034253 72.4043083,100.034253 C72.0543255,100.034253 71.7365298,99.9696295 71.4509117,99.8403796 C71.1652936,99.7111298 70.9219184,99.5211161 70.7207789,99.2703328 C70.5196394,99.0195495 70.3647643,98.7070396 70.2561489,98.3327938 C70.1475336,97.958548 70.0932267,97.5283646 70.0932267,97.0422309 C70.0932267,96.610112 70.1535677,96.2079002 70.2742514,95.8355834 C70.3949351,95.4632667 70.5689182,95.1401469 70.7962058,94.8662144 C71.0234935,94.5922819 71.3000562,94.3771902 71.6259022,94.2209329 C71.9517482,94.0646757 72.3218394,93.9865482 72.7361868,93.9865482 C73.1103063,93.9865482 73.4301134,94.047314 73.6956175,94.1688474 C73.9611217,94.2903809 74.1984628,94.4611039 74.4076479,94.6810215 L74.4076479,91.4285714 L75.4817276,91.4285714 L75.4817276,99.9532316 L74.8421071,99.9532316 Z M72.7603234,99.2008855 C73.1103062,99.2008855 73.4170394,99.1237225 73.6805322,98.9693943 C73.9440249,98.8150662 74.1863944,98.5970809 74.4076479,98.315432 L74.4076479,95.4796659 C74.2105312,95.2250244 73.9943094,95.0465851 73.7589762,94.9443427 C73.5236429,94.8421002 73.2631712,94.7909798 72.977553,94.7909798 C72.4063168,94.7909798 71.9678392,94.9858162 71.6621071,95.3754949 C71.3563751,95.7651735 71.2035113,96.3207466 71.2035113,97.0422309 C71.2035113,97.4241931 71.2377045,97.751171 71.306092,98.0231744 C71.3744794,98.2951778 71.4750477,98.5189503 71.6077997,98.6944986 C71.7405518,98.870047 71.9034724,98.9983303 72.0965663,99.0793526 C72.2896603,99.1603749 72.5109104,99.2008855 72.7603234,99.2008855 L72.7603234,99.2008855 Z" id="3-joined" fill="#493861"></path>
                    <path d="M61.2358804,67.4243748 L61.2358804,83.159768" id="Line" stroke="#493861" stroke-linecap="square"></path>
                </g>
            </g>
        </g>
    </g>
</svg>