<?xml version="1.0" encoding="UTF-8" standalone="no"?>
<svg width="320px" height="144px" viewBox="0 0 320 144" version="1.1" xmlns="http://www.w3.org/2000/svg" xmlns:xlink="http://www.w3.org/1999/xlink">
    <!-- Generator: Sketch 41 (35326) - http://www.bohemiancoding.com/sketch -->
    <title>Group 3</title>
    <desc>Created with Sketch.</desc>
    <defs></defs>
    <g id="Kickstarter" stroke="none" stroke-width="1" fill="none" fill-rule="evenodd">
        <g id="Fullflow" transform="translate(-1466.000000, -1887.000000)">
            <g id="Group" transform="translate(1118.000000, 1887.000000)">
                <g id="Group-2">
                    <g id="Group-3" transform="translate(348.000000, 0.000000)">
                        <g id="Group-6" transform="translate(255.000000, 22.000000)">
                            <g id="Group-4"></g>
                        </g>
                        <path d="M286.531561,72.2501452 L286.531561,110.794068" id="Line" stroke="#D9D9D9" stroke-linecap="square"></path>
                        <g id="KickstartBar" transform="translate(0.000000, 56.000000)">
                            <rect id="Rectangle" fill="#D9D9D9" x="7.39446846" y="4.4549913" width="288.38427" height="8.01898434" rx="4.00949217"></rect>
                            <path d="M0,8.46448347 C0,6.25010209 1.79893438,4.4549913 4.01023624,4.4549913 L225.531288,4.4549913 L225.531288,12.4739756 L4.01023624,12.4739756 C1.79544392,12.4739756 0,10.674359 0,8.46448347 L0,8.46448347 Z" id="Rectangle"></path>
                            <rect id="Rectangle" fill="#493861" x="0" y="4.4549913" width="61.9286733" height="8.01898434" rx="4.00949217"></rect>
                            <ellipse id="Oval" stroke="#D9D9D9" stroke-width="6" fill="#FFFFFF" cx="286.997807" cy="8.46448347" rx="8.78093129" ry="8.46448347"></ellipse>
                        </g>
                        <rect id="Rectangle-2" fill="#A9A9A9" x="255" y="0" width="64.1430384" height="39.3391642"></rect>
                        <polygon id="Triangle" fill="#A9A9A9" points="282 36 293.155311 36 287.577656 48.8081"></polygon>
                        <path d="M270.279661,20.5939684 C269.604762,20.5335871 268.989831,20.3702854 268.434852,20.1040586 C267.879872,19.8378317 267.401593,19.4988779 267,19.0871869 L267.443424,18.4120171 C267.482467,18.3516357 267.538243,18.3022336 267.610753,18.2638091 C267.683263,18.2253846 267.758561,18.2061726 267.836648,18.2061726 C267.942624,18.2061726 268.062543,18.2583194 268.196407,18.3626144 C268.330272,18.4669095 268.494811,18.5862981 268.69003,18.7207838 C268.885249,18.8552695 269.118113,18.9856364 269.388631,19.1118883 C269.659149,19.2381402 269.984044,19.3232217 270.363326,19.3671354 L270.672886,14.994999 C270.282448,14.8797255 269.898988,14.7493586 269.522495,14.6038945 C269.146001,14.4584304 268.808556,14.2690553 268.51015,14.0357638 C268.211744,13.8024722 267.971907,13.5088037 267.790633,13.1547495 C267.609358,12.8006952 267.518722,12.3574479 267.518722,11.8249942 C267.518722,11.4242817 267.598203,11.0331811 267.757167,10.6516808 C267.916131,10.2701805 268.147601,9.93122665 268.451585,9.63480914 C268.755569,9.33839163 269.130662,9.09549759 269.576877,8.90611974 C270.023092,8.71674188 270.536231,8.61107611 271.11631,8.58911926 L271.199975,7.40345515 C271.21113,7.2991601 271.252962,7.20584488 271.325472,7.12350668 C271.397982,7.04116848 271.49559,7 271.618299,7 L272.170487,7 L272.053356,8.63028816 C272.639013,8.70164793 273.143785,8.84985446 273.567689,9.0749122 C273.991593,9.29996994 274.37087,9.57168191 274.705531,9.89005628 L274.345772,10.4334857 C274.234219,10.5981621 274.105934,10.680499 273.960914,10.680499 C273.882827,10.680499 273.786613,10.6461919 273.67227,10.5775768 C273.557928,10.5089616 273.419882,10.4293692 273.258129,10.3387972 C273.096377,10.2482252 272.909527,10.1576545 272.697575,10.0670825 C272.485623,9.9765105 272.242998,9.91201321 271.969691,9.87358872 L271.693597,13.8587375 C272.09519,13.9795002 272.4912,14.1112394 272.881638,14.2539589 C273.272076,14.3966785 273.623464,14.5805643 273.935815,14.8056221 C274.248165,15.0306798 274.500551,15.3119978 274.692981,15.6495844 C274.885411,15.987171 274.981625,16.4084618 274.981625,16.9134694 C274.981625,17.4074986 274.897961,17.8713301 274.730631,18.304978 C274.5633,18.7386258 274.31928,19.1201204 273.998563,19.4494732 C273.677846,19.778826 273.284626,20.0464211 272.818889,20.2522666 C272.353153,20.4581121 271.821886,20.5775007 271.225074,20.610436 L271.124676,22.059581 C271.113521,22.163876 271.070294,22.255819 270.994996,22.3354126 C270.919697,22.4150062 270.823483,22.4548024 270.706352,22.4548024 L270.154164,22.4548024 L270.279661,20.5939684 Z M273.567689,17.1440152 C273.567689,16.8695545 273.516097,16.6335219 273.412909,16.4359102 C273.309722,16.2382986 273.168888,16.0681355 272.990402,15.925416 C272.811916,15.7826964 272.602756,15.659191 272.362916,15.5548959 C272.123075,15.4506009 271.866506,15.3545411 271.593199,15.2667137 L271.308739,19.3671354 C271.671288,19.3342001 271.993395,19.25598 272.275068,19.1324727 C272.556741,19.0089654 272.793789,18.8511529 272.986219,18.6590304 C273.178649,18.466908 273.323666,18.2432259 273.421276,17.9879775 C273.518885,17.7327291 273.567689,17.4514111 273.567689,17.1440152 L273.567689,17.1440152 Z M268.924291,11.6767862 C268.924291,11.9402685 268.971701,12.1694397 269.066521,12.3643067 C269.161342,12.5591738 269.292416,12.7307091 269.459746,12.8789179 C269.627077,13.0271266 269.822293,13.1561212 270.0454,13.2659055 C270.268507,13.3756897 270.511133,13.4744941 270.773284,13.5623215 L271.024278,9.84888738 C270.661729,9.88182266 270.347989,9.95318136 270.083049,10.0629656 C269.818109,10.1727499 269.600583,10.3099782 269.430463,10.4746546 C269.260344,10.6393309 269.133454,10.8245891 269.049788,11.0304346 C268.966123,11.2362801 268.924291,11.4517285 268.924291,11.6767862 L268.924291,11.6767862 Z M284.000694,9.33839311 C284.000694,9.54698321 283.933763,9.71851855 283.799898,9.85300427 C283.666034,9.98748999 283.440141,10.0547318 283.122213,10.0547318 L279.357296,10.0547318 L278.805108,13.1506326 C279.429808,13.0188915 280.00709,12.9530219 280.53697,12.9530219 C281.16167,12.9530219 281.712458,13.0435926 282.18935,13.2247366 C282.666242,13.4058806 283.066435,13.6556361 283.389941,13.9740104 C283.713446,14.2923848 283.957466,14.6683903 284.122008,15.1020381 C284.28655,15.5356859 284.368819,16.0077512 284.368819,16.518248 C284.368819,17.1440183 284.257267,17.7093988 284.03416,18.2144064 C283.811053,18.719414 283.505679,19.1516831 283.11803,19.5112265 C282.730381,19.87077 282.274412,20.1465988 281.75011,20.3387213 C281.225808,20.5308437 280.659681,20.6269035 280.051714,20.6269035 C279.70032,20.6269035 279.362875,20.5925965 279.039369,20.5239813 C278.715864,20.4553661 278.414673,20.3634232 278.135789,20.2481497 C277.856905,20.1328762 277.597547,20.0011371 277.357706,19.8529283 C277.117866,19.7047196 276.905917,19.5482794 276.721854,19.383603 L277.173644,18.7578358 C277.274042,18.6151162 277.407904,18.5437575 277.575235,18.5437575 C277.681211,18.5437575 277.805312,18.5862983 277.947543,18.6713811 C278.089774,18.7564639 278.261285,18.8511514 278.462082,18.9554465 C278.662879,19.0597415 278.898532,19.154429 279.16905,19.2395118 C279.439568,19.3245946 279.761674,19.3671354 280.135379,19.3671354 C280.553705,19.3671354 280.930193,19.3012658 281.264854,19.1695247 C281.599515,19.0377836 281.885367,18.8497809 282.122418,18.6055109 C282.35947,18.3612409 282.542136,18.0689447 282.670423,17.7286135 C282.79871,17.3882822 282.862852,17.0067877 282.862852,16.5841182 C282.862852,16.216341 282.808471,15.8842485 282.699706,15.587831 C282.590941,15.2914135 282.426402,15.0389135 282.206083,14.8303234 C281.985765,14.6217333 281.711068,14.459804 281.381985,14.3445305 C281.052901,14.229257 280.668047,14.1716211 280.22741,14.1716211 C279.926215,14.1716211 279.61387,14.1963222 279.290364,14.2457251 C278.966858,14.2951281 278.632202,14.3747204 278.286386,14.4845047 L277.34934,14.21279 L278.319852,8.69615838 L284.000694,8.69615838 L284.000694,9.33839311 Z M286.259644,19.5894474 C286.259644,19.4467279 286.286138,19.3122442 286.339126,19.1859923 C286.392114,19.0597404 286.464623,18.9499578 286.556655,18.8566411 C286.648686,18.7633245 286.758844,18.6892212 286.887131,18.6343291 C287.015417,18.579437 287.152069,18.5519913 287.297088,18.5519913 C287.442108,18.5519913 287.578759,18.579437 287.707046,18.6343291 C287.835333,18.6892212 287.946885,18.7633245 288.041705,18.8566411 C288.136526,18.9499578 288.210429,19.0597404 288.263417,19.1859923 C288.316405,19.3122442 288.342899,19.4467279 288.342899,19.5894474 C288.342899,19.7376562 288.316405,19.8735122 288.263417,19.9970195 C288.210429,20.1205268 288.136526,20.2289371 288.041705,20.3222537 C287.946885,20.4155703 287.835333,20.4883013 287.707046,20.5404488 C287.578759,20.5925964 287.442108,20.6186697 287.297088,20.6186697 C287.152069,20.6186697 287.015417,20.5925964 286.887131,20.5404488 C286.758844,20.4883013 286.648686,20.4155703 286.556655,20.3222537 C286.464623,20.2289371 286.392114,20.1205268 286.339126,19.9970195 C286.286138,19.8735122 286.259644,19.7376562 286.259644,19.5894474 L286.259644,19.5894474 Z M298.273914,14.5997776 C298.273914,15.6317497 298.160968,16.5251057 297.935072,17.2798725 C297.709176,18.0346393 297.401013,18.659028 297.010575,19.1530572 C296.620138,19.6470863 296.158591,20.0148581 295.625922,20.2563835 C295.093254,20.4979089 294.522944,20.6186697 293.914977,20.6186697 C293.301431,20.6186697 292.731122,20.4979089 292.204031,20.2563835 C291.67694,20.0148581 291.218182,19.6470863 290.827744,19.1530572 C290.437306,18.659028 290.130539,18.0346393 289.907431,17.2798725 C289.684324,16.5251057 289.572772,15.6317497 289.572772,14.5997776 C289.572772,13.5678055 289.684324,12.6730772 289.907431,11.9155658 C290.130539,11.1580544 290.437306,10.5309212 290.827744,10.0341474 C291.218182,9.53737361 291.67694,9.16822956 292.204031,8.92670418 C292.731122,8.6851788 293.301431,8.56441793 293.914977,8.56441793 C294.522944,8.56441793 295.093254,8.6851788 295.625922,8.92670418 C296.158591,9.16822956 296.620138,9.53737361 297.010575,10.0341474 C297.401013,10.5309212 297.709176,11.1580544 297.935072,11.9155658 C298.160968,12.6730772 298.273914,13.5678055 298.273914,14.5997776 L298.273914,14.5997776 Z M296.726115,14.5997776 C296.726115,13.6995467 296.649423,12.9434189 296.496037,12.3313716 C296.34265,11.7193244 296.136279,11.2266749 295.876917,10.8534084 C295.617555,10.4801419 295.317759,10.2125467 294.97752,10.050615 C294.637281,9.88868317 294.283104,9.80771849 293.914977,9.80771849 C293.54685,9.80771849 293.192672,9.88868317 292.852433,10.050615 C292.512195,10.2125467 292.213793,10.4801419 291.95722,10.8534084 C291.700646,11.2266749 291.495669,11.7193244 291.342283,12.3313716 C291.188897,12.9434189 291.112205,13.6995467 291.112205,14.5997776 C291.112205,15.5000086 291.188897,16.2547641 291.342283,16.8640667 C291.495669,17.4733694 291.700646,17.9646466 291.95722,18.3379131 C292.213793,18.7111796 292.512195,18.9787747 292.852433,19.1407065 C293.192672,19.3026383 293.54685,19.383603 293.914977,19.383603 C294.283104,19.383603 294.637281,19.3026383 294.97752,19.1407065 C295.317759,18.9787747 295.617555,18.7111796 295.876917,18.3379131 C296.136279,17.9646466 296.34265,17.4733694 296.496037,16.8640667 C296.649423,16.2547641 296.726115,15.5000086 296.726115,14.5997776 L296.726115,14.5997776 Z M307.979035,14.5997776 C307.979035,15.6317497 307.866089,16.5251057 307.640192,17.2798725 C307.414296,18.0346393 307.106134,18.659028 306.715696,19.1530572 C306.325258,19.6470863 305.863712,20.0148581 305.331043,20.2563835 C304.798374,20.4979089 304.228065,20.6186697 303.620097,20.6186697 C303.006552,20.6186697 302.436242,20.4979089 301.909151,20.2563835 C301.38206,20.0148581 300.923303,19.6470863 300.532865,19.1530572 C300.142427,18.659028 299.835659,18.0346393 299.612552,17.2798725 C299.389444,16.5251057 299.277892,15.6317497 299.277892,14.5997776 C299.277892,13.5678055 299.389444,12.6730772 299.612552,11.9155658 C299.835659,11.1580544 300.142427,10.5309212 300.532865,10.0341474 C300.923303,9.53737361 301.38206,9.16822956 301.909151,8.92670418 C302.436242,8.6851788 303.006552,8.56441793 303.620097,8.56441793 C304.228065,8.56441793 304.798374,8.6851788 305.331043,8.92670418 C305.863712,9.16822956 306.325258,9.53737361 306.715696,10.0341474 C307.106134,10.5309212 307.414296,11.1580544 307.640192,11.9155658 C307.866089,12.6730772 307.979035,13.5678055 307.979035,14.5997776 L307.979035,14.5997776 Z M306.431236,14.5997776 C306.431236,13.6995467 306.354544,12.9434189 306.201157,12.3313716 C306.047771,11.7193244 305.8414,11.2266749 305.582038,10.8534084 C305.322675,10.4801419 305.022879,10.2125467 304.682641,10.050615 C304.342402,9.88868317 303.988224,9.80771849 303.620097,9.80771849 C303.25197,9.80771849 302.897793,9.88868317 302.557554,10.050615 C302.217315,10.2125467 301.918914,10.4801419 301.66234,10.8534084 C301.405767,11.2266749 301.20079,11.7193244 301.047404,12.3313716 C300.894017,12.9434189 300.817325,13.6995467 300.817325,14.5997776 C300.817325,15.5000086 300.894017,16.2547641 301.047404,16.8640667 C301.20079,17.4733694 301.405767,17.9646466 301.66234,18.3379131 C301.918914,18.7111796 302.217315,18.9787747 302.557554,19.1407065 C302.897793,19.3026383 303.25197,19.383603 303.620097,19.383603 C303.988224,19.383603 304.342402,19.3026383 304.682641,19.1407065 C305.022879,18.9787747 305.322675,18.7111796 305.582038,18.3379131 C305.8414,17.9646466 306.047771,17.4733694 306.201157,16.8640667 C306.354544,16.2547641 306.431236,15.5000086 306.431236,14.5997776 L306.431236,14.5997776 Z" id="$5.00" fill="#FFFFFF"></path>
                        <text id="per-trip" font-family="Lato-Regular, Lato" font-size="10" font-weight="normal" fill="#FFFFFF">
                            <tspan x="271" y="32">per trip</tspan>
                        </text>
                        <text id="21-more-pax-needed" font-family="Lato-Regular, Lato" font-size="12" font-weight="normal" fill="#888888">
                            <tspan x="264.558" y="126">21 more</tspan>
                            <tspan x="256.488" y="141">pax needed</tspan>
                        </text>
                        <text id="3-pax-pre-ordered" font-family="Lato-Regular, Lato" font-size="12" font-weight="normal" fill="#493861">
                            <tspan x="46.484" y="99">3 pax</tspan>
                            <tspan x="28.376" y="114">pre-ordered</tspan>
                        </text>
                        <path d="M61.0631229,68 L61.0631229,83.7353932" id="Line" stroke="#493861" stroke-linecap="square"></path>
                    </g>
                </g>
            </g>
        </g>
    </g>
</svg>