<?xml version="1.0" encoding="UTF-8" standalone="no"?>
<svg width="269px" height="199px" viewBox="0 0 269 199" version="1.1" xmlns="http://www.w3.org/2000/svg" xmlns:xlink="http://www.w3.org/1999/xlink">
    <!-- Generator: Sketch 3.7.2 (28276) - http://www.bohemiancoding.com/sketch -->
    <title>introBook</title>
    <desc>Created with Sketch.</desc>
    <defs>
        <polygon id="path-1" points="0 0.485891667 268.543582 0.485891667 268.543582 199 0 199"></polygon>
    </defs>
    <g id="Main" stroke="none" stroke-width="1" fill="none" fill-rule="evenodd">
        <g id="0IntroTutorial1" transform="translate(-53.000000, -194.000000)">
            <g id="introBook" transform="translate(53.000000, 194.000000)">
                <polygon id="Fill-1" fill="#EDE3CE" points="113.55631 0.48556 91.9927633 32.6483822 53.849335 25.4545322 24.9020686 72.2858656 0.000275614754 141.234943 18.5337141 150.456935 37.3433186 141.234943 89.4311998 130.968754 149.075886 180.738654 218.754603 125.014232 262.052028 126.925738 268.543306 90.0283739 235.784839 62.8129128 188.402253 46.6458211 161.821966 5.61533778"></polygon>
                <g id="Group-51">
                    <path d="M67.4742953,52.7196881 C67.4742953,51.5173964 68.4461129,50.5428492 69.6450371,50.5428492 C70.84341,50.5428492 71.8152277,51.5173964 71.8152277,52.7196881 C71.8152277,53.9219797 70.84341,54.8959742 69.6450371,54.8959742 C68.4461129,54.8959742 67.4742953,53.9219797 67.4742953,52.7196881 M64.3995371,52.7799408 C64.3995371,56.3475686 69.6450371,61.7073019 69.6450371,61.7073019 C69.6450371,61.7073019 74.8899859,56.3475686 74.8899859,52.7799408 C74.8899859,49.8750936 72.5417482,47.5202603 69.6450371,47.5202603 C66.7477748,47.5202603 64.3995371,49.8750936 64.3995371,52.7799408" id="Fill-2" fill="#BFB4A5"></path>
                    <path d="M162.103093,122.683721 C162.103093,121.481429 163.074911,120.506882 164.273835,120.506882 C165.472208,120.506882 166.444026,121.481429 166.444026,122.683721 C166.444026,123.886013 165.472208,124.860007 164.273835,124.860007 C163.074911,124.860007 162.103093,123.886013 162.103093,122.683721 M159.028335,122.743974 C159.028335,126.311602 164.273835,131.671335 164.273835,131.671335 C164.273835,131.671335 169.518784,126.311602 169.518784,122.743974 C169.518784,119.839127 167.170546,117.484293 164.273835,117.484293 C161.376573,117.484293 159.028335,119.839127 159.028335,122.743974" id="Fill-4" fill="#BFB4A5"></path>
                    <path d="M85.3807654,58.3412722 C85.6051158,58.4750444 85.8498617,58.6010778 86.1144518,58.7188194" id="Stroke-6" stroke="#BFB4A5" stroke-width="2.7"></path>
                    <path d="M87.1465189,59.1103519 C99.9989861,63.2821658 144.040019,55.6372492 129.668363,84.5989353 C95.1933672,154.072599 141.829589,140.428385 157.648222,139.544494" id="Stroke-8" stroke="#BFB4A5" stroke-width="2.7" stroke-dasharray="2.708100080490112,1.805400013923645"></path>
                    <path d="M158.203585,139.518347 C158.490225,139.507844 158.765288,139.501764 159.028225,139.501764" id="Stroke-10" stroke="#BFB4A5" stroke-width="2.7"></path>
                    <path d="M153.849865,135.188992 C153.849865,133.9867 154.821682,133.012153 156.020606,133.012153 C157.218979,133.012153 158.190797,133.9867 158.190797,135.188992 C158.190797,136.391283 157.218979,137.365278 156.020606,137.365278 C154.821682,137.365278 153.849865,136.391283 153.849865,135.188992 M150.775106,135.249244 C150.775106,138.816872 156.020606,144.176606 156.020606,144.176606 C156.020606,144.176606 161.265555,138.816872 161.265555,135.249244 C161.265555,132.344397 158.917317,129.989564 156.020606,129.989564 C153.123344,129.989564 150.775106,132.344397 150.775106,135.249244" id="Fill-12" fill="#BFB4A5"></path>
                    <path d="M167.348428,139.245883 C167.348428,138.043591 168.320245,137.069044 169.51917,137.069044 C170.717543,137.069044 171.68936,138.043591 171.68936,139.245883 C171.68936,140.448175 170.717543,141.422169 169.51917,141.422169 C168.320245,141.422169 167.348428,140.448175 167.348428,139.245883 M164.27367,139.306136 C164.27367,142.873764 169.51917,148.233497 169.51917,148.233497 C169.51917,148.233497 174.764118,142.873764 174.764118,139.306136 C174.764118,136.401289 172.415881,134.046455 169.51917,134.046455 C166.621907,134.046455 164.27367,136.401289 164.27367,139.306136" id="Fill-14" fill="#544666"></path>
                    <path d="M77.9649094,62.1923644 C77.9649094,60.9900728 78.936727,60.0155256 80.1356512,60.0155256 C81.3340242,60.0155256 82.3058418,60.9900728 82.3058418,62.1923644 C82.3058418,63.3946561 81.3340242,64.3686506 80.1356512,64.3686506 C78.936727,64.3686506 77.9649094,63.3946561 77.9649094,62.1923644 M74.8901512,62.2526172 C74.8901512,65.820245 80.1356512,71.1799783 80.1356512,71.1799783 C80.1356512,71.1799783 85.3806,65.820245 85.3806,62.2526172 C85.3806,59.34777 83.0323623,56.9929367 80.1356512,56.9929367 C77.2383889,56.9929367 74.8901512,59.34777 74.8901512,62.2526172" id="Fill-16" fill="#BFB4A5"></path>
                    <path d="M80.4571283,45.6260567 C80.4571283,44.423765 81.4289459,43.4492178 82.6278701,43.4492178 C83.826243,43.4492178 84.7980607,44.423765 84.7980607,45.6260567 C84.7980607,46.8283483 83.826243,47.8023428 82.6278701,47.8023428 C81.4289459,47.8023428 80.4571283,46.8283483 80.4571283,45.6260567 M77.3823701,45.6863094 C77.3823701,49.2539372 82.6278701,54.6136706 82.6278701,54.6136706 C82.6278701,54.6136706 87.8728189,49.2539372 87.8728189,45.6863094 C87.8728189,42.7814622 85.5245811,40.4266289 82.6278701,40.4266289 C79.7306078,40.4266289 77.3823701,42.7814622 77.3823701,45.6863094" id="Fill-18" fill="#BFB4A5"></path>
                    <path d="M176.317428,126.956472 C176.317428,125.754181 177.289246,124.779633 178.48817,124.779633 C179.686543,124.779633 180.65836,125.754181 180.65836,126.956472 C180.65836,128.158764 179.686543,129.132758 178.48817,129.132758 C177.289246,129.132758 176.317428,128.158764 176.317428,126.956472 M173.24267,127.016725 C173.24267,130.584353 178.48817,135.944086 178.48817,135.944086 C178.48817,135.944086 183.733119,130.584353 183.733119,127.016725 C183.733119,124.111878 181.384881,121.757044 178.48817,121.757044 C175.590908,121.757044 173.24267,124.111878 173.24267,127.016725" id="Fill-20" fill="#BFB4A5"></path>
                    <path d="M90.9477975,55.0987331 C90.9477975,53.8964414 91.9196152,52.9218942 93.1185393,52.9218942 C94.3169123,52.9218942 95.2887299,53.8964414 95.2887299,55.0987331 C95.2887299,56.3010247 94.3169123,57.2750192 93.1185393,57.2750192 C91.9196152,57.2750192 90.9477975,56.3010247 90.9477975,55.0987331 M87.8730393,55.1589858 C87.8730393,58.7266136 93.1185393,64.0863469 93.1185393,64.0863469 C93.1185393,64.0863469 98.3634881,58.7266136 98.3634881,55.1589858 C98.3634881,52.2541386 96.0152504,49.8993053 93.1185393,49.8993053 C90.221277,49.8993053 87.8730393,52.2541386 87.8730393,55.1589858" id="Fill-22" fill="#544666"></path>
                    <path d="M77.4534787,122.183457 L52.3835607,122.183457 L52.3835607,184.445029 L97.3716057,184.445029 L97.3716057,142.157529 C97.3716057,131.126296 88.4538148,122.183457 77.4534787,122.183457" id="Fill-24" fill="#EDB072"></path>
                    <path d="M28.5853842,127.090797 L28.5853842,127.090797 C28.5853842,129.815439 31.092376,132.024339 34.1842223,132.024339 L57.9168576,132.024339 L57.9168576,127.090797 L28.5853842,127.090797 Z" id="Fill-26" fill="#EDB072"></path>
                    <path d="M28.5853842,127.334296 L28.5853842,127.334296 C28.5853842,124.609654 31.092376,122.400754 34.1842223,122.400754 L57.9168576,122.400754 L57.9168576,127.334296 L28.5853842,127.334296 Z" id="Fill-28" fill="#EDB072"></path>
                    <path d="M28.5853842,139.060647 L28.5853842,139.060647 C28.5853842,141.785289 31.092376,143.994189 34.1842223,143.994189 L57.9168576,143.994189 L57.9168576,139.060647 L28.5853842,139.060647 Z" id="Fill-30" fill="#EDB072"></path>
                    <path d="M28.5853842,139.304201 L28.5853842,139.304201 C28.5853842,136.579559 31.092376,134.370659 34.1842223,134.370659 L57.9168576,134.370659 L57.9168576,139.304201 L28.5853842,139.304201 Z" id="Fill-32" fill="#EDB072"></path>
                    <path d="M28.5853842,151.030552 L28.5853842,151.030552 C28.5853842,153.755194 31.092376,155.964094 34.1842223,155.964094 L57.9168576,155.964094 L57.9168576,151.030552 L28.5853842,151.030552 Z" id="Fill-34" fill="#EDB072"></path>
                    <path d="M28.5853842,151.274106 L28.5853842,151.274106 C28.5853842,148.549465 31.092376,146.340565 34.1842223,146.340565 L57.9168576,146.340565 L57.9168576,151.274106 L28.5853842,151.274106 Z" id="Fill-36" fill="#EDB072"></path>
                    <path d="M31.2351445,163.000458 L31.2351445,163.000458 C31.2351445,165.725099 33.7421363,167.933999 36.8339826,167.933999 L60.5666178,167.933999 L60.5666178,163.000458 L31.2351445,163.000458 Z" id="Fill-38" fill="#EDB072"></path>
                    <path d="M31.2351445,163.243956 L31.2351445,163.243956 C31.2351445,160.519315 33.7421363,158.310415 36.8339826,158.310415 L60.5666178,158.310415 L60.5666178,163.243956 L31.2351445,163.243956 Z" id="Fill-40" fill="#EDB072"></path>
                    <path d="M89.3280648,89.0790886 C89.3280648,84.9973775 86.0284049,81.6890025 81.9586775,81.6890025 L47.6380258,81.6890025 C43.5682984,81.6890025 40.2686385,84.9973775 40.2686385,89.0790886 L40.2686385,160.53225 C40.2686385,164.613408 43.5682984,167.922336 47.6380258,167.922336 L81.9586775,167.922336 C86.0284049,167.922336 89.3280648,164.613408 89.3280648,160.53225 L89.3280648,89.0790886 Z" id="Fill-42" fill="#6A6C75"></path>
                    <mask id="mask-2" fill="white">
                        <use xlink:href="#path-1"></use>
                    </mask>
                    <g id="Clip-45"></g>
                    <polygon id="Fill-44" fill="#BFB4A5" mask="url(#mask-2)" points="83.6352971 157.523425 45.583373 157.523425 45.583373 92.579775 83.6352971 92.579775"></polygon>
                    <path d="M71.5505824,86.5403461 L57.6684184,86.5403461 C56.8597648,86.5403461 56.2043529,87.1975989 56.2043529,88.0079711 C56.2043529,88.8183433 56.8597648,89.4755961 57.6684184,89.4755961 L71.5505824,89.4755961 C72.3586848,89.4755961 73.0140967,88.8183433 73.0140967,88.0079711 C73.0140967,87.1975989 72.3586848,86.5403461 71.5505824,86.5403461" id="Fill-46" fill="#BFB4A5" mask="url(#mask-2)"></path>
                    <path d="M64.6093902,164.593342 L64.6093902,164.593342 C62.9992488,164.593342 61.6823615,163.272203 61.6823615,161.658092 C61.6823615,160.043428 62.9992488,158.722842 64.6093902,158.722842 C66.2195316,158.722842 67.5364189,160.043428 67.5364189,161.658092 C67.5364189,163.272203 66.2195316,164.593342 64.6093902,164.593342" id="Fill-47" fill="#BFB4A5" mask="url(#mask-2)"></path>
                    <path d="M88.2604434,142.141057 L87.5956607,142.141057 L68.1008779,142.141057 C68.1008779,148.163571 72.9693369,153.045704 78.9749824,153.045704 L85.2700234,153.045704 L85.2700234,156.27669 C72.0746914,159.784065 64.8293307,170.202268 64.8293307,182.509865 L64.8293307,184.44514 L97.371716,184.44514 L97.371716,163.417473 L97.371716,155.013593 L97.371716,153.045704 L97.371716,151.277921 C97.371716,146.231612 93.2926176,142.141057 88.2604434,142.141057" id="Fill-48" fill="#FFD09C" mask="url(#mask-2)"></path>
                    <polygon id="Fill-49" fill="#261E3D" mask="url(#mask-2)" points="100.213525 199 49.1751844 199 49.1751844 181.939619 100.213525 181.939619"></polygon>
                    <path d="M60.783251,190.469699 C60.783251,192.496183 59.1449969,194.139038 57.1241895,194.139038 C55.1039334,194.139038 53.4656793,192.496183 53.4656793,190.469699 C53.4656793,188.443216 55.1039334,186.80036 57.1241895,186.80036 C59.1449969,186.80036 60.783251,188.443216 60.783251,190.469699" id="Fill-50" fill="#FFFFFF" mask="url(#mask-2)"></path>
                </g>
            </g>
        </g>
    </g>
</svg>