<?xml version="1.0" encoding="UTF-8" standalone="no"?>
<svg width="311px" height="201px" viewBox="0 0 311 201" version="1.1" xmlns="http://www.w3.org/2000/svg" xmlns:xlink="http://www.w3.org/1999/xlink">
    <!-- Generator: Sketch 40 (33762) - http://www.bohemiancoding.com/sketch -->
    <title>Artboard</title>
    <desc>Created with Sketch.</desc>
    <defs>
        <filter x="-50%" y="-50%" width="200%" height="200%" filterUnits="objectBoundingBox" id="filter-1">
            <feOffset dx="0" dy="0" in="SourceAlpha" result="shadowOffsetOuter1"></feOffset>
            <feGaussianBlur stdDeviation="2" in="shadowOffsetOuter1" result="shadowBlurOuter1"></feGaussianBlur>
            <feColorMatrix values="0 0 0 0 0   0 0 0 0 0   0 0 0 0 0  0 0 0 0.5 0" type="matrix" in="shadowBlurOuter1" result="shadowMatrixOuter1"></feColorMatrix>
            <feMerge>
                <feMergeNode in="shadowMatrixOuter1"></feMergeNode>
                <feMergeNode in="SourceGraphic"></feMergeNode>
            </feMerge>
        </filter>
        <polygon id="path-2" points="0 -6.30808537e-17 276 -6.30808537e-17 276 100 0 100"></polygon>
        <filter x="-50%" y="-50%" width="200%" height="200%" filterUnits="objectBoundingBox" id="filter-3">
            <feOffset dx="0" dy="1" in="SourceAlpha" result="shadowOffsetOuter1"></feOffset>
            <feColorMatrix values="0 0 0 0 0.850980392   0 0 0 0 0.850980392   0 0 0 0 0.850980392  0 0 0 1 0" type="matrix" in="shadowOffsetOuter1"></feColorMatrix>
        </filter>
        <filter x="-50%" y="-50%" width="200%" height="200%" filterUnits="objectBoundingBox" id="filter-4">
            <feOffset dx="0" dy="2" in="SourceAlpha" result="shadowOffsetOuter1"></feOffset>
            <feGaussianBlur stdDeviation="2" in="shadowOffsetOuter1" result="shadowBlurOuter1"></feGaussianBlur>
            <feColorMatrix values="0 0 0 0 0   0 0 0 0 0   0 0 0 0 0  0 0 0 0.5 0" type="matrix" in="shadowBlurOuter1" result="shadowMatrixOuter1"></feColorMatrix>
            <feMerge>
                <feMergeNode in="shadowMatrixOuter1"></feMergeNode>
                <feMergeNode in="SourceGraphic"></feMergeNode>
            </feMerge>
        </filter>
    </defs>
    <g id="Page-4" stroke="none" stroke-width="1" fill="none" fill-rule="evenodd">
        <g id="Artboard">
            <g id="RouteItemMini_Lite_WTime" filter="url(#filter-1)" transform="translate(19.000000, 48.000000)">
                <g id="RouteItem_MiniWTime">
                    <g id="RouteItem_Mini">
                        <g id="RouteItem">
                            <g>
                                <g id="Route">
                                    <g id="RouteBackground">
                                        <use fill="black" fill-opacity="1" filter="url(#filter-3)" xlink:href="#path-2"></use>
                                        <use fill="#FFFFFF" fill-rule="evenodd" xlink:href="#path-2"></use>
                                    </g>
                                    <text id="Origin" font-family="Lato-Regular, Lato" font-size="14" font-weight="normal" line-spacing="22" fill="#2F2F2F">
                                        <tspan x="102" y="60">One-north MRT</tspan>
                                    </text>
                                    <text id="Destination" font-family="Lato-Regular, Lato" font-size="14" font-weight="normal" line-spacing="22" fill="#2F2F2F">
                                        <tspan x="102" y="82">Pasir Ris MRT</tspan>
                                    </text>
                                    <text id="Start-Time" font-family="Lato-Regular, Lato" font-size="14" font-weight="normal" line-spacing="22" fill="#2F2F2F">
                                        <tspan x="20" y="60">8:20 am</tspan>
                                    </text>
                                    <text id="End-Time" font-family="Lato-Regular, Lato" font-size="14" font-weight="normal" line-spacing="22" fill="#2F2F2F">
                                        <tspan x="20" y="82">8:55 am</tspan>
                                    </text>
                                </g>
                                <g id="RouteLabel" transform="translate(21.000000, 17.000000)">
                                    <g id="Group-13">
                                        <rect id="Rectangle-301" fill="#493762" x="0" y="0" width="35" height="22" rx="5"></rect>
                                        <text id="J02" font-family="Lato-Regular, Lato" font-size="13" font-weight="normal" line-spacing="20" fill="#FFFFFF">
                                            <tspan x="6.2545" y="15">B01</tspan>
                                        </text>
                                    </g>
                                </g>
                                <g id="RouteIconPair" transform="translate(87.000000, 53.000000)" stroke-linejoin="round">
                                    <g id="Location-+-Journey-Line-+-Location">
                                        <g id="RoutePairSmallStart">
                                            <path d="M7.98432602,3.93055556 C7.98432602,6.10124758 6.19722557,7.86111111 3.99216301,7.86111111 C1.78710045,7.86111111 0,6.10124758 0,3.93055556 C0,1.75952174 1.78710045,0 3.99216301,0 C6.19722557,0 7.98432602,1.75952174 7.98432602,3.93055556 L7.98432602,3.93055556 Z" id="Stroke-365" stroke="#777777"></path>
                                            <path d="M3.99216301,5.12681159 C3.32113248,5.12681159 2.77715688,4.59123068 2.77715688,3.93055556 C2.77715688,3.26988043 3.32113248,2.73429952 3.99216301,2.73429952 C4.66354068,2.73429952 5.20716914,3.26988043 5.20716914,3.93055556 C5.20716914,4.59123068 4.66354068,5.12681159 3.99216301,5.12681159 Z" id="Stroke-972" stroke="#00C4A5" stroke-linecap="round" fill="#00C4A5"></path>
                                        </g>
                                        <path d="M4,9.5 L4,20.5" id="RoutePairSmallLine" stroke="#777777" stroke-linecap="round" stroke-dasharray="1,2,1,2"></path>
                                        <g id="RoutePairSmallEnd" transform="translate(0.000000, 20.138889)">
                                            <path d="M7.86111111,3.86989883 C7.86111111,6.00709253 6.10158937,7.73979767 3.93055556,7.73979767 C1.75952174,7.73979767 0,6.00709253 0,3.86989883 C0,1.73236863 1.75952174,0 3.93055556,0 C6.10158937,0 7.86111111,1.73236863 7.86111111,3.86989883 L7.86111111,3.86989883 Z" id="Stroke-365" stroke="#777777"></path>
                                            <path d="M3.81662641,4.97596096 C3.15595129,4.97596096 2.62037037,4.44864518 2.62037037,3.79816567 C2.62037037,3.14768615 3.15595129,2.62037037 3.81662641,2.62037037 C4.47764332,2.62037037 5.01288245,3.14768615 5.01288245,3.79816567 C5.01288245,4.44864518 4.47764332,4.97596096 3.81662641,4.97596096 Z" id="Stroke-972" stroke="#FF6C6A" stroke-linecap="round" fill="#FF6C6A"></path>
                                        </g>
                                    </g>
                                </g>
                            </g>
                        </g>
                        <g id="Icon_Trackable_Normal" transform="translate(225.000000, 0.000000)">
                            <g id="Icon_Tracking">
                                <g id="Group">
                                    <polygon id="Rectangle-33" fill="#888888" points="0 0 51 0 51 51"></polygon>
                                    <g id="TrackingOnly" transform="translate(32.000000, 9.000000)" stroke="#FFFFFF" stroke-linecap="round" stroke-linejoin="round">
                                        <path d="M11,5.45454545 C11,8.46681818 5.5,15 5.5,15 C5.5,15 0,8.46681818 0,5.45454545 C0,2.44227273 2.46125,0 5.5,0 C8.53875,0 11,2.44227273 11,5.45454545 L11,5.45454545 Z" id="Stroke-204"></path>
                                        <path d="M5.5,8 C4.11833333,8 3,6.88166667 3,5.5 C3,4.11833333 4.11833333,3 5.5,3 C6.88,3 8,4.11833333 8,5.5 C8,6.88166667 6.88,8 5.5,8 Z" id="Stroke-206"></path>
                                    </g>
                                </g>
                            </g>
                        </g>
                    </g>
                </g>
            </g>
            <g id="Group" filter="url(#filter-4)" transform="translate(271.000000, 7.000000)" stroke="#493861">
                <path d="M10.5,0.634938611 L10.5,16.6666667" id="Line" stroke-width="5" stroke-linecap="square"></path>
                <polygon id="Triangle" fill="#493861" points="0 18 21 18 10.5 36"></polygon>
            </g>
        </g>
    </g>
</svg>