<?xml version="1.0" encoding="UTF-8" standalone="no"?>
<svg width="311px" height="201px" viewBox="0 0 311 201" version="1.1" xmlns="http://www.w3.org/2000/svg" xmlns:xlink="http://www.w3.org/1999/xlink">
    <!-- Generator: Sketch 40 (33762) - http://www.bohemiancoding.com/sketch -->
    <title>Artboard</title>
    <desc>Created with Sketch.</desc>
    <defs>
        <filter x="-50%" y="-50%" width="200%" height="200%" filterUnits="objectBoundingBox" id="filter-1">
            <feOffset dx="0" dy="2" in="SourceAlpha" result="shadowOffsetOuter1"></feOffset>
            <feGaussianBlur stdDeviation="2" in="shadowOffsetOuter1" result="shadowBlurOuter1"></feGaussianBlur>
            <feColorMatrix values="0 0 0 0 0   0 0 0 0 0   0 0 0 0 0  0 0 0 0.5 0" type="matrix" in="shadowBlurOuter1" result="shadowMatrixOuter1"></feColorMatrix>
            <feMerge>
                <feMergeNode in="shadowMatrixOuter1"></feMergeNode>
                <feMergeNode in="SourceGraphic"></feMergeNode>
            </feMerge>
        </filter>
        <polygon id="path-2" points="0 41 276 41 276 141 0 141"></polygon>
        <filter x="-50%" y="-50%" width="200%" height="200%" filterUnits="objectBoundingBox" id="filter-3">
            <feOffset dx="0" dy="1" in="SourceAlpha" result="shadowOffsetOuter1"></feOffset>
            <feColorMatrix values="0 0 0 0 0.850980392   0 0 0 0 0.850980392   0 0 0 0 0.850980392  0 0 0 1 0" type="matrix" in="shadowOffsetOuter1"></feColorMatrix>
        </filter>
        <polygon id="path-4" points="0 -6.30808537e-17 276 -6.30808537e-17 276 100 0 100"></polygon>
        <filter x="-50%" y="-50%" width="200%" height="200%" filterUnits="objectBoundingBox" id="filter-5">
            <feOffset dx="0" dy="1" in="SourceAlpha" result="shadowOffsetOuter1"></feOffset>
            <feColorMatrix values="0 0 0 0 0.850980392   0 0 0 0 0.850980392   0 0 0 0 0.850980392  0 0 0 1 0" type="matrix" in="shadowOffsetOuter1"></feColorMatrix>
        </filter>
    </defs>
    <g id="Page-4" stroke="none" stroke-width="1" fill="none" fill-rule="evenodd">
        <g id="Group-2" filter="url(#filter-1)" transform="translate(19.000000, 7.000000)">
            <g id="Group">
                <g id="RouteBackground">
                    <use fill="black" fill-opacity="1" filter="url(#filter-3)" xlink:href="#path-2"></use>
                    <use fill="#FFFFFF" fill-rule="evenodd" xlink:href="#path-2"></use>
                </g>
                <path d="M262.5,0.634938611 L262.5,16.6666667" id="Line" stroke="#493861" stroke-width="5" stroke-linecap="square"></path>
                <polygon id="Triangle" stroke="#493861" fill="#493861" points="252 18 273 18 262.5 36"></polygon>
            </g>
        </g>
        <g id="Artboard">
            <g id="RouteItemMini_Lite_WTime" transform="translate(19.000000, 48.000000)">
                <g id="RouteItem_MiniWTime">
                    <g id="RouteItem_Mini">
                        <g id="RouteItem">
                            <g>
                                <g id="Route">
                                    <g id="RouteBackground">
                                        <use fill="black" fill-opacity="1" filter="url(#filter-5)" xlink:href="#path-4"></use>
                                        <use fill="#FFFFFF" fill-rule="evenodd" xlink:href="#path-4"></use>
                                    </g>
                                    <path d="M112.535,54.988 C112.535,55.7393371 112.416001,56.4288302 112.178,57.0565 C111.939999,57.6841698 111.604002,58.2243311 111.17,58.677 C110.735998,59.1296689 110.214503,59.4808321 109.6055,59.7305 C108.996497,59.9801679 108.323337,60.105 107.586,60.105 C106.848663,60.105 106.17667,59.9801679 105.57,59.7305 C104.96333,59.4808321 104.443002,59.1296689 104.009,58.677 C103.574998,58.2243311 103.239001,57.6841698 103.001,57.0565 C102.762999,56.4288302 102.644,55.7393371 102.644,54.988 C102.644,54.2366629 102.762999,53.5471698 103.001,52.9195 C103.239001,52.2918302 103.574998,51.7505023 104.009,51.2955 C104.443002,50.8404977 104.96333,50.4870013 105.57,50.235 C106.17667,49.9829987 106.848663,49.857 107.586,49.857 C108.323337,49.857 108.996497,49.9829987 109.6055,50.235 C110.214503,50.4870013 110.735998,50.8404977 111.17,51.2955 C111.604002,51.7505023 111.939999,52.2918302 112.178,52.9195 C112.416001,53.5471698 112.535,54.2366629 112.535,54.988 L112.535,54.988 Z M111.142,54.988 C111.142,54.3719969 111.058001,53.8190024 110.89,53.329 C110.721999,52.8389975 110.484002,52.424835 110.176,52.0865 C109.867998,51.748165 109.494669,51.4880009 109.056,51.306 C108.617331,51.1239991 108.127336,51.033 107.586,51.033 C107.049331,51.033 106.561669,51.1239991 106.123,51.306 C105.684331,51.4880009 105.309835,51.748165 104.9995,52.0865 C104.689165,52.424835 104.450001,52.8389975 104.282,53.329 C104.113999,53.8190024 104.03,54.3719969 104.03,54.988 C104.03,55.6040031 104.113999,56.1558309 104.282,56.6435 C104.450001,57.1311691 104.689165,57.544165 104.9995,57.8825 C105.309835,58.220835 105.684331,58.4798324 106.123,58.6595 C106.561669,58.8391676 107.049331,58.929 107.586,58.929 C108.127336,58.929 108.617331,58.8391676 109.056,58.6595 C109.494669,58.4798324 109.867998,58.220835 110.176,57.8825 C110.484002,57.544165 110.721999,57.1311691 110.89,56.6435 C111.058001,56.1558309 111.142,55.6040031 111.142,54.988 L111.142,54.988 Z M114.194,60 L114.194,52.909 L114.936,52.909 C115.113334,52.909 115.225333,52.9953325 115.272,53.168 L115.37,53.938 C115.678002,53.5973316 116.022165,53.322001 116.4025,53.112 C116.782835,52.9019989 117.222664,52.797 117.722,52.797 C118.109335,52.797 118.451165,52.861166 118.7475,52.9895 C119.043835,53.117834 119.291166,53.2998322 119.4895,53.5355 C119.687834,53.7711678 119.838333,54.054665 119.941,54.386 C120.043667,54.717335 120.095,55.0836647 120.095,55.485 L120.095,60 L118.849,60 L118.849,55.485 C118.849,54.9483306 118.726501,54.5318348 118.4815,54.2355 C118.236499,53.9391652 117.862003,53.791 117.358,53.791 C116.989331,53.791 116.645168,53.8796658 116.3255,54.057 C116.005832,54.2343342 115.710668,54.4746651 115.44,54.778 L115.44,60 L114.194,60 Z M124.785,52.797 C125.209669,52.797 125.601665,52.868166 125.961,53.0105 C126.320335,53.152834 126.630665,53.3581653 126.892,53.6265 C127.153335,53.8948347 127.357499,54.2261647 127.5045,54.6205 C127.651501,55.0148353 127.725,55.4639975 127.725,55.968 C127.725,56.164001 127.704,56.2946663 127.662,56.36 C127.62,56.4253337 127.540667,56.458 127.424,56.458 L122.706,56.458 C122.715333,56.9060022 122.775999,57.295665 122.888,57.627 C123.000001,57.958335 123.153999,58.2348322 123.35,58.4565 C123.546001,58.6781678 123.779332,58.8438328 124.05,58.9535 C124.320668,59.0631672 124.623998,59.118 124.96,59.118 C125.272668,59.118 125.542166,59.0818337 125.7685,59.0095 C125.994834,58.9371663 126.189666,58.8590004 126.353,58.775 C126.516334,58.6909996 126.652833,58.6128337 126.7625,58.5405 C126.872167,58.4681663 126.966666,58.432 127.046,58.432 C127.148667,58.432 127.228,58.4716663 127.284,58.551 L127.634,59.006 C127.479999,59.1926676 127.295668,59.3548326 127.081,59.4925 C126.866332,59.6301674 126.636501,59.7433329 126.3915,59.832 C126.146499,59.9206671 125.893335,59.9871664 125.632,60.0315 C125.370665,60.0758336 125.111668,60.098 124.855,60.098 C124.364998,60.098 123.913502,60.0151675 123.5005,59.8495 C123.087498,59.6838325 122.730502,59.4411683 122.4295,59.1215 C122.128498,58.8018317 121.894001,58.4063357 121.726,57.935 C121.557999,57.4636643 121.474,56.9223364 121.474,56.311 C121.474,55.8163309 121.549833,55.3543355 121.7015,54.925 C121.853167,54.4956645 122.071332,54.1235016 122.356,53.8085 C122.640668,53.4934984 122.988331,53.2461676 123.399,53.0665 C123.809669,52.8868324 124.271664,52.797 124.785,52.797 L124.785,52.797 Z M124.813,53.714 C124.210997,53.714 123.737335,53.8878316 123.392,54.2355 C123.046665,54.5831684 122.832,55.0649969 122.748,55.681 L126.605,55.681 C126.605,55.3916652 126.565334,55.1268345 126.486,54.8865 C126.406666,54.6461655 126.290001,54.4385009 126.136,54.2635 C125.981999,54.0884991 125.794168,53.9531671 125.5725,53.8575 C125.350832,53.7618329 125.097668,53.714 124.813,53.714 L124.813,53.714 Z M128.992,55.275 L132.45,55.275 L132.45,56.332 L128.992,56.332 L128.992,55.275 Z M134.172,60 L134.172,52.909 L134.914,52.909 C135.091334,52.909 135.203333,52.9953325 135.25,53.168 L135.348,53.938 C135.656002,53.5973316 136.000165,53.322001 136.3805,53.112 C136.760835,52.9019989 137.200664,52.797 137.7,52.797 C138.087335,52.797 138.429165,52.861166 138.7255,52.9895 C139.021835,53.117834 139.269166,53.2998322 139.4675,53.5355 C139.665834,53.7711678 139.816333,54.054665 139.919,54.386 C140.021667,54.717335 140.073,55.0836647 140.073,55.485 L140.073,60 L138.827,60 L138.827,55.485 C138.827,54.9483306 138.704501,54.5318348 138.4595,54.2355 C138.214499,53.9391652 137.840003,53.791 137.336,53.791 C136.967331,53.791 136.623168,53.8796658 136.3035,54.057 C135.983832,54.2343342 135.688668,54.4746651 135.418,54.778 L135.418,60 L134.172,60 Z M144.826,52.797 C145.344003,52.797 145.811831,52.8833325 146.2295,53.056 C146.647169,53.2286675 147.001832,53.4736651 147.2935,53.791 C147.585168,54.1083349 147.809166,54.4921644 147.9655,54.9425 C148.121834,55.3928356 148.2,55.8956639 148.2,56.451 C148.2,57.0110028 148.121834,57.5149978 147.9655,57.963 C147.809166,58.4110022 147.585168,58.7936651 147.2935,59.111 C147.001832,59.4283349 146.647169,59.6721658 146.2295,59.8425 C145.811831,60.0128342 145.344003,60.098 144.826,60.098 C144.307997,60.098 143.840169,60.0128342 143.4225,59.8425 C143.004831,59.6721658 142.649001,59.4283349 142.355,59.111 C142.060999,58.7936651 141.834667,58.4110022 141.676,57.963 C141.517333,57.5149978 141.438,57.0110028 141.438,56.451 C141.438,55.8956639 141.517333,55.3928356 141.676,54.9425 C141.834667,54.4921644 142.060999,54.1083349 142.355,53.791 C142.649001,53.4736651 143.004831,53.2286675 143.4225,53.056 C143.840169,52.8833325 144.307997,52.797 144.826,52.797 L144.826,52.797 Z M144.826,59.125 C145.526004,59.125 146.048665,58.8905023 146.394,58.4215 C146.739335,57.9524977 146.912,57.2980042 146.912,56.458 C146.912,55.6133291 146.739335,54.9553357 146.394,54.484 C146.048665,54.0126643 145.526004,53.777 144.826,53.777 C144.471332,53.777 144.163335,53.8376661 143.902,53.959 C143.640665,54.0803339 143.422501,54.2553322 143.2475,54.484 C143.072499,54.7126678 142.941834,54.9938317 142.8555,55.3275 C142.769166,55.6611683 142.726,56.0379979 142.726,56.458 C142.726,56.8780021 142.769166,57.253665 142.8555,57.585 C142.941834,57.916335 143.072499,58.1951655 143.2475,58.4215 C143.422501,58.6478345 143.640665,58.8216661 143.902,58.943 C144.163335,59.0643339 144.471332,59.125 144.826,59.125 L144.826,59.125 Z M149.74,60 L149.74,52.909 L150.454,52.909 C150.589334,52.909 150.682666,52.9346664 150.734,52.986 C150.785334,53.0373336 150.820333,53.1259994 150.839,53.252 L150.923,54.358 C151.165668,53.8633309 151.465498,53.4771681 151.8225,53.1995 C152.179502,52.9218319 152.598331,52.783 153.079,52.783 C153.275001,52.783 153.452333,52.8051664 153.611,52.8495 C153.769667,52.8938336 153.916666,52.9556663 154.052,53.035 L153.891,53.966 C153.858333,54.0826672 153.786001,54.141 153.674,54.141 C153.608666,54.141 153.508334,54.1188336 153.373,54.0745 C153.237666,54.0301664 153.048668,54.008 152.806,54.008 C152.371998,54.008 152.009168,54.1339987 151.7175,54.386 C151.425832,54.6380013 151.182001,55.0043309 150.986,55.485 L150.986,60 L149.74,60 Z M157.531,60.112 C156.970997,60.112 156.540502,59.9556682 156.2395,59.643 C155.938498,59.3303318 155.788,58.8800029 155.788,58.292 L155.788,53.952 L154.934,53.952 C154.859333,53.952 154.796334,53.9298336 154.745,53.8855 C154.693666,53.8411664 154.668,53.7723338 154.668,53.679 L154.668,53.182 L155.83,53.035 L156.117,50.844 C156.126333,50.7739996 156.156666,50.7168336 156.208,50.6725 C156.259334,50.6281664 156.324666,50.606 156.404,50.606 L157.034,50.606 L157.034,53.049 L159.064,53.049 L159.064,53.952 L157.034,53.952 L157.034,58.208 C157.034,58.5066682 157.106333,58.7283326 157.251,58.873 C157.395667,59.0176674 157.582332,59.09 157.811,59.09 C157.941667,59.09 158.054833,59.0725002 158.1505,59.0375 C158.246167,59.0024998 158.329,58.9640002 158.399,58.922 C158.469,58.8799998 158.5285,58.8415002 158.5775,58.8065 C158.6265,58.7714998 158.669666,58.754 158.707,58.754 C158.772334,58.754 158.830666,58.7936663 158.882,58.873 L159.246,59.468 C159.031332,59.6686677 158.772335,59.8261661 158.469,59.9405 C158.165665,60.0548339 157.853002,60.112 157.531,60.112 L157.531,60.112 Z M160.604,60 L160.604,49.689 L161.85,49.689 L161.85,53.861 C162.153335,53.5389984 162.489331,53.2811676 162.858,53.0875 C163.226669,52.8938324 163.651331,52.797 164.132,52.797 C164.519335,52.797 164.861165,52.861166 165.1575,52.9895 C165.453835,53.117834 165.701166,53.2998322 165.8995,53.5355 C166.097834,53.7711678 166.248333,54.054665 166.351,54.386 C166.453667,54.717335 166.505,55.0836647 166.505,55.485 L166.505,60 L165.259,60 L165.259,55.485 C165.259,54.9483306 165.136501,54.5318348 164.8915,54.2355 C164.646499,53.9391652 164.272003,53.791 163.768,53.791 C163.399331,53.791 163.055168,53.8796658 162.7355,54.057 C162.415832,54.2343342 162.120668,54.4746651 161.85,54.778 L161.85,60 L160.604,60 Z M176.221,56.374 C176.286334,56.4860006 176.3435,56.6038327 176.3925,56.7275 C176.4415,56.8511673 176.489333,56.9759994 176.536,57.102 C176.582667,56.9713327 176.631666,56.8465006 176.683,56.7275 C176.734334,56.6084994 176.792666,56.4883339 176.858,56.367 L180.253,50.2 C180.313667,50.0926661 180.376666,50.0273334 180.442,50.004 C180.507334,49.9806665 180.600666,49.969 180.722,49.969 L181.723,49.969 L181.723,60 L180.533,60 L180.533,52.629 C180.533,52.5309995 180.535333,52.4260006 180.54,52.314 C180.544667,52.2019994 180.551667,52.0876672 180.561,51.971 L177.124,58.243 C177.007333,58.453001 176.844001,58.558 176.634,58.558 L176.438,58.558 C176.227999,58.558 176.064667,58.453001 175.948,58.243 L172.434,51.95 C172.448,52.0713339 172.4585,52.1903327 172.4655,52.307 C172.4725,52.4236672 172.476,52.5309995 172.476,52.629 L172.476,60 L171.286,60 L171.286,49.969 L172.287,49.969 C172.408334,49.969 172.501666,49.9806665 172.567,50.004 C172.632334,50.0273334 172.695333,50.0926661 172.756,50.2 L176.221,56.374 Z M185.657,55.814 L185.657,60 L184.306,60 L184.306,49.969 L187.141,49.969 C187.77567,49.969 188.323998,50.033166 188.786,50.1615 C189.248002,50.289834 189.629498,50.4753321 189.9305,50.718 C190.231502,50.9606679 190.454333,51.2534983 190.599,51.5965 C190.743667,51.9395017 190.816,52.3233312 190.816,52.748 C190.816,53.1026684 190.760001,53.4339985 190.648,53.742 C190.535999,54.0500015 190.373834,54.3264988 190.1615,54.5715 C189.949166,54.8165012 189.690168,55.0253325 189.3845,55.198 C189.078832,55.3706675 188.732335,55.5013329 188.345,55.59 C188.513001,55.6880005 188.662333,55.8303324 188.793,56.017 L191.719,60 L190.515,60 C190.267665,60 190.085667,59.9043343 189.969,59.713 L187.365,56.129 C187.285666,56.0169994 187.199334,55.9365002 187.106,55.8875 C187.012666,55.8384998 186.872668,55.814 186.686,55.814 L185.657,55.814 Z M185.657,54.827 L187.078,54.827 C187.474669,54.827 187.823498,54.7791671 188.1245,54.6835 C188.425502,54.5878329 188.677499,54.4525009 188.8805,54.2775 C189.083501,54.1024991 189.236333,53.8936679 189.339,53.651 C189.441667,53.4083321 189.493,53.1400015 189.493,52.846 C189.493,52.2486637 189.295835,51.7983348 188.9015,51.495 C188.507165,51.1916651 187.920337,51.04 187.141,51.04 L185.657,51.04 L185.657,54.827 Z M200.014,49.969 L200.014,51.11 L196.773,51.11 L196.773,60 L195.415,60 L195.415,51.11 L192.16,51.11 L192.16,49.969 L200.014,49.969 Z" id="Origin" fill="#2F2F2F"></path>
                                    <path d="M104.709,78.248 L104.709,82 L103.358,82 L103.358,71.969 L106.319,71.969 C106.95367,71.969 107.505498,72.0424993 107.9745,72.1895 C108.443502,72.3365007 108.831998,72.545332 109.14,72.816 C109.448002,73.086668 109.677833,73.4133314 109.8295,73.796 C109.981167,74.1786686 110.057,74.6056643 110.057,75.077 C110.057,75.543669 109.975334,75.9706647 109.812,76.358 C109.648666,76.7453353 109.409502,77.0789986 109.0945,77.359 C108.779498,77.6390014 108.388669,77.8571659 107.922,78.0135 C107.455331,78.1698341 106.921003,78.248 106.319,78.248 L104.709,78.248 Z M104.709,77.17 L106.319,77.17 C106.706335,77.17 107.048165,77.1186672 107.3445,77.016 C107.640835,76.9133328 107.889332,76.7698343 108.09,76.5855 C108.290668,76.4011657 108.442333,76.180668 108.545,75.924 C108.647667,75.667332 108.699,75.3850015 108.699,75.077 C108.699,74.4376635 108.501835,73.9383351 108.1075,73.579 C107.713165,73.2196649 107.117004,73.04 106.319,73.04 L104.709,73.04 L104.709,77.17 Z M116.784,82 L116.231,82 C116.109666,82 116.011667,81.9813335 115.937,81.944 C115.862333,81.9066665 115.813333,81.8273339 115.79,81.706 L115.65,81.048 C115.463332,81.2160008 115.281334,81.3664993 115.104,81.4995 C114.926666,81.6325007 114.740001,81.7444995 114.544,81.8355 C114.347999,81.9265005 114.139168,81.9953331 113.9175,82.042 C113.695832,82.0886669 113.449668,82.112 113.179,82.112 C112.903665,82.112 112.645835,82.0735004 112.4055,81.9965 C112.165165,81.9194996 111.956334,81.8040008 111.779,81.65 C111.601666,81.4959992 111.460501,81.3011678 111.3555,81.0655 C111.250499,80.8298322 111.198,80.5510016 111.198,80.229 C111.198,79.9489986 111.274999,79.6795013 111.429,79.4205 C111.583001,79.1614987 111.831498,78.9316677 112.1745,78.731 C112.517502,78.5303323 112.966664,78.365834 113.522,78.2375 C114.077336,78.109166 114.756329,78.0356668 115.559,78.017 L115.559,77.464 C115.559,76.9133306 115.441168,76.4968347 115.2055,76.2145 C114.969832,75.9321653 114.621002,75.791 114.159,75.791 C113.855665,75.791 113.600168,75.8294996 113.3925,75.9065 C113.184832,75.9835004 113.005167,76.0698329 112.8535,76.1655 C112.701833,76.2611671 112.571167,76.3474996 112.4615,76.4245 C112.351833,76.5015004 112.243334,76.54 112.136,76.54 C112.052,76.54 111.9785,76.5178336 111.9155,76.4735 C111.8525,76.4291664 111.802334,76.3743337 111.765,76.309 L111.541,75.91 C111.933002,75.5319981 112.355331,75.2496676 112.808,75.063 C113.260669,74.8763324 113.762331,74.783 114.313,74.783 C114.709669,74.783 115.061998,74.8483327 115.37,74.979 C115.678002,75.1096673 115.936999,75.2916655 116.147,75.525 C116.357001,75.7583345 116.515666,76.040665 116.623,76.372 C116.730334,76.703335 116.784,77.0673314 116.784,77.464 L116.784,82 Z M113.55,81.237 C113.769334,81.237 113.969999,81.2148336 114.152,81.1705 C114.334001,81.1261664 114.505499,81.0631671 114.6665,80.9815 C114.827501,80.8998329 114.981499,80.8006673 115.1285,80.684 C115.275501,80.5673328 115.418999,80.4343341 115.559,80.285 L115.559,78.808 C114.984997,78.8266668 114.497335,78.8721663 114.096,78.9445 C113.694665,79.0168337 113.368001,79.1113328 113.116,79.228 C112.863999,79.3446673 112.680834,79.4823325 112.5665,79.641 C112.452166,79.7996675 112.395,79.976999 112.395,80.173 C112.395,80.3596676 112.425333,80.520666 112.486,80.656 C112.546667,80.791334 112.628333,80.9021662 112.731,80.9885 C112.833667,81.0748338 112.954999,81.1378331 113.095,81.1775 C113.235001,81.2171669 113.386666,81.237 113.55,81.237 L113.55,81.237 Z M122.734,76.078 C122.678,76.1806672 122.591667,76.232 122.475,76.232 C122.405,76.232 122.325667,76.2063336 122.237,76.155 C122.148333,76.1036664 122.039834,76.0465003 121.9115,75.9835 C121.783166,75.9204997 121.630334,75.8621669 121.453,75.8085 C121.275666,75.7548331 121.065668,75.728 120.823,75.728 C120.612999,75.728 120.424001,75.7548331 120.256,75.8085 C120.087999,75.8621669 119.944501,75.9356662 119.8255,76.029 C119.706499,76.1223338 119.6155,76.2308327 119.5525,76.3545 C119.4895,76.4781673 119.458,76.6123326 119.458,76.757 C119.458,76.9390009 119.510499,77.0906661 119.6155,77.212 C119.720501,77.3333339 119.859332,77.4383329 120.032,77.527 C120.204668,77.6156671 120.400666,77.693833 120.62,77.7615 C120.839334,77.829167 121.064499,77.9014996 121.2955,77.9785 C121.526501,78.0555004 121.751666,78.1406662 121.971,78.234 C122.190334,78.3273338 122.386332,78.4439993 122.559,78.584 C122.731668,78.7240007 122.870499,78.895499 122.9755,79.0985 C123.080501,79.301501 123.133,79.5453319 123.133,79.83 C123.133,80.1566683 123.074667,80.4588319 122.958,80.7365 C122.841333,81.0141681 122.668668,81.254499 122.44,81.4575 C122.211332,81.660501 121.931335,81.8203328 121.6,81.937 C121.268665,82.0536673 120.886002,82.112 120.452,82.112 C119.957331,82.112 119.509335,82.0315008 119.108,81.8705 C118.706665,81.7094992 118.366001,81.5030013 118.086,81.251 L118.38,80.775 C118.417334,80.714333 118.461666,80.6676668 118.513,80.635 C118.564334,80.6023332 118.632,80.586 118.716,80.586 C118.8,80.586 118.888666,80.6186663 118.982,80.684 C119.075334,80.7493337 119.188499,80.8216663 119.3215,80.901 C119.454501,80.9803337 119.615499,81.0526663 119.8045,81.118 C119.993501,81.1833337 120.230332,81.216 120.515,81.216 C120.757668,81.216 120.969999,81.1845003 121.152,81.1215 C121.334001,81.0584997 121.485666,80.9733339 121.607,80.866 C121.728334,80.7586661 121.818166,80.6350007 121.8765,80.495 C121.934834,80.3549993 121.964,80.2056675 121.964,80.047 C121.964,79.850999 121.911501,79.688834 121.8065,79.5605 C121.701499,79.432166 121.562668,79.3225005 121.39,79.2315 C121.217332,79.1404995 121.020168,79.061167 120.7985,78.9935 C120.576832,78.925833 120.350501,78.854667 120.1195,78.78 C119.888499,78.705333 119.662168,78.6201671 119.4405,78.5245 C119.218832,78.4288329 119.021668,78.3086674 118.849,78.164 C118.676332,78.0193326 118.537501,77.8408344 118.4325,77.6285 C118.327499,77.4161656 118.275,77.1583349 118.275,76.855 C118.275,76.584332 118.330999,76.3241679 118.443,76.0745 C118.555001,75.8248321 118.718332,75.6055009 118.933,75.4165 C119.147668,75.2274991 119.411332,75.0770006 119.724,74.965 C120.036668,74.8529994 120.393665,74.797 120.795,74.797 C121.261669,74.797 121.680498,74.8704993 122.0515,75.0175 C122.422502,75.1645007 122.743332,75.366332 123.014,75.623 L122.734,76.078 Z M126.136,74.909 L126.136,82 L124.89,82 L124.89,74.909 L126.136,74.909 Z M126.416,72.683 C126.416,72.8043339 126.3915,72.9174995 126.3425,73.0225 C126.2935,73.1275005 126.228167,73.2208329 126.1465,73.3025 C126.064833,73.3841671 125.970334,73.4483331 125.863,73.495 C125.755666,73.5416669 125.641334,73.565 125.52,73.565 C125.398666,73.565 125.285501,73.5416669 125.1805,73.495 C125.075499,73.4483331 124.982167,73.3841671 124.9005,73.3025 C124.818833,73.2208329 124.754667,73.1275005 124.708,73.0225 C124.661333,72.9174995 124.638,72.8043339 124.638,72.683 C124.638,72.5616661 124.661333,72.4461672 124.708,72.3365 C124.754667,72.2268328 124.818833,72.1311671 124.9005,72.0495 C124.982167,71.9678329 125.075499,71.9036669 125.1805,71.857 C125.285501,71.8103331 125.398666,71.787 125.52,71.787 C125.641334,71.787 125.755666,71.8103331 125.863,71.857 C125.970334,71.9036669 126.064833,71.9678329 126.1465,72.0495 C126.228167,72.1311671 126.2935,72.2268328 126.3425,72.3365 C126.3915,72.4461672 126.416,72.5616661 126.416,72.683 L126.416,72.683 Z M128.334,82 L128.334,74.909 L129.048,74.909 C129.183334,74.909 129.276666,74.9346664 129.328,74.986 C129.379334,75.0373336 129.414333,75.1259994 129.433,75.252 L129.517,76.358 C129.759668,75.8633309 130.059498,75.4771681 130.4165,75.1995 C130.773502,74.9218319 131.192331,74.783 131.673,74.783 C131.869001,74.783 132.046333,74.8051664 132.205,74.8495 C132.363667,74.8938336 132.510666,74.9556663 132.646,75.035 L132.485,75.966 C132.452333,76.0826673 132.380001,76.141 132.268,76.141 C132.202666,76.141 132.102334,76.1188336 131.967,76.0745 C131.831666,76.0301664 131.642668,76.008 131.4,76.008 C130.965998,76.008 130.603168,76.1339987 130.3115,76.386 C130.019832,76.6380013 129.776001,77.0043309 129.58,77.485 L129.58,82 L128.334,82 Z M138.365,77.814 L138.365,82 L137.014,82 L137.014,71.969 L139.849,71.969 C140.48367,71.969 141.031998,72.033166 141.494,72.1615 C141.956002,72.289834 142.337498,72.4753321 142.6385,72.718 C142.939502,72.9606679 143.162333,73.2534983 143.307,73.5965 C143.451667,73.9395017 143.524,74.3233312 143.524,74.748 C143.524,75.1026684 143.468001,75.4339985 143.356,75.742 C143.243999,76.0500015 143.081834,76.3264988 142.8695,76.5715 C142.657166,76.8165012 142.398168,77.0253325 142.0925,77.198 C141.786832,77.3706675 141.440335,77.5013329 141.053,77.59 C141.221001,77.6880005 141.370333,77.8303324 141.501,78.017 L144.427,82 L143.223,82 C142.975665,82 142.793667,81.9043343 142.677,81.713 L140.073,78.129 C139.993666,78.0169994 139.907334,77.9365002 139.814,77.8875 C139.720666,77.8384998 139.580668,77.814 139.394,77.814 L138.365,77.814 Z M138.365,76.827 L139.786,76.827 C140.182669,76.827 140.531498,76.7791671 140.8325,76.6835 C141.133502,76.5878329 141.385499,76.4525009 141.5885,76.2775 C141.791501,76.1024991 141.944333,75.8936679 142.047,75.651 C142.149667,75.4083321 142.201,75.1400015 142.201,74.846 C142.201,74.2486637 142.003835,73.7983349 141.6095,73.495 C141.215165,73.1916652 140.628337,73.04 139.849,73.04 L138.365,73.04 L138.365,76.827 Z M147.08,74.909 L147.08,82 L145.834,82 L145.834,74.909 L147.08,74.909 Z M147.36,72.683 C147.36,72.8043339 147.3355,72.9174995 147.2865,73.0225 C147.2375,73.1275005 147.172167,73.2208329 147.0905,73.3025 C147.008833,73.3841671 146.914334,73.4483331 146.807,73.495 C146.699666,73.5416669 146.585334,73.565 146.464,73.565 C146.342666,73.565 146.229501,73.5416669 146.1245,73.495 C146.019499,73.4483331 145.926167,73.3841671 145.8445,73.3025 C145.762833,73.2208329 145.698667,73.1275005 145.652,73.0225 C145.605333,72.9174995 145.582,72.8043339 145.582,72.683 C145.582,72.5616661 145.605333,72.4461672 145.652,72.3365 C145.698667,72.2268328 145.762833,72.1311671 145.8445,72.0495 C145.926167,71.9678329 146.019499,71.9036669 146.1245,71.857 C146.229501,71.8103331 146.342666,71.787 146.464,71.787 C146.585334,71.787 146.699666,71.8103331 146.807,71.857 C146.914334,71.9036669 147.008833,71.9678329 147.0905,72.0495 C147.172167,72.1311671 147.2375,72.2268328 147.2865,72.3365 C147.3355,72.4461672 147.36,72.5616661 147.36,72.683 L147.36,72.683 Z M153.338,76.078 C153.282,76.1806672 153.195667,76.232 153.079,76.232 C153.009,76.232 152.929667,76.2063336 152.841,76.155 C152.752333,76.1036664 152.643834,76.0465003 152.5155,75.9835 C152.387166,75.9204997 152.234334,75.8621669 152.057,75.8085 C151.879666,75.7548331 151.669668,75.728 151.427,75.728 C151.216999,75.728 151.028001,75.7548331 150.86,75.8085 C150.691999,75.8621669 150.548501,75.9356662 150.4295,76.029 C150.310499,76.1223338 150.2195,76.2308327 150.1565,76.3545 C150.0935,76.4781673 150.062,76.6123326 150.062,76.757 C150.062,76.9390009 150.114499,77.0906661 150.2195,77.212 C150.324501,77.3333339 150.463332,77.4383329 150.636,77.527 C150.808668,77.6156671 151.004666,77.693833 151.224,77.7615 C151.443334,77.829167 151.668499,77.9014996 151.8995,77.9785 C152.130501,78.0555004 152.355666,78.1406662 152.575,78.234 C152.794334,78.3273338 152.990332,78.4439993 153.163,78.584 C153.335668,78.7240007 153.474499,78.895499 153.5795,79.0985 C153.684501,79.301501 153.737,79.5453319 153.737,79.83 C153.737,80.1566683 153.678667,80.4588319 153.562,80.7365 C153.445333,81.0141681 153.272668,81.254499 153.044,81.4575 C152.815332,81.660501 152.535335,81.8203328 152.204,81.937 C151.872665,82.0536673 151.490002,82.112 151.056,82.112 C150.561331,82.112 150.113335,82.0315008 149.712,81.8705 C149.310665,81.7094992 148.970001,81.5030013 148.69,81.251 L148.984,80.775 C149.021334,80.714333 149.065666,80.6676668 149.117,80.635 C149.168334,80.6023332 149.236,80.586 149.32,80.586 C149.404,80.586 149.492666,80.6186663 149.586,80.684 C149.679334,80.7493337 149.792499,80.8216663 149.9255,80.901 C150.058501,80.9803337 150.219499,81.0526663 150.4085,81.118 C150.597501,81.1833337 150.834332,81.216 151.119,81.216 C151.361668,81.216 151.573999,81.1845003 151.756,81.1215 C151.938001,81.0584997 152.089666,80.9733339 152.211,80.866 C152.332334,80.7586661 152.422166,80.6350007 152.4805,80.495 C152.538834,80.3549993 152.568,80.2056675 152.568,80.047 C152.568,79.850999 152.515501,79.688834 152.4105,79.5605 C152.305499,79.432166 152.166668,79.3225005 151.994,79.2315 C151.821332,79.1404995 151.624168,79.061167 151.4025,78.9935 C151.180832,78.925833 150.954501,78.854667 150.7235,78.78 C150.492499,78.705333 150.266168,78.6201671 150.0445,78.5245 C149.822832,78.4288329 149.625668,78.3086674 149.453,78.164 C149.280332,78.0193326 149.141501,77.8408344 149.0365,77.6285 C148.931499,77.4161656 148.879,77.1583349 148.879,76.855 C148.879,76.584332 148.934999,76.3241679 149.047,76.0745 C149.159001,75.8248321 149.322332,75.6055009 149.537,75.4165 C149.751668,75.2274991 150.015332,75.0770006 150.328,74.965 C150.640668,74.8529994 150.997665,74.797 151.399,74.797 C151.865669,74.797 152.284498,74.8704993 152.6555,75.0175 C153.026502,75.1645007 153.347332,75.366332 153.618,75.623 L153.338,76.078 Z M163.187,78.374 C163.252334,78.4860006 163.3095,78.6038327 163.3585,78.7275 C163.4075,78.8511673 163.455333,78.9759994 163.502,79.102 C163.548667,78.9713327 163.597666,78.8465006 163.649,78.7275 C163.700334,78.6084994 163.758666,78.4883339 163.824,78.367 L167.219,72.2 C167.279667,72.0926661 167.342666,72.0273335 167.408,72.004 C167.473334,71.9806665 167.566666,71.969 167.688,71.969 L168.689,71.969 L168.689,82 L167.499,82 L167.499,74.629 C167.499,74.5309995 167.501333,74.4260006 167.506,74.314 C167.510667,74.2019994 167.517667,74.0876672 167.527,73.971 L164.09,80.243 C163.973333,80.453001 163.810001,80.558 163.6,80.558 L163.404,80.558 C163.193999,80.558 163.030667,80.453001 162.914,80.243 L159.4,73.95 C159.414,74.0713339 159.4245,74.1903327 159.4315,74.307 C159.4385,74.4236672 159.442,74.5309995 159.442,74.629 L159.442,82 L158.252,82 L158.252,71.969 L159.253,71.969 C159.374334,71.969 159.467666,71.9806665 159.533,72.004 C159.598334,72.0273335 159.661333,72.0926661 159.722,72.2 L163.187,78.374 Z M172.623,77.814 L172.623,82 L171.272,82 L171.272,71.969 L174.107,71.969 C174.74167,71.969 175.289998,72.033166 175.752,72.1615 C176.214002,72.289834 176.595498,72.4753321 176.8965,72.718 C177.197502,72.9606679 177.420333,73.2534983 177.565,73.5965 C177.709667,73.9395017 177.782,74.3233312 177.782,74.748 C177.782,75.1026684 177.726001,75.4339985 177.614,75.742 C177.501999,76.0500015 177.339834,76.3264988 177.1275,76.5715 C176.915166,76.8165012 176.656168,77.0253325 176.3505,77.198 C176.044832,77.3706675 175.698335,77.5013329 175.311,77.59 C175.479001,77.6880005 175.628333,77.8303324 175.759,78.017 L178.685,82 L177.481,82 C177.233665,82 177.051667,81.9043343 176.935,81.713 L174.331,78.129 C174.251666,78.0169994 174.165334,77.9365002 174.072,77.8875 C173.978666,77.8384998 173.838668,77.814 173.652,77.814 L172.623,77.814 Z M172.623,76.827 L174.044,76.827 C174.440669,76.827 174.789498,76.7791671 175.0905,76.6835 C175.391502,76.5878329 175.643499,76.4525009 175.8465,76.2775 C176.049501,76.1024991 176.202333,75.8936679 176.305,75.651 C176.407667,75.4083321 176.459,75.1400015 176.459,74.846 C176.459,74.2486637 176.261835,73.7983349 175.8675,73.495 C175.473165,73.1916652 174.886337,73.04 174.107,73.04 L172.623,73.04 L172.623,76.827 Z M186.98,71.969 L186.98,73.11 L183.739,73.11 L183.739,82 L182.381,82 L182.381,73.11 L179.126,73.11 L179.126,71.969 L186.98,71.969 Z" id="Destination" fill="#2F2F2F"></path>
                                    <path d="M24.053,60.112 C23.5536642,60.112 23.0963354,60.0455007 22.681,59.9125 C22.2656646,59.7794993 21.9086682,59.5893346 21.61,59.342 C21.3113318,59.0946654 21.0803341,58.7948351 20.917,58.4425 C20.7536658,58.0901649 20.672,57.6946689 20.672,57.256 C20.672,56.6119968 20.8399983,56.0811688 21.176,55.6635 C21.5120017,55.2458312 21.9926635,54.9483342 22.618,54.771 C22.090664,54.574999 21.6928347,54.2821686 21.4245,53.8925 C21.1561653,53.5028314 21.022,53.037336 21.022,52.496 C21.022,52.1273315 21.0943326,51.7820016 21.239,51.46 C21.3836674,51.1379984 21.5889987,50.8580012 21.855,50.62 C22.1210013,50.3819988 22.4394981,50.195334 22.8105,50.06 C23.1815019,49.924666 23.5956644,49.857 24.053,49.857 C24.5056689,49.857 24.9186648,49.924666 25.292,50.06 C25.6653352,50.195334 25.9849987,50.3819988 26.251,50.62 C26.5170013,50.8580012 26.7223326,51.1379984 26.867,51.46 C27.0116674,51.7820016 27.084,52.1273315 27.084,52.496 C27.084,53.037336 26.948668,53.5028314 26.678,53.8925 C26.407332,54.2821686 26.0106693,54.574999 25.488,54.771 C26.1133365,54.9483342 26.5939983,55.2458312 26.93,55.6635 C27.2660017,56.0811688 27.434,56.6119968 27.434,57.256 C27.434,57.6946689 27.3511675,58.0901649 27.1855,58.4425 C27.0198325,58.7948351 26.7888348,59.0946654 26.4925,59.342 C26.1961652,59.5893346 25.8403354,59.7794993 25.425,59.9125 C25.0096646,60.0455007 24.5523358,60.112 24.053,60.112 L24.053,60.112 Z M24.053,59.118 C24.3796683,59.118 24.6724987,59.0725005 24.9315,58.9815 C25.1905013,58.8904995 25.4098324,58.7621675 25.5895,58.5965 C25.7691676,58.4308325 25.9068329,58.2325012 26.0025,58.0015 C26.0981671,57.7704988 26.146,57.5150014 26.146,57.235 C26.146,56.8896649 26.0888339,56.5945012 25.9745,56.3495 C25.8601661,56.1044988 25.7061676,55.9050008 25.5125,55.751 C25.3188324,55.5969992 25.0960013,55.4838337 24.844,55.4115 C24.5919987,55.3391663 24.3283347,55.303 24.053,55.303 C23.7776653,55.303 23.5140013,55.3391663 23.262,55.4115 C23.0099987,55.4838337 22.7871676,55.5969992 22.5935,55.751 C22.3998324,55.9050008 22.2458339,56.1044988 22.1315,56.3495 C22.0171661,56.5945012 21.96,56.8896649 21.96,57.235 C21.96,57.5150014 22.0078329,57.7704988 22.1035,58.0015 C22.1991671,58.2325012 22.3368324,58.4308325 22.5165,58.5965 C22.6961676,58.7621675 22.9154987,58.8904995 23.1745,58.9815 C23.4335013,59.0725005 23.7263317,59.118 24.053,59.118 L24.053,59.118 Z M24.053,54.302 C24.3796683,54.302 24.6584988,54.2518338 24.8895,54.1515 C25.1205012,54.0511662 25.3083326,53.9181675 25.453,53.7525 C25.5976674,53.5868325 25.7026663,53.3966677 25.768,53.182 C25.8333337,52.9673323 25.866,52.7456678 25.866,52.517 C25.866,52.2836655 25.8275004,52.0643344 25.7505,51.859 C25.6734996,51.6536656 25.5591674,51.4740008 25.4075,51.32 C25.2558326,51.1659992 25.0668345,51.0446671 24.8405,50.956 C24.6141655,50.8673329 24.3516682,50.823 24.053,50.823 C23.7543318,50.823 23.4918345,50.8673329 23.2655,50.956 C23.0391655,51.0446671 22.8501674,51.1659992 22.6985,51.32 C22.5468326,51.4740008 22.4325004,51.6536656 22.3555,51.859 C22.2784996,52.0643344 22.24,52.2836655 22.24,52.517 C22.24,52.7456678 22.2726663,52.9673323 22.338,53.182 C22.4033337,53.3966677 22.5083326,53.5868325 22.653,53.7525 C22.7976674,53.9181675 22.9854988,54.0511662 23.2165,54.1515 C23.4475012,54.2518338 23.7263317,54.302 24.053,54.302 L24.053,54.302 Z M29.016,59.23 C29.016,59.1086661 29.0381664,58.9943339 29.0825,58.887 C29.1268336,58.7796661 29.1874996,58.6863337 29.2645,58.607 C29.3415004,58.5276663 29.4336661,58.4646669 29.541,58.418 C29.6483339,58.3713331 29.7626661,58.348 29.884,58.348 C30.0053339,58.348 30.1196661,58.3713331 30.227,58.418 C30.3343339,58.4646669 30.4276663,58.5276663 30.507,58.607 C30.5863337,58.6863337 30.6481664,58.7796661 30.6925,58.887 C30.7368336,58.9943339 30.759,59.1086661 30.759,59.23 C30.759,59.3560006 30.7368336,59.4714995 30.6925,59.5765 C30.6481664,59.6815005 30.5863337,59.7736663 30.507,59.853 C30.4276663,59.9323337 30.3343339,59.9941664 30.227,60.0385 C30.1196661,60.0828336 30.0053339,60.105 29.884,60.105 C29.7626661,60.105 29.6483339,60.0828336 29.541,60.0385 C29.4336661,59.9941664 29.3415004,59.9323337 29.2645,59.853 C29.1874996,59.7736663 29.1268336,59.6815005 29.0825,59.5765 C29.0381664,59.4714995 29.016,59.3560006 29.016,59.23 L29.016,59.23 Z M29.016,53.98 C29.016,53.8586661 29.0381664,53.7443339 29.0825,53.637 C29.1268336,53.5296661 29.1874996,53.4363337 29.2645,53.357 C29.3415004,53.2776663 29.4336661,53.2146669 29.541,53.168 C29.6483339,53.1213331 29.7626661,53.098 29.884,53.098 C30.0053339,53.098 30.1196661,53.1213331 30.227,53.168 C30.3343339,53.2146669 30.4276663,53.2776663 30.507,53.357 C30.5863337,53.4363337 30.6481664,53.5296661 30.6925,53.637 C30.7368336,53.7443339 30.759,53.8586661 30.759,53.98 C30.759,54.1060006 30.7368336,54.2214995 30.6925,54.3265 C30.6481664,54.4315005 30.5863337,54.5236663 30.507,54.603 C30.4276663,54.6823337 30.3343339,54.7441664 30.227,54.7885 C30.1196661,54.8328336 30.0053339,54.855 29.884,54.855 C29.7626661,54.855 29.6483339,54.8328336 29.541,54.7885 C29.4336661,54.7441664 29.3415004,54.6823337 29.2645,54.603 C29.1874996,54.5236663 29.1268336,54.4315005 29.0825,54.3265 C29.0381664,54.2214995 29.016,54.1060006 29.016,53.98 L29.016,53.98 Z M35.855,49.857 C36.2796688,49.857 36.6763315,49.9199994 37.045,50.046 C37.4136685,50.1720006 37.7321653,50.3551655 38.0005,50.5955 C38.2688347,50.8358345 38.4799992,51.1286649 38.634,51.474 C38.7880008,51.8193351 38.865,52.2113311 38.865,52.65 C38.865,53.0233352 38.8090006,53.3686651 38.697,53.686 C38.5849994,54.0033349 38.4333343,54.3078319 38.242,54.5995 C38.0506657,54.8911681 37.8301679,55.1734986 37.5805,55.4465 C37.3308321,55.7195014 37.0660014,55.9983319 36.786,56.283 L34.147,58.985 C34.3336676,58.9336664 34.5226657,58.8928335 34.714,58.8625 C34.9053343,58.8321665 35.0896658,58.817 35.267,58.817 L38.627,58.817 C38.762334,58.817 38.8696663,58.8566663 38.949,58.936 C39.0283337,59.0153337 39.068,59.1179994 39.068,59.244 L39.068,60 L32.376,60 L32.376,59.573 C32.376,59.4843329 32.3934998,59.3933338 32.4285,59.3 C32.4635002,59.2066662 32.5206663,59.1203337 32.6,59.041 L35.813,55.814 C36.0790013,55.543332 36.3216656,55.2831679 36.541,55.0335 C36.7603344,54.7838321 36.9481659,54.5330013 37.1045,54.281 C37.2608341,54.0289987 37.3809996,53.7735013 37.465,53.5145 C37.5490004,53.2554987 37.591,52.9790015 37.591,52.685 C37.591,52.3909985 37.5443338,52.1331678 37.451,51.9115 C37.3576662,51.6898322 37.2293341,51.5066674 37.066,51.362 C36.9026659,51.2173326 36.7113344,51.1088337 36.492,51.0365 C36.2726656,50.9641663 36.0370013,50.928 35.785,50.928 C35.5329987,50.928 35.2996677,50.965333 35.085,51.04 C34.8703323,51.114667 34.6801675,51.2184993 34.5145,51.3515 C34.3488325,51.4845007 34.2088339,51.6419991 34.0945,51.824 C33.9801661,52.0060009 33.8996669,52.2066656 33.853,52.426 C33.8156665,52.561334 33.759667,52.659333 33.685,52.72 C33.610333,52.780667 33.5123339,52.811 33.391,52.811 C33.3676665,52.811 33.3431668,52.8098333 33.3175,52.8075 C33.2918332,52.8051667 33.2626668,52.8016667 33.23,52.797 L32.579,52.685 C32.6443337,52.2276644 32.7703324,51.8228351 32.957,51.4705 C33.1436676,51.1181649 33.3804986,50.8230012 33.6675,50.585 C33.9545014,50.3469988 34.2834981,50.1661673 34.6545,50.0425 C35.0255019,49.9188327 35.4256645,49.857 35.855,49.857 L35.855,49.857 Z M47.468,54.988 C47.468,55.8653377 47.3735009,56.6248301 47.1845,57.2665 C46.9954991,57.9081699 46.7376683,58.4389979 46.411,58.859 C46.0843317,59.2790021 45.6981689,59.5916656 45.2525,59.797 C44.8068311,60.0023344 44.3296692,60.105 43.821,60.105 C43.3076641,60.105 42.8305022,60.0023344 42.3895,59.797 C41.9484978,59.5916656 41.5646683,59.2790021 41.238,58.859 C40.9113317,58.4389979 40.6546676,57.9081699 40.468,57.2665 C40.2813324,56.6248301 40.188,55.8653377 40.188,54.988 C40.188,54.1106623 40.2813324,53.3500032 40.468,52.706 C40.6546676,52.0619968 40.9113317,51.5288354 41.238,51.1065 C41.5646683,50.6841646 41.9484978,50.3703344 42.3895,50.165 C42.8305022,49.9596656 43.3076641,49.857 43.821,49.857 C44.3296692,49.857 44.8068311,49.9596656 45.2525,50.165 C45.6981689,50.3703344 46.0843317,50.6841646 46.411,51.1065 C46.7376683,51.5288354 46.9954991,52.0619968 47.1845,52.706 C47.3735009,53.3500032 47.468,54.1106623 47.468,54.988 L47.468,54.988 Z M46.173,54.988 C46.173,54.2226628 46.108834,53.5798359 45.9805,53.0595 C45.852166,52.5391641 45.6795011,52.1203349 45.4625,51.803 C45.2454989,51.4856651 44.9946681,51.2581674 44.71,51.1205 C44.4253319,50.9828326 44.1290015,50.914 43.821,50.914 C43.5129985,50.914 43.2166681,50.9828326 42.932,51.1205 C42.6473319,51.2581674 42.3976677,51.4856651 42.183,51.803 C41.9683323,52.1203349 41.796834,52.5391641 41.6685,53.0595 C41.540166,53.5798359 41.476,54.2226628 41.476,54.988 C41.476,55.7533372 41.540166,56.3949974 41.6685,56.913 C41.796834,57.4310026 41.9683323,57.8486651 42.183,58.166 C42.3976677,58.4833349 42.6473319,58.7108326 42.932,58.8485 C43.2166681,58.9861674 43.5129985,59.055 43.821,59.055 C44.1290015,59.055 44.4253319,58.9861674 44.71,58.8485 C44.9946681,58.7108326 45.2454989,58.4833349 45.4625,58.166 C45.6795011,57.8486651 45.852166,57.4310026 45.9805,56.913 C46.108834,56.3949974 46.173,55.7533372 46.173,54.988 L46.173,54.988 Z M56.82,60 L56.267,60 C56.1456661,60 56.047667,59.9813335 55.973,59.944 C55.898333,59.9066665 55.8493335,59.8273339 55.826,59.706 L55.686,59.048 C55.4993324,59.2160008 55.3173342,59.3664993 55.14,59.4995 C54.9626658,59.6325007 54.776001,59.7444995 54.58,59.8355 C54.383999,59.9265005 54.1751678,59.9953331 53.9535,60.042 C53.7318322,60.0886669 53.485668,60.112 53.215,60.112 C52.9396653,60.112 52.6818345,60.0735004 52.4415,59.9965 C52.2011655,59.9194996 51.9923342,59.8040008 51.815,59.65 C51.6376658,59.4959992 51.4965005,59.3011678 51.3915,59.0655 C51.2864995,58.8298322 51.234,58.5510016 51.234,58.229 C51.234,57.9489986 51.3109992,57.6795013 51.465,57.4205 C51.6190008,57.1614987 51.8674983,56.9316677 52.2105,56.731 C52.5535017,56.5303323 53.0026639,56.365834 53.558,56.2375 C54.1133361,56.109166 54.7923293,56.0356668 55.595,56.017 L55.595,55.464 C55.595,54.9133306 55.4771678,54.4968347 55.2415,54.2145 C55.0058322,53.9321653 54.6570023,53.791 54.195,53.791 C53.8916651,53.791 53.6361677,53.8294996 53.4285,53.9065 C53.2208323,53.9835004 53.0411674,54.0698329 52.8895,54.1655 C52.7378326,54.2611671 52.6071672,54.3474996 52.4975,54.4245 C52.3878328,54.5015004 52.2793339,54.54 52.172,54.54 C52.0879996,54.54 52.0145003,54.5178336 51.9515,54.4735 C51.8884997,54.4291664 51.8383335,54.3743337 51.801,54.309 L51.577,53.91 C51.969002,53.5319981 52.3913311,53.2496676 52.844,53.063 C53.2966689,52.8763324 53.7983306,52.783 54.349,52.783 C54.7456686,52.783 55.0979985,52.8483327 55.406,52.979 C55.7140015,53.1096673 55.972999,53.2916655 56.183,53.525 C56.393001,53.7583345 56.5516661,54.040665 56.659,54.372 C56.7663339,54.703335 56.82,55.0673314 56.82,55.464 L56.82,60 Z M53.586,59.237 C53.8053344,59.237 54.0059991,59.2148336 54.188,59.1705 C54.3700009,59.1261664 54.5414992,59.0631671 54.7025,58.9815 C54.8635008,58.8998329 55.0174993,58.8006673 55.1645,58.684 C55.3115007,58.5673327 55.4549993,58.4343341 55.595,58.285 L55.595,56.808 C55.0209971,56.8266668 54.5333353,56.8721663 54.132,56.9445 C53.7306647,57.0168337 53.4040013,57.1113328 53.152,57.228 C52.8999987,57.3446673 52.7168339,57.4823325 52.6025,57.641 C52.4881661,57.7996675 52.431,57.976999 52.431,58.173 C52.431,58.3596676 52.461333,58.520666 52.522,58.656 C52.582667,58.791334 52.6643328,58.9021662 52.767,58.9885 C52.8696672,59.0748338 52.9909993,59.1378331 53.131,59.1775 C53.2710007,59.2171669 53.4226658,59.237 53.586,59.237 L53.586,59.237 Z M58.71,60 L58.71,52.909 L59.452,52.909 C59.6293342,52.909 59.7413331,52.9953325 59.788,53.168 L59.879,53.896 C60.1403346,53.5739984 60.433165,53.3103344 60.7575,53.105 C61.081835,52.8996656 61.4586645,52.797 61.888,52.797 C62.3686691,52.797 62.7571652,52.9299987 63.0535,53.196 C63.3498348,53.4620013 63.5633327,53.8213311 63.694,54.274 C63.7920005,54.0173321 63.9214992,53.7956676 64.0825,53.609 C64.2435008,53.4223324 64.4243323,53.2683339 64.625,53.147 C64.8256677,53.0256661 65.0391655,52.9370003 65.2655,52.881 C65.4918345,52.8249997 65.7216655,52.797 65.955,52.797 C66.3283352,52.797 66.6608319,52.8564994 66.9525,52.9755 C67.2441681,53.0945006 67.491499,53.2683322 67.6945,53.497 C67.897501,53.7256678 68.0526661,54.0068317 68.16,54.3405 C68.2673339,54.6741683 68.321,55.0556645 68.321,55.485 L68.321,60 L67.075,60 L67.075,55.485 C67.075,54.9296639 66.9536679,54.5085014 66.711,54.2215 C66.4683321,53.9344986 66.1160023,53.791 65.654,53.791 C65.4486656,53.791 65.2538343,53.8271663 65.0695,53.8995 C64.8851657,53.9718337 64.7230007,54.0779993 64.583,54.218 C64.4429993,54.3580007 64.3321671,54.5341656 64.2505,54.7465 C64.1688329,54.9588344 64.128,55.2049986 64.128,55.485 L64.128,60 L62.882,60 L62.882,55.485 C62.882,54.9156638 62.7676678,54.4910014 62.539,54.211 C62.3103322,53.9309986 61.9766689,53.791 61.538,53.791 C61.2299985,53.791 60.944168,53.8738325 60.6805,54.0395 C60.416832,54.2051675 60.1753344,54.4303319 59.956,54.715 L59.956,60 L58.71,60 Z" id="Start-Time" fill="#2F2F2F"></path>
                                    <path d="M24.053,82.112 C23.5536642,82.112 23.0963354,82.0455007 22.681,81.9125 C22.2656646,81.7794993 21.9086682,81.5893346 21.61,81.342 C21.3113318,81.0946654 21.0803341,80.7948351 20.917,80.4425 C20.7536658,80.0901649 20.672,79.6946689 20.672,79.256 C20.672,78.6119968 20.8399983,78.0811688 21.176,77.6635 C21.5120017,77.2458312 21.9926635,76.9483342 22.618,76.771 C22.090664,76.574999 21.6928347,76.2821686 21.4245,75.8925 C21.1561653,75.5028314 21.022,75.037336 21.022,74.496 C21.022,74.1273315 21.0943326,73.7820016 21.239,73.46 C21.3836674,73.1379984 21.5889987,72.8580012 21.855,72.62 C22.1210013,72.3819988 22.4394981,72.195334 22.8105,72.06 C23.1815019,71.924666 23.5956644,71.857 24.053,71.857 C24.5056689,71.857 24.9186648,71.924666 25.292,72.06 C25.6653352,72.195334 25.9849987,72.3819988 26.251,72.62 C26.5170013,72.8580012 26.7223326,73.1379984 26.867,73.46 C27.0116674,73.7820016 27.084,74.1273315 27.084,74.496 C27.084,75.037336 26.948668,75.5028314 26.678,75.8925 C26.407332,76.2821686 26.0106693,76.574999 25.488,76.771 C26.1133365,76.9483342 26.5939983,77.2458312 26.93,77.6635 C27.2660017,78.0811688 27.434,78.6119968 27.434,79.256 C27.434,79.6946689 27.3511675,80.0901649 27.1855,80.4425 C27.0198325,80.7948351 26.7888348,81.0946654 26.4925,81.342 C26.1961652,81.5893346 25.8403354,81.7794993 25.425,81.9125 C25.0096646,82.0455007 24.5523358,82.112 24.053,82.112 L24.053,82.112 Z M24.053,81.118 C24.3796683,81.118 24.6724987,81.0725005 24.9315,80.9815 C25.1905013,80.8904995 25.4098324,80.7621675 25.5895,80.5965 C25.7691676,80.4308325 25.9068329,80.2325012 26.0025,80.0015 C26.0981671,79.7704988 26.146,79.5150014 26.146,79.235 C26.146,78.8896649 26.0888339,78.5945012 25.9745,78.3495 C25.8601661,78.1044988 25.7061676,77.9050008 25.5125,77.751 C25.3188324,77.5969992 25.0960013,77.4838337 24.844,77.4115 C24.5919987,77.3391663 24.3283347,77.303 24.053,77.303 C23.7776653,77.303 23.5140013,77.3391663 23.262,77.4115 C23.0099987,77.4838337 22.7871676,77.5969992 22.5935,77.751 C22.3998324,77.9050008 22.2458339,78.1044988 22.1315,78.3495 C22.0171661,78.5945012 21.96,78.8896649 21.96,79.235 C21.96,79.5150014 22.0078329,79.7704988 22.1035,80.0015 C22.1991671,80.2325012 22.3368324,80.4308325 22.5165,80.5965 C22.6961676,80.7621675 22.9154987,80.8904995 23.1745,80.9815 C23.4335013,81.0725005 23.7263317,81.118 24.053,81.118 L24.053,81.118 Z M24.053,76.302 C24.3796683,76.302 24.6584988,76.2518338 24.8895,76.1515 C25.1205012,76.0511662 25.3083326,75.9181675 25.453,75.7525 C25.5976674,75.5868325 25.7026663,75.3966677 25.768,75.182 C25.8333337,74.9673323 25.866,74.7456678 25.866,74.517 C25.866,74.2836655 25.8275004,74.0643344 25.7505,73.859 C25.6734996,73.6536656 25.5591674,73.4740008 25.4075,73.32 C25.2558326,73.1659992 25.0668345,73.0446671 24.8405,72.956 C24.6141655,72.8673329 24.3516682,72.823 24.053,72.823 C23.7543318,72.823 23.4918345,72.8673329 23.2655,72.956 C23.0391655,73.0446671 22.8501674,73.1659992 22.6985,73.32 C22.5468326,73.4740008 22.4325004,73.6536656 22.3555,73.859 C22.2784996,74.0643344 22.24,74.2836655 22.24,74.517 C22.24,74.7456678 22.2726663,74.9673323 22.338,75.182 C22.4033337,75.3966677 22.5083326,75.5868325 22.653,75.7525 C22.7976674,75.9181675 22.9854988,76.0511662 23.2165,76.1515 C23.4475012,76.2518338 23.7263317,76.302 24.053,76.302 L24.053,76.302 Z M29.016,81.23 C29.016,81.1086661 29.0381664,80.9943339 29.0825,80.887 C29.1268336,80.7796661 29.1874996,80.6863337 29.2645,80.607 C29.3415004,80.5276663 29.4336661,80.4646669 29.541,80.418 C29.6483339,80.3713331 29.7626661,80.348 29.884,80.348 C30.0053339,80.348 30.1196661,80.3713331 30.227,80.418 C30.3343339,80.4646669 30.4276663,80.5276663 30.507,80.607 C30.5863337,80.6863337 30.6481664,80.7796661 30.6925,80.887 C30.7368336,80.9943339 30.759,81.1086661 30.759,81.23 C30.759,81.3560006 30.7368336,81.4714995 30.6925,81.5765 C30.6481664,81.6815005 30.5863337,81.7736663 30.507,81.853 C30.4276663,81.9323337 30.3343339,81.9941664 30.227,82.0385 C30.1196661,82.0828336 30.0053339,82.105 29.884,82.105 C29.7626661,82.105 29.6483339,82.0828336 29.541,82.0385 C29.4336661,81.9941664 29.3415004,81.9323337 29.2645,81.853 C29.1874996,81.7736663 29.1268336,81.6815005 29.0825,81.5765 C29.0381664,81.4714995 29.016,81.3560006 29.016,81.23 L29.016,81.23 Z M29.016,75.98 C29.016,75.8586661 29.0381664,75.7443339 29.0825,75.637 C29.1268336,75.5296661 29.1874996,75.4363337 29.2645,75.357 C29.3415004,75.2776663 29.4336661,75.2146669 29.541,75.168 C29.6483339,75.1213331 29.7626661,75.098 29.884,75.098 C30.0053339,75.098 30.1196661,75.1213331 30.227,75.168 C30.3343339,75.2146669 30.4276663,75.2776663 30.507,75.357 C30.5863337,75.4363337 30.6481664,75.5296661 30.6925,75.637 C30.7368336,75.7443339 30.759,75.8586661 30.759,75.98 C30.759,76.1060006 30.7368336,76.2214995 30.6925,76.3265 C30.6481664,76.4315005 30.5863337,76.5236663 30.507,76.603 C30.4276663,76.6823337 30.3343339,76.7441664 30.227,76.7885 C30.1196661,76.8328336 30.0053339,76.855 29.884,76.855 C29.7626661,76.855 29.6483339,76.8328336 29.541,76.7885 C29.4336661,76.7441664 29.3415004,76.6823337 29.2645,76.603 C29.1874996,76.5236663 29.1268336,76.4315005 29.0825,76.3265 C29.0381664,76.2214995 29.016,76.1060006 29.016,75.98 L29.016,75.98 Z M38.494,72.515 C38.494,72.6923342 38.4380006,72.8381661 38.326,72.9525 C38.2139994,73.0668339 38.0250013,73.124 37.759,73.124 L34.609,73.124 L34.147,75.756 C34.6696693,75.6439994 35.1526645,75.588 35.596,75.588 C36.1186693,75.588 36.579498,75.6649992 36.9785,75.819 C37.377502,75.9730008 37.712332,76.185332 37.983,76.456 C38.253668,76.726668 38.4578326,77.0463315 38.5955,77.415 C38.7331674,77.7836685 38.802,78.1849978 38.802,78.619 C38.802,79.1510027 38.7086676,79.6316645 38.522,80.061 C38.3353324,80.4903355 38.079835,80.8578318 37.7555,81.1635 C37.431165,81.4691682 37.0496689,81.7036658 36.611,81.867 C36.1723311,82.0303342 35.6986692,82.112 35.19,82.112 C34.8959985,82.112 34.613668,82.0828336 34.343,82.0245 C34.072332,81.9661664 33.8203345,81.8880005 33.587,81.79 C33.3536655,81.6919995 33.1366677,81.5800006 32.936,81.454 C32.7353323,81.3279994 32.5580008,81.1950007 32.404,81.055 L32.782,80.523 C32.8660004,80.4016661 32.9779993,80.341 33.118,80.341 C33.2066671,80.341 33.3104994,80.3771663 33.4295,80.4495 C33.5485006,80.5218337 33.6919992,80.6023329 33.86,80.691 C34.0280008,80.7796671 34.2251655,80.8601663 34.4515,80.9325 C34.6778345,81.0048337 34.9473318,81.041 35.26,81.041 C35.6100017,81.041 35.9249986,80.9850006 36.205,80.873 C36.4850014,80.7609994 36.7241657,80.6011677 36.9225,80.3935 C37.1208343,80.1858323 37.2736661,79.9373348 37.381,79.648 C37.4883339,79.3586652 37.542,79.0343351 37.542,78.675 C37.542,78.3623318 37.4965005,78.0800013 37.4055,77.828 C37.3144995,77.5759987 37.1768343,77.3613342 36.9925,77.184 C36.8081657,77.0066658 36.5783347,76.8690005 36.303,76.771 C36.0276653,76.6729995 35.7056685,76.624 35.337,76.624 C35.0849987,76.624 34.823668,76.6449998 34.553,76.687 C34.282332,76.7290002 34.0023348,76.7966662 33.713,76.89 L32.929,76.659 L33.741,71.969 L38.494,71.969 L38.494,72.515 Z M46.614,72.515 C46.614,72.6923342 46.5580006,72.8381661 46.446,72.9525 C46.3339994,73.0668339 46.1450013,73.124 45.879,73.124 L42.729,73.124 L42.267,75.756 C42.7896693,75.6439994 43.2726644,75.588 43.716,75.588 C44.2386693,75.588 44.699498,75.6649992 45.0985,75.819 C45.497502,75.9730008 45.832332,76.185332 46.103,76.456 C46.373668,76.726668 46.5778326,77.0463315 46.7155,77.415 C46.8531674,77.7836685 46.922,78.1849978 46.922,78.619 C46.922,79.1510027 46.8286676,79.6316645 46.642,80.061 C46.4553324,80.4903355 46.199835,80.8578318 45.8755,81.1635 C45.551165,81.4691682 45.1696689,81.7036658 44.731,81.867 C44.2923311,82.0303342 43.8186692,82.112 43.31,82.112 C43.0159985,82.112 42.733668,82.0828336 42.463,82.0245 C42.192332,81.9661664 41.9403345,81.8880005 41.707,81.79 C41.4736655,81.6919995 41.2566677,81.5800006 41.056,81.454 C40.8553323,81.3279994 40.6780008,81.1950007 40.524,81.055 L40.902,80.523 C40.9860004,80.4016661 41.0979993,80.341 41.238,80.341 C41.3266671,80.341 41.4304994,80.3771663 41.5495,80.4495 C41.6685006,80.5218337 41.8119992,80.6023329 41.98,80.691 C42.1480008,80.7796671 42.3451655,80.8601663 42.5715,80.9325 C42.7978345,81.0048337 43.0673318,81.041 43.38,81.041 C43.7300017,81.041 44.0449986,80.9850006 44.325,80.873 C44.6050014,80.7609994 44.8441657,80.6011677 45.0425,80.3935 C45.2408343,80.1858323 45.3936661,79.9373348 45.501,79.648 C45.6083339,79.3586652 45.662,79.0343351 45.662,78.675 C45.662,78.3623318 45.6165005,78.0800013 45.5255,77.828 C45.4344995,77.5759987 45.2968343,77.3613342 45.1125,77.184 C44.9281657,77.0066658 44.6983347,76.8690005 44.423,76.771 C44.1476653,76.6729995 43.8256685,76.624 43.457,76.624 C43.2049987,76.624 42.943668,76.6449998 42.673,76.687 C42.402332,76.7290002 42.1223348,76.7966662 41.833,76.89 L41.049,76.659 L41.861,71.969 L46.614,71.969 L46.614,72.515 Z M56.82,82 L56.267,82 C56.1456661,82 56.047667,81.9813335 55.973,81.944 C55.898333,81.9066665 55.8493335,81.8273339 55.826,81.706 L55.686,81.048 C55.4993324,81.2160008 55.3173342,81.3664993 55.14,81.4995 C54.9626658,81.6325007 54.776001,81.7444995 54.58,81.8355 C54.383999,81.9265005 54.1751678,81.9953331 53.9535,82.042 C53.7318322,82.0886669 53.485668,82.112 53.215,82.112 C52.9396653,82.112 52.6818345,82.0735004 52.4415,81.9965 C52.2011655,81.9194996 51.9923342,81.8040008 51.815,81.65 C51.6376658,81.4959992 51.4965005,81.3011678 51.3915,81.0655 C51.2864995,80.8298322 51.234,80.5510016 51.234,80.229 C51.234,79.9489986 51.3109992,79.6795013 51.465,79.4205 C51.6190008,79.1614987 51.8674983,78.9316677 52.2105,78.731 C52.5535017,78.5303323 53.0026639,78.365834 53.558,78.2375 C54.1133361,78.109166 54.7923293,78.0356668 55.595,78.017 L55.595,77.464 C55.595,76.9133306 55.4771678,76.4968347 55.2415,76.2145 C55.0058322,75.9321653 54.6570023,75.791 54.195,75.791 C53.8916651,75.791 53.6361677,75.8294996 53.4285,75.9065 C53.2208323,75.9835004 53.0411674,76.0698329 52.8895,76.1655 C52.7378326,76.2611671 52.6071672,76.3474996 52.4975,76.4245 C52.3878328,76.5015004 52.2793339,76.54 52.172,76.54 C52.0879996,76.54 52.0145003,76.5178336 51.9515,76.4735 C51.8884997,76.4291664 51.8383335,76.3743337 51.801,76.309 L51.577,75.91 C51.969002,75.5319981 52.3913311,75.2496676 52.844,75.063 C53.2966689,74.8763324 53.7983306,74.783 54.349,74.783 C54.7456686,74.783 55.0979985,74.8483327 55.406,74.979 C55.7140015,75.1096673 55.972999,75.2916655 56.183,75.525 C56.393001,75.7583345 56.5516661,76.040665 56.659,76.372 C56.7663339,76.703335 56.82,77.0673314 56.82,77.464 L56.82,82 Z M53.586,81.237 C53.8053344,81.237 54.0059991,81.2148336 54.188,81.1705 C54.3700009,81.1261664 54.5414992,81.0631671 54.7025,80.9815 C54.8635008,80.8998329 55.0174993,80.8006673 55.1645,80.684 C55.3115007,80.5673328 55.4549993,80.4343341 55.595,80.285 L55.595,78.808 C55.0209971,78.8266668 54.5333353,78.8721663 54.132,78.9445 C53.7306647,79.0168337 53.4040013,79.1113328 53.152,79.228 C52.8999987,79.3446673 52.7168339,79.4823325 52.6025,79.641 C52.4881661,79.7996675 52.431,79.976999 52.431,80.173 C52.431,80.3596676 52.461333,80.520666 52.522,80.656 C52.582667,80.791334 52.6643328,80.9021662 52.767,80.9885 C52.8696672,81.0748338 52.9909993,81.1378331 53.131,81.1775 C53.2710007,81.2171669 53.4226658,81.237 53.586,81.237 L53.586,81.237 Z M58.71,82 L58.71,74.909 L59.452,74.909 C59.6293342,74.909 59.7413331,74.9953325 59.788,75.168 L59.879,75.896 C60.1403346,75.5739984 60.433165,75.3103344 60.7575,75.105 C61.081835,74.8996656 61.4586645,74.797 61.888,74.797 C62.3686691,74.797 62.7571652,74.9299987 63.0535,75.196 C63.3498348,75.4620013 63.5633327,75.8213311 63.694,76.274 C63.7920005,76.017332 63.9214992,75.7956676 64.0825,75.609 C64.2435008,75.4223324 64.4243323,75.2683339 64.625,75.147 C64.8256677,75.0256661 65.0391655,74.9370003 65.2655,74.881 C65.4918345,74.8249997 65.7216655,74.797 65.955,74.797 C66.3283352,74.797 66.6608319,74.8564994 66.9525,74.9755 C67.2441681,75.0945006 67.491499,75.2683322 67.6945,75.497 C67.897501,75.7256678 68.0526661,76.0068317 68.16,76.3405 C68.2673339,76.6741683 68.321,77.0556645 68.321,77.485 L68.321,82 L67.075,82 L67.075,77.485 C67.075,76.9296639 66.9536679,76.5085014 66.711,76.2215 C66.4683321,75.9344986 66.1160023,75.791 65.654,75.791 C65.4486656,75.791 65.2538343,75.8271663 65.0695,75.8995 C64.8851657,75.9718337 64.7230007,76.0779993 64.583,76.218 C64.4429993,76.3580007 64.3321671,76.5341656 64.2505,76.7465 C64.1688329,76.9588344 64.128,77.2049986 64.128,77.485 L64.128,82 L62.882,82 L62.882,77.485 C62.882,76.9156638 62.7676678,76.4910014 62.539,76.211 C62.3103322,75.9309986 61.9766689,75.791 61.538,75.791 C61.2299985,75.791 60.944168,75.8738325 60.6805,76.0395 C60.416832,76.2051675 60.1753344,76.4303319 59.956,76.715 L59.956,82 L58.71,82 Z" id="End-Time" fill="#2F2F2F"></path>
                                </g>
                                <g id="RouteLabel" transform="translate(21.000000, 17.000000)">
                                    <g id="Group-13">
                                        <rect id="Rectangle-301" fill="#493762" x="0" y="0" width="35" height="22" rx="5"></rect>
                                        <path d="M12.2085,11.7825 C12.2085,12.3025026 12.144584,12.7683313 12.01675,13.18 C11.888916,13.5916687 11.7004179,13.9394152 11.45125,14.22325 C11.2020821,14.5070848 10.8955018,14.7248326 10.5315,14.8765 C10.1674982,15.0281674 9.74933569,15.104 9.277,15.104 C8.85666456,15.104 8.41900228,15.0433339 7.964,14.922 C7.97266671,14.7963327 7.98349993,14.6717506 7.9965,14.54825 C8.00950006,14.4247494 8.02249993,14.3023339 8.0355,14.181 C8.04416671,14.107333 8.07124977,14.0477502 8.11675,14.00225 C8.16225023,13.9567498 8.23049955,13.934 8.3215,13.934 C8.39950039,13.934 8.50349935,13.9534998 8.6335,13.9925 C8.76350065,14.0315002 8.93683225,14.051 9.1535,14.051 C9.43950143,14.051 9.69408222,14.0076671 9.91725,13.921 C10.1404178,13.8343329 10.3289159,13.7000009 10.48275,13.518 C10.6365841,13.3359991 10.7535829,13.1030848 10.83375,12.81925 C10.9139171,12.5354152 10.954,12.1985019 10.954,11.8085 L10.954,5.6855 L12.2085,5.6855 L12.2085,11.7825 Z M20.496,10.346 C20.496,11.1606707 20.4082509,11.8659137 20.23275,12.46175 C20.0572491,13.0575863 19.8178349,13.550498 19.5145,13.9405 C19.2111651,14.330502 18.8525854,14.6208324 18.43875,14.8115 C18.0249146,15.0021676 17.5818357,15.0975 17.1095,15.0975 C16.6328309,15.0975 16.189752,15.0021676 15.78025,14.8115 C15.370748,14.6208324 15.0143348,14.330502 14.711,13.9405 C14.4076651,13.550498 14.1693342,13.0575863 13.996,12.46175 C13.8226658,11.8659137 13.736,11.1606707 13.736,10.346 C13.736,9.53132926 13.8226658,8.82500299 13.996,8.227 C14.1693342,7.62899701 14.4076651,7.13391863 14.711,6.74175 C15.0143348,6.34958137 15.370748,6.05816762 15.78025,5.8675 C16.189752,5.67683238 16.6328309,5.5815 17.1095,5.5815 C17.5818357,5.5815 18.0249146,5.67683238 18.43875,5.8675 C18.8525854,6.05816762 19.2111651,6.34958137 19.5145,6.74175 C19.8178349,7.13391863 20.0572491,7.62899701 20.23275,8.227 C20.4082509,8.82500299 20.496,9.53132926 20.496,10.346 L20.496,10.346 Z M19.2935,10.346 C19.2935,9.63532978 19.2339173,9.03841908 19.11475,8.55525 C18.9955827,8.07208092 18.835251,7.68316814 18.63375,7.3885 C18.432249,7.09383186 18.1993347,6.88258397 17.935,6.75475 C17.6706653,6.62691603 17.3955014,6.563 17.1095,6.563 C16.8234986,6.563 16.5483347,6.62691603 16.284,6.75475 C16.0196653,6.88258397 15.7878343,7.09383186 15.5885,7.3885 C15.3891657,7.68316814 15.2299173,8.07208092 15.11075,8.55525 C14.9915827,9.03841908 14.932,9.63532978 14.932,10.346 C14.932,11.0566702 14.9915827,11.6524976 15.11075,12.1335 C15.2299173,12.6145024 15.3891657,13.0023319 15.5885,13.297 C15.7878343,13.5916681 16.0196653,13.802916 16.284,13.93075 C16.5483347,14.058584 16.8234986,14.1225 17.1095,14.1225 C17.3955014,14.1225 17.6706653,14.058584 17.935,13.93075 C18.1993347,13.802916 18.432249,13.5916681 18.63375,13.297 C18.835251,13.0023319 18.9955827,12.6145024 19.11475,12.1335 C19.2339173,11.6524976 19.2935,11.0566702 19.2935,10.346 L19.2935,10.346 Z M24.7925,5.5815 C25.1868353,5.5815 25.555165,5.63999941 25.8975,5.757 C26.239835,5.87400058 26.5355821,6.04408222 26.78475,6.26725 C27.0339179,6.49041778 27.2299993,6.76233173 27.373,7.083 C27.5160007,7.40366827 27.5875,7.76766463 27.5875,8.175 C27.5875,8.5216684 27.5355005,8.84233186 27.4315,9.137 C27.3274995,9.43166814 27.1866676,9.71441531 27.009,9.98525 C26.8313324,10.2560847 26.6265845,10.5182487 26.39475,10.77175 C26.1629155,11.0252513 25.9170013,11.2841653 25.657,11.5485 L23.2065,14.0575 C23.3798342,14.0098331 23.5553324,13.9719168 23.733,13.94375 C23.9106676,13.9155832 24.0818325,13.9015 24.2465,13.9015 L27.3665,13.9015 C27.4921673,13.9015 27.591833,13.938333 27.6655,14.012 C27.739167,14.085667 27.776,14.1809994 27.776,14.298 L27.776,15 L21.562,15 L21.562,14.6035 C21.562,14.5211663 21.5782498,14.4366671 21.61075,14.35 C21.6432502,14.2633329 21.696333,14.183167 21.77,14.1095 L24.7535,11.113 C25.0005012,10.8616654 25.2258323,10.6200845 25.4295,10.38825 C25.6331677,10.1564155 25.8075826,9.92350117 25.95275,9.6895 C26.0979174,9.45549883 26.2094996,9.2182512 26.2875,8.97775 C26.3655004,8.7372488 26.4045,8.48050136 26.4045,8.2075 C26.4045,7.93449863 26.3611671,7.69508436 26.2745,7.48925 C26.1878329,7.28341564 26.0686674,7.113334 25.917,6.979 C25.7653326,6.84466599 25.5876677,6.743917 25.384,6.67675 C25.1803323,6.609583 24.9615012,6.576 24.7275,6.576 C24.4934988,6.576 24.2768343,6.61066632 24.0775,6.68 C23.8781657,6.74933368 23.7015841,6.84574938 23.54775,6.96925 C23.3939159,7.09275062 23.2639172,7.23899915 23.15775,7.408 C23.0515828,7.57700085 22.9768335,7.76333231 22.9335,7.967 C22.8988332,8.0926673 22.8468337,8.18366639 22.7775,8.24 C22.7081663,8.29633361 22.6171672,8.3245 22.5045,8.3245 C22.4828332,8.3245 22.4600835,8.32341668 22.43625,8.32125 C22.4124165,8.31908332 22.3853335,8.31583335 22.355,8.3115 L21.7505,8.2075 C21.811167,7.78283121 21.9281658,7.4069183 22.1015,7.07975 C22.2748342,6.7525817 22.4947487,6.4785011 22.76125,6.2575 C23.0277513,6.03649889 23.3332483,5.86858391 23.67775,5.75375 C24.0222517,5.63891609 24.3938313,5.5815 24.7925,5.5815 L24.7925,5.5815 Z" id="J02" fill="#FFFFFF"></path>
                                    </g>
                                </g>
                                <g id="RouteIconPair" transform="translate(87.000000, 53.000000)" stroke-linejoin="round">
                                    <g id="Location-+-Journey-Line-+-Location">
                                        <g id="RoutePairSmallStart">
                                            <path d="M7.98432602,3.93055556 C7.98432602,6.10124758 6.19722557,7.86111111 3.99216301,7.86111111 C1.78710045,7.86111111 0,6.10124758 0,3.93055556 C0,1.75952174 1.78710045,0 3.99216301,0 C6.19722557,0 7.98432602,1.75952174 7.98432602,3.93055556 L7.98432602,3.93055556 Z" id="Stroke-365" stroke="#777777"></path>
                                            <path d="M3.99216301,5.12681159 C3.32113248,5.12681159 2.77715688,4.59123068 2.77715688,3.93055556 C2.77715688,3.26988043 3.32113248,2.73429952 3.99216301,2.73429952 C4.66354068,2.73429952 5.20716914,3.26988043 5.20716914,3.93055556 C5.20716914,4.59123068 4.66354068,5.12681159 3.99216301,5.12681159 Z" id="Stroke-972" stroke="#00C4A5" stroke-linecap="round" fill="#00C4A5"></path>
                                        </g>
                                        <path d="M4,9.5 L4,20.5" id="RoutePairSmallLine" stroke="#777777" stroke-linecap="round" stroke-dasharray="1,2,1,2"></path>
                                        <g id="RoutePairSmallEnd" transform="translate(0.000000, 20.138889)">
                                            <path d="M7.86111111,3.86989883 C7.86111111,6.00709253 6.10158937,7.73979767 3.93055556,7.73979767 C1.75952174,7.73979767 0,6.00709253 0,3.86989883 C0,1.73236863 1.75952174,0 3.93055556,0 C6.10158937,0 7.86111111,1.73236863 7.86111111,3.86989883 L7.86111111,3.86989883 Z" id="Stroke-365" stroke="#777777"></path>
                                            <path d="M3.81662641,4.97596096 C3.15595129,4.97596096 2.62037037,4.44864518 2.62037037,3.79816567 C2.62037037,3.14768615 3.15595129,2.62037037 3.81662641,2.62037037 C4.47764332,2.62037037 5.01288245,3.14768615 5.01288245,3.79816567 C5.01288245,4.44864518 4.47764332,4.97596096 3.81662641,4.97596096 Z" id="Stroke-972" stroke="#FF6C6A" stroke-linecap="round" fill="#FF6C6A"></path>
                                        </g>
                                    </g>
                                </g>
                            </g>
                        </g>
                        <g id="Icon_Trackable_Normal" transform="translate(225.000000, 0.000000)">
                            <g id="Icon_Tracking">
                                <g id="Group">
                                    <polygon id="Rectangle-33" fill="#888888" points="0 0 51 0 51 51"></polygon>
                                    <g id="TrackingOnly" transform="translate(32.000000, 9.000000)" stroke="#FFFFFF" stroke-linecap="round" stroke-linejoin="round">
                                        <path d="M11,5.45454545 C11,8.46681818 5.5,15 5.5,15 C5.5,15 0,8.46681818 0,5.45454545 C0,2.44227273 2.46125,0 5.5,0 C8.53875,0 11,2.44227273 11,5.45454545 L11,5.45454545 Z" id="Stroke-204"></path>
                                        <path d="M5.5,8 C4.11833333,8 3,6.88166667 3,5.5 C3,4.11833333 4.11833333,3 5.5,3 C6.88,3 8,4.11833333 8,5.5 C8,6.88166667 6.88,8 5.5,8 Z" id="Stroke-206"></path>
                                    </g>
                                </g>
                            </g>
                        </g>
                    </g>
                </g>
            </g>
            <g id="Group" transform="translate(271.000000, 7.000000)" stroke="#493861">
                <path d="M10.5,0.634938611 L10.5,16.6666667" id="Line" stroke-width="5" stroke-linecap="square"></path>
                <polygon id="Triangle" fill="#493861" points="0 18 21 18 10.5 36"></polygon>
            </g>
        </g>
    </g>
</svg>