<?xml version="1.0" encoding="UTF-8" standalone="no"?>
<svg width="321px" height="146px" viewBox="0 0 321 146" version="1.1" xmlns="http://www.w3.org/2000/svg" xmlns:xlink="http://www.w3.org/1999/xlink">
    <!-- Generator: Sketch 41 (35326) - http://www.bohemiancoding.com/sketch -->
    <title>Group 3</title>
    <desc>Created with Sketch.</desc>
    <defs></defs>
    <g id="Kickstarter" stroke="none" stroke-width="1" fill="none" fill-rule="evenodd">
        <g id="Fullflow" transform="translate(-1606.000000, -1927.000000)">
            <g id="Group-3" transform="translate(1606.000000, 1927.000000)">
                <g id="Group-6" transform="translate(255.000000, 22.000000)">
                    <g id="Group-4"></g>
                </g>
                <path d="M286.531561,72.2501452 L286.531561,110.794068" id="Line" stroke="#A9A9A9" stroke-linecap="square"></path>
                <g id="KickstartBar" transform="translate(0.000000, 56.000000)">
                    <rect id="Rectangle" fill="#A9A9A9" x="7" y="5" width="288.38427" height="8.01898434" rx="4.00949217"></rect>
                    <path d="M0,9.00949217 C0,6.79511079 1.79893438,5 4.01023624,5 L225.531288,5 L225.531288,13.0189843 L4.01023624,13.0189843 C1.79544392,13.0189843 0,11.2193677 0,9.00949217 L0,9.00949217 Z" id="Rectangle"></path>
                    <rect id="Rectangle" fill="#493861" x="0" y="5" width="61.9286733" height="8.01898434" rx="4.00949217"></rect>
                    <ellipse id="Oval" stroke="#A9A9A9" stroke-width="6" fill="#FFFFFF" cx="286.780931" cy="8.46448347" rx="8.78093129" ry="8.46448347"></ellipse>
                </g>
                <rect id="Rectangle-2" fill="#A9A9A9" x="255" y="0" width="64.1430384" height="39.3391642"></rect>
                <polygon id="Triangle" fill="#A9A9A9" points="282 36 293.155311 36 287.577656 48.8081"></polygon>
                <path d="M270.279661,19.5939684 C269.604762,19.5335871 268.989831,19.3702854 268.434852,19.1040586 C267.879872,18.8378317 267.401593,18.4988779 267,18.0871869 L267.443424,17.4120171 C267.482467,17.3516357 267.538243,17.3022336 267.610753,17.2638091 C267.683263,17.2253846 267.758561,17.2061726 267.836648,17.2061726 C267.942624,17.2061726 268.062543,17.2583194 268.196407,17.3626144 C268.330272,17.4669095 268.494811,17.5862981 268.69003,17.7207838 C268.885249,17.8552695 269.118113,17.9856364 269.388631,18.1118883 C269.659149,18.2381402 269.984044,18.3232217 270.363326,18.3671354 L270.672886,13.994999 C270.282448,13.8797255 269.898988,13.7493586 269.522495,13.6038945 C269.146001,13.4584304 268.808556,13.2690553 268.51015,13.0357638 C268.211744,12.8024722 267.971907,12.5088037 267.790633,12.1547495 C267.609358,11.8006952 267.518722,11.3574479 267.518722,10.8249942 C267.518722,10.4242817 267.598203,10.0331811 267.757167,9.65168079 C267.916131,9.27018048 268.147601,8.93122665 268.451585,8.63480914 C268.755569,8.33839163 269.130662,8.09549759 269.576877,7.90611974 C270.023092,7.71674188 270.536231,7.61107611 271.11631,7.58911926 L271.199975,6.40345515 C271.21113,6.2991601 271.252962,6.20584488 271.325472,6.12350668 C271.397982,6.04116848 271.49559,6 271.618299,6 L272.170487,6 L272.053356,7.63028816 C272.639013,7.70164793 273.143785,7.84985446 273.567689,8.0749122 C273.991593,8.29996994 274.37087,8.57168191 274.705531,8.89005628 L274.345772,9.43348566 C274.234219,9.59816205 274.105934,9.68049902 273.960914,9.68049902 C273.882827,9.68049902 273.786613,9.64619195 273.67227,9.57757678 C273.557928,9.50896162 273.419882,9.42936922 273.258129,9.33879721 C273.096377,9.24822519 272.909527,9.15765453 272.697575,9.06708251 C272.485623,8.9765105 272.242998,8.91201321 271.969691,8.87358872 L271.693597,12.8587375 C272.09519,12.9795002 272.4912,13.1112394 272.881638,13.2539589 C273.272076,13.3966785 273.623464,13.5805643 273.935815,13.8056221 C274.248165,14.0306798 274.500551,14.3119978 274.692981,14.6495844 C274.885411,14.987171 274.981625,15.4084618 274.981625,15.9134694 C274.981625,16.4074986 274.897961,16.8713301 274.730631,17.304978 C274.5633,17.7386258 274.31928,18.1201204 273.998563,18.4494732 C273.677846,18.778826 273.284626,19.0464211 272.818889,19.2522666 C272.353153,19.4581121 271.821886,19.5775007 271.225074,19.610436 L271.124676,21.059581 C271.113521,21.163876 271.070294,21.255819 270.994996,21.3354126 C270.919697,21.4150062 270.823483,21.4548024 270.706352,21.4548024 L270.154164,21.4548024 L270.279661,19.5939684 Z M273.567689,16.1440152 C273.567689,15.8695545 273.516097,15.6335219 273.412909,15.4359102 C273.309722,15.2382986 273.168888,15.0681355 272.990402,14.925416 C272.811916,14.7826964 272.602756,14.659191 272.362916,14.5548959 C272.123075,14.4506009 271.866506,14.3545411 271.593199,14.2667137 L271.308739,18.3671354 C271.671288,18.3342001 271.993395,18.25598 272.275068,18.1324727 C272.556741,18.0089654 272.793789,17.8511529 272.986219,17.6590304 C273.178649,17.466908 273.323666,17.2432259 273.421276,16.9879775 C273.518885,16.7327291 273.567689,16.4514111 273.567689,16.1440152 L273.567689,16.1440152 Z M268.924291,10.6767862 C268.924291,10.9402685 268.971701,11.1694397 269.066521,11.3643067 C269.161342,11.5591738 269.292416,11.7307091 269.459746,11.8789179 C269.627077,12.0271266 269.822293,12.1561212 270.0454,12.2659055 C270.268507,12.3756897 270.511133,12.4744941 270.773284,12.5623215 L271.024278,8.84888738 C270.661729,8.88182266 270.347989,8.95318136 270.083049,9.06296562 C269.818109,9.17274989 269.600583,9.30997816 269.430463,9.47465455 C269.260344,9.63933095 269.133454,9.82458911 269.049788,10.0304346 C268.966123,10.2362801 268.924291,10.4517285 268.924291,10.6767862 L268.924291,10.6767862 Z M284.000694,8.33839311 C284.000694,8.54698321 283.933763,8.71851855 283.799898,8.85300427 C283.666034,8.98748999 283.440141,9.05473185 283.122213,9.05473185 L279.357296,9.05473185 L278.805108,12.1506326 C279.429808,12.0188915 280.00709,11.9530219 280.53697,11.9530219 C281.16167,11.9530219 281.712458,12.0435926 282.18935,12.2247366 C282.666242,12.4058806 283.066435,12.6556361 283.389941,12.9740104 C283.713446,13.2923848 283.957466,13.6683903 284.122008,14.1020381 C284.28655,14.5356859 284.368819,15.0077512 284.368819,15.518248 C284.368819,16.1440183 284.257267,16.7093988 284.03416,17.2144064 C283.811053,17.719414 283.505679,18.1516831 283.11803,18.5112265 C282.730381,18.87077 282.274412,19.1465988 281.75011,19.3387213 C281.225808,19.5308437 280.659681,19.6269035 280.051714,19.6269035 C279.70032,19.6269035 279.362875,19.5925965 279.039369,19.5239813 C278.715864,19.4553661 278.414673,19.3634232 278.135789,19.2481497 C277.856905,19.1328762 277.597547,19.0011371 277.357706,18.8529283 C277.117866,18.7047196 276.905917,18.5482794 276.721854,18.383603 L277.173644,17.7578358 C277.274042,17.6151162 277.407904,17.5437575 277.575235,17.5437575 C277.681211,17.5437575 277.805312,17.5862983 277.947543,17.6713811 C278.089774,17.7564639 278.261285,17.8511514 278.462082,17.9554465 C278.662879,18.0597415 278.898532,18.154429 279.16905,18.2395118 C279.439568,18.3245946 279.761674,18.3671354 280.135379,18.3671354 C280.553705,18.3671354 280.930193,18.3012658 281.264854,18.1695247 C281.599515,18.0377836 281.885367,17.8497809 282.122418,17.6055109 C282.35947,17.3612409 282.542136,17.0689447 282.670423,16.7286135 C282.79871,16.3882822 282.862852,16.0067877 282.862852,15.5841182 C282.862852,15.216341 282.808471,14.8842485 282.699706,14.587831 C282.590941,14.2914135 282.426402,14.0389135 282.206083,13.8303234 C281.985765,13.6217333 281.711068,13.459804 281.381985,13.3445305 C281.052901,13.229257 280.668047,13.1716211 280.22741,13.1716211 C279.926215,13.1716211 279.61387,13.1963222 279.290364,13.2457251 C278.966858,13.2951281 278.632202,13.3747204 278.286386,13.4845047 L277.34934,13.21279 L278.319852,7.69615838 L284.000694,7.69615838 L284.000694,8.33839311 Z M286.259644,18.5894474 C286.259644,18.4467279 286.286138,18.3122442 286.339126,18.1859923 C286.392114,18.0597404 286.464623,17.9499578 286.556655,17.8566411 C286.648686,17.7633245 286.758844,17.6892212 286.887131,17.6343291 C287.015417,17.579437 287.152069,17.5519913 287.297088,17.5519913 C287.442108,17.5519913 287.578759,17.579437 287.707046,17.6343291 C287.835333,17.6892212 287.946885,17.7633245 288.041705,17.8566411 C288.136526,17.9499578 288.210429,18.0597404 288.263417,18.1859923 C288.316405,18.3122442 288.342899,18.4467279 288.342899,18.5894474 C288.342899,18.7376562 288.316405,18.8735122 288.263417,18.9970195 C288.210429,19.1205268 288.136526,19.2289371 288.041705,19.3222537 C287.946885,19.4155703 287.835333,19.4883013 287.707046,19.5404488 C287.578759,19.5925964 287.442108,19.6186697 287.297088,19.6186697 C287.152069,19.6186697 287.015417,19.5925964 286.887131,19.5404488 C286.758844,19.4883013 286.648686,19.4155703 286.556655,19.3222537 C286.464623,19.2289371 286.392114,19.1205268 286.339126,18.9970195 C286.286138,18.8735122 286.259644,18.7376562 286.259644,18.5894474 L286.259644,18.5894474 Z M298.273914,13.5997776 C298.273914,14.6317497 298.160968,15.5251057 297.935072,16.2798725 C297.709176,17.0346393 297.401013,17.659028 297.010575,18.1530572 C296.620138,18.6470863 296.158591,19.0148581 295.625922,19.2563835 C295.093254,19.4979089 294.522944,19.6186697 293.914977,19.6186697 C293.301431,19.6186697 292.731122,19.4979089 292.204031,19.2563835 C291.67694,19.0148581 291.218182,18.6470863 290.827744,18.1530572 C290.437306,17.659028 290.130539,17.0346393 289.907431,16.2798725 C289.684324,15.5251057 289.572772,14.6317497 289.572772,13.5997776 C289.572772,12.5678055 289.684324,11.6730772 289.907431,10.9155658 C290.130539,10.1580544 290.437306,9.53092119 290.827744,9.0341474 C291.218182,8.53737361 291.67694,8.16822956 292.204031,7.92670418 C292.731122,7.6851788 293.301431,7.56441793 293.914977,7.56441793 C294.522944,7.56441793 295.093254,7.6851788 295.625922,7.92670418 C296.158591,8.16822956 296.620138,8.53737361 297.010575,9.0341474 C297.401013,9.53092119 297.709176,10.1580544 297.935072,10.9155658 C298.160968,11.6730772 298.273914,12.5678055 298.273914,13.5997776 L298.273914,13.5997776 Z M296.726115,13.5997776 C296.726115,12.6995467 296.649423,11.9434189 296.496037,11.3313716 C296.34265,10.7193244 296.136279,10.2266749 295.876917,9.85340837 C295.617555,9.48014187 295.317759,9.21254674 294.97752,9.05061496 C294.637281,8.88868317 294.283104,8.80771849 293.914977,8.80771849 C293.54685,8.80771849 293.192672,8.88868317 292.852433,9.05061496 C292.512195,9.21254674 292.213793,9.48014187 291.95722,9.85340837 C291.700646,10.2266749 291.495669,10.7193244 291.342283,11.3313716 C291.188897,11.9434189 291.112205,12.6995467 291.112205,13.5997776 C291.112205,14.5000086 291.188897,15.2547641 291.342283,15.8640667 C291.495669,16.4733694 291.700646,16.9646466 291.95722,17.3379131 C292.213793,17.7111796 292.512195,17.9787747 292.852433,18.1407065 C293.192672,18.3026383 293.54685,18.383603 293.914977,18.383603 C294.283104,18.383603 294.637281,18.3026383 294.97752,18.1407065 C295.317759,17.9787747 295.617555,17.7111796 295.876917,17.3379131 C296.136279,16.9646466 296.34265,16.4733694 296.496037,15.8640667 C296.649423,15.2547641 296.726115,14.5000086 296.726115,13.5997776 L296.726115,13.5997776 Z M307.979035,13.5997776 C307.979035,14.6317497 307.866089,15.5251057 307.640192,16.2798725 C307.414296,17.0346393 307.106134,17.659028 306.715696,18.1530572 C306.325258,18.6470863 305.863712,19.0148581 305.331043,19.2563835 C304.798374,19.4979089 304.228065,19.6186697 303.620097,19.6186697 C303.006552,19.6186697 302.436242,19.4979089 301.909151,19.2563835 C301.38206,19.0148581 300.923303,18.6470863 300.532865,18.1530572 C300.142427,17.659028 299.835659,17.0346393 299.612552,16.2798725 C299.389444,15.5251057 299.277892,14.6317497 299.277892,13.5997776 C299.277892,12.5678055 299.389444,11.6730772 299.612552,10.9155658 C299.835659,10.1580544 300.142427,9.53092119 300.532865,9.0341474 C300.923303,8.53737361 301.38206,8.16822956 301.909151,7.92670418 C302.436242,7.6851788 303.006552,7.56441793 303.620097,7.56441793 C304.228065,7.56441793 304.798374,7.6851788 305.331043,7.92670418 C305.863712,8.16822956 306.325258,8.53737361 306.715696,9.0341474 C307.106134,9.53092119 307.414296,10.1580544 307.640192,10.9155658 C307.866089,11.6730772 307.979035,12.5678055 307.979035,13.5997776 L307.979035,13.5997776 Z M306.431236,13.5997776 C306.431236,12.6995467 306.354544,11.9434189 306.201157,11.3313716 C306.047771,10.7193244 305.8414,10.2266749 305.582038,9.85340837 C305.322675,9.48014187 305.022879,9.21254674 304.682641,9.05061496 C304.342402,8.88868317 303.988224,8.80771849 303.620097,8.80771849 C303.25197,8.80771849 302.897793,8.88868317 302.557554,9.05061496 C302.217315,9.21254674 301.918914,9.48014187 301.66234,9.85340837 C301.405767,10.2266749 301.20079,10.7193244 301.047404,11.3313716 C300.894017,11.9434189 300.817325,12.6995467 300.817325,13.5997776 C300.817325,14.5000086 300.894017,15.2547641 301.047404,15.8640667 C301.20079,16.4733694 301.405767,16.9646466 301.66234,17.3379131 C301.918914,17.7111796 302.217315,17.9787747 302.557554,18.1407065 C302.897793,18.3026383 303.25197,18.383603 303.620097,18.383603 C303.988224,18.383603 304.342402,18.3026383 304.682641,18.1407065 C305.022879,17.9787747 305.322675,17.7111796 305.582038,17.3379131 C305.8414,16.9646466 306.047771,16.4733694 306.201157,15.8640667 C306.354544,15.2547641 306.431236,14.5000086 306.431236,13.5997776 L306.431236,13.5997776 Z" id="$5.00" fill="#FFFFFF"></path>
                <path d="M268.84,33.058 L268.84,24.922 L269.476,24.922 C269.628001,24.922 269.724,24.9959993 269.764,25.144 L269.854,25.864 C270.114001,25.5479984 270.410998,25.294001 270.745,25.102 C271.079002,24.909999 271.463998,24.814 271.9,24.814 C272.248002,24.814 272.563999,24.8809993 272.848,25.015 C273.132001,25.1490007 273.373999,25.3469987 273.574,25.609 C273.774001,25.8710013 273.927999,26.1959981 274.036,26.584 C274.144001,26.9720019 274.198,27.4179975 274.198,27.922 C274.198,28.3700022 274.138001,28.7869981 274.018,29.173 C273.897999,29.5590019 273.726001,29.8929986 273.502,30.175 C273.277999,30.4570014 273.003002,30.6789992 272.677,30.841 C272.350998,31.0030008 271.984002,31.084 271.576,31.084 C271.199998,31.084 270.879001,31.0220006 270.613,30.898 C270.346999,30.7739994 270.112001,30.5980011 269.908,30.37 L269.908,33.058 L268.84,33.058 Z M271.546,25.678 C271.197998,25.678 270.893001,25.7579992 270.631,25.918 C270.368999,26.0780008 270.128001,26.3039985 269.908,26.596 L269.908,29.536 C270.104001,29.8000013 270.318999,29.9859995 270.553,30.094 C270.787001,30.2020005 271.047999,30.256 271.336,30.256 C271.900003,30.256 272.333998,30.054002 272.638,29.65 C272.942002,29.245998 273.094,28.6700037 273.094,27.922 C273.094,27.525998 273.059,27.1860014 272.989,26.902 C272.919,26.6179986 272.818001,26.3850009 272.686,26.203 C272.553999,26.0209991 272.392001,25.8880004 272.2,25.804 C272.007999,25.7199996 271.790001,25.678 271.546,25.678 Z M277.87,24.826 C278.234002,24.826 278.569998,24.8869994 278.878,25.009 C279.186002,25.1310006 279.451999,25.3069989 279.676,25.537 C279.900001,25.7670012 280.074999,26.0509983 280.201,26.389 C280.327001,26.7270017 280.39,27.1119978 280.39,27.544 C280.39,27.7120008 280.372,27.8239997 280.336,27.88 C280.3,27.9360003 280.232001,27.964 280.132,27.964 L276.088,27.964 C276.096,28.3480019 276.148,28.6819986 276.244,28.966 C276.34,29.2500014 276.471999,29.4869991 276.64,29.677 C276.808001,29.867001 277.007999,30.0089995 277.24,30.103 C277.472001,30.1970005 277.731999,30.244 278.02,30.244 C278.288001,30.244 278.518999,30.2130003 278.713,30.151 C278.907001,30.0889997 279.073999,30.0220004 279.214,29.95 C279.354001,29.8779996 279.471,29.8110003 279.565,29.749 C279.659,29.6869997 279.74,29.656 279.808,29.656 C279.896,29.656 279.964,29.6899997 280.012,29.758 L280.312,30.148 C280.179999,30.3080008 280.022001,30.4469994 279.838,30.565 C279.653999,30.6830006 279.457001,30.7799996 279.247,30.856 C279.036999,30.9320004 278.820001,30.9889998 278.596,31.027 C278.371999,31.0650002 278.150001,31.084 277.93,31.084 C277.509998,31.084 277.123002,31.0130007 276.769,30.871 C276.414998,30.7289993 276.109001,30.5210014 275.851,30.247 C275.592999,29.9729986 275.392001,29.634002 275.248,29.23 C275.103999,28.825998 275.032,28.3620026 275.032,27.838 C275.032,27.4139979 275.096999,27.0180018 275.227,26.65 C275.357001,26.2819982 275.543999,25.9630014 275.788,25.693 C276.032001,25.4229987 276.329998,25.2110008 276.682,25.057 C277.034002,24.9029992 277.429998,24.826 277.87,24.826 Z M277.894,25.612 C277.377997,25.612 276.972001,25.7609985 276.676,26.059 C276.379999,26.3570015 276.196,26.7699974 276.124,27.298 L279.43,27.298 C279.43,27.0499988 279.396,26.823001 279.328,26.617 C279.26,26.410999 279.160001,26.2330008 279.028,26.083 C278.895999,25.9329993 278.735001,25.8170004 278.545,25.735 C278.354999,25.6529996 278.138001,25.612 277.894,25.612 Z M281.752,31 L281.752,24.922 L282.364,24.922 C282.480001,24.922 282.56,24.9439998 282.604,24.988 C282.648,25.0320002 282.678,25.1079995 282.694,25.216 L282.766,26.164 C282.974001,25.7399979 283.230998,25.4090012 283.537,25.171 C283.843002,24.9329988 284.201998,24.814 284.614,24.814 C284.782001,24.814 284.933999,24.8329998 285.07,24.871 C285.206001,24.9090002 285.331999,24.9619997 285.448,25.03 L285.31,25.828 C285.282,25.9280005 285.22,25.978 285.124,25.978 C285.068,25.978 284.982001,25.9590002 284.866,25.921 C284.749999,25.8829998 284.588001,25.864 284.38,25.864 C284.007998,25.864 283.697001,25.9719989 283.447,26.188 C283.196999,26.4040011 282.988001,26.7179979 282.82,27.13 L282.82,31 L281.752,31 Z M290.746,31.096 C290.265998,31.096 289.897001,30.9620013 289.639,30.694 C289.380999,30.4259987 289.252,30.0400025 289.252,29.536 L289.252,25.816 L288.52,25.816 C288.456,25.816 288.402,25.7970002 288.358,25.759 C288.314,25.7209998 288.292,25.6620004 288.292,25.582 L288.292,25.156 L289.288,25.03 L289.534,23.152 C289.542,23.0919997 289.568,23.0430002 289.612,23.005 C289.656,22.9669998 289.712,22.948 289.78,22.948 L290.32,22.948 L290.32,25.042 L292.06,25.042 L292.06,25.816 L290.32,25.816 L290.32,29.464 C290.32,29.7200013 290.381999,29.9099994 290.506,30.034 C290.630001,30.1580006 290.789999,30.22 290.986,30.22 C291.098001,30.22 291.195,30.2050002 291.277,30.175 C291.359,30.1449999 291.43,30.1120002 291.49,30.076 C291.55,30.0399998 291.601,30.0070002 291.643,29.977 C291.685,29.9469999 291.722,29.932 291.754,29.932 C291.81,29.932 291.86,29.9659997 291.904,30.034 L292.216,30.544 C292.031999,30.7160009 291.810001,30.8509995 291.55,30.949 C291.289999,31.0470005 291.022001,31.096 290.746,31.096 Z M293.38,31 L293.38,24.922 L293.992,24.922 C294.108001,24.922 294.188,24.9439998 294.232,24.988 C294.276,25.0320002 294.306,25.1079995 294.322,25.216 L294.394,26.164 C294.602001,25.7399979 294.858998,25.4090012 295.165,25.171 C295.471002,24.9329988 295.829998,24.814 296.242,24.814 C296.410001,24.814 296.561999,24.8329998 296.698,24.871 C296.834001,24.9090002 296.959999,24.9619997 297.076,25.03 L296.938,25.828 C296.91,25.9280005 296.848,25.978 296.752,25.978 C296.696,25.978 296.610001,25.9590002 296.494,25.921 C296.377999,25.8829998 296.216001,25.864 296.008,25.864 C295.635998,25.864 295.325001,25.9719989 295.075,26.188 C294.824999,26.4040011 294.616001,26.7179979 294.448,27.13 L294.448,31 L293.38,31 Z M299.404,24.922 L299.404,31 L298.336,31 L298.336,24.922 L299.404,24.922 Z M299.644,23.014 C299.644,23.1180005 299.623,23.2149996 299.581,23.305 C299.539,23.3950005 299.483,23.4749997 299.413,23.545 C299.343,23.6150004 299.262,23.6699998 299.17,23.71 C299.078,23.7500002 298.980001,23.77 298.876,23.77 C298.771999,23.77 298.675,23.7500002 298.585,23.71 C298.495,23.6699998 298.415,23.6150004 298.345,23.545 C298.275,23.4749997 298.22,23.3950005 298.18,23.305 C298.14,23.2149996 298.12,23.1180005 298.12,23.014 C298.12,22.9099995 298.14,22.8110005 298.18,22.717 C298.22,22.6229995 298.275,22.5410004 298.345,22.471 C298.415,22.4009997 298.495,22.3460002 298.585,22.306 C298.675,22.2659998 298.771999,22.246 298.876,22.246 C298.980001,22.246 299.078,22.2659998 299.17,22.306 C299.262,22.3460002 299.343,22.4009997 299.413,22.471 C299.483,22.5410004 299.539,22.6229995 299.581,22.717 C299.623,22.8110005 299.644,22.9099995 299.644,23.014 Z M301.288,33.058 L301.288,24.922 L301.924,24.922 C302.076001,24.922 302.172,24.9959993 302.212,25.144 L302.302,25.864 C302.562001,25.5479984 302.858998,25.294001 303.193,25.102 C303.527002,24.909999 303.911998,24.814 304.348,24.814 C304.696002,24.814 305.011999,24.8809993 305.296,25.015 C305.580001,25.1490007 305.821999,25.3469987 306.022,25.609 C306.222001,25.8710013 306.375999,26.1959981 306.484,26.584 C306.592001,26.9720019 306.646,27.4179975 306.646,27.922 C306.646,28.3700022 306.586001,28.7869981 306.466,29.173 C306.345999,29.5590019 306.174001,29.8929986 305.95,30.175 C305.725999,30.4570014 305.451002,30.6789992 305.125,30.841 C304.798998,31.0030008 304.432002,31.084 304.024,31.084 C303.647998,31.084 303.327001,31.0220006 303.061,30.898 C302.794999,30.7739994 302.560001,30.5980011 302.356,30.37 L302.356,33.058 L301.288,33.058 Z M303.994,25.678 C303.645998,25.678 303.341001,25.7579992 303.079,25.918 C302.816999,26.0780008 302.576001,26.3039985 302.356,26.596 L302.356,29.536 C302.552001,29.8000013 302.766999,29.9859995 303.001,30.094 C303.235001,30.2020005 303.495999,30.256 303.784,30.256 C304.348003,30.256 304.781998,30.054002 305.086,29.65 C305.390002,29.245998 305.542,28.6700037 305.542,27.922 C305.542,27.525998 305.507,27.1860014 305.437,26.902 C305.367,26.6179986 305.266001,26.3850009 305.134,26.203 C305.001999,26.0209991 304.840001,25.8880004 304.648,25.804 C304.455999,25.7199996 304.238001,25.678 303.994,25.678 Z" id="per-trip" fill="#FFFFFF"></path>
                <path d="M265.108,115.857 C265.532669,115.857 265.929331,115.919999 266.298,116.046 C266.666669,116.172001 266.985165,116.355165 267.2535,116.5955 C267.521835,116.835835 267.732999,117.128665 267.887,117.474 C268.041001,117.819335 268.118,118.211331 268.118,118.65 C268.118,119.023335 268.062001,119.368665 267.95,119.686 C267.837999,120.003335 267.686334,120.307832 267.495,120.5995 C267.303666,120.891168 267.083168,121.173499 266.8335,121.4465 C266.583832,121.719501 266.319001,121.998332 266.039,122.283 L263.4,124.985 C263.586668,124.933666 263.775666,124.892833 263.967,124.8625 C264.158334,124.832167 264.342666,124.817 264.52,124.817 L267.88,124.817 C268.015334,124.817 268.122666,124.856666 268.202,124.936 C268.281334,125.015334 268.321,125.117999 268.321,125.244 L268.321,126 L261.629,126 L261.629,125.573 C261.629,125.484333 261.6465,125.393334 261.6815,125.3 C261.7165,125.206666 261.773666,125.120334 261.853,125.041 L265.066,121.814 C265.332001,121.543332 265.574666,121.283168 265.794,121.0335 C266.013334,120.783832 266.201166,120.533001 266.3575,120.281 C266.513834,120.028999 266.634,119.773501 266.718,119.5145 C266.802,119.255499 266.844,118.979001 266.844,118.685 C266.844,118.390999 266.797334,118.133168 266.704,117.9115 C266.610666,117.689832 266.482334,117.506667 266.319,117.362 C266.155666,117.217333 265.964334,117.108834 265.745,117.0365 C265.525666,116.964166 265.290001,116.928 265.038,116.928 C264.785999,116.928 264.552668,116.965333 264.338,117.04 C264.123332,117.114667 263.933167,117.218499 263.7675,117.3515 C263.601833,117.484501 263.461834,117.641999 263.3475,117.824 C263.233166,118.006001 263.152667,118.206666 263.106,118.426 C263.068666,118.561334 263.012667,118.659333 262.938,118.72 C262.863333,118.780667 262.765334,118.811 262.644,118.811 C262.620667,118.811 262.596167,118.809833 262.5705,118.8075 C262.544833,118.805167 262.515667,118.801667 262.483,118.797 L261.832,118.685 C261.897334,118.227664 262.023332,117.822835 262.21,117.4705 C262.396668,117.118165 262.633499,116.823001 262.9205,116.585 C263.207501,116.346999 263.536498,116.166167 263.9075,116.0425 C264.278502,115.918833 264.678665,115.857 265.108,115.857 Z M271.03,125.048 L273.186,125.048 L273.186,118.209 C273.186,118.003666 273.193,117.796001 273.207,117.586 L271.415,119.119 C271.368333,119.156334 271.321667,119.183167 271.275,119.1995 C271.228333,119.215833 271.184,119.224 271.142,119.224 C271.072,119.224 271.009,119.208833 270.953,119.1785 C270.897,119.148167 270.855,119.112 270.827,119.07 L270.435,118.531 L273.417,115.948 L274.432,115.948 L274.432,125.048 L276.406,125.048 L276.406,126 L271.03,126 L271.03,125.048 Z M280.865,126 L280.865,118.909 L281.607,118.909 C281.784334,118.909 281.896333,118.995332 281.943,119.168 L282.034,119.896 C282.295335,119.573998 282.588165,119.310334 282.9125,119.105 C283.236835,118.899666 283.613665,118.797 284.043,118.797 C284.523669,118.797 284.912165,118.929999 285.2085,119.196 C285.504835,119.462001 285.718333,119.821331 285.849,120.274 C285.947,120.017332 286.076499,119.795668 286.2375,119.609 C286.398501,119.422332 286.579332,119.268334 286.78,119.147 C286.980668,119.025666 287.194166,118.937 287.4205,118.881 C287.646834,118.825 287.876665,118.797 288.11,118.797 C288.483335,118.797 288.815832,118.856499 289.1075,118.9755 C289.399168,119.094501 289.646499,119.268332 289.8495,119.497 C290.052501,119.725668 290.207666,120.006832 290.315,120.3405 C290.422334,120.674168 290.476,121.055665 290.476,121.485 L290.476,126 L289.23,126 L289.23,121.485 C289.23,120.929664 289.108668,120.508501 288.866,120.2215 C288.623332,119.934499 288.271002,119.791 287.809,119.791 C287.603666,119.791 287.408834,119.827166 287.2245,119.8995 C287.040166,119.971834 286.878001,120.077999 286.738,120.218 C286.597999,120.358001 286.487167,120.534166 286.4055,120.7465 C286.323833,120.958834 286.283,121.204999 286.283,121.485 L286.283,126 L285.037,126 L285.037,121.485 C285.037,120.915664 284.922668,120.491001 284.694,120.211 C284.465332,119.930999 284.131669,119.791 283.693,119.791 C283.384998,119.791 283.099168,119.873833 282.8355,120.0395 C282.571832,120.205167 282.330334,120.430332 282.111,120.715 L282.111,126 L280.865,126 Z M295.229,118.797 C295.747003,118.797 296.214831,118.883332 296.6325,119.056 C297.050169,119.228668 297.404832,119.473665 297.6965,119.791 C297.988168,120.108335 298.212166,120.492164 298.3685,120.9425 C298.524834,121.392836 298.603,121.895664 298.603,122.451 C298.603,123.011003 298.524834,123.514998 298.3685,123.963 C298.212166,124.411002 297.988168,124.793665 297.6965,125.111 C297.404832,125.428335 297.050169,125.672166 296.6325,125.8425 C296.214831,126.012834 295.747003,126.098 295.229,126.098 C294.710997,126.098 294.243169,126.012834 293.8255,125.8425 C293.407831,125.672166 293.052001,125.428335 292.758,125.111 C292.463999,124.793665 292.237667,124.411002 292.079,123.963 C291.920333,123.514998 291.841,123.011003 291.841,122.451 C291.841,121.895664 291.920333,121.392836 292.079,120.9425 C292.237667,120.492164 292.463999,120.108335 292.758,119.791 C293.052001,119.473665 293.407831,119.228668 293.8255,119.056 C294.243169,118.883332 294.710997,118.797 295.229,118.797 Z M295.229,125.125 C295.929003,125.125 296.451665,124.890502 296.797,124.4215 C297.142335,123.952498 297.315,123.298004 297.315,122.458 C297.315,121.613329 297.142335,120.955336 296.797,120.484 C296.451665,120.012664 295.929003,119.777 295.229,119.777 C294.874332,119.777 294.566335,119.837666 294.305,119.959 C294.043665,120.080334 293.825501,120.255332 293.6505,120.484 C293.475499,120.712668 293.344834,120.993832 293.2585,121.3275 C293.172166,121.661168 293.129,122.037998 293.129,122.458 C293.129,122.878002 293.172166,123.253665 293.2585,123.585 C293.344834,123.916335 293.475499,124.195166 293.6505,124.4215 C293.825501,124.647834 294.043665,124.821666 294.305,124.943 C294.566335,125.064334 294.874332,125.125 295.229,125.125 Z M300.143,126 L300.143,118.909 L300.857,118.909 C300.992334,118.909 301.085666,118.934666 301.137,118.986 C301.188334,119.037334 301.223333,119.125999 301.242,119.252 L301.326,120.358 C301.568668,119.863331 301.868498,119.477168 302.2255,119.1995 C302.582502,118.921832 303.001331,118.783 303.482,118.783 C303.678001,118.783 303.855333,118.805166 304.014,118.8495 C304.172667,118.893834 304.319666,118.955666 304.455,119.035 L304.294,119.966 C304.261333,120.082667 304.189001,120.141 304.077,120.141 C304.011666,120.141 303.911334,120.118834 303.776,120.0745 C303.640666,120.030166 303.451668,120.008 303.209,120.008 C302.774998,120.008 302.412168,120.133999 302.1205,120.386 C301.828832,120.638001 301.585001,121.004331 301.389,121.485 L301.389,126 L300.143,126 Z M308.592,118.797 C309.016669,118.797 309.408665,118.868166 309.768,119.0105 C310.127335,119.152834 310.437665,119.358165 310.699,119.6265 C310.960335,119.894835 311.164499,120.226165 311.3115,120.6205 C311.458501,121.014835 311.532,121.463997 311.532,121.968 C311.532,122.164001 311.511,122.294666 311.469,122.36 C311.427,122.425334 311.347667,122.458 311.231,122.458 L306.513,122.458 C306.522333,122.906002 306.582999,123.295665 306.695,123.627 C306.807001,123.958335 306.960999,124.234832 307.157,124.4565 C307.353001,124.678168 307.586332,124.843833 307.857,124.9535 C308.127668,125.063167 308.430998,125.118 308.767,125.118 C309.079668,125.118 309.349166,125.081834 309.5755,125.0095 C309.801834,124.937166 309.996666,124.859 310.16,124.775 C310.323334,124.691 310.459833,124.612834 310.5695,124.5405 C310.679167,124.468166 310.773666,124.432 310.853,124.432 C310.955667,124.432 311.035,124.471666 311.091,124.551 L311.441,125.006 C311.286999,125.192668 311.102668,125.354833 310.888,125.4925 C310.673332,125.630167 310.443501,125.743333 310.1985,125.832 C309.953499,125.920667 309.700335,125.987166 309.439,126.0315 C309.177665,126.075834 308.918668,126.098 308.662,126.098 C308.171998,126.098 307.720502,126.015167 307.3075,125.8495 C306.894498,125.683833 306.537502,125.441168 306.2365,125.1215 C305.935498,124.801832 305.701001,124.406336 305.533,123.935 C305.364999,123.463664 305.281,122.922336 305.281,122.311 C305.281,121.816331 305.356833,121.354335 305.5085,120.925 C305.660167,120.495665 305.878332,120.123502 306.163,119.8085 C306.447668,119.493498 306.795331,119.246168 307.206,119.0665 C307.616669,118.886832 308.078664,118.797 308.592,118.797 Z M308.62,119.714 C308.017997,119.714 307.544335,119.887832 307.199,120.2355 C306.853665,120.583168 306.639,121.064997 306.555,121.681 L310.412,121.681 C310.412,121.391665 310.372334,121.126835 310.293,120.8865 C310.213666,120.646165 310.097001,120.438501 309.943,120.2635 C309.788999,120.088499 309.601168,119.953167 309.3795,119.8575 C309.157832,119.761833 308.904668,119.714 308.62,119.714 Z M252.508,145.401 L252.508,135.909 L253.25,135.909 C253.427334,135.909 253.539333,135.995332 253.586,136.168 L253.691,137.008 C253.994335,136.639331 254.340831,136.343001 254.7305,136.119 C255.120169,135.894999 255.569331,135.783 256.078,135.783 C256.484002,135.783 256.852665,135.861166 257.184,136.0175 C257.515335,136.173834 257.797665,136.404832 258.031,136.7105 C258.264334,137.016168 258.443999,137.395331 258.57,137.848 C258.696001,138.300669 258.759,138.820997 258.759,139.409 C258.759,139.931669 258.689001,140.418164 258.549,140.8685 C258.408999,141.318836 258.208335,141.708498 257.947,142.0375 C257.685665,142.366502 257.364835,142.625499 256.9845,142.8145 C256.604165,143.003501 256.176002,143.098 255.7,143.098 C255.261331,143.098 254.886835,143.025667 254.5765,142.881 C254.266165,142.736333 253.992001,142.531001 253.754,142.265 L253.754,145.401 L252.508,145.401 Z M255.665,136.791 C255.258998,136.791 254.903168,136.884332 254.5975,137.071 C254.291832,137.257668 254.010668,137.521332 253.754,137.862 L253.754,141.292 C253.982668,141.600002 254.233499,141.816999 254.5065,141.943 C254.779501,142.069001 255.083998,142.132 255.42,142.132 C256.078003,142.132 256.584332,141.896336 256.939,141.425 C257.293668,140.953664 257.471,140.281671 257.471,139.409 C257.471,138.946998 257.430167,138.550335 257.3485,138.219 C257.266833,137.887665 257.149001,137.615834 256.995,137.4035 C256.840999,137.191166 256.652001,137.036 256.428,136.938 C256.203999,136.84 255.949668,136.791 255.665,136.791 Z M265.444,143 L264.891,143 C264.769666,143 264.671667,142.981334 264.597,142.944 C264.522333,142.906666 264.473333,142.827334 264.45,142.706 L264.31,142.048 C264.123332,142.216001 263.941334,142.366499 263.764,142.4995 C263.586666,142.632501 263.400001,142.7445 263.204,142.8355 C263.007999,142.9265 262.799168,142.995333 262.5775,143.042 C262.355832,143.088667 262.109668,143.112 261.839,143.112 C261.563665,143.112 261.305835,143.0735 261.0655,142.9965 C260.825165,142.9195 260.616334,142.804001 260.439,142.65 C260.261666,142.495999 260.120501,142.301168 260.0155,142.0655 C259.910499,141.829832 259.858,141.551002 259.858,141.229 C259.858,140.948999 259.934999,140.679501 260.089,140.4205 C260.243001,140.161499 260.491498,139.931668 260.8345,139.731 C261.177502,139.530332 261.626664,139.365834 262.182,139.2375 C262.737336,139.109166 263.416329,139.035667 264.219,139.017 L264.219,138.464 C264.219,137.913331 264.101168,137.496835 263.8655,137.2145 C263.629832,136.932165 263.281002,136.791 262.819,136.791 C262.515665,136.791 262.260168,136.8295 262.0525,136.9065 C261.844832,136.9835 261.665167,137.069833 261.5135,137.1655 C261.361833,137.261167 261.231167,137.3475 261.1215,137.4245 C261.011833,137.5015 260.903334,137.54 260.796,137.54 C260.712,137.54 260.6385,137.517834 260.5755,137.4735 C260.5125,137.429166 260.462334,137.374334 260.425,137.309 L260.201,136.91 C260.593002,136.531998 261.015331,136.249668 261.468,136.063 C261.920669,135.876332 262.422331,135.783 262.973,135.783 C263.369669,135.783 263.721998,135.848333 264.03,135.979 C264.338002,136.109667 264.596999,136.291665 264.807,136.525 C265.017001,136.758334 265.175666,137.040665 265.283,137.372 C265.390334,137.703335 265.444,138.067331 265.444,138.464 L265.444,143 Z M262.21,142.237 C262.429334,142.237 262.629999,142.214834 262.812,142.1705 C262.994001,142.126166 263.165499,142.063167 263.3265,141.9815 C263.487501,141.899833 263.641499,141.800667 263.7885,141.684 C263.935501,141.567333 264.078999,141.434334 264.219,141.285 L264.219,139.808 C263.644997,139.826667 263.157335,139.872166 262.756,139.9445 C262.354665,140.016834 262.028001,140.111333 261.776,140.228 C261.523999,140.344667 261.340834,140.482333 261.2265,140.641 C261.112166,140.799667 261.055,140.976999 261.055,141.173 C261.055,141.359668 261.085333,141.520666 261.146,141.656 C261.206667,141.791334 261.288333,141.902166 261.391,141.9885 C261.493667,142.074834 261.614999,142.137833 261.755,142.1775 C261.895001,142.217167 262.046666,142.237 262.21,142.237 Z M268.993,139.367 L266.606,135.909 L267.803,135.909 C267.905667,135.909 267.980333,135.925333 268.027,135.958 C268.073667,135.990667 268.115666,136.037333 268.153,136.098 L269.889,138.758 C269.931,138.627333 269.991666,138.496667 270.071,138.366 L271.597,136.126 C271.643667,136.060666 271.690333,136.008167 271.737,135.9685 C271.783667,135.928833 271.842,135.909 271.912,135.909 L273.06,135.909 L270.673,139.297 L273.158,143 L271.961,143 C271.858333,143 271.777834,142.973167 271.7195,142.9195 C271.661166,142.865833 271.613334,142.806334 271.576,142.741 L269.791,139.962 C269.758333,140.097334 269.709334,140.218666 269.644,140.326 L267.992,142.741 C267.945333,142.806334 267.895167,142.865833 267.8415,142.9195 C267.787833,142.973167 267.714334,143 267.621,143 L266.508,143 L268.993,139.367 Z M277.092,143 L277.092,135.909 L277.834,135.909 C278.011334,135.909 278.123333,135.995332 278.17,136.168 L278.268,136.938 C278.576002,136.597332 278.920165,136.322001 279.3005,136.112 C279.680835,135.901999 280.120664,135.797 280.62,135.797 C281.007335,135.797 281.349165,135.861166 281.6455,135.9895 C281.941835,136.117834 282.189166,136.299832 282.3875,136.5355 C282.585834,136.771168 282.736333,137.054665 282.839,137.386 C282.941667,137.717335 282.993,138.083665 282.993,138.485 L282.993,143 L281.747,143 L281.747,138.485 C281.747,137.948331 281.624501,137.531835 281.3795,137.2355 C281.134499,136.939165 280.760003,136.791 280.256,136.791 C279.887331,136.791 279.543168,136.879666 279.2235,137.057 C278.903832,137.234334 278.608668,137.474665 278.338,137.778 L278.338,143 L277.092,143 Z M287.683,135.797 C288.107669,135.797 288.499665,135.868166 288.859,136.0105 C289.218335,136.152834 289.528665,136.358165 289.79,136.6265 C290.051335,136.894835 290.255499,137.226165 290.4025,137.6205 C290.549501,138.014835 290.623,138.463997 290.623,138.968 C290.623,139.164001 290.602,139.294666 290.56,139.36 C290.518,139.425334 290.438667,139.458 290.322,139.458 L285.604,139.458 C285.613333,139.906002 285.673999,140.295665 285.786,140.627 C285.898001,140.958335 286.051999,141.234832 286.248,141.4565 C286.444001,141.678168 286.677332,141.843833 286.948,141.9535 C287.218668,142.063167 287.521998,142.118 287.858,142.118 C288.170668,142.118 288.440166,142.081834 288.6665,142.0095 C288.892834,141.937166 289.087666,141.859 289.251,141.775 C289.414334,141.691 289.550833,141.612834 289.6605,141.5405 C289.770167,141.468166 289.864666,141.432 289.944,141.432 C290.046667,141.432 290.126,141.471666 290.182,141.551 L290.532,142.006 C290.377999,142.192668 290.193668,142.354833 289.979,142.4925 C289.764332,142.630167 289.534501,142.743333 289.2895,142.832 C289.044499,142.920667 288.791335,142.987166 288.53,143.0315 C288.268665,143.075834 288.009668,143.098 287.753,143.098 C287.262998,143.098 286.811502,143.015167 286.3985,142.8495 C285.985498,142.683833 285.628502,142.441168 285.3275,142.1215 C285.026498,141.801832 284.792001,141.406336 284.624,140.935 C284.455999,140.463664 284.372,139.922336 284.372,139.311 C284.372,138.816331 284.447833,138.354335 284.5995,137.925 C284.751167,137.495665 284.969332,137.123502 285.254,136.8085 C285.538668,136.493498 285.886331,136.246168 286.297,136.0665 C286.707669,135.886832 287.169664,135.797 287.683,135.797 Z M287.711,136.714 C287.108997,136.714 286.635335,136.887832 286.29,137.2355 C285.944665,137.583168 285.73,138.064997 285.646,138.681 L289.503,138.681 C289.503,138.391665 289.463334,138.126835 289.384,137.8865 C289.304666,137.646165 289.188001,137.438501 289.034,137.2635 C288.879999,137.088499 288.692168,136.953167 288.4705,136.8575 C288.248832,136.761833 287.995668,136.714 287.711,136.714 Z M295.019,135.797 C295.443669,135.797 295.835665,135.868166 296.195,136.0105 C296.554335,136.152834 296.864665,136.358165 297.126,136.6265 C297.387335,136.894835 297.591499,137.226165 297.7385,137.6205 C297.885501,138.014835 297.959,138.463997 297.959,138.968 C297.959,139.164001 297.938,139.294666 297.896,139.36 C297.854,139.425334 297.774667,139.458 297.658,139.458 L292.94,139.458 C292.949333,139.906002 293.009999,140.295665 293.122,140.627 C293.234001,140.958335 293.387999,141.234832 293.584,141.4565 C293.780001,141.678168 294.013332,141.843833 294.284,141.9535 C294.554668,142.063167 294.857998,142.118 295.194,142.118 C295.506668,142.118 295.776166,142.081834 296.0025,142.0095 C296.228834,141.937166 296.423666,141.859 296.587,141.775 C296.750334,141.691 296.886833,141.612834 296.9965,141.5405 C297.106167,141.468166 297.200666,141.432 297.28,141.432 C297.382667,141.432 297.462,141.471666 297.518,141.551 L297.868,142.006 C297.713999,142.192668 297.529668,142.354833 297.315,142.4925 C297.100332,142.630167 296.870501,142.743333 296.6255,142.832 C296.380499,142.920667 296.127335,142.987166 295.866,143.0315 C295.604665,143.075834 295.345668,143.098 295.089,143.098 C294.598998,143.098 294.147502,143.015167 293.7345,142.8495 C293.321498,142.683833 292.964502,142.441168 292.6635,142.1215 C292.362498,141.801832 292.128001,141.406336 291.96,140.935 C291.791999,140.463664 291.708,139.922336 291.708,139.311 C291.708,138.816331 291.783833,138.354335 291.9355,137.925 C292.087167,137.495665 292.305332,137.123502 292.59,136.8085 C292.874668,136.493498 293.222331,136.246168 293.633,136.0665 C294.043669,135.886832 294.505664,135.797 295.019,135.797 Z M295.047,136.714 C294.444997,136.714 293.971335,136.887832 293.626,137.2355 C293.280665,137.583168 293.066,138.064997 292.982,138.681 L296.839,138.681 C296.839,138.391665 296.799334,138.126835 296.72,137.8865 C296.640666,137.646165 296.524001,137.438501 296.37,137.2635 C296.215999,137.088499 296.028168,136.953167 295.8065,136.8575 C295.584832,136.761833 295.331668,136.714 295.047,136.714 Z M304.539,143 C304.361666,143 304.249667,142.913668 304.203,142.741 L304.091,141.88 C303.787665,142.248669 303.441169,142.543832 303.0515,142.7655 C302.661831,142.987168 302.215003,143.098 301.711,143.098 C301.304998,143.098 300.936335,143.019834 300.605,142.8635 C300.273665,142.707166 299.991334,142.477335 299.758,142.174 C299.524665,141.870665 299.345001,141.492669 299.219,141.04 C299.092999,140.587331 299.03,140.067003 299.03,139.479 C299.03,138.956331 299.099999,138.469836 299.24,138.0195 C299.380001,137.569164 299.581832,137.178335 299.8455,136.847 C300.109168,136.515665 300.429998,136.255501 300.808,136.0665 C301.186002,135.877499 301.615331,135.783 302.096,135.783 C302.530002,135.783 302.900998,135.856499 303.209,136.0035 C303.517002,136.150501 303.792332,136.356999 304.035,136.623 L304.035,132.689 L305.281,132.689 L305.281,143 L304.539,143 Z M302.124,142.09 C302.530002,142.09 302.885832,141.996668 303.1915,141.81 C303.497168,141.623332 303.778332,141.359668 304.035,141.019 L304.035,137.589 C303.806332,137.280998 303.555501,137.065167 303.2825,136.9415 C303.009499,136.817833 302.707335,136.756 302.376,136.756 C301.71333,136.756 301.204668,136.991664 300.85,137.463 C300.495332,137.934336 300.318,138.606329 300.318,139.479 C300.318,139.941002 300.357666,140.336498 300.437,140.6655 C300.516334,140.994502 300.632999,141.265166 300.787,141.4775 C300.941001,141.689834 301.129999,141.845 301.354,141.943 C301.578001,142.041 301.834665,142.09 302.124,142.09 Z M310.181,135.797 C310.605669,135.797 310.997665,135.868166 311.357,136.0105 C311.716335,136.152834 312.026665,136.358165 312.288,136.6265 C312.549335,136.894835 312.753499,137.226165 312.9005,137.6205 C313.047501,138.014835 313.121,138.463997 313.121,138.968 C313.121,139.164001 313.1,139.294666 313.058,139.36 C313.016,139.425334 312.936667,139.458 312.82,139.458 L308.102,139.458 C308.111333,139.906002 308.171999,140.295665 308.284,140.627 C308.396001,140.958335 308.549999,141.234832 308.746,141.4565 C308.942001,141.678168 309.175332,141.843833 309.446,141.9535 C309.716668,142.063167 310.019998,142.118 310.356,142.118 C310.668668,142.118 310.938166,142.081834 311.1645,142.0095 C311.390834,141.937166 311.585666,141.859 311.749,141.775 C311.912334,141.691 312.048833,141.612834 312.1585,141.5405 C312.268167,141.468166 312.362666,141.432 312.442,141.432 C312.544667,141.432 312.624,141.471666 312.68,141.551 L313.03,142.006 C312.875999,142.192668 312.691668,142.354833 312.477,142.4925 C312.262332,142.630167 312.032501,142.743333 311.7875,142.832 C311.542499,142.920667 311.289335,142.987166 311.028,143.0315 C310.766665,143.075834 310.507668,143.098 310.251,143.098 C309.760998,143.098 309.309502,143.015167 308.8965,142.8495 C308.483498,142.683833 308.126502,142.441168 307.8255,142.1215 C307.524498,141.801832 307.290001,141.406336 307.122,140.935 C306.953999,140.463664 306.87,139.922336 306.87,139.311 C306.87,138.816331 306.945833,138.354335 307.0975,137.925 C307.249167,137.495665 307.467332,137.123502 307.752,136.8085 C308.036668,136.493498 308.384331,136.246168 308.795,136.0665 C309.205669,135.886832 309.667664,135.797 310.181,135.797 Z M310.209,136.714 C309.606997,136.714 309.133335,136.887832 308.788,137.2355 C308.442665,137.583168 308.228,138.064997 308.144,138.681 L312.001,138.681 C312.001,138.391665 311.961334,138.126835 311.882,137.8865 C311.802666,137.646165 311.686001,137.438501 311.532,137.2635 C311.377999,137.088499 311.190168,136.953167 310.9685,136.8575 C310.746832,136.761833 310.493668,136.714 310.209,136.714 Z M319.701,143 C319.523666,143 319.411667,142.913668 319.365,142.741 L319.253,141.88 C318.949665,142.248669 318.603169,142.543832 318.2135,142.7655 C317.823831,142.987168 317.377003,143.098 316.873,143.098 C316.466998,143.098 316.098335,143.019834 315.767,142.8635 C315.435665,142.707166 315.153334,142.477335 314.92,142.174 C314.686665,141.870665 314.507001,141.492669 314.381,141.04 C314.254999,140.587331 314.192,140.067003 314.192,139.479 C314.192,138.956331 314.261999,138.469836 314.402,138.0195 C314.542001,137.569164 314.743832,137.178335 315.0075,136.847 C315.271168,136.515665 315.591998,136.255501 315.97,136.0665 C316.348002,135.877499 316.777331,135.783 317.258,135.783 C317.692002,135.783 318.062998,135.856499 318.371,136.0035 C318.679002,136.150501 318.954332,136.356999 319.197,136.623 L319.197,132.689 L320.443,132.689 L320.443,143 L319.701,143 Z M317.286,142.09 C317.692002,142.09 318.047832,141.996668 318.3535,141.81 C318.659168,141.623332 318.940332,141.359668 319.197,141.019 L319.197,137.589 C318.968332,137.280998 318.717501,137.065167 318.4445,136.9415 C318.171499,136.817833 317.869335,136.756 317.538,136.756 C316.87533,136.756 316.366668,136.991664 316.012,137.463 C315.657332,137.934336 315.48,138.606329 315.48,139.479 C315.48,139.941002 315.519666,140.336498 315.599,140.6655 C315.678334,140.994502 315.794999,141.265166 315.949,141.4775 C316.103001,141.689834 316.291999,141.845 316.516,141.943 C316.740001,142.041 316.996665,142.09 317.286,142.09 Z" id="21-more-pax-needed" fill="#888888"></path>
                <path d="M48.488,88.857 C48.9126688,88.857 49.3046649,88.9176661 49.664,89.039 C50.0233351,89.1603339 50.3324987,89.3329989 50.5915,89.557 C50.8505013,89.7810011 51.0523326,90.0516651 51.197,90.369 C51.3416674,90.6863349 51.414,91.0386647 51.414,91.426 C51.414,91.7433349 51.3731671,92.0268321 51.2915,92.2765 C51.2098329,92.5261679 51.0931674,92.7454991 50.9415,92.9345 C50.7898326,93.1235009 50.6066677,93.2833327 50.392,93.414 C50.1773323,93.5446673 49.9370013,93.6496663 49.671,93.729 C50.3243366,93.9016675 50.8154984,94.190998 51.1445,94.597 C51.4735016,95.003002 51.638,95.5116636 51.638,96.123 C51.638,96.5850023 51.5505009,97.0003315 51.3755,97.369 C51.2004991,97.7376685 50.9613348,98.0514987 50.658,98.3105 C50.3546651,98.5695013 50.0011687,98.7678326 49.5975,98.9055 C49.1938313,99.0431674 48.7610023,99.112 48.299,99.112 C47.7669973,99.112 47.3120019,99.0455007 46.934,98.9125 C46.5559981,98.7794993 46.2363346,98.5963345 45.975,98.363 C45.7136654,98.1296655 45.4990008,97.8531683 45.331,97.5335 C45.1629992,97.2138317 45.0206672,96.8673352 44.904,96.494 L45.436,96.27 C45.5340005,96.2279998 45.6319995,96.207 45.73,96.207 C45.8233338,96.207 45.9061663,96.2268331 45.9785,96.2665 C46.0508337,96.3061669 46.1056665,96.3679996 46.143,96.452 C46.1523334,96.4706668 46.1616666,96.4904999 46.171,96.5115 C46.1803334,96.5325001 46.1896666,96.5546665 46.199,96.578 C46.2643337,96.713334 46.3436662,96.8661658 46.437,97.0365 C46.5303338,97.2068342 46.6563325,97.3666659 46.815,97.516 C46.9736675,97.6653341 47.1708322,97.7913328 47.4065,97.894 C47.6421678,97.9966672 47.9349982,98.048 48.285,98.048 C48.6350017,98.048 48.941832,97.9908339 49.2055,97.8765 C49.469168,97.7621661 49.6884991,97.6140009 49.8635,97.432 C50.0385009,97.2499991 50.1703329,97.0470011 50.259,96.823 C50.3476671,96.5989989 50.392,96.3773344 50.392,96.158 C50.392,95.887332 50.3558337,95.6400011 50.2835,95.416 C50.2111663,95.1919989 50.0805009,94.9983341 49.8915,94.835 C49.7024991,94.6716658 49.4411683,94.5433338 49.1075,94.45 C48.7738317,94.3566662 48.3456693,94.31 47.823,94.31 L47.823,93.407 C48.2476688,93.4023333 48.6104985,93.3556671 48.9115,93.267 C49.2125015,93.1783329 49.4586657,93.0570008 49.65,92.903 C49.8413343,92.7489992 49.9801662,92.5646677 50.0665,92.35 C50.1528338,92.1353323 50.196,91.8973346 50.196,91.636 C50.196,91.3466652 50.1505005,91.0946677 50.0595,90.88 C49.9684995,90.6653323 49.8436675,90.4880007 49.685,90.348 C49.5263325,90.2079993 49.3385011,90.1030003 49.1215,90.033 C48.9044989,89.9629996 48.6700013,89.928 48.418,89.928 C48.1659987,89.928 47.9326677,89.965333 47.718,90.04 C47.5033323,90.114667 47.3131675,90.2184993 47.1475,90.3515 C46.9818325,90.4845007 46.8430006,90.6431657 46.731,90.8275 C46.6189994,91.0118343 46.5350003,91.2113323 46.479,91.426 C46.4416665,91.561334 46.385667,91.659333 46.311,91.72 C46.236333,91.780667 46.1406672,91.811 46.024,91.811 C46.0006665,91.811 45.9761668,91.8098333 45.9505,91.8075 C45.9248332,91.8051667 45.8956668,91.8016667 45.863,91.797 L45.212,91.685 C45.2773337,91.2276644 45.4033324,90.8228351 45.59,90.4705 C45.7766676,90.1181649 46.0134986,89.8230012 46.3005,89.585 C46.5875014,89.3469988 46.9164981,89.1661673 47.2875,89.0425 C47.6585019,88.9188327 48.0586645,88.857 48.488,88.857 Z M55.992,101.401 L55.992,91.909 L56.734,91.909 C56.9113342,91.909 57.0233331,91.9953325 57.07,92.168 L57.175,93.008 C57.4783348,92.6393315 57.8248314,92.3430011 58.2145,92.119 C58.6041686,91.8949989 59.0533308,91.783 59.562,91.783 C59.968002,91.783 60.336665,91.8611659 60.668,92.0175 C60.999335,92.1738341 61.2816655,92.4048318 61.515,92.7105 C61.7483345,93.0161682 61.9279994,93.3953311 62.054,93.848 C62.1800006,94.3006689 62.243,94.8209971 62.243,95.409 C62.243,95.9316693 62.1730007,96.4181644 62.033,96.8685 C61.8929993,97.3188356 61.6923346,97.7084984 61.431,98.0375 C61.1696654,98.3665016 60.8488352,98.6254991 60.4685,98.8145 C60.0881648,99.0035009 59.6600024,99.098 59.184,99.098 C58.7453311,99.098 58.3708349,99.0256674 58.0605,98.881 C57.7501651,98.7363326 57.4760012,98.5310013 57.238,98.265 L57.238,101.401 L55.992,101.401 Z M59.149,92.791 C58.742998,92.791 58.3871682,92.8843324 58.0815,93.071 C57.7758318,93.2576676 57.4946679,93.5213316 57.238,93.862 L57.238,97.292 C57.4666678,97.6000015 57.7174986,97.8169994 57.9905,97.943 C58.2635014,98.0690006 58.5679983,98.132 58.904,98.132 C59.5620033,98.132 60.0683316,97.8963357 60.423,97.425 C60.7776684,96.9536643 60.955,96.281671 60.955,95.409 C60.955,94.9469977 60.9141671,94.550335 60.8325,94.219 C60.7508329,93.887665 60.6330008,93.6158344 60.479,93.4035 C60.3249992,93.1911656 60.1360011,93.0360005 59.912,92.938 C59.6879989,92.8399995 59.4336681,92.791 59.149,92.791 Z M68.928,99 L68.375,99 C68.2536661,99 68.155667,98.9813335 68.081,98.944 C68.006333,98.9066665 67.9573334,98.8273339 67.934,98.706 L67.794,98.048 C67.6073324,98.2160008 67.4253342,98.3664993 67.248,98.4995 C67.0706658,98.6325007 66.884001,98.7444995 66.688,98.8355 C66.491999,98.9265005 66.2831678,98.9953331 66.0615,99.042 C65.8398322,99.0886669 65.593668,99.112 65.323,99.112 C65.0476653,99.112 64.7898345,99.0735004 64.5495,98.9965 C64.3091655,98.9194996 64.1003342,98.8040008 63.923,98.65 C63.7456658,98.4959992 63.6045005,98.3011678 63.4995,98.0655 C63.3944995,97.8298322 63.342,97.5510016 63.342,97.229 C63.342,96.9489986 63.4189992,96.6795013 63.573,96.4205 C63.7270008,96.1614987 63.9754983,95.9316677 64.3185,95.731 C64.6615017,95.5303323 65.1106639,95.365834 65.666,95.2375 C66.2213361,95.109166 66.9003293,95.0356668 67.703,95.017 L67.703,94.464 C67.703,93.9133306 67.5851678,93.4968347 67.3495,93.2145 C67.1138322,92.9321653 66.7650023,92.791 66.303,92.791 C65.9996651,92.791 65.7441677,92.8294996 65.5365,92.9065 C65.3288323,92.9835004 65.1491674,93.0698329 64.9975,93.1655 C64.8458326,93.2611671 64.7151672,93.3474996 64.6055,93.4245 C64.4958328,93.5015004 64.3873339,93.54 64.28,93.54 C64.1959996,93.54 64.1225003,93.5178336 64.0595,93.4735 C63.9964997,93.4291664 63.9463335,93.3743337 63.909,93.309 L63.685,92.91 C64.077002,92.5319981 64.4993311,92.2496676 64.952,92.063 C65.4046689,91.8763324 65.9063306,91.783 66.457,91.783 C66.8536686,91.783 67.2059985,91.8483327 67.514,91.979 C67.8220015,92.1096673 68.0809989,92.2916655 68.291,92.525 C68.501001,92.7583345 68.6596661,93.040665 68.767,93.372 C68.8743339,93.703335 68.928,94.0673313 68.928,94.464 L68.928,99 Z M65.694,98.237 C65.9133344,98.237 66.1139991,98.2148336 66.296,98.1705 C66.4780009,98.1261664 66.6494992,98.0631671 66.8105,97.9815 C66.9715008,97.8998329 67.1254993,97.8006672 67.2725,97.684 C67.4195007,97.5673327 67.5629993,97.4343341 67.703,97.285 L67.703,95.808 C67.1289971,95.8266668 66.6413353,95.8721663 66.24,95.9445 C65.8386647,96.0168337 65.5120013,96.1113327 65.26,96.228 C65.0079987,96.3446672 64.8248339,96.4823325 64.7105,96.641 C64.5961661,96.7996675 64.539,96.976999 64.539,97.173 C64.539,97.3596676 64.569333,97.520666 64.63,97.656 C64.690667,97.791334 64.7723328,97.9021662 64.875,97.9885 C64.9776672,98.0748338 65.0989993,98.1378331 65.239,98.1775 C65.3790007,98.2171669 65.5306658,98.237 65.694,98.237 Z M72.477,95.367 L70.09,91.909 L71.287,91.909 C71.3896672,91.909 71.4643331,91.9253332 71.511,91.958 C71.5576669,91.9906668 71.5996665,92.037333 71.637,92.098 L73.373,94.758 C73.4150002,94.6273327 73.4756663,94.4966673 73.555,94.366 L75.081,92.126 C75.1276669,92.0606663 75.1743331,92.0081669 75.221,91.9685 C75.2676669,91.9288331 75.3259996,91.909 75.396,91.909 L76.544,91.909 L74.157,95.297 L76.642,99 L75.445,99 C75.3423328,99 75.2618336,98.9731669 75.2035,98.9195 C75.1451664,98.8658331 75.0973335,98.8063337 75.06,98.741 L73.275,95.962 C73.2423332,96.097334 73.1933337,96.2186661 73.128,96.326 L71.476,98.741 C71.4293331,98.8063337 71.3791669,98.8658331 71.3255,98.9195 C71.2718331,98.9731669 71.1983338,99 71.105,99 L69.992,99 L72.477,95.367 Z M24.044,118.401 L24.044,108.909 L24.786,108.909 C24.9633342,108.909 25.0753331,108.995332 25.122,109.168 L25.227,110.008 C25.5303348,109.639331 25.8768314,109.343001 26.2665,109.119 C26.6561686,108.894999 27.1053308,108.783 27.614,108.783 C28.020002,108.783 28.388665,108.861166 28.72,109.0175 C29.051335,109.173834 29.3336655,109.404832 29.567,109.7105 C29.8003345,110.016168 29.9799994,110.395331 30.106,110.848 C30.2320006,111.300669 30.295,111.820997 30.295,112.409 C30.295,112.931669 30.2250007,113.418164 30.085,113.8685 C29.9449993,114.318836 29.7443346,114.708498 29.483,115.0375 C29.2216654,115.366502 28.9008352,115.625499 28.5205,115.8145 C28.1401648,116.003501 27.7120024,116.098 27.236,116.098 C26.7973311,116.098 26.4228349,116.025667 26.1125,115.881 C25.8021651,115.736333 25.5280012,115.531001 25.29,115.265 L25.29,118.401 L24.044,118.401 Z M27.201,109.791 C26.794998,109.791 26.4391682,109.884332 26.1335,110.071 C25.8278318,110.257668 25.5466679,110.521332 25.29,110.862 L25.29,114.292 C25.5186678,114.600002 25.7694986,114.816999 26.0425,114.943 C26.3155014,115.069001 26.6199983,115.132 26.956,115.132 C27.6140033,115.132 28.1203316,114.896336 28.475,114.425 C28.8296684,113.953664 29.007,113.281671 29.007,112.409 C29.007,111.946998 28.9661671,111.550335 28.8845,111.219 C28.8028329,110.887665 28.6850008,110.615834 28.531,110.4035 C28.3769992,110.191166 28.1880011,110.036 27.964,109.938 C27.7399989,109.84 27.4856681,109.791 27.201,109.791 Z M31.772,116 L31.772,108.909 L32.486,108.909 C32.621334,108.909 32.7146664,108.934666 32.766,108.986 C32.8173336,109.037334 32.8523332,109.125999 32.871,109.252 L32.955,110.358 C33.1976679,109.863331 33.4974982,109.477168 33.8545,109.1995 C34.2115018,108.921832 34.6303309,108.783 35.111,108.783 C35.307001,108.783 35.4843325,108.805166 35.643,108.8495 C35.8016675,108.893834 35.948666,108.955666 36.084,109.035 L35.923,109.966 C35.8903332,110.082667 35.8180006,110.141 35.706,110.141 C35.6406663,110.141 35.540334,110.118834 35.405,110.0745 C35.269666,110.030166 35.0806679,110.008 34.838,110.008 C34.4039978,110.008 34.0411681,110.133999 33.7495,110.386 C33.4578319,110.638001 33.214001,111.004331 33.018,111.485 L33.018,116 L31.772,116 Z M40.221,108.797 C40.6456688,108.797 41.0376649,108.868166 41.397,109.0105 C41.7563351,109.152834 42.0666654,109.358165 42.328,109.6265 C42.5893346,109.894835 42.7934993,110.226165 42.9405,110.6205 C43.0875007,111.014835 43.161,111.463997 43.161,111.968 C43.161,112.164001 43.1400002,112.294666 43.098,112.36 C43.0559998,112.425334 42.9766672,112.458 42.86,112.458 L38.142,112.458 C38.1513334,112.906002 38.2119994,113.295665 38.324,113.627 C38.4360006,113.958335 38.589999,114.234832 38.786,114.4565 C38.982001,114.678168 39.215332,114.843833 39.486,114.9535 C39.756668,115.063167 40.0599983,115.118 40.396,115.118 C40.7086682,115.118 40.9781655,115.081834 41.2045,115.0095 C41.4308345,114.937166 41.6256658,114.859 41.789,114.775 C41.9523341,114.691 42.0888328,114.612834 42.1985,114.5405 C42.3081672,114.468166 42.4026663,114.432 42.482,114.432 C42.5846672,114.432 42.6639997,114.471666 42.72,114.551 L43.07,115.006 C42.9159992,115.192668 42.7316677,115.354833 42.517,115.4925 C42.3023323,115.630167 42.0725012,115.743333 41.8275,115.832 C41.5824988,115.920667 41.3293346,115.987166 41.068,116.0315 C40.8066654,116.075834 40.5476679,116.098 40.291,116.098 C39.8009975,116.098 39.3495021,116.015167 38.9365,115.8495 C38.5234979,115.683833 38.1665015,115.441168 37.8655,115.1215 C37.5644985,114.801832 37.3300008,114.406336 37.162,113.935 C36.9939992,113.463664 36.91,112.922336 36.91,112.311 C36.91,111.816331 36.9858326,111.354335 37.1375,110.925 C37.2891674,110.495665 37.5073319,110.123502 37.792,109.8085 C38.0766681,109.493498 38.4243313,109.246168 38.835,109.0665 C39.2456687,108.886832 39.7076641,108.797 40.221,108.797 Z M40.249,109.714 C39.646997,109.714 39.1733351,109.887832 38.828,110.2355 C38.4826649,110.583168 38.2680004,111.064997 38.184,111.681 L42.041,111.681 C42.041,111.391665 42.0013337,111.126835 41.922,110.8865 C41.8426663,110.646165 41.7260008,110.438501 41.572,110.2635 C41.4179992,110.088499 41.2301678,109.953167 41.0085,109.8575 C40.7868322,109.761833 40.5336681,109.714 40.249,109.714 Z M44.428,111.275 L47.886,111.275 L47.886,112.332 L44.428,112.332 L44.428,111.275 Z M52.478,108.797 C52.9960026,108.797 53.4638312,108.883332 53.8815,109.056 C54.2991688,109.228668 54.6538319,109.473665 54.9455,109.791 C55.2371681,110.108335 55.4611659,110.492164 55.6175,110.9425 C55.7738341,111.392836 55.852,111.895664 55.852,112.451 C55.852,113.011003 55.7738341,113.514998 55.6175,113.963 C55.4611659,114.411002 55.2371681,114.793665 54.9455,115.111 C54.6538319,115.428335 54.2991688,115.672166 53.8815,115.8425 C53.4638312,116.012834 52.9960026,116.098 52.478,116.098 C51.9599974,116.098 51.4921688,116.012834 51.0745,115.8425 C50.6568312,115.672166 50.3010015,115.428335 50.007,115.111 C49.7129985,114.793665 49.4866675,114.411002 49.328,113.963 C49.1693325,113.514998 49.09,113.011003 49.09,112.451 C49.09,111.895664 49.1693325,111.392836 49.328,110.9425 C49.4866675,110.492164 49.7129985,110.108335 50.007,109.791 C50.3010015,109.473665 50.6568312,109.228668 51.0745,109.056 C51.4921688,108.883332 51.9599974,108.797 52.478,108.797 Z M52.478,115.125 C53.1780035,115.125 53.7006649,114.890502 54.046,114.4215 C54.3913351,113.952498 54.564,113.298004 54.564,112.458 C54.564,111.613329 54.3913351,110.955336 54.046,110.484 C53.7006649,110.012664 53.1780035,109.777 52.478,109.777 C52.1233316,109.777 51.8153346,109.837666 51.554,109.959 C51.2926654,110.080334 51.0745009,110.255332 50.8995,110.484 C50.7244991,110.712668 50.5938338,110.993832 50.5075,111.3275 C50.4211662,111.661168 50.378,112.037998 50.378,112.458 C50.378,112.878002 50.4211662,113.253665 50.5075,113.585 C50.5938338,113.916335 50.7244991,114.195166 50.8995,114.4215 C51.0745009,114.647834 51.2926654,114.821666 51.554,114.943 C51.8153346,115.064334 52.1233316,115.125 52.478,115.125 Z M57.392,116 L57.392,108.909 L58.106,108.909 C58.241334,108.909 58.3346664,108.934666 58.386,108.986 C58.4373336,109.037334 58.4723332,109.125999 58.491,109.252 L58.575,110.358 C58.8176679,109.863331 59.1174982,109.477168 59.4745,109.1995 C59.8315018,108.921832 60.2503309,108.783 60.731,108.783 C60.927001,108.783 61.1043325,108.805166 61.263,108.8495 C61.4216675,108.893834 61.568666,108.955666 61.704,109.035 L61.543,109.966 C61.5103332,110.082667 61.4380006,110.141 61.326,110.141 C61.2606663,110.141 61.160334,110.118834 61.025,110.0745 C60.889666,110.030166 60.7006679,110.008 60.458,110.008 C60.0239978,110.008 59.6611681,110.133999 59.3695,110.386 C59.0778319,110.638001 58.834001,111.004331 58.638,111.485 L58.638,116 L57.392,116 Z M68.025,116 C67.8476658,116 67.7356669,115.913668 67.689,115.741 L67.577,114.88 C67.2736651,115.248669 66.9271686,115.543832 66.5375,115.7655 C66.1478314,115.987168 65.7010025,116.098 65.197,116.098 C64.790998,116.098 64.422335,116.019834 64.091,115.8635 C63.759665,115.707166 63.4773345,115.477335 63.244,115.174 C63.0106655,114.870665 62.8310006,114.492669 62.705,114.04 C62.5789994,113.587331 62.516,113.067003 62.516,112.479 C62.516,111.956331 62.5859993,111.469836 62.726,111.0195 C62.8660007,110.569164 63.067832,110.178335 63.3315,109.847 C63.595168,109.515665 63.9159981,109.255501 64.294,109.0665 C64.6720019,108.877499 65.1013309,108.783 65.582,108.783 C66.0160022,108.783 66.3869985,108.856499 66.695,109.0035 C67.0030015,109.150501 67.2783321,109.356999 67.521,109.623 L67.521,105.689 L68.767,105.689 L68.767,116 L68.025,116 Z M65.61,115.09 C66.016002,115.09 66.3718318,114.996668 66.6775,114.81 C66.9831682,114.623332 67.264332,114.359668 67.521,114.019 L67.521,110.589 C67.2923322,110.280998 67.0415014,110.065167 66.7685,109.9415 C66.4954986,109.817833 66.193335,109.756 65.862,109.756 C65.19933,109.756 64.6906684,109.991664 64.336,110.463 C63.9813316,110.934336 63.804,111.606329 63.804,112.479 C63.804,112.941002 63.8436663,113.336498 63.923,113.6655 C64.0023337,113.994502 64.1189992,114.265166 64.273,114.4775 C64.4270008,114.689834 64.6159989,114.845 64.84,114.943 C65.0640011,115.041 65.3206652,115.09 65.61,115.09 Z M73.667,108.797 C74.0916688,108.797 74.4836649,108.868166 74.843,109.0105 C75.2023351,109.152834 75.5126654,109.358165 75.774,109.6265 C76.0353346,109.894835 76.2394993,110.226165 76.3865,110.6205 C76.5335007,111.014835 76.607,111.463997 76.607,111.968 C76.607,112.164001 76.5860002,112.294666 76.544,112.36 C76.5019998,112.425334 76.4226672,112.458 76.306,112.458 L71.588,112.458 C71.5973334,112.906002 71.6579994,113.295665 71.77,113.627 C71.8820006,113.958335 72.035999,114.234832 72.232,114.4565 C72.428001,114.678168 72.661332,114.843833 72.932,114.9535 C73.202668,115.063167 73.5059983,115.118 73.842,115.118 C74.1546682,115.118 74.4241655,115.081834 74.6505,115.0095 C74.8768345,114.937166 75.0716658,114.859 75.235,114.775 C75.3983341,114.691 75.5348328,114.612834 75.6445,114.5405 C75.7541672,114.468166 75.8486663,114.432 75.928,114.432 C76.0306672,114.432 76.1099997,114.471666 76.166,114.551 L76.516,115.006 C76.3619992,115.192668 76.1776677,115.354833 75.963,115.4925 C75.7483323,115.630167 75.5185012,115.743333 75.2735,115.832 C75.0284988,115.920667 74.7753346,115.987166 74.514,116.0315 C74.2526654,116.075834 73.9936679,116.098 73.737,116.098 C73.2469975,116.098 72.7955021,116.015167 72.3825,115.8495 C71.9694979,115.683833 71.6125015,115.441168 71.3115,115.1215 C71.0104985,114.801832 70.7760008,114.406336 70.608,113.935 C70.4399992,113.463664 70.356,112.922336 70.356,112.311 C70.356,111.816331 70.4318326,111.354335 70.5835,110.925 C70.7351674,110.495665 70.9533319,110.123502 71.238,109.8085 C71.5226681,109.493498 71.8703313,109.246168 72.281,109.0665 C72.6916687,108.886832 73.1536641,108.797 73.667,108.797 Z M73.695,109.714 C73.092997,109.714 72.6193351,109.887832 72.274,110.2355 C71.9286649,110.583168 71.7140004,111.064997 71.63,111.681 L75.487,111.681 C75.487,111.391665 75.4473337,111.126835 75.368,110.8865 C75.2886663,110.646165 75.1720008,110.438501 75.018,110.2635 C74.8639992,110.088499 74.6761678,109.953167 74.4545,109.8575 C74.2328322,109.761833 73.9796681,109.714 73.695,109.714 Z M78.196,116 L78.196,108.909 L78.91,108.909 C79.045334,108.909 79.1386664,108.934666 79.19,108.986 C79.2413336,109.037334 79.2763332,109.125999 79.295,109.252 L79.379,110.358 C79.6216679,109.863331 79.9214982,109.477168 80.2785,109.1995 C80.6355018,108.921832 81.0543309,108.783 81.535,108.783 C81.731001,108.783 81.9083325,108.805166 82.067,108.8495 C82.2256675,108.893834 82.372666,108.955666 82.508,109.035 L82.347,109.966 C82.3143332,110.082667 82.2420006,110.141 82.13,110.141 C82.0646663,110.141 81.964334,110.118834 81.829,110.0745 C81.693666,110.030166 81.5046679,110.008 81.262,110.008 C80.8279978,110.008 80.4651681,110.133999 80.1735,110.386 C79.8818319,110.638001 79.638001,111.004331 79.442,111.485 L79.442,116 L78.196,116 Z M86.645,108.797 C87.0696688,108.797 87.4616649,108.868166 87.821,109.0105 C88.1803351,109.152834 88.4906654,109.358165 88.752,109.6265 C89.0133346,109.894835 89.2174993,110.226165 89.3645,110.6205 C89.5115007,111.014835 89.585,111.463997 89.585,111.968 C89.585,112.164001 89.5640002,112.294666 89.522,112.36 C89.4799998,112.425334 89.4006672,112.458 89.284,112.458 L84.566,112.458 C84.5753334,112.906002 84.6359994,113.295665 84.748,113.627 C84.8600006,113.958335 85.013999,114.234832 85.21,114.4565 C85.406001,114.678168 85.639332,114.843833 85.91,114.9535 C86.180668,115.063167 86.4839983,115.118 86.82,115.118 C87.1326682,115.118 87.4021655,115.081834 87.6285,115.0095 C87.8548345,114.937166 88.0496658,114.859 88.213,114.775 C88.3763341,114.691 88.5128328,114.612834 88.6225,114.5405 C88.7321672,114.468166 88.8266663,114.432 88.906,114.432 C89.0086672,114.432 89.0879997,114.471666 89.144,114.551 L89.494,115.006 C89.3399992,115.192668 89.1556677,115.354833 88.941,115.4925 C88.7263323,115.630167 88.4965012,115.743333 88.2515,115.832 C88.0064988,115.920667 87.7533346,115.987166 87.492,116.0315 C87.2306654,116.075834 86.9716679,116.098 86.715,116.098 C86.2249975,116.098 85.7735021,116.015167 85.3605,115.8495 C84.9474979,115.683833 84.5905015,115.441168 84.2895,115.1215 C83.9884985,114.801832 83.7540008,114.406336 83.586,113.935 C83.4179992,113.463664 83.334,112.922336 83.334,112.311 C83.334,111.816331 83.4098326,111.354335 83.5615,110.925 C83.7131674,110.495665 83.9313319,110.123502 84.216,109.8085 C84.5006681,109.493498 84.8483313,109.246168 85.259,109.0665 C85.6696687,108.886832 86.1316641,108.797 86.645,108.797 Z M86.673,109.714 C86.070997,109.714 85.5973351,109.887832 85.252,110.2355 C84.9066649,110.583168 84.6920004,111.064997 84.608,111.681 L88.465,111.681 C88.465,111.391665 88.4253337,111.126835 88.346,110.8865 C88.2666663,110.646165 88.1500008,110.438501 87.996,110.2635 C87.8419992,110.088499 87.6541678,109.953167 87.4325,109.8575 C87.2108322,109.761833 86.9576681,109.714 86.673,109.714 Z M96.165,116 C95.9876658,116 95.8756669,115.913668 95.829,115.741 L95.717,114.88 C95.4136651,115.248669 95.0671686,115.543832 94.6775,115.7655 C94.2878314,115.987168 93.8410025,116.098 93.337,116.098 C92.930998,116.098 92.562335,116.019834 92.231,115.8635 C91.899665,115.707166 91.6173345,115.477335 91.384,115.174 C91.1506655,114.870665 90.9710006,114.492669 90.845,114.04 C90.7189994,113.587331 90.656,113.067003 90.656,112.479 C90.656,111.956331 90.7259993,111.469836 90.866,111.0195 C91.0060007,110.569164 91.207832,110.178335 91.4715,109.847 C91.735168,109.515665 92.0559981,109.255501 92.434,109.0665 C92.8120019,108.877499 93.2413309,108.783 93.722,108.783 C94.1560022,108.783 94.5269985,108.856499 94.835,109.0035 C95.1430015,109.150501 95.4183321,109.356999 95.661,109.623 L95.661,105.689 L96.907,105.689 L96.907,116 L96.165,116 Z M93.75,115.09 C94.156002,115.09 94.5118318,114.996668 94.8175,114.81 C95.1231682,114.623332 95.404332,114.359668 95.661,114.019 L95.661,110.589 C95.4323322,110.280998 95.1815014,110.065167 94.9085,109.9415 C94.6354986,109.817833 94.333335,109.756 94.002,109.756 C93.33933,109.756 92.8306684,109.991664 92.476,110.463 C92.1213316,110.934336 91.944,111.606329 91.944,112.479 C91.944,112.941002 91.9836663,113.336498 92.063,113.6655 C92.1423337,113.994502 92.2589992,114.265166 92.413,114.4775 C92.5670008,114.689834 92.7559989,114.845 92.98,114.943 C93.2040011,115.041 93.4606652,115.09 93.75,115.09 Z" id="3-pax-pre-ordered" fill="#493861"></path>
                <path d="M61.0631229,68 L61.0631229,83.7353932" id="Line" stroke="#493861" stroke-linecap="square"></path>
            </g>
        </g>
    </g>
</svg>