<?xml version="1.0" encoding="UTF-8" standalone="no"?>
<svg width="135px" height="129px" viewBox="0 0 135 129" version="1.1" xmlns="http://www.w3.org/2000/svg" xmlns:xlink="http://www.w3.org/1999/xlink">
    <!-- Generator: Sketch 3.8.3 (29802) - http://www.bohemiancoding.com/sketch -->
    <title>lite_success</title>
    <desc>Created with Sketch.</desc>
    <defs></defs>
    <g id="Lite" stroke="none" stroke-width="1" fill="none" fill-rule="evenodd">
        <g id="lite_success">
            <path d="M62.8644186,70.5378012 L36.621189,61.1492231 C35.6332028,60.7994237 34.5328228,61.0750382 33.8069253,61.8665085 L0.76214951,97.9135387 C0.182511317,98.5482872 -0.0918474884,99.4296639 0.0274176097,100.295811 C0.140793073,101.169818 0.63404996,101.938198 1.35503938,102.379869 L44.2909655,128.58928 L44.2983275,128.58928 L44.3346469,128.609915 C44.3616411,128.625636 44.3905985,128.633005 44.4195558,128.648235 C44.5383301,128.715542 44.6575952,128.782358 44.7861856,128.835909 C44.8205418,128.849174 44.8563704,128.849174 44.8907266,128.864404 C44.9412793,128.879634 44.9829975,128.894864 45.031587,128.902724 C45.1940428,128.946449 45.3569893,128.977401 45.5268071,128.98477 C45.5611633,128.98477 45.5896299,128.992631 45.6259493,128.992631 C45.6460722,128.992631 45.6676675,129 45.6819008,129 C45.7378524,129 45.7869326,128.977401 45.8443566,128.96954 C46.0269352,128.95431 46.2114771,128.931219 46.3866937,128.879634 C46.4716026,128.857034 46.5565115,128.820679 46.6414204,128.789727 C46.7189673,128.761232 46.8038762,128.746002 46.881423,128.699821 L84.4980276,109.049149 C84.7522635,109.139055 85.012389,109.213731 85.2960731,109.221592 L85.4011049,109.221592 C85.6121501,109.221592 85.8182873,109.190641 86.0150993,109.139055 L131.252891,128.774497 C131.585164,128.92385 131.937561,128.992631 132.282104,128.992631 C132.974137,128.992631 133.658807,128.707682 134.173659,128.17807 C134.957471,127.386599 135.210725,126.176057 134.816611,125.107007 L116.682426,75.3794776 C116.412975,74.6391015 115.869656,74.0559387 115.179588,73.7577248 L88.1810124,62.1205062 C87.567018,61.8512785 86.882348,61.8375224 86.2624639,62.0689206 L62.8644186,70.5378012 L62.8644186,70.5378012 Z M43.7275238,102.364639 C45.4978497,103.058833 47.3403237,103.56732 49.224516,103.873394 C49.2947008,103.888624 49.3653764,103.888624 49.42869,103.888624 C49.7953197,103.888624 50.1349553,103.716672 50.3803567,103.454814 L44.2207807,121.933265 L7.07043883,99.2577119 L23.813688,80.9875686 C24.2024039,81.9146354 24.7530847,83.1310728 25.4937063,84.5440268 C25.7410709,85.0141926 26.1999716,85.2819464 26.6785044,85.2819464 C26.8974025,85.2819464 27.1231718,85.2225001 27.3361802,85.1040989 C27.9918929,84.7218742 28.2323863,83.8478669 27.8657565,83.1615329 C26.8198556,81.1595205 26.164143,79.5608584 25.860336,78.7615274 L36.5019239,67.1478907 L59.7105193,75.4462932 L50.7489497,102.334178 C50.698397,101.691569 50.2610916,101.138867 49.6323731,101.041591 C47.9400848,100.765976 46.2674286,100.311041 44.6723193,99.6841528 C43.9748884,99.4144339 43.1910762,99.787324 42.9289875,100.527209 C42.668862,101.267094 43.0286205,102.08755 43.7275238,102.364639 L43.7275238,102.364639 Z M84.0459982,68.9622298 L83.4899185,84.3106634 C82.9731031,84.775425 82.8396047,85.5668954 83.2278298,86.1711838 C83.2837813,86.2610901 83.3470949,86.3357664 83.4177705,86.402582 L82.7978865,103.55995 L50.4579036,120.454969 L65.3120525,75.9164591 L84.0459982,68.9622298 Z M88.2099697,103.90975 L88.9020018,84.7827944 C89.1204091,84.7292436 89.3388163,84.677658 89.5645857,84.6319679 C90.298336,84.4826153 90.778832,83.736835 90.6433704,82.9664902 C90.5020192,82.1902498 89.797717,81.681272 89.0644575,81.824729 C89.0428622,81.824729 89.0281381,81.8325897 89.0139048,81.8404504 L89.4796768,68.8723234 L112.052682,78.6048054 L127.49923,120.961982 L88.2099697,103.90975 Z" id="Fill-1" fill="#4B3B62"></path>
            <path d="M29.5013239,91.4894988 C28.9720491,90.8862926 28.0677631,90.8314557 27.4787566,91.3758002 C26.8881918,91.910586 26.8362512,92.8367766 27.3660455,93.4475291 C28.7175401,95.0000681 30.1666831,96.4157663 31.6521846,97.6709785 C31.9217563,97.8923385 32.2427493,98 32.5637423,98 C32.9823836,98 33.3932338,97.8158687 33.6763101,97.4632019 C34.1770176,96.8368535 34.0871603,95.9106629 33.4737417,95.39751 C32.0936797,94.2444253 30.7572479,92.9363886 29.5013239,91.4894988" id="Fill-3" fill="#4B3B62"></path>
            <path d="M60.0359929,98.1243891 C58.351302,98.9025827 56.6448894,99.5810593 54.9657552,100.150799 C54.2332809,100.402347 53.8337035,101.217621 54.0660747,101.987797 C54.2555077,102.604138 54.8061263,103 55.3956418,103 C55.5406212,103 55.6780233,102.978453 55.8230027,102.931852 C57.5950854,102.339062 59.3888897,101.620999 61.1680445,100.800213 C61.8727353,100.472499 62.1924983,99.6106236 61.8803127,98.8790314 C61.5605497,98.1399229 60.7406837,97.7966759 60.0359929,98.1243891" id="Fill-5" fill="#4B3B62"></path>
            <path d="M101.170895,84.032087 C99.3503782,83.1550228 97.5038538,82.4757488 95.6688326,82.0345653 C94.9286224,81.8569254 94.1964144,82.3808307 94.0303673,83.2191853 C93.8723224,84.0485253 94.3469572,84.8720323 95.0871674,85.0555052 C96.7401369,85.4601001 98.4171131,86.0730906 100.070083,86.8695539 C100.250634,86.9586391 100.436187,87 100.616738,87 C101.148889,87 101.658534,86.6532044 101.881597,86.0730906 C102.190685,85.2745062 101.874095,84.3703983 101.170895,84.032087" id="Fill-7" fill="#4B3B62"></path>
            <path d="M71.9343629,90.2551235 C70.3803852,91.4368568 68.965385,92.4474662 67.6165418,93.3681132 C67.001614,93.7851668 66.8159934,94.6622994 67.1996093,95.3321276 C67.4466276,95.7618932 67.8773626,96 68.3152369,96 C68.553688,96 68.7935669,95.9335061 69.0053648,95.7848727 C70.401803,94.8412462 71.8448843,93.7925007 73.4393178,92.5882768 C74.0347316,92.1428655 74.1784686,91.2505762 73.7615361,90.6032386 C73.3517429,89.9642128 72.5297768,89.8077565 71.9343629,90.2551235" id="Fill-9" fill="#4B3B62"></path>
            <path d="M107.297401,89.5834512 C106.823717,90.2455337 106.924533,91.1917361 107.538043,91.7039816 C108.906407,92.8622371 110.282371,94.1558125 111.630471,95.5743385 C111.898976,95.8569031 112.249553,96 112.59861,96 C112.963879,96 113.327628,95.8408306 113.603226,95.5421936 C114.14429,94.9428456 114.129091,93.9883477 113.575362,93.4050722 C112.154816,91.9243301 110.7059,90.5441707 109.255464,89.3309577 C108.651074,88.8026397 107.771085,88.9213687 107.297401,89.5834512" id="Fill-11" fill="#4B3B62"></path>
            <path d="M37,31.8982641 C37,46.894983 46.7518345,59.4395681 59.8670241,62.8514451 L66.9980561,84 L74.1329759,62.8514451 C87.2525392,59.4395681 97,46.890585 97,31.8938661 C96.9961123,14.2769116 83.5655322,0 66.9980561,0 C50.4305801,0 37,14.2769116 37,31.8982641 Z" id="Fill-13" fill="#3CBCA3"></path>
            <path d="M79.0389766,35.4032857 C79.0389766,37.8116074 77.9025285,39.1564435 75.6296324,39.4372988 C72.8643908,39.918765 70.1559963,40.1798068 67.5044489,40.219929 C64.8529015,40.1798068 62.144507,39.918765 59.3792654,39.4372988 C57.1063693,39.1564435 55.9699212,37.8116074 55.9699212,35.4032857 L55.9699212,24.2646743 C55.9699212,21.8563527 57.1632164,20.5516387 59.5498068,20.3510278 C62.2389227,20.1504169 64.8904701,20.0701725 67.5044489,20.1102947 C70.1179334,20.0701725 72.7699751,20.1504169 75.459091,20.3510278 C77.8456814,20.5516387 79.0389766,21.8563527 79.0389766,24.2646743 L79.0389766,35.4032857 Z M78.4784146,46.008916 C78.05478,46.4576901 77.5253603,46.6820771 76.8901555,46.6820771 C76.2969682,46.6820771 75.7888043,46.4576901 75.3651697,46.008916 C74.8995177,45.560142 74.6666916,44.9994221 74.6666916,44.326261 C74.6666916,43.6976802 74.8995177,43.1592504 75.3651697,42.7104763 C75.7888043,42.2171221 76.2969682,41.9699496 76.8901555,41.9699496 C77.5253603,41.9699496 78.05478,42.2171221 78.4784146,42.7104763 C78.9440666,43.1592504 79.1768927,43.6976802 79.1768927,44.326261 C79.1768927,44.9994221 78.9440666,45.560142 78.4784146,46.008916 L78.4784146,46.008916 Z M59.5473352,46.008916 C59.1237005,46.4576901 58.6155367,46.6820771 58.0228437,46.6820771 C57.3876389,46.6820771 56.8582192,46.4576901 56.4345846,46.008916 C55.9689326,45.560142 55.7356122,44.9994221 55.7356122,44.326261 C55.7356122,43.6976802 55.9689326,43.1592504 56.4345846,42.7104763 C56.8582192,42.2171221 57.3876389,41.9699496 58.0228437,41.9699496 C58.6155367,41.9699496 59.1237005,42.2171221 59.5473352,42.7104763 C60.0134815,43.1592504 60.2463076,43.6976802 60.2463076,44.326261 C60.2463076,44.9994221 60.0134815,45.560142 59.5473352,46.008916 L59.5473352,46.008916 Z M83.6599059,23.3537522 C83.4330118,23.1135144 83.1641002,22.9931479 82.8521825,22.9931479 L82.4740256,22.9931479 L82.4107523,19.9042351 C82.3257288,17.3012466 81.0340633,16 78.5352617,16 L56.4919261,16 C53.9931244,16 52.7227149,17.3012466 52.6802031,19.9042351 L52.6169298,22.9931479 L52.1473232,22.9931479 C51.8358998,22.9931479 51.5664939,23.1135144 51.3395997,23.3537522 C51.1131999,23.5939899 51,23.8788079 51,24.2091967 L51,26.1687443 C51,26.4986378 51.1131999,26.7839511 51.3395997,27.0241889 C51.5664939,27.2644266 51.8358998,27.3847932 52.1473232,27.3847932 L52.5274574,27.3847932 L52.1720393,44.7433336 C52.0954193,47.2670684 53.1374517,48.64212 55.291216,48.8764138 L55.291216,50.9900107 C55.291216,51.6185916 55.6723389,51.9326344 56.4345846,51.9326344 L59.3570209,51.9326344 C60.1192666,51.9326344 60.5003895,51.6185916 60.5003895,50.9900107 L60.5003895,48.916536 L74.3488421,48.916536 L74.3488421,51.0573764 C74.3488421,51.6859572 74.7299649,52 75.492705,52 L78.4146469,52 C79.1768927,52 79.5580155,51.6859572 79.5580155,51.0573764 L79.5580155,48.8962272 C81.8373378,48.7203831 82.9584619,47.3369108 82.9189161,44.7433336 L82.563498,27.3847932 L82.8521825,27.3847932 C83.1641002,27.3847932 83.4330118,27.2644266 83.6599059,27.0241889 C83.8863058,26.7839511 84,26.4986378 84,26.1687443 L84,24.2091967 C84,23.8788079 83.8863058,23.5939899 83.6599059,23.3537522 L83.6599059,23.3537522 Z" id="Fill-15" fill="#4B3B62"></path>
        </g>
    </g>
</svg>