<?xml version="1.0" encoding="UTF-8" standalone="no"?>
<svg width="52px" height="51px" viewBox="0 0 52 51" version="1.1" xmlns="http://www.w3.org/2000/svg" xmlns:xlink="http://www.w3.org/1999/xlink">
    <!-- Generator: Sketch 3.7.2 (28276) - http://www.bohemiancoding.com/sketch -->
    <title>MapButtonLocateMe</title>
    <desc>Created with Sketch.</desc>
    <defs></defs>
    <g id="Main" stroke="none" stroke-width="1" fill="none" fill-rule="evenodd">
        <g id="1MainTabMap" transform="translate(-309.000000, -533.000000)">
            <g id="MapButtonLocateMe" transform="translate(309.000000, 533.000000)">
                <g id="Round-Button" fill="#FFFFFF">
                    <ellipse id="Oval-4" cx="25.7616216" cy="25.4980469" rx="25.7616216" ry="25.4980469"></ellipse>
                </g>
                <g id="ButtonLocateMe" transform="translate(12.000000, 12.000000)" stroke="#493762" stroke-linecap="round" stroke-linejoin="round">
                    <path d="M25.062313,14 C25.062313,20.1088696 20.1099652,25.0612174 13.9998783,25.0612174 C7.8897913,25.0612174 2.93744348,20.1088696 2.93744348,14 C2.93744348,7.88869565 7.8897913,2.93634783 13.9998783,2.93634783 C20.1099652,2.93634783 25.062313,7.88869565 25.062313,14 L25.062313,14 Z" id="Stroke-156"></path>
                    <path d="M19.239287,14 C19.239287,16.8937391 16.8945913,19.2396522 13.9996348,19.2396522 C11.1046783,19.2396522 8.75998261,16.8937391 8.75998261,14 C8.75998261,11.1050435 11.1046783,8.75913043 13.9996348,8.75913043 C16.8945913,8.75913043 19.239287,11.1050435 19.239287,14 L19.239287,14 Z" id="Stroke-157"></path>
                    <path d="M14,0.608695652 L14,27.3913043" id="Stroke-158"></path>
                    <path d="M27.3913043,14 L0.608695652,14" id="Stroke-159"></path>
                </g>
            </g>
        </g>
    </g>
</svg>