<?xml version="1.0" encoding="UTF-8" standalone="no"?>
<svg width="255px" height="24px" viewBox="0 0 255 24" version="1.1" xmlns="http://www.w3.org/2000/svg" xmlns:xlink="http://www.w3.org/1999/xlink">
    <!-- Generator: Sketch 3.7.2 (28276) - http://www.bohemiancoding.com/sketch -->
    <title>MapPinEnd</title>
    <desc>Created with Sketch.</desc>
    <defs></defs>
    <g id="Main" stroke="none" stroke-width="1" fill="none" fill-rule="evenodd">
        <g id="1MainTabMap" transform="translate(-60.000000, -385.000000)">
            <g id="Map" transform="translate(48.000000, 375.000000)">
                <g id="MapPinEnd">
                    <g id="Group-10" transform="translate(13.000000, 11.000000)">
                        <g id="Next" transform="translate(245.000000, 4.000000)" stroke-linecap="round" stroke-width="1.4" stroke="#493762" stroke-linejoin="round">
                            <polyline transform="translate(4.071429, 7.448864) rotate(-180.000000) translate(-4.071429, -7.448864) " points="8.14285714 -7.99360578e-14 -3.19744231e-14 7.44886364 8.14285714 14.8977273"></polyline>
                        </g>
                        <g id="Location" stroke="#493762" stroke-linejoin="round">
                            <path d="M22,11 C22,17.0748696 17.0758261,22 11,22 C4.92417391,22 0,17.0748696 0,11 C0,4.92417391 4.92417391,0 11,0 C17.0758261,0 22,4.92417391 22,11 L22,11 Z" id="Stroke-365"></path>
                            <path d="M11,14.3478261 C9.15104348,14.3478261 7.65217391,12.8489565 7.65217391,11 C7.65217391,9.15104348 9.15104348,7.65217391 11,7.65217391 C12.849913,7.65217391 14.3478261,9.15104348 14.3478261,11 C14.3478261,12.8489565 12.849913,14.3478261 11,14.3478261 Z" id="Stroke-972" stroke-linecap="round" fill="#FF6C6A"></path>
                        </g>
                        <text id="Button" font-family="Lato-Regular, Lato" font-size="17" font-weight="normal" line-spacing="24" fill="#493762">
                            <tspan x="28.467" y="18">SET DROP-OFF LOCATION</tspan>
                        </text>
                    </g>
                </g>
            </g>
        </g>
    </g>
</svg>