<svg id="Layer_1" data-name="Layer 1" xmlns="http://www.w3.org/2000/svg" xmlns:xlink="http://www.w3.org/1999/xlink" viewBox="0 0 281 61">
  <defs>
    <style>
      .cls-1 {
        filter: url(#filter-2);
      }

      .cls-2 {
        fill: #fff;
        fill-opacity: 0.8;
      }

      .cls-2, .cls-3, .cls-4, .cls-5 {
        stroke: #493762;
        stroke-linejoin: round;
      }

      .cls-2, .cls-3, .cls-5 {
        stroke-linecap: round;
      }

      .cls-3, .cls-4 {
        fill: none;
      }

      .cls-3 {
        stroke-width: 1.4px;
      }

      .cls-5 {
        fill: #00c4a5;
      }

      .cls-6, .cls-7 {
        isolation: isolate;
      }

      .cls-7 {
        font-size: 16px;
        fill: #493762;
        font-family: Lato, sans-serif;
      }

      .cls-8 {
        letter-spacing: -1px;

      }
    </style>
    <filter id="filter-2" x="-54.5" y="-52.5" width="200" height="200" name="filter-2">
      <feMorphology result="shadowSpreadOuter1" operator="dilate" radius="0.5" in="SourceAlpha"/>
      <feOffset result="shadowOffsetOuter1" dy="2" in="shadowSpreadOuter1"/>
      <feGaussianBlur result="shadowBlurOuter1" stdDeviation="2" in="shadowOffsetOuter1"/>
      <feComposite result="shadowBlurOuter1" operator="out" in="shadowBlurOuter1" in2="SourceAlpha"/>
      <feColorMatrix values="0 0 0 0 0 0 0 0 0 0 0 0 0 0 0 0 0 0 0.5 0" in="shadowBlurOuter1"/>
    </filter>
  </defs>
  <title>MapPinStart</title>
  <g id="Main">
    <g id="_1MainTabMap" data-name="1MainTabMap">
      <g id="Map">
        <g id="MapPinStart">
          <g id="Triangle-1">
            <g class="cls-1">
              <path id="path-1" d="M151.13,48L145.5,63l-5.62-15H27.5a22.5,22.5,0,0,1,0-45h235a22.5,22.5,0,0,1,0,45H151.13Z" transform="translate(-4.5 -2.5)"/>
            </g>
            <path id="path-1-2" data-name="path-1" class="cls-2" d="M151.13,48L145.5,63l-5.62-15H27.5a22.5,22.5,0,0,1,0-45h235a22.5,22.5,0,0,1,0,45H151.13Z" transform="translate(-4.5 -2.5)"/>
          </g>
          <g id="Group-10">
            <g id="Next">
              <polyline class="cls-3" points="258.5 30.4 266.64 22.95 258.5 15.5"/>
            </g>
            <g id="Location">
              <path id="Stroke-365" class="cls-4" d="M40,25A11,11,0,1,1,29,14,11,11,0,0,1,40,25h0Z" transform="translate(-4.5 -2.5)"/>
              <path id="Stroke-972" class="cls-5" d="M29,28.35A3.35,3.35,0,1,1,32.35,25,3.35,3.35,0,0,1,29,28.35Z" transform="translate(-4.5 -2.5)"/>
            </g>
            <g id="Button" class="cls-6">
              <text class="cls-7" transform="translate(49.00 29.5)">SET PICK-UP LOCATION</text>
            </g>
          </g>
        </g>
      </g>
    </g>
  </g>
</svg>
