<?xml version="1.0" encoding="UTF-8" standalone="no"?>
<svg width="20px" height="27px" viewBox="0 0 20 27" version="1.1" xmlns="http://www.w3.org/2000/svg" xmlns:xlink="http://www.w3.org/1999/xlink">
    <!-- Generator: Sketch 3.7.2 (28276) - http://www.bohemiancoding.com/sketch -->
    <title>MenuSuggestActive</title>
    <desc>Created with Sketch.</desc>
    <defs></defs>
    <g id="Main" stroke="none" stroke-width="1" fill="none" fill-rule="evenodd" stroke-linejoin="round">
        <g id="1MainTabMap" transform="translate(-130.000000, -616.000000)" stroke="#FFE76E">
            <g id="Menu-Bar" transform="translate(0.000000, 603.000000)">
                <g id="Icons" transform="translate(27.000000, 11.500000)">
                    <g id="MenuSuggest" transform="translate(104.000000, 2.500000)">
                        <g id="MenuSuggestActive">
                            <g id="Group" transform="translate(3.085714, 2.578125)">
                                <path d="M10.8791209,5.671875 C10.8791209,8.56365865 8.54054505,10.9074519 5.65714286,10.9074519 C2.77287033,10.9074519 0.435164835,8.56365865 0.435164835,5.671875 C0.435164835,2.78009135 2.77287033,0.436298077 5.65714286,0.436298077 C8.54054505,0.436298077 10.8791209,2.78009135 10.8791209,5.671875 L10.8791209,5.671875 Z" id="Stroke-218"></path>
                                <path d="M3.48131868,5.671875 L7.83296703,5.671875" id="Stroke-220" stroke-linecap="round"></path>
                                <path d="M5.65714286,7.85336538 L5.65714286,3.49038462" id="Stroke-222" stroke-linecap="round"></path>
                            </g>
                            <g id="Group-2" stroke-linecap="round">
                                <path d="M8.88888889,25.6549745 C8.88888889,25.6549745 0,14.481067 0,9.32908163 C0,4.17476403 3.97777778,0 8.88888889,0 C13.7977778,0 17.7777778,4.17476403 17.7777778,9.32908163 C17.7777778,14.481067 8.88888889,25.6549745 8.88888889,25.6549745 Z" id="Stroke-146"></path>
                            </g>
                        </g>
                    </g>
                </g>
            </g>
        </g>
    </g>
</svg>