<?xml version="1.0" encoding="UTF-8" standalone="no"?>
<svg width="218px" height="119px" viewBox="0 0 218 119" version="1.1" xmlns="http://www.w3.org/2000/svg" xmlns:xlink="http://www.w3.org/1999/xlink">
    <!-- Generator: Sketch 42 (36781) - http://www.bohemiancoding.com/sketch -->
    <title>emergency</title>
    <desc>Created with Sketch.</desc>
    <defs>
        <path d="M23.8034256,68.5255999 L101.001368,68.5255999 C105.409322,68.5255999 109,64.9448265 109,60.5277187 L109,60.1458849 L109,11.9996005 C109,7.57615179 105.418891,4 101.001368,4 L9.99863156,4 C5.59067766,4 2,7.58586704 2,12.0092582 L2,60.5163417 C2,64.941369 5.58110933,68.5255999 9.99863156,68.5255999 L14.1433454,68.5255999 L14.1433454,80.0193501 L23.8034256,68.5255999 Z" id="path-1"></path>
        <mask id="mask-2" maskContentUnits="userSpaceOnUse" maskUnits="objectBoundingBox" x="0" y="0" width="107" height="76.0193501" fill="white">
            <use xlink:href="#path-1"></use>
        </mask>
        <polygon id="path-3" points="50.1926061 99.3272727 100.385212 99.3272727 100.385212 0.3528 0 0.3528 0 49.8400364 0 99.3272727 50.1926061 99.3272727"></polygon>
    </defs>
    <g id="Page-1" stroke="none" stroke-width="1" fill="none" fill-rule="evenodd">
        <g id="Artboard" transform="translate(-14.000000, -19.000000)">
            <g id="emergency" transform="translate(0.000000, 19.000000)">
                <g id="Group-6" transform="translate(123.000000, 0.000000)">
                    <path d="M21.8034256,65.0248045 L99.0013684,65.0248045 C103.409322,65.0248045 107,61.4440311 107,57.0269233 L107,56.6450895 L107,8.49880511 C107,4.07535635 103.418891,0.499204568 99.0013684,0.499204568 L7.99863156,0.499204568 C3.59067766,0.499204568 0,4.0850716 0,8.50846276 L0,57.0155463 C0,61.4405736 3.58110933,65.0248045 7.99863156,65.0248045 L12.1433454,65.0248045 L12.1433454,76.5185547 L21.8034256,65.0248045 Z" id="Combined-Shape" fill="#1CC3A5"></path>
                    <use id="Combined-Shape" stroke="#493762" mask="url(#mask-2)" stroke-width="4" xlink:href="#path-1"></use>
                    <path d="M27.552,27.928 L27.552,32 L25.4,32 L25.4,20.432 L29.168,20.432 C29.9413372,20.432 30.6106638,20.5226658 31.176,20.704 C31.7413362,20.8853342 32.2079982,21.138665 32.576,21.464 C32.9440018,21.789335 33.2159991,22.1786644 33.392,22.632 C33.5680009,23.0853356 33.656,23.5813306 33.656,24.12 C33.656,24.6800028 33.5626676,25.193331 33.376,25.66 C33.1893324,26.126669 32.9093352,26.5279983 32.536,26.864 C32.1626648,27.2000017 31.6960028,27.4613324 31.136,27.648 C30.5759972,27.8346676 29.9200038,27.928 29.168,27.928 L27.552,27.928 Z M27.552,26.248 L29.168,26.248 C29.5626686,26.248 29.9066652,26.1986672 30.2,26.1 C30.4933348,26.0013328 30.735999,25.8600009 30.928,25.676 C31.120001,25.4919991 31.2639995,25.2680013 31.36,25.004 C31.4560005,24.7399987 31.504,24.445335 31.504,24.12 C31.504,23.8106651 31.4560005,23.5306679 31.36,23.28 C31.2639995,23.0293321 31.120001,22.8160009 30.928,22.64 C30.735999,22.4639991 30.4933348,22.3293338 30.2,22.236 C29.9066652,22.1426662 29.5626686,22.096 29.168,22.096 L27.552,22.096 L27.552,26.248 Z M41.648,32 L40.76,32 C40.5733324,32 40.4266672,31.9720003 40.32,31.916 C40.2133328,31.8599997 40.1333336,31.7466675 40.08,31.576 L39.904,30.992 C39.695999,31.1786676 39.492001,31.342666 39.292,31.484 C39.091999,31.625334 38.8853344,31.7439995 38.672,31.84 C38.4586656,31.9360005 38.2320012,32.0079998 37.992,32.056 C37.7519988,32.1040002 37.4853348,32.128 37.192,32.128 C36.8453316,32.128 36.5253348,32.0813338 36.232,31.988 C35.9386652,31.8946662 35.6866677,31.7546676 35.476,31.568 C35.2653323,31.3813324 35.1013339,31.1493347 34.984,30.872 C34.8666661,30.5946653 34.808,30.2720018 34.808,29.904 C34.808,29.5946651 34.8893325,29.2893348 35.052,28.988 C35.2146675,28.6866652 35.4853314,28.4146679 35.864,28.172 C36.2426686,27.9293321 36.7466635,27.7280008 37.376,27.568 C38.0053365,27.4079992 38.786662,27.3173334 39.72,27.296 L39.72,26.816 C39.72,26.2666639 39.6040012,25.8600013 39.372,25.596 C39.1399988,25.3319987 38.8026689,25.2 38.36,25.2 C38.0399984,25.2 37.7733344,25.237333 37.56,25.312 C37.3466656,25.386667 37.1613341,25.4706662 37.004,25.564 C36.8466659,25.6573338 36.701334,25.741333 36.568,25.816 C36.434666,25.890667 36.2880008,25.928 36.128,25.928 C35.994666,25.928 35.8800005,25.8933337 35.784,25.824 C35.6879995,25.7546663 35.610667,25.6693338 35.552,25.568 L35.192,24.936 C36.1360047,24.0719957 37.27466,23.64 38.608,23.64 C39.0880024,23.64 39.5159981,23.7186659 39.892,23.876 C40.2680019,24.0333341 40.5866654,24.2519986 40.848,24.532 C41.1093346,24.8120014 41.3079993,25.1466647 41.444,25.536 C41.5800007,25.9253353 41.648,26.3519977 41.648,26.816 L41.648,32 Z M37.808,30.768 C38.0106677,30.768 38.1973325,30.7493335 38.368,30.712 C38.5386675,30.6746665 38.6999992,30.618667 38.852,30.544 C39.0040008,30.469333 39.150666,30.3773339 39.292,30.268 C39.433334,30.1586661 39.5759993,30.0293341 39.72,29.88 L39.72,28.496 C39.1439971,28.5226668 38.6626686,28.5719996 38.276,28.644 C37.8893314,28.7160004 37.5786678,28.8079994 37.344,28.92 C37.1093322,29.0320006 36.9426672,29.1626659 36.844,29.312 C36.7453328,29.4613341 36.696,29.6239991 36.696,29.8 C36.696,30.1466684 36.7986656,30.3946659 37.004,30.544 C37.2093344,30.6933341 37.4773317,30.768 37.808,30.768 Z M46.432,23.648 C46.7840018,23.648 47.1146651,23.6839996 47.424,23.756 C47.7333349,23.8280004 48.0159987,23.9333326 48.272,24.072 L50.632,24.072 L50.632,24.808 C50.632,24.9306673 50.6000003,25.0266663 50.536,25.096 C50.4719997,25.1653337 50.3626674,25.2133332 50.208,25.24 L49.472,25.376 C49.5253336,25.5146674 49.5666665,25.6613326 49.596,25.816 C49.6253335,25.9706674 49.64,26.1333325 49.64,26.304 C49.64,26.7093354 49.5586675,27.0759984 49.396,27.404 C49.2333325,27.7320016 49.0093348,28.0106655 48.724,28.24 C48.4386652,28.4693345 48.100002,28.646666 47.708,28.772 C47.315998,28.897334 46.890669,28.96 46.432,28.96 C46.1226651,28.96 45.8213348,28.930667 45.528,28.872 C45.2719987,29.0266674 45.144,29.199999 45.144,29.392 C45.144,29.5573342 45.2199992,29.6786663 45.372,29.756 C45.5240008,29.8333337 45.7239988,29.8879998 45.972,29.92 C46.2200012,29.9520002 46.5013318,29.972 46.816,29.98 C47.1306682,29.988 47.4533317,30.0053332 47.784,30.032 C48.1146683,30.0586668 48.4373318,30.105333 48.752,30.172 C49.0666682,30.238667 49.3479988,30.3439993 49.596,30.488 C49.8440012,30.6320007 50.0439992,30.8279988 50.196,31.076 C50.3480008,31.3240012 50.424,31.6426647 50.424,32.032 C50.424,32.3946685 50.3346676,32.746665 50.156,33.088 C49.9773324,33.429335 49.7186684,33.733332 49.38,34 C49.0413316,34.266668 48.6266691,34.4813325 48.136,34.644 C47.6453309,34.8066675 47.0853365,34.888 46.456,34.888 C45.8319969,34.888 45.290669,34.8280006 44.832,34.708 C44.373331,34.5879994 43.9933348,34.428001 43.692,34.228 C43.3906652,34.027999 43.1653341,33.7973346 43.016,33.536 C42.8666659,33.2746654 42.792,33.0026681 42.792,32.72 C42.792,32.3359981 42.9093322,32.0133346 43.144,31.752 C43.3786678,31.4906654 43.7039979,31.2826674 44.12,31.128 C43.9173323,31.0159994 43.7546673,30.8666676 43.632,30.68 C43.5093327,30.4933324 43.448,30.2506682 43.448,29.952 C43.448,29.8293327 43.4693331,29.7026673 43.512,29.572 C43.5546669,29.4413327 43.6199996,29.3120006 43.708,29.184 C43.7960004,29.0559994 43.906666,28.9346672 44.04,28.82 C44.173334,28.7053328 44.3306658,28.6026671 44.512,28.512 C44.0959979,28.2879989 43.7693345,27.9893352 43.532,27.616 C43.2946655,27.2426648 43.176,26.8053358 43.176,26.304 C43.176,25.8986646 43.2573325,25.5320016 43.42,25.204 C43.5826675,24.8759984 43.8093319,24.5960012 44.1,24.364 C44.3906681,24.1319988 44.7346647,23.9546673 45.132,23.832 C45.5293353,23.7093327 45.9626643,23.648 46.432,23.648 Z M48.6,32.368 C48.6,32.2079992 48.5520005,32.0773338 48.456,31.976 C48.3599995,31.8746662 48.2293342,31.7960003 48.064,31.74 C47.8986658,31.6839997 47.7053344,31.6426668 47.484,31.616 C47.2626656,31.5893332 47.0280012,31.5693334 46.78,31.556 C46.5319988,31.5426666 46.2760013,31.5293334 46.012,31.516 C45.7479987,31.5026666 45.4933346,31.4800002 45.248,31.448 C45.0239989,31.5706673 44.8440007,31.7159992 44.708,31.884 C44.5719993,32.0520008 44.504,32.2453322 44.504,32.464 C44.504,32.6080007 44.5399996,32.742666 44.612,32.868 C44.6840004,32.993334 44.7986659,33.1013329 44.956,33.192 C45.1133341,33.2826671 45.3173321,33.3533331 45.568,33.404 C45.8186679,33.4546669 46.1253315,33.48 46.488,33.48 C46.8560018,33.48 47.173332,33.4520003 47.44,33.396 C47.706668,33.3399997 47.9266658,33.2626672 48.1,33.164 C48.2733342,33.0653328 48.3999996,32.9480007 48.48,32.812 C48.5600004,32.6759993 48.6,32.5280008 48.6,32.368 Z M46.432,27.696 C46.6773346,27.696 46.8906658,27.662667 47.072,27.596 C47.2533342,27.529333 47.4039994,27.4373339 47.524,27.32 C47.6440006,27.2026661 47.7346664,27.0613342 47.796,26.896 C47.8573336,26.7306658 47.888,26.5493343 47.888,26.352 C47.888,25.9466646 47.7666679,25.6253345 47.524,25.388 C47.2813321,25.1506655 46.9173358,25.032 46.432,25.032 C45.9466642,25.032 45.5826679,25.1506655 45.34,25.388 C45.0973321,25.6253345 44.976,25.9466646 44.976,26.352 C44.976,26.544001 45.0066664,26.7226658 45.068,26.888 C45.1293336,27.0533342 45.2199994,27.1959994 45.34,27.316 C45.4600006,27.4360006 45.6119991,27.529333 45.796,27.596 C45.9800009,27.662667 46.1919988,27.696 46.432,27.696 Z M55.264,23.664 C55.7813359,23.664 56.2573312,23.7466658 56.692,23.912 C57.1266688,24.0773342 57.5013318,24.3186651 57.816,24.636 C58.1306682,24.9533349 58.3759991,25.3426644 58.552,25.804 C58.7280009,26.2653356 58.816,26.791997 58.816,27.384 C58.816,27.5333341 58.8093334,27.6573328 58.796,27.756 C58.7826666,27.8546672 58.7586668,27.9319997 58.724,27.988 C58.6893332,28.0440003 58.642667,28.0839999 58.584,28.108 C58.525333,28.1320001 58.4506671,28.144 58.36,28.144 L53.288,28.144 C53.346667,28.9866709 53.5733314,29.6053314 53.968,30 C54.3626686,30.3946686 54.8853301,30.592 55.536,30.592 C55.8560016,30.592 56.1319988,30.554667 56.364,30.48 C56.5960012,30.405333 56.7986658,30.3226671 56.972,30.232 C57.1453342,30.1413329 57.2973327,30.058667 57.428,29.984 C57.5586673,29.909333 57.6853327,29.872 57.808,29.872 C57.8880004,29.872 57.957333,29.8879998 58.016,29.92 C58.074667,29.9520002 58.1253331,29.997333 58.168,30.056 L58.744,30.776 C58.5253322,31.0320013 58.2800014,31.2466658 58.008,31.42 C57.7359986,31.5933342 57.4520015,31.7319995 57.156,31.836 C56.8599985,31.9400005 56.5586682,32.0133331 56.252,32.056 C55.9453318,32.0986669 55.6480014,32.12 55.36,32.12 C54.7893305,32.12 54.2586691,32.0253343 53.768,31.836 C53.2773309,31.6466657 52.8506685,31.3666685 52.488,30.996 C52.1253315,30.6253315 51.840001,30.1666694 51.632,29.62 C51.423999,29.0733306 51.32,28.4400036 51.32,27.72 C51.32,27.1599972 51.4106658,26.6333358 51.592,26.14 C51.7733342,25.6466642 52.0333316,25.2173352 52.372,24.852 C52.7106684,24.4866648 53.1239976,24.1973344 53.612,23.984 C54.1000024,23.7706656 54.6506636,23.664 55.264,23.664 Z M55.304,25.08 C54.7279971,25.08 54.277335,25.242665 53.952,25.568 C53.626665,25.893335 53.4186671,26.3546637 53.328,26.952 L57.04,26.952 C57.04,26.6959987 57.0053337,26.4546678 56.936,26.228 C56.8666663,26.0013322 56.7600007,25.8026675 56.616,25.632 C56.4719993,25.4613325 56.2906678,25.3266672 56.072,25.228 C55.8533322,25.1293328 55.5973348,25.08 55.304,25.08 Z M63.512,32 L63.512,23.792 L64.72,23.792 C64.9760013,23.792 65.1439996,23.9119988 65.224,24.152 L65.36,24.8 C65.5253342,24.6293325 65.6999991,24.4746674 65.884,24.336 C66.0680009,24.1973326 66.2626656,24.0773338 66.468,23.976 C66.6733344,23.8746662 66.8933322,23.7973336 67.128,23.744 C67.3626678,23.6906664 67.6186653,23.664 67.896,23.664 C68.3440022,23.664 68.7413316,23.7399992 69.088,23.892 C69.4346684,24.0440008 69.7239988,24.257332 69.956,24.532 C70.1880012,24.806668 70.3639994,25.1346648 70.484,25.516 C70.6040006,25.8973352 70.664,26.317331 70.664,26.776 L70.664,32 L68.688,32 L68.688,26.776 C68.688,26.2746642 68.5720012,25.886668 68.34,25.612 C68.1079988,25.337332 67.7600023,25.2 67.296,25.2 C66.954665,25.2 66.6346682,25.2773326 66.336,25.432 C66.0373318,25.5866674 65.754668,25.797332 65.488,26.064 L65.488,32 L63.512,32 Z M76.112,23.664 C76.7253364,23.664 77.2813308,23.7626657 77.78,23.96 C78.2786692,24.1573343 78.7039982,24.4373315 79.056,24.8 C79.4080018,25.1626685 79.679999,25.6053307 79.872,26.128 C80.064001,26.6506693 80.16,27.2346634 80.16,27.88 C80.16,28.5306699 80.064001,29.1173307 79.872,29.64 C79.679999,30.1626693 79.4080018,30.6079982 79.056,30.976 C78.7039982,31.3440018 78.2786692,31.6266657 77.78,31.824 C77.2813308,32.0213343 76.7253364,32.12 76.112,32.12 C75.4986636,32.12 74.9413358,32.0213343 74.44,31.824 C73.9386642,31.6266657 73.5106684,31.3440018 73.156,30.976 C72.8013316,30.6079982 72.5266676,30.1626693 72.332,29.64 C72.1373324,29.1173307 72.04,28.5306699 72.04,27.88 C72.04,27.2346634 72.1373324,26.6506693 72.332,26.128 C72.5266676,25.6053307 72.8013316,25.1626685 73.156,24.8 C73.5106684,24.4373315 73.9386642,24.1573343 74.44,23.96 C74.9413358,23.7626657 75.4986636,23.664 76.112,23.664 Z M76.112,30.6 C76.7946701,30.6 77.2999984,30.370669 77.628,29.912 C77.9560016,29.453331 78.12,28.7813378 78.12,27.896 C78.12,27.0106622 77.9560016,26.3360023 77.628,25.872 C77.2999984,25.4079977 76.7946701,25.176 76.112,25.176 C75.4186632,25.176 74.9066683,25.409331 74.576,25.876 C74.2453317,26.342669 74.08,27.0159956 74.08,27.896 C74.08,28.7760044 74.2453317,29.4466644 74.576,29.908 C74.9066683,30.3693356 75.4186632,30.6 76.112,30.6 Z M84.4,32.128 C83.6906631,32.128 83.1440019,31.9266687 82.76,31.524 C82.3759981,31.1213313 82.184,30.5653369 82.184,29.856 L82.184,25.272 L81.352,25.272 C81.2453328,25.272 81.1533337,25.2373337 81.076,25.168 C80.9986663,25.0986663 80.96,24.9946674 80.96,24.856 L80.96,24.072 L82.28,23.856 L82.696,21.616 C82.7173334,21.5093328 82.7666663,21.426667 82.844,21.368 C82.9213337,21.309333 83.0186661,21.28 83.136,21.28 L84.16,21.28 L84.16,23.864 L86.32,23.864 L86.32,25.272 L84.16,25.272 L84.16,29.72 C84.16,29.9760013 84.2239994,30.1759993 84.352,30.32 C84.4800006,30.4640007 84.6506656,30.536 84.864,30.536 C84.9866673,30.536 85.0893329,30.5213335 85.172,30.492 C85.2546671,30.4626665 85.3266664,30.4320002 85.388,30.4 C85.4493336,30.3679998 85.5039998,30.3373335 85.552,30.308 C85.6000002,30.2786665 85.6479998,30.264 85.696,30.264 C85.754667,30.264 85.8026665,30.2786665 85.84,30.308 C85.8773335,30.3373335 85.9173331,30.381333 85.96,30.44 L86.552,31.4 C86.2639986,31.6400012 85.9333352,31.8213327 85.56,31.944 C85.1866648,32.0666673 84.800002,32.128 84.4,32.128 Z M35.9,51 L35.9,44.28 L35.188,44.168 C35.0333326,44.1413332 34.9093338,44.0880004 34.816,44.008 C34.7226662,43.9279996 34.676,43.8160007 34.676,43.672 L34.676,42.864 L35.9,42.864 L35.9,42.256 C35.9,41.7866643 35.970666,41.3653352 36.112,40.992 C36.253334,40.6186648 36.4559987,40.3013346 36.72,40.04 C36.9840013,39.7786654 37.3053314,39.5786674 37.684,39.44 C38.0626686,39.3013326 38.489331,39.232 38.964,39.232 C39.3426686,39.232 39.694665,39.2826662 40.02,39.384 L39.98,40.376 C39.9693333,40.5306674 39.897334,40.6266665 39.764,40.664 C39.630666,40.7013335 39.4760009,40.72 39.3,40.72 C39.0653322,40.72 38.8560009,40.7453331 38.672,40.796 C38.4879991,40.8466669 38.3320006,40.934666 38.204,41.06 C38.0759994,41.185334 37.978667,41.3506656 37.912,41.556 C37.845333,41.7613344 37.812,42.0159985 37.812,42.32 L37.812,42.864 L39.948,42.864 L39.948,44.272 L37.876,44.272 L37.876,51 L35.9,51 Z M44.66,42.664 C45.2733364,42.664 45.8293308,42.7626657 46.328,42.96 C46.8266692,43.1573343 47.2519982,43.4373315 47.604,43.8 C47.9560018,44.1626685 48.227999,44.6053307 48.42,45.128 C48.612001,45.6506693 48.708,46.2346634 48.708,46.88 C48.708,47.5306699 48.612001,48.1173307 48.42,48.64 C48.227999,49.1626693 47.9560018,49.6079982 47.604,49.976 C47.2519982,50.3440018 46.8266692,50.6266657 46.328,50.824 C45.8293308,51.0213343 45.2733364,51.12 44.66,51.12 C44.0466636,51.12 43.4893358,51.0213343 42.988,50.824 C42.4866642,50.6266657 42.0586684,50.3440018 41.704,49.976 C41.3493316,49.6079982 41.0746676,49.1626693 40.88,48.64 C40.6853324,48.1173307 40.588,47.5306699 40.588,46.88 C40.588,46.2346634 40.6853324,45.6506693 40.88,45.128 C41.0746676,44.6053307 41.3493316,44.1626685 41.704,43.8 C42.0586684,43.4373315 42.4866642,43.1573343 42.988,42.96 C43.4893358,42.7626657 44.0466636,42.664 44.66,42.664 Z M44.66,49.6 C45.3426701,49.6 45.8479984,49.370669 46.176,48.912 C46.5040016,48.453331 46.668,47.7813378 46.668,46.896 C46.668,46.0106622 46.5040016,45.3360023 46.176,44.872 C45.8479984,44.4079977 45.3426701,44.176 44.66,44.176 C43.9666632,44.176 43.4546683,44.409331 43.124,44.876 C42.7933317,45.342669 42.628,46.0159956 42.628,46.896 C42.628,47.7760044 42.7933317,48.4466644 43.124,48.908 C43.4546683,49.3693356 43.9666632,49.6 44.66,49.6 Z M52.06,42.792 L52.06,48.008 C52.06,48.5093358 52.1759988,48.897332 52.408,49.172 C52.6400012,49.446668 52.9879977,49.584 53.452,49.584 C53.793335,49.584 54.1133318,49.5080008 54.412,49.356 C54.7106682,49.2039992 54.993332,48.994668 55.26,48.728 L55.26,42.792 L57.236,42.792 L57.236,51 L56.028,51 C55.7719987,51 55.6040004,50.8800012 55.524,50.64 L55.388,49.984 C55.2173325,50.1546675 55.0413342,50.310666 54.86,50.452 C54.6786658,50.593334 54.4853344,50.7133328 54.28,50.812 C54.0746656,50.9106672 53.8533345,50.9879997 53.616,51.044 C53.3786655,51.1000003 53.1240014,51.128 52.852,51.128 C52.4039978,51.128 52.0080017,51.0520008 51.664,50.9 C51.3199983,50.7479992 51.0306678,50.5333347 50.796,50.256 C50.5613322,49.9786653 50.3840006,49.6493352 50.264,49.268 C50.1439994,48.8866648 50.084,48.466669 50.084,48.008 L50.084,42.792 L52.06,42.792 Z M59.348,51 L59.348,42.792 L60.556,42.792 C60.8120013,42.792 60.9799996,42.9119988 61.06,43.152 L61.196,43.8 C61.3613342,43.6293325 61.5359991,43.4746674 61.72,43.336 C61.9040009,43.1973326 62.0986656,43.0773338 62.304,42.976 C62.5093344,42.8746662 62.7293322,42.7973336 62.964,42.744 C63.1986678,42.6906664 63.4546653,42.664 63.732,42.664 C64.1800022,42.664 64.5773316,42.7399992 64.924,42.892 C65.2706684,43.0440008 65.5599988,43.257332 65.792,43.532 C66.0240012,43.806668 66.1999994,44.1346648 66.32,44.516 C66.4400006,44.8973352 66.5,45.317331 66.5,45.776 L66.5,51 L64.524,51 L64.524,45.776 C64.524,45.2746642 64.4080012,44.886668 64.176,44.612 C63.9439988,44.337332 63.5960023,44.2 63.132,44.2 C62.790665,44.2 62.4706682,44.2773326 62.172,44.432 C61.8733318,44.5866674 61.590668,44.797332 61.324,45.064 L61.324,51 L59.348,51 Z M74.22,51 C73.9639987,51 73.7960004,50.8800012 73.716,50.64 L73.556,49.848 C73.3853325,50.040001 73.2066676,50.2133326 73.02,50.368 C72.8333324,50.5226674 72.6320011,50.6559994 72.416,50.768 C72.1999989,50.8800006 71.9680012,50.9666664 71.72,51.028 C71.4719988,51.0893336 71.2040014,51.12 70.916,51.12 C70.4679978,51.12 70.0573352,51.0266676 69.684,50.84 C69.3106648,50.6533324 68.9893347,50.3826684 68.72,50.028 C68.4506653,49.6733316 68.2426674,49.2346693 68.096,48.712 C67.9493326,48.1893307 67.876,47.5920034 67.876,46.92 C67.876,46.311997 67.9586658,45.7466693 68.124,45.224 C68.2893342,44.7013307 68.5266651,44.2480019 68.836,43.864 C69.1453349,43.4799981 69.5159978,43.1800011 69.948,42.964 C70.3800022,42.7479989 70.8653306,42.64 71.404,42.64 C71.862669,42.64 72.254665,42.7133326 72.58,42.86 C72.905335,43.0066674 73.1959987,43.2026654 73.452,43.448 L73.452,39.112 L75.428,39.112 L75.428,51 L74.22,51 Z M71.588,49.552 C71.9986687,49.552 72.3479986,49.4666675 72.636,49.296 C72.9240014,49.1253325 73.1959987,48.8826682 73.452,48.568 L73.452,44.888 C73.2279989,44.6159986 72.9840013,44.4240006 72.72,44.312 C72.4559987,44.1999994 72.1720015,44.144 71.868,44.144 C71.5693318,44.144 71.2986679,44.1999994 71.056,44.312 C70.8133321,44.4240006 70.6080008,44.5933322 70.44,44.82 C70.2719992,45.0466678 70.1426671,45.3346649 70.052,45.684 C69.9613329,46.0333351 69.916,46.445331 69.916,46.92 C69.916,47.4000024 69.9546663,47.806665 70.032,48.14 C70.1093337,48.473335 70.2199993,48.7453323 70.364,48.956 C70.5080007,49.1666677 70.683999,49.3186662 70.892,49.412 C71.100001,49.5053338 71.3319987,49.552 71.588,49.552 Z" id="Page-not-found" fill="#493762"></path>
                </g>
                <g id="Group-2" transform="translate(9.000000, 16.628960)">
                    <g id="Page-1">
                        <g id="Group-3" transform="translate(5.000000, 2.545455)">
                            <mask id="mask-4" fill="white">
                                <use xlink:href="#path-3"></use>
                            </mask>
                            <g id="Clip-2"></g>
                            <path d="M92.3725758,37.0903818 C91.1744545,37.0903818 90.1963636,38.071 90.1963636,39.2781636 L90.1963636,48.5438727 L88.1004545,48.5438727 L88.1004545,18.3550727 C88.1004545,12.5846364 83.871697,7.82394545 75.8735152,4.58110909 C69.1409091,1.85770909 60.0891515,0.3528 50.3837273,0.3528 L50.006303,0.3528 C40.2960606,0.3528 31.242697,1.85770909 24.5100909,4.58110909 C16.5119091,7.82394545 12.2831515,12.5846364 12.2831515,18.3550727 L12.2831515,48.5438727 L10.1872424,48.5438727 L10.1872424,39.2781636 C10.1872424,38.071 9.20915152,36.4835636 8.0110303,36.4835636 L2.16978788,36.4835636 C0.971666667,36.4835636 0,38.071 0,39.2781636 L0,54.4793636 C0,55.6865273 0.971666667,56.6671455 2.16978788,56.6671455 L12.2831515,56.6671455 L12.2831515,81.2748364 C12.2831515,85.6358364 15.4824242,89.2508545 19.6421212,89.8770909 L19.6421212,96.3951273 C19.6421212,98.0133091 20.9478485,99.3272727 22.5539091,99.3272727 L29.8052727,99.3272727 C31.4113333,99.3272727 32.7170606,98.0133091 32.7170606,96.3951273 L32.7170606,89.9725636 L67.6681515,89.9725636 L67.6681515,96.3951273 C67.6681515,98.0133091 68.9722727,99.3272727 70.5783333,99.3272727 L77.831303,99.3272727 C79.4373636,99.3272727 80.7414848,98.0133091 80.7414848,96.3951273 L80.7414848,89.8770909 C84.8947576,89.2508545 88.1004545,85.6293636 88.1004545,81.2748364 L88.1004545,56.6671455 L98.2138182,56.6671455 C99.4119394,56.6671455 100.385212,55.6865273 100.385212,54.4793636 L100.385212,39.2781636 C100.39003,38.071 99.4183636,37.0903818 98.2202424,37.0903818 L92.3725758,37.0903818 Z M2.86681818,53.7851636 L2.86681818,39.9788364 L7.32684848,39.9788364 L7.32684848,49.9856727 C7.32684848,50.7818182 7.96766667,51.4258545 8.75784848,51.4258545 L12.2895758,51.4258545 L12.2895758,53.7851636 L2.86681818,53.7851636 Z M29.8566667,96.3999818 C29.8566667,96.4258727 29.8309697,96.4517636 29.8052727,96.4517636 L22.5539091,96.4517636 C22.5282121,96.4517636 22.5025152,96.4323455 22.5025152,96.3999818 L22.5025152,89.9790364 L29.8566667,89.9790364 L29.8566667,96.3999818 Z M77.8810909,96.3999818 C77.8810909,96.4323455 77.8618182,96.4517636 77.8377273,96.4517636 L70.5847576,96.4517636 C70.5590606,96.4517636 70.5413939,96.4323455 70.5413939,96.3999818 L70.5413939,89.9790364 L77.8875152,89.9790364 L77.8875152,96.3999818 L77.8810909,96.3999818 Z M85.2400606,81.2813091 C85.2400606,84.4917818 82.6494848,87.0954364 79.4678788,87.0954364 L20.9221515,87.0954364 C17.7421515,87.0954364 15.1499697,84.4917818 15.1499697,81.2813091 L15.1499697,18.3550727 C15.1499697,8.43076364 32.6849394,3.23478182 50.006303,3.23478182 L50.3837273,3.23478182 C67.7050909,3.23478182 85.2400606,8.43076364 85.2400606,18.3550727 L85.2400606,81.2813091 Z M97.5296364,53.7851636 L88.1068788,53.7851636 L88.1068788,51.4258545 L91.6386061,51.4258545 C92.4287879,51.4258545 93.0696061,50.7818182 93.0696061,49.9856727 L93.0696061,39.9788364 L97.5296364,39.9788364 L97.5296364,53.7851636 Z" id="Fill-1" fill="#493861" mask="url(#mask-4)"></path>
                        </g>
                        <path d="M79.8135152,64.0234364 L30.5765152,64.0234364 C27.3017576,64.0234364 24.6421212,61.3372545 24.6421212,58.0426364 L24.6421212,33.7828545 C24.6421212,30.4898545 27.3081818,27.8036727 30.5765152,27.8036727 L79.8135152,27.8036727 C83.0882727,27.8036727 85.7479091,30.4833818 85.7479091,33.7828545 L85.7479091,58.0426364 C85.7479091,61.3421091 83.0882727,64.0234364 79.8135152,64.0234364 L79.8135152,64.0234364 Z M30.5765152,30.6921273 C28.8837273,30.6921273 27.5025152,32.0772909 27.5025152,33.7828545 L27.5025152,58.0426364 C27.5025152,59.7498182 28.8837273,61.1414545 30.5765152,61.1414545 L79.8135152,61.1414545 C81.506303,61.1414545 82.8875152,59.7498182 82.8875152,58.0426364 L82.8875152,33.7828545 C82.8875152,32.0772909 81.506303,30.6921273 79.8135152,30.6921273 L30.5765152,30.6921273 Z" id="Fill-4" fill="#493762"></path>
                        <path d="M73.5081212,20.4587455 L36.8819091,20.4587455 C31.2542727,20.4587455 30.8222424,17.3858182 30.8222424,16.4440364 C30.8222424,13.6186909 34.0086667,11.4632727 40.5710303,9.86450909 C45.7088182,8.60718182 51.6191212,8.04405455 55.1958182,8.04405455 C58.7709091,8.04405455 64.6812121,8.60718182 69.819,9.86450909 C76.3813636,11.4697455 79.5742121,13.6186909 79.5742121,16.4440364 C79.5742121,17.3858182 79.1357576,20.4587455 73.5081212,20.4587455 M55.1958182,10.9325091 C51.7893636,10.9325091 46.155303,11.4697455 41.2423636,12.6704364 C35.2581818,14.1316545 33.6762121,15.7805818 33.6762121,16.4505091 C33.6762121,17.1333818 34.9305455,17.5832364 36.8754848,17.5832364 L73.501697,17.5832364 C75.4466364,17.5832364 76.7009697,17.1398545 76.7009697,16.4505091 C76.7009697,15.7805818 75.1206061,14.1316545 69.1348182,12.6704364 C64.2363333,11.4697455 58.6022727,10.9325091 55.1958182,10.9325091" id="Fill-10" fill="#493762"></path>
                    </g>
                    <g id="Page-1" transform="translate(32.000000, 34.000000)" fill="#493762">
                        <path d="M0.8896,12.3896 C0.7336,12.3896 0.5776,12.3466 0.4326,12.2606 C0.0106,12.0066 -0.1264,11.4596 0.1276,11.0376 L6.5066,0.4326 C6.7606,0.0106 7.3076,-0.1264 7.7336,0.1276 C8.1556,0.3816 8.2916,0.9286 8.0386,1.3506 L1.6596,11.9556 C1.4876,12.2366 1.1946,12.3896 0.8896,12.3896" id="Fill-1"></path>
                        <path d="M6.9716,12.3896 C6.8156,12.3896 6.6596,12.3466 6.5146,12.2606 C6.0926,12.0066 5.9556,11.4596 6.2096,11.0376 L9.1626,6.1316 C9.4166,5.7096 9.9636,5.5726 10.3856,5.8266 C10.8076,6.0806 10.9446,6.6276 10.6906,7.0496 L7.7376,11.9596 C7.5736,12.2366 7.2766,12.3896 6.9716,12.3896" id="Fill-6"></path>
                        <path d="M3.9326,12.3896 C3.7766,12.3896 3.6206,12.3466 3.4756,12.2606 C3.0536,12.0066 2.9166,11.4596 3.1706,11.0376 L7.8346,3.2796 C8.0886,2.8576 8.6356,2.7216 9.0616,2.9756 C9.4836,3.2286 9.6206,3.7756 9.3666,4.1976 L4.7026,11.9556 C4.5306,12.2366 4.2336,12.3896 3.9326,12.3896" id="Fill-4"></path>
                    </g>
                    <path d="M57.4697668,74.6129166 C57.6506183,74.3249115 58.1003462,73.7937021 58.8253524,73.2448924 C60.0513012,72.3072759 61.5445259,71.7504661 63.3770471,71.7504661 C65.2095684,71.7504661 66.7027931,72.3072759 67.9287418,73.2448924 C68.6537481,73.7937021 69.103476,74.3249115 69.2843274,74.6129166 C69.834884,75.4945321 70.9920132,75.7633368 71.8674622,75.2193272 C72.7477126,74.6689175 73.0165891,73.5136972 72.4740347,72.6384818 C72.0675191,71.9872703 71.3233074,71.1136549 70.2045892,70.2560398 C68.3528625,68.849615 66.0722138,68 63.3770471,68 C60.6818805,68 58.4012318,68.849615 56.5495051,70.2560398 C55.4307869,71.1136549 54.6865752,71.9872703 54.2800596,72.6384818 C53.7375052,73.5136972 54.0063817,74.6689175 54.8866321,75.2193272 C55.7620811,75.7633368 56.9192102,75.4945321 57.4697668,74.6129166" id="Fill-1" fill="#493762"></path>
                    <g id="Group-4" transform="translate(47.000000, 48.000000)" fill="#493762">
                        <path d="M4,8 C1.79180887,8 0,6.20943557 0,3.99951237 C0,1.79056443 1.79180887,0 4,0 C6.20819113,0 8,1.79056443 8,3.99951237 C8,6.20943557 6.20819113,8 4,8" id="Path"></path>
                        <path d="M27.7477681,8 C29.9562733,8 31.7471992,6.20943557 31.7471992,3.99951237 C31.7471992,1.79056443 29.9562733,0 27.7477681,0 C25.5381251,0 23.7471992,1.79056443 23.7471992,3.99951237 C23.7471992,6.20943557 25.5381251,8 27.7477681,8" id="Path"></path>
                    </g>
                </g>
            </g>
        </g>
    </g>
</svg>