<?xml version="1.0" encoding="UTF-8" standalone="no"?>
<svg width="45px" height="67px" viewBox="0 0 45 67" version="1.1" xmlns="http://www.w3.org/2000/svg" xmlns:xlink="http://www.w3.org/1999/xlink">
    <!-- Generator: Sketch 3.7.2 (28276) - http://www.bohemiancoding.com/sketch -->
    <title>paymentComplete_showTicket</title>
    <desc>Created with Sketch.</desc>
    <defs></defs>
    <g id="Booking" stroke="none" stroke-width="1" fill="none" fill-rule="evenodd">
        <g id="4BookingSuccess" transform="translate(-69.000000, -356.000000)">
            <g id="Group" transform="translate(55.000000, 151.000000)">
                <g id="3" transform="translate(13.000000, 204.000000)">
                    <g id="paymentComplete_showTicket">
                        <path d="M25.0691017,27.6015525 L24.2581449,28.4154075 L25.4390857,29.6005688 L26.2497417,28.7867137 L25.0691017,27.6015525 Z M27.4366985,29.9779125 L26.6269449,30.7902581 L27.8078857,31.9754194 L28.6185417,31.1615644 L27.4366985,29.9779125 Z M26.6633417,21.2929688 L29.1308041,23.7692494 C28.3306761,24.6960056 28.3694793,26.0994225 29.2472137,26.9815012 C30.1249481,27.8623725 31.5233673,27.9013144 32.4480265,27.098025 L34.9142857,29.5734 L30.9732041,33.5282644 L29.8042953,32.3539706 L28.9933385,33.1675238 L30.1625481,34.3409119 L20.6052297,43.9335938 L18.1152073,41.4349744 C18.7523017,40.5151612 18.6629641,39.2415506 17.8462921,38.42196 C17.0284169,37.6011619 15.7605449,37.5118069 14.8440073,38.1508762 L12.3542857,35.6531625 L21.9128073,26.0604806 L23.0714889,27.2233031 L23.8809417,26.4094481 L22.7225609,25.2469275 L26.6633417,21.2929688 Z" id="Page-1" fill="#1BCDAD"></path>
                        <g id="Page-1" transform="translate(23.500000, 34.500000) rotate(-13.000000) translate(-23.500000, -34.500000) translate(6.714286, 3.234375)" fill="#4B3963">
                            <path d="M19.2614566,54.7052254 C19.2614566,58.123345 14.1250682,58.123345 14.1250682,54.7052254 C14.1250682,51.2871059 19.2614566,51.2871059 19.2614566,54.7052254" id="Fill-1"></path>
                            <path d="M28.6781687,0.015312049 L4.70835605,0.015312049 C2.14016184,0.015312049 1.22132146e-13,2.15163679 1.22132146e-13,4.71522648 L1.22132146e-13,57.6960801 C1.22132146e-13,60.2596698 2.14016184,62.3959945 4.70835605,62.3959945 L28.6781687,62.3959945 C31.2463629,62.3959945 33.3865247,60.2596698 33.3865247,57.6960801 L33.3865247,4.71522648 C33.3865247,2.15163679 31.2463629,0.015312049 28.6781687,0.015312049 L28.6781687,0.015312049 Z M30.8183305,57.6960801 C30.8183305,58.8935613 29.8778007,59.8324048 28.6781687,59.8324048 L4.70835605,59.8324048 C3.508724,59.8324048 2.56819421,58.8935613 2.56819421,57.6960801 L2.56819421,49.5780461 L30.8183305,49.5780461 L30.8183305,57.6960801 Z M30.8183305,47.0144564 L2.56819421,47.0144564 L2.56819421,11.9787306 L30.8183305,11.9787306 L30.8183305,47.0144564 Z M30.8183305,9.41514091 L2.56819421,9.41514091 L2.56819421,4.71522648 C2.56819421,3.51774525 3.508724,2.57890174 4.70835605,2.57890174 L28.6781687,2.57890174 C29.8778007,2.57890174 30.8183305,3.51774525 30.8183305,4.71522648 L30.8183305,9.41514091 Z" id="Fill-3"></path>
                            <path d="M19.2614566,4.71522648 L14.1250682,4.71522648 C13.4379335,4.71522648 12.8409711,5.31111866 12.8409711,5.99702133 C12.8409711,6.68292399 13.4379335,7.27881617 14.1250682,7.27881617 L19.2614566,7.27881617 C19.9485912,7.27881617 20.5455537,6.68292399 20.5455537,5.99702133 C20.5455537,5.31111866 19.9485912,4.71522648 19.2614566,4.71522648" id="Fill-5"></path>
                        </g>
                    </g>
                </g>
            </g>
        </g>
    </g>
</svg>