<?xml version="1.0" encoding="UTF-8" standalone="no"?>
<svg width="64px" height="61px" viewBox="0 0 64 61" version="1.1" xmlns="http://www.w3.org/2000/svg" xmlns:xlink="http://www.w3.org/1999/xlink">
    <!-- Generator: Sketch 3.7.2 (28276) - http://www.bohemiancoding.com/sketch -->
    <title>paymentComplete_track</title>
    <desc>Created with Sketch.</desc>
    <defs></defs>
    <g id="Booking" stroke="none" stroke-width="1" fill="none" fill-rule="evenodd">
        <g id="4BookingSuccess" transform="translate(-55.000000, -242.000000)">
            <g id="Group" transform="translate(55.000000, 151.000000)">
                <g id="2" transform="translate(0.000000, 91.000000)">
                    <g id="paymentComplete_track">
                        <path d="M29.7009391,33.3998426 L17.3020986,28.9674852 C16.8353159,28.8023445 16.3154319,28.9324624 15.9724754,29.3061163 L0.360185507,46.3239567 C0.0863304348,46.6236221 -0.0432927536,47.0397209 0.0130550725,47.4486297 C0.0666202899,47.8612494 0.299663768,48.2240023 0.640301449,48.4325156 L20.9257507,60.8060061 L20.929229,60.8060061 L20.9463884,60.8157475 C20.959142,60.8231696 20.9728232,60.8266487 20.9865043,60.8338388 C21.0426203,60.8656144 21.0989681,60.8971582 21.1597217,60.9224395 C21.1759536,60.9287019 21.1928812,60.9287019 21.209113,60.935892 C21.2329971,60.9430821 21.2527072,60.9502722 21.2756638,60.9539833 C21.3524174,60.9746259 21.4294029,60.989238 21.5096348,60.9927171 C21.5258667,60.9927171 21.5393159,60.9964281 21.5564754,60.9964281 C21.5659826,60.9964281 21.5761855,60.9999072 21.5829101,60.9999072 C21.6093449,60.9999072 21.6325333,60.989238 21.6596638,60.985527 C21.7459246,60.9783369 21.833113,60.9674357 21.9158957,60.9430821 C21.9560116,60.9324129 21.9961275,60.9152494 22.0362435,60.9006373 C22.0728812,60.8871848 22.1129971,60.8799947 22.1496348,60.8581924 L39.9219246,51.5810897 C40.0420406,51.6235346 40.1649391,51.6587894 40.2989681,51.6625004 L40.3485913,51.6625004 C40.4483014,51.6625004 40.5456928,51.6478882 40.6386783,51.6235346 L62.0116638,60.8934471 C62.1686493,60.9639567 62.335142,60.9964281 62.4979246,60.9964281 C62.8248812,60.9964281 63.1483594,60.8619034 63.3916058,60.611873 C63.7619246,60.238219 63.8815768,59.6667209 63.6953739,59.1620213 L55.1277217,35.685603 C55.0004174,35.3360707 54.7437217,35.0607589 54.4176928,34.9199719 L41.6619826,29.4260289 C41.3718957,29.2989262 41.0484174,29.2924319 40.7555478,29.4016753 L29.7009391,33.3998426 L29.7009391,33.3998426 Z M20.6595478,48.4253255 C21.4959536,48.7530555 22.3664464,48.9931125 23.2566493,49.1376106 C23.2898087,49.1448008 23.3232,49.1448008 23.353113,49.1448008 C23.5263304,49.1448008 23.6867942,49.0636221 23.8027362,48.9399985 L20.8925913,57.6636943 L3.3405913,46.9585422 L11.2510841,38.3331886 C11.4347362,38.7708578 11.6949101,39.3451392 12.0448232,40.0121962 C12.1616928,40.234162 12.3785043,40.3605688 12.6045913,40.3605688 C12.7080116,40.3605688 12.8146783,40.3325042 12.9153159,40.2766068 C13.225113,40.0961582 13.3387362,39.6835384 13.1655188,39.3595194 C12.6713739,38.4143673 12.3615768,37.6596373 12.2180406,37.2822722 L17.2457507,31.7994624 L28.2108522,35.7171468 L23.9768812,48.4109452 C23.9529971,48.1075688 23.7463884,47.8466373 23.4493449,47.8007133 C22.6498087,47.6705954 21.8595478,47.4558198 21.1059246,47.1598654 C20.7764174,47.0325308 20.4060986,47.2085726 20.2822725,47.557873 C20.1593739,47.9071734 20.3293449,48.2945118 20.6595478,48.4253255 L20.6595478,48.4253255 Z M39.7083594,32.6560137 L39.4456348,39.9020251 C39.2014609,40.1214395 39.1383884,40.4950935 39.3218087,40.7803787 C39.3482435,40.8228236 39.3781565,40.8580783 39.4115478,40.8896221 L39.1186783,48.9896335 L23.8393739,56.9657894 L30.8573449,35.9391125 L39.7083594,32.6560137 Z M41.6756638,49.1547741 L42.0026203,40.1249186 C42.1058087,40.0996373 42.2089971,40.0752837 42.3156638,40.0537133 C42.6623304,39.9832038 42.8893449,39.6311202 42.8253449,39.2674395 C42.7585623,38.9009757 42.4258087,38.6606867 42.0793739,38.7284129 C42.069171,38.7284129 42.0622145,38.732124 42.0554899,38.735835 L42.2755478,32.6135688 L52.9403594,37.2082837 L60.2382145,57.2051506 L41.6756638,49.1547741 Z" id="Fill-1" fill="#4B3B62"></path>
                        <path d="M14.0664116,43.1038989 C13.8301217,42.8258038 13.4264116,42.8005224 13.1634551,43.0514806 C12.8998029,43.2980319 12.8766145,43.7250319 13.1131362,44.0066061 C13.7164986,44.7223703 14.3634551,45.3750471 15.0266435,45.9537354 C15.1469913,46.0557886 15.2902957,46.1054236 15.4336,46.1054236 C15.6204986,46.1054236 15.8039188,46.0205338 15.9302957,45.8579445 C16.1538319,45.5691802 16.1137159,45.1421802 15.8398609,44.9056023 C15.2237449,44.3739977 14.6271072,43.7709559 14.0664116,43.1038989" id="Fill-3" fill="#4B3B62"></path>
                        <path d="M28.2686145,46.2597559 C27.4952812,46.6199574 26.7119768,46.934003 25.9411942,47.1977179 C25.6049623,47.3141513 25.421542,47.6915163 25.5282087,48.0480068 C25.6151652,48.333292 25.8679188,48.516524 26.1385275,48.516524 C26.2050783,48.516524 26.2681507,48.5065506 26.3347014,48.4849802 C27.1481507,48.2105962 27.971571,47.8782274 28.7882667,47.498311 C29.1117449,47.3466228 29.2585275,46.9476875 29.1152232,46.6090563 C28.9684406,46.266946 28.5920928,46.1080677 28.2686145,46.2597559" id="Fill-5" fill="#4B3B62"></path>
                        <path d="M47.7314783,39.6799433 C46.8874203,39.296316 46.0313043,38.9992019 45.1805217,38.8062285 C44.8373333,38.7285289 44.4978551,38.9576848 44.4208696,39.3243806 C44.3475942,39.6871335 44.5676522,40.047335 44.9108406,40.1275859 C45.6772174,40.3045555 46.4547246,40.5726772 47.2211014,40.9210498 C47.3048116,40.9600156 47.3908406,40.9781068 47.4745507,40.9781068 C47.7212754,40.9781068 47.9575652,40.8264186 48.0609855,40.5726772 C48.2042899,40.2233768 48.0575072,39.8279205 47.7314783,39.6799433" id="Fill-7" fill="#4B3B62"></path>
                        <path d="M34.2393275,42.6001966 C33.4822261,43.1607935 32.7928348,43.6402118 32.1356754,44.0769532 C31.8360812,44.2747973 31.7456464,44.6908962 31.9325449,45.0086529 C32.0528928,45.2125274 32.2627478,45.3254817 32.4760812,45.3254817 C32.5922551,45.3254817 32.7091246,45.293938 32.812313,45.2234285 C33.4926609,44.7757859 34.1957333,44.2782764 34.9725449,43.7070103 C35.2626319,43.4957137 35.3326609,43.0724247 35.1295304,42.7653373 C34.9298783,42.4621928 34.5294145,42.3879722 34.2393275,42.6001966" id="Fill-9" fill="#4B3B62"></path>
                        <path d="M50.7919304,42.3320981 C50.5751188,42.6282844 50.6212638,43.0515734 50.9020754,43.2807293 C51.5283942,43.7988814 52.1581913,44.3775696 52.7752348,45.0121551 C52.8981333,45.138562 53.0585971,45.2025772 53.2183652,45.2025772 C53.3855536,45.2025772 53.5520464,45.1313719 53.6781913,44.9977749 C53.9258435,44.7296532 53.918887,44.3026532 53.6654377,44.0417217 C53.0152348,43.3793034 52.3520464,42.7618814 51.6881623,42.2191437 C51.4115246,41.9827977 51.008742,42.0359118 50.7919304,42.3320981" id="Fill-11" fill="#4B3B62"></path>
                        <path d="M17.5760464,15.1551833 C17.5760464,22.2731643 22.2292638,28.2272745 28.4873507,29.8466738 L31.8900174,39.8845369 L35.2945391,29.8466738 C41.554713,28.2272745 46.2058435,22.2710768 46.2058435,15.1530958 C46.2039884,6.79145703 39.7954087,0.0151224335 31.8900174,0.0151224335 C23.9846261,0.0151224335 17.5760464,6.79145703 17.5760464,15.1551833 Z" id="Fill-13" fill="#3CBCA3"></path>
                        <path d="M37.3039536,16.4656395 C37.3039536,17.5933278 36.7708522,18.2230426 35.7046493,18.3545521 C34.4074899,18.579997 33.1369971,18.7022289 31.893171,18.721016 C30.6493449,18.7022289 29.3788522,18.579997 28.0816928,18.3545521 C27.0154899,18.2230426 26.4823884,17.5933278 26.4823884,16.4656395 L26.4823884,11.2500236 C26.4823884,10.1223354 27.0421565,9.5114076 28.1616928,9.41747224 C29.423142,9.32353688 30.6669681,9.28596274 31.893171,9.30474981 C33.119142,9.28596274 34.3632,9.32353688 35.6246493,9.41747224 C36.7441855,9.5114076 37.3039536,10.1223354 37.3039536,11.2500236 L37.3039536,16.4656395 Z M37.0409971,21.431689 C36.8422725,21.6418259 36.5939246,21.7468943 36.2959536,21.7468943 C36.0176928,21.7468943 35.7793159,21.6418259 35.5805913,21.431689 C35.3621565,21.2215521 35.2529391,20.958997 35.2529391,20.6437916 C35.2529391,20.3494608 35.3621565,20.097343 35.5805913,19.8872061 C35.7793159,19.6561947 36.0176928,19.540457 36.2959536,19.540457 C36.5939246,19.540457 36.8422725,19.6561947 37.0409971,19.8872061 C37.2594319,20.097343 37.3686493,20.3494608 37.3686493,20.6437916 C37.3686493,20.958997 37.2594319,21.2215521 37.0409971,21.431689 L37.0409971,21.431689 Z M28.1605333,21.431689 C27.9618087,21.6418259 27.7234319,21.7468943 27.4454029,21.7468943 C27.1474319,21.7468943 26.8990841,21.6418259 26.7003594,21.431689 C26.4819246,21.2215521 26.3724754,20.958997 26.3724754,20.6437916 C26.3724754,20.3494608 26.4819246,20.097343 26.7003594,19.8872061 C26.8990841,19.6561947 27.1474319,19.540457 27.4454029,19.540457 C27.7234319,19.540457 27.9618087,19.6561947 28.1605333,19.8872061 C28.3792,20.097343 28.4884174,20.3494608 28.4884174,20.6437916 C28.4884174,20.958997 28.3792,21.2215521 28.1605333,21.431689 L28.1605333,21.431689 Z M39.4716058,10.8234875 C39.365171,10.710997 39.2390261,10.6546357 39.0927072,10.6546357 L38.9153159,10.6546357 L38.8856348,9.20826312 C38.8457507,7.98942281 38.2398377,7.38011863 37.0676638,7.38011863 L26.727258,7.38011863 C25.5550841,7.38011863 24.959142,7.98942281 24.9392,9.20826312 L24.9095188,10.6546357 L24.689229,10.6546357 C24.543142,10.6546357 24.4167652,10.710997 24.3103304,10.8234875 C24.2041275,10.9359779 24.1510261,11.069343 24.1510261,11.2240464 L24.1510261,12.1415977 C24.1510261,12.2960692 24.2041275,12.4296662 24.3103304,12.5421567 C24.4167652,12.6546471 24.543142,12.7110084 24.689229,12.7110084 L24.8675478,12.7110084 L24.7008232,20.8390844 C24.6648812,22.0208144 25.1536928,22.6646776 26.1640116,22.7743848 L26.1640116,23.7640692 C26.1640116,24.0584 26.3427942,24.2054494 26.7003594,24.2054494 L28.071258,24.2054494 C28.4288232,24.2054494 28.6076058,24.0584 28.6076058,23.7640692 L28.6076058,22.7931719 L35.1038377,22.7931719 L35.1038377,23.7956129 C35.1038377,24.0899437 35.2826203,24.2369932 35.6404174,24.2369932 L37.0110841,24.2369932 C37.3686493,24.2369932 37.5474319,24.0899437 37.5474319,23.7956129 L37.5474319,22.7836624 C38.6166493,22.701324 39.1425623,22.0535179 39.1240116,20.8390844 L38.957287,12.7110084 L39.0927072,12.7110084 C39.2390261,12.7110084 39.365171,12.6546471 39.4716058,12.5421567 C39.5778087,12.4296662 39.631142,12.2960692 39.631142,12.1415977 L39.631142,11.2240464 C39.631142,11.069343 39.5778087,10.9359779 39.4716058,10.8234875 L39.4716058,10.8234875 Z" id="Fill-15" fill="#4B3B62"></path>
                    </g>
                </g>
            </g>
        </g>
    </g>
</svg>