<?xml version="1.0" encoding="UTF-8" standalone="no"?>
<svg width="53px" height="37px" viewBox="0 0 53 37" version="1.1" xmlns="http://www.w3.org/2000/svg" xmlns:xlink="http://www.w3.org/1999/xlink">
    <!-- Generator: Sketch 3.7.2 (28276) - http://www.bohemiancoding.com/sketch -->
    <title>paymentComplete_paid</title>
    <desc>Created with Sketch.</desc>
    <defs>
        <polyline id="path-1" points="0 0.18526238 12.8596225 0.18526238 12.8596225 12.3825755 0 12.3825755"></polyline>
    </defs>
    <g id="Booking" stroke="none" stroke-width="1" fill="none" fill-rule="evenodd">
        <g id="4BookingSuccess" transform="translate(-59.000000, -153.000000)">
            <g id="Group" transform="translate(55.000000, 151.000000)">
                <g id="1" transform="translate(4.000000, 0.000000)">
                    <g id="paymentComplete_paid" transform="translate(0.000000, 2.000000)">
                        <g id="Page-1" transform="translate(11.203252, 9.410405)" fill="#4B3B62">
                            <path d="M38.2280084,0 L3.47527349,0 C1.558776,0 0,1.54685665 0,3.44869942 L0,24.140896 C0,26.0427387 1.558776,27.5895954 3.47527349,27.5895954 L38.2280084,27.5895954 C40.1445059,27.5895954 41.7032819,26.0427387 41.7032819,24.140896 L41.7032819,3.44869942 C41.7032819,1.54685665 40.1445059,0 38.2280084,0 L38.2280084,0 Z M39.3864329,24.140896 C39.3864329,24.7754566 38.8674588,25.2904624 38.2280084,25.2904624 L3.47527349,25.2904624 C2.83582317,25.2904624 2.316849,24.7754566 2.316849,24.140896 L2.316849,9.96290944 L2.316849,10.3460983 L39.3864329,10.3460983 L39.3864329,24.140896 Z M39.3864329,4.5982659 L2.316849,4.5982659 L2.316849,3.44869942 C2.316849,2.81413873 2.83582317,2.29913295 3.47527349,2.29913295 L38.2280084,2.29913295 C38.8674588,2.29913295 39.3864329,2.81413873 39.3864329,3.44869942 L39.3864329,4.5982659 Z" id="Fill-1"></path>
                            <path d="M11.584245,14.9443642 L23.7480111,14.9443642 C24.3874614,14.9443642 24.9058178,14.4293584 24.9058178,13.7947977 C24.9058178,13.160237 24.3874614,12.6452312 23.7480111,12.6452312 L11.584245,12.6452312 C10.9447947,12.6452312 10.4258205,13.160237 10.4258205,13.7947977 C10.4258205,14.4293584 10.9447947,14.9443642 11.584245,14.9443642" id="Fill-3"></path>
                            <path d="M27.2226668,14.9443642 L30.1190369,14.9443642 C30.7584873,14.9443642 31.2774614,14.4293584 31.2774614,13.7947977 C31.2774614,13.160237 30.7584873,12.6452312 30.1190369,12.6452312 L27.2226668,12.6452312 C26.5832165,12.6452312 26.0648601,13.160237 26.0648601,13.7947977 C26.0648601,14.4293584 26.5832165,14.9443642 27.2226668,14.9443642" id="Fill-5"></path>
                        </g>
                        <g id="Group-11">
                            <ellipse id="Oval-37" fill="#00C4A5" cx="11.9577379" cy="11.5491329" rx="11.9577379" ry="11.5491329"></ellipse>
                            <g id="Page-1" transform="translate(5.386179, 5.560694)">
                                <mask id="mask-2" fill="white">
                                    <use xlink:href="#path-1"></use>
                                </mask>
                                <g id="Clip-2"></g>
                                <path d="M12.3473382,0.435533282 C11.7800237,0.0223838865 10.9740475,0.132160181 10.546281,0.680089148 L4.36425381,8.60612812 L2.19534205,6.51132972 C1.69262396,6.02578988 0.87875813,6.02578988 0.377026242,6.51132972 C-0.125691851,6.99686955 -0.125691851,7.78292497 0.377026242,8.26751231 L4.63767919,12.3825755 L12.6005464,2.17480889 C13.0283129,1.62687992 12.9146528,0.84844455 12.3473382,0.435533282" id="Fill-1" fill="#4B3B62" mask="url(#mask-2)"></path>
                            </g>
                        </g>
                    </g>
                </g>
            </g>
        </g>
    </g>
</svg>