<?xml version="1.0" encoding="UTF-8" standalone="no"?>
<svg width="10px" height="10px" viewBox="0 0 10 10" version="1.1" xmlns="http://www.w3.org/2000/svg" xmlns:xlink="http://www.w3.org/1999/xlink">
    <!-- Generator: Sketch 3.7.2 (28276) - http://www.bohemiancoding.com/sketch -->
    <title>RoutePairSmallStart</title>
    <desc>Created with Sketch.</desc>
    <defs></defs>
    <g id="Main" stroke="none" stroke-width="1" fill="none" fill-rule="evenodd" stroke-linejoin="round">
        <g id="1MainTabList" transform="translate(-79.000000, -280.000000)">
            <g id="Group-6" transform="translate(0.000000, 207.000000)">
                <g id="Route" transform="translate(80.000000, 74.000000)">
                    <g id="Location-+-Journey-Line-+-Location">
                        <g id="RoutePairSmallStart">
                            <path d="M7.98432602,3.93055556 C7.98432602,6.10124758 6.19722557,7.86111111 3.99216301,7.86111111 C1.78710045,7.86111111 0,6.10124758 0,3.93055556 C0,1.75952174 1.78710045,0 3.99216301,0 C6.19722557,0 7.98432602,1.75952174 7.98432602,3.93055556 L7.98432602,3.93055556 Z" id="Stroke-365" stroke="#777777"></path>
                            <path d="M3.99216301,5.12681159 C3.32113248,5.12681159 2.77715688,4.59123068 2.77715688,3.93055556 C2.77715688,3.26988043 3.32113248,2.73429952 3.99216301,2.73429952 C4.66354068,2.73429952 5.20716914,3.26988043 5.20716914,3.93055556 C5.20716914,4.59123068 4.66354068,5.12681159 3.99216301,5.12681159 Z" id="Stroke-972" stroke="#00C4A5" stroke-linecap="round" fill="#00C4A5"></path>
                        </g>
                    </g>
                </g>
            </g>
        </g>
    </g>
</svg>