<?xml version="1.0" encoding="UTF-8" standalone="no"?>
<svg width="140px" height="153px" viewBox="0 0 140 153" version="1.1" xmlns="http://www.w3.org/2000/svg" xmlns:xlink="http://www.w3.org/1999/xlink">
    <!-- Generator: Sketch 3.7.2 (28276) - http://www.bohemiancoding.com/sketch -->
    <title>suggestRoute</title>
    <desc>Created with Sketch.</desc>
    <defs></defs>
    <g id="Routes" stroke="none" stroke-width="1" fill="none" fill-rule="evenodd">
        <g id="2SearchResultsYesRoutes" transform="translate(-203.000000, -569.000000)">
            <g id="Group-3" transform="translate(0.000000, 527.000000)">
                <g id="suggestRoute" transform="translate(203.000000, 42.000000)">
                    <polyline id="Fill-1" fill="#BFB4A5" points="83.5440204 134.059667 60.5120611 125.720812 61.100916 124.0983 84.1325191 132.437867 83.5440204 134.059667"></polyline>
                    <polyline id="Fill-2" fill="#BFB4A5" points="60.2865649 134.902591 59.5990331 133.320286 81.4792875 123.830728 82.1668193 125.413388 60.2865649 134.902591"></polyline>
                    <path d="M59.740458,122.217467 L56.275369,148.985707 C56.1909415,149.54896 56.5699746,150.076988 57.130687,150.17804 L57.1509924,150.181598 C57.6995929,150.28087 58.2303817,149.936086 58.3629008,149.395249 L64.4716031,122.823063 L59.740458,122.217467" id="Fill-3" fill="#BFB4A5"></path>
                    <path d="M83.6223919,121.171374 L88.8871756,148.927353 C89.0025954,149.484914 88.6538422,150.032867 88.0991858,150.16523 L88.0795929,150.169856 C87.5370483,150.299016 86.9877354,149.984121 86.8256489,149.451467 L78.2243766,122.033867 L83.6223919,121.171374" id="Fill-4" fill="#BFB4A5"></path>
                    <path d="M97.2985751,124.600709 L51.8541476,124.600709 L55.362341,91.4726512 C55.640916,88.8421186 57.8752163,86.8534744 60.5238168,86.8794488 L89.3627481,87.1512907 C92.0081425,87.1769093 94.2018321,89.2050488 94.4323155,91.8373605 L97.2985751,124.600709" id="Fill-5" fill="#EDE3CE"></path>
                    <path d="M98.4004071,122.24024 C98.4004071,123.543942 97.3420356,124.600709 96.0371501,124.600709 L49.1357252,124.600709 C47.8308397,124.600709 46.7728244,123.543942 46.7728244,122.24024 C46.7728244,120.936537 47.8308397,119.87977 49.1357252,119.87977 L96.0371501,119.87977 C97.3420356,119.87977 98.4004071,120.936537 98.4004071,122.24024" id="Fill-6" fill="#EDE3CE"></path>
                    <path d="M54.6983206,75.057886 C55.1044275,74.1744 55.9960814,73.6036744 56.9689567,73.6036744 L69.5504326,73.6036744 C71.7109924,73.6036744 73.4622392,71.8541372 73.4622392,69.6961256 C73.4622392,67.538114 71.7109924,65.7885767 69.5504326,65.7885767 L56.9689567,65.7885767 C52.9484987,65.7885767 49.2661069,68.1469116 47.5882443,71.7961395 L46.6313995,73.8769395 L53.7047837,77.2183884 L54.6983206,75.057886" id="Fill-7" fill="#FFE76D"></path>
                    <path d="M94.4251908,75.057886 C94.0187277,74.1744 93.12743,73.6036744 92.1541985,73.6036744 L79.5730789,73.6036744 C77.4125191,73.6036744 75.660916,71.8541372 75.660916,69.6961256 C75.660916,67.538114 77.4125191,65.7885767 79.5730789,65.7885767 L92.1541985,65.7885767 C96.1750127,65.7885767 99.8570483,68.1469116 101.535267,71.7961395 L102.491756,73.8769395 L95.4183715,77.2183884 L94.4251908,75.057886" id="Fill-8" fill="#FFE76D"></path>
                    <path d="M92.5574555,105.7536 L57.0875827,105.7536 L57.0875827,70.8468279 C57.0875827,64.7083256 62.0695165,59.7322674 68.2152672,59.7322674 L81.429771,59.7322674 C87.5751654,59.7322674 92.5574555,64.7083256 92.5574555,70.8468279 L92.5574555,105.7536" id="Fill-9" fill="#FFE76D"></path>
                    <path d="M100.439491,69.9565814 C97.1361323,63.1836628 85.182341,58.8854302 74.5327226,58.711793 C64.4495165,58.547407 53.6680916,61.8379744 48.6259542,69.9999907 L100.439491,69.9565814" id="Fill-10" fill="#FFE76D"></path>
                    <path d="M59.3404071,54.5267093 C59.3404071,54.5267093 55.2152163,53.9207581 55.821883,57.9197512 C56.4285496,61.9191 59.9470738,62.1614093 59.9470738,62.1614093 L59.3404071,54.5267093" id="Fill-11" fill="#F7C985"></path>
                    <path d="M88.8237659,61.5554581 L89.0667176,53.9207581 C89.0667176,53.9207581 92.3426463,53.4357837 92.3426463,56.4655395 C92.3426463,59.7376047 90.5226463,61.3131488 88.8237659,61.5554581" id="Fill-12" fill="#F7C985"></path>
                    <path d="M74.1016794,37.8820884 C68.332112,37.5785791 58.0077354,40.3083837 58.6906361,53.5393256 C59.5074809,69.3684209 62.1578626,77.6151209 75.4496692,77.3105442 C88.7414758,77.0056116 89.3164377,64.525793 89.6085496,56.2819395 C90.1952672,39.7017209 79.8712468,38.1852419 74.1016794,37.8820884" id="Fill-13" fill="#F7C985"></path>
                    <path d="M67.5451908,59.2124233 C67.5451908,60.3784256 66.5131807,61.3231116 65.24,61.3231116 C63.9668193,61.3231116 62.9344529,60.3784256 62.9344529,59.2124233 C62.9344529,58.0467767 63.9668193,57.1017349 65.24,57.1017349 C66.5131807,57.1017349 67.5451908,58.0467767 67.5451908,59.2124233" id="Fill-14" fill="#272C44"></path>
                    <path d="M85.998117,59.5358581 C85.998117,60.7015047 84.9661069,61.6465465 83.6929262,61.6465465 C82.4197455,61.6465465 81.3877354,60.7015047 81.3877354,59.5358581 C81.3877354,58.3698558 82.4197455,57.424814 83.6929262,57.424814 C84.9661069,57.424814 85.998117,58.3698558 85.998117,59.5358581" id="Fill-15" fill="#272C44"></path>
                    <path d="M74.2402545,71.2172302 C71.2895674,71.2172302 69.2430025,70.7799349 69.1108397,70.7507581 L69.3238677,69.7804535 C69.3733842,69.7911279 74.2683969,70.8325953 79.7910941,69.6584093 L79.9980662,70.630493 C77.9098219,71.074193 75.9273791,71.2172302 74.2402545,71.2172302" id="Fill-16" fill="#272C44"></path>
                    <path d="M58.7743511,54.4459395 C58.7743511,54.4459395 64.1937405,46.2049326 63.951145,39.8223419 C60.4728753,41.5188628 56.3476845,41.8422977 58.7743511,54.4459395" id="Fill-17" fill="#666666"></path>
                    <path d="M84.7391858,38.2873605 C84.7391858,38.2873605 81.5843766,43.2965093 89.5925191,53.8801953 C89.5925191,53.8801953 90.6961323,50.7358674 89.309313,45.1951326 C87.9745038,39.8629047 84.7391858,38.2873605 84.7391858,38.2873605" id="Fill-18" fill="#666666"></path>
                    <path d="M88.0959796,42.1653767 C88.0959796,42.1653767 85.3052417,45.9220605 73.0507888,46.7706767 C66.3924173,47.2314558 55.5792875,44.4678488 55.821883,39.8629047 C56.0338422,35.8397163 61.645598,33.6820605 61.645598,33.6820605 L60.3920102,38.6104395 C60.3920102,38.6104395 65.8520102,35.2173977 72.7679389,35.3789372 C81.2780153,35.5778372 84.9411705,36.8331488 88.0959796,42.1653767" id="Fill-19" fill="#666666"></path>
                    <path d="M80.2559796,97.0486116 L69.3890585,97.0486116 C68.4286514,97.0486116 67.6502799,96.2711581 67.6502799,95.3118837 L67.6502799,74.4811116 C67.6502799,73.5218372 68.4286514,72.7443837 69.3890585,72.7443837 L80.2559796,72.7443837 C81.2163868,72.7443837 81.9947583,73.5218372 81.9947583,74.4811116 L81.9947583,95.3118837 C81.9947583,96.2711581 81.2163868,97.0486116 80.2559796,97.0486116" id="Fill-20" fill="#6A6C75"></path>
                    <path d="M73.4316031,75.4453674 C73.4316031,76.0406442 72.9481934,76.5234837 72.3518575,76.5234837 L70.1927226,76.5234837 C69.5963868,76.5234837 69.1129771,76.0406442 69.1129771,75.4453674 C69.1129771,74.8497349 69.5963868,74.3668953 70.1927226,74.3668953 L72.3518575,74.3668953 C72.9481934,74.3668953 73.4316031,74.8497349 73.4316031,75.4453674" id="Fill-21" fill="#BFB4A5"></path>
                    <path d="M70.8945038,75.4094302 C70.8945038,75.6773581 70.6768448,75.8944047 70.4086005,75.8944047 C70.1403562,75.8944047 69.9226972,75.6773581 69.9226972,75.4094302 C69.9226972,75.1411465 70.1403562,74.9241 70.4086005,74.9241 C70.6768448,74.9241 70.8945038,75.1411465 70.8945038,75.4094302" id="Fill-22" fill="#272C44"></path>
                    <path d="M72.8466667,75.4361163 C72.8466667,75.8082977 72.5445802,76.1103837 72.1719593,76.1103837 C71.7993384,76.1103837 71.4972519,75.8082977 71.4972519,75.4361163 C71.4972519,75.0639349 71.7993384,74.7622047 72.1719593,74.7622047 C72.5445802,74.7622047 72.8466667,75.0639349 72.8466667,75.4361163" id="Fill-23" fill="#FFFFFF"></path>
                    <path d="M77.1043766,82.4090023 C77.1043766,83.6675163 76.0826972,84.6883465 74.822341,84.6883465 C73.562341,84.6883465 72.5403053,83.6675163 72.5403053,82.4090023 C72.5403053,81.1501326 73.562341,80.1293023 74.822341,80.1293023 C76.0826972,80.1293023 77.1043766,81.1501326 77.1043766,82.4090023" id="Fill-24" fill="#BFB4A5"></path>
                    <path d="M69.0285496,89.2338698 L48.1959796,89.1997116 L53.7047837,77.2183884 L46.6313995,73.8769395 L41.0859033,85.9376093 C39.9644784,88.376714 40.1607634,91.1815953 41.6109924,93.4406581 C43.0612214,95.6997209 45.5309924,97.0486116 48.2177099,97.0486116 L69.0285496,97.0486116 C71.1891094,97.0486116 72.9407125,95.2990744 72.9407125,93.1410628 C72.9407125,90.9830512 71.1891094,89.2338698 69.0285496,89.2338698" id="Fill-25" fill="#F7C985"></path>
                    <path d="M80.0946056,89.2338698 L100.927532,89.1997116 L95.4183715,77.2183884 L102.491756,73.8769395 L108.037608,85.9376093 C109.159033,88.376714 108.962748,91.1815953 107.512519,93.4406581 C106.06229,95.6997209 103.592163,97.0486116 100.905445,97.0486116 L80.0946056,97.0486116 C77.9340458,97.0486116 76.182799,95.2990744 76.182799,93.1410628 C76.182799,90.9830512 77.9340458,89.2338698 80.0946056,89.2338698" id="Fill-26" fill="#F7C985"></path>
                    <path d="M86.7597455,119.820705 L62.8974046,119.820705 C59.6866667,119.820705 57.0836641,117.215791 57.0836641,114.002791 L57.0836641,105.579963 L92.573486,105.579963 L92.573486,114.002791 C92.573486,117.215791 89.9704835,119.820705 86.7597455,119.820705" id="Fill-27" fill="#261E3D"></path>
                    <path d="M54.1294148,147.100249 L43.8335369,147.100249 L43.8335369,114.577786 C43.8335369,111.7665 46.1155725,109.487512 48.9301781,109.487512 L49.0331298,109.487512 C51.8477354,109.487512 54.1294148,111.7665 54.1294148,114.577786 L54.1294148,147.100249" id="Fill-28" fill="#261E3D"></path>
                    <path d="M54.1294148,145.827147 L43.1755725,145.696919 C43.1755725,145.696919 35.6120102,145.696919 35.7423919,152.730293 L54.1294148,152.730293 L54.1294148,145.827147" id="Fill-29" fill="#595959"></path>
                    <path d="M69.4937913,109.487512 L69.4937913,119.771247 L48.9301781,119.771247 C46.1155725,119.771247 43.8335369,117.491902 43.8335369,114.680616 L43.8335369,114.577786 C43.8335369,111.7665 46.1155725,109.487512 48.9301781,109.487512 L69.4937913,109.487512" id="Fill-30" fill="#261E3D"></path>
                    <path d="M78.6322646,147.100249 L68.3363868,147.100249 L68.3363868,114.577786 C68.3363868,111.7665 70.6184224,109.487512 73.433028,109.487512 L73.5359796,109.487512 C76.3505852,109.487512 78.6322646,111.7665 78.6322646,114.577786 L78.6322646,147.100249" id="Fill-31" fill="#261E3D"></path>
                    <path d="M78.6322646,145.827147 L67.6784224,145.696919 C67.6784224,145.696919 60.1148601,145.696919 60.2452417,152.730293 L78.6322646,152.730293 L78.6322646,145.827147" id="Fill-32" fill="#595959"></path>
                    <polyline id="Fill-33" fill="#BFB4A5" points="117.371298 152.730293 126.44173 152.730293 126.44173 100.754414 124.282595 100.754414 124.282595 150.573705 119.067328 150.573705 106.833893 100.49894 104.736387 101.010244 117.371298 152.730293"></polyline>
                    <polyline id="Fill-34" fill="#BFB4A5" points="13.9743511 152.730293 23.0440712 152.730293 35.6793384 101.010244 33.5818321 100.49894 21.3487532 150.573705 16.133486 150.573705 16.133486 100.754414 13.9743511 100.754414 13.9743511 152.730293"></polyline>
                    <polygon id="Fill-35" fill="#EDE3CE" points="0.236183206 96.7287349 139.707532 96.7287349 139.707532 101.617263 0.236183206 101.617263"></polygon>
                    <path d="M24.8377099,39.8113116 L43.1684478,39.8113116 C49.0398982,39.8113116 53.8002545,35.0569256 53.8002545,29.1920442 L53.8002545,10.8829256 C53.8002545,5.0184 49.0398982,0.264013953 43.1684478,0.264013953 L24.8377099,0.264013953 C18.9659033,0.264013953 14.2059033,5.0184 14.2059033,10.8829256 L14.2059033,29.1920442 C14.2059033,35.0569256 18.9659033,39.8113116 24.8377099,39.8113116" id="Fill-36" fill="#EDE3CE"></path>
                    <polyline id="Fill-37" fill="#EDE3CE" points="39.6242748 36.8818953 45.0012723 47.623207 24.9598982 36.8818953 39.6242748 36.8818953"></polyline>
                    <path d="M18.9242239,10.3805163 C18.9242239,13.291786 23.2218321,17.665807 23.2218321,17.665807 C23.2218321,17.665807 27.5197964,13.291786 27.5197964,10.3805163 C27.5197964,8.00972791 25.5954198,6.08797674 23.2218321,6.08797674 C20.8482443,6.08797674 18.9242239,8.00972791 18.9242239,10.3805163 L18.9242239,10.3805163 Z M21.4435115,10.331414 C21.4435115,9.35043488 22.2396947,8.5551907 23.2218321,8.5551907 C24.2039695,8.5551907 25.0001527,9.35043488 25.0001527,10.331414 C25.0001527,11.312393 24.2039695,12.1076372 23.2218321,12.1076372 C22.2396947,12.1076372 21.4435115,11.312393 21.4435115,10.331414 L21.4435115,10.331414 Z" id="Fill-38" fill="#BFB4A5"></path>
                    <path d="M39.5359288,24.3302023 C39.5359288,27.2414721 43.8335369,31.615493 43.8335369,31.615493 C43.8335369,31.615493 48.1315013,27.2414721 48.1315013,24.3302023 C48.1315013,21.959414 46.2071247,20.0376628 43.8335369,20.0376628 C41.4599491,20.0376628 39.5359288,21.959414 39.5359288,24.3302023 L39.5359288,24.3302023 Z M42.0552163,24.2807442 C42.0552163,23.2997651 42.8513995,22.5045209 43.8335369,22.5045209 C44.8156743,22.5045209 45.6122137,23.2997651 45.6122137,24.2807442 C45.6122137,25.2617233 44.8156743,26.0569674 43.8335369,26.0569674 C42.8513995,26.0569674 42.0552163,25.2617233 42.0552163,24.2807442 L42.0552163,24.2807442 Z" id="Fill-39" fill="#BFB4A5"></path>
                    <path id="Stroke-40" stroke="#BFB4A5" stroke-width="3"></path>
                    <path d="M25.9708906,18.6001744 C29.6165903,18.9940605 38.041883,18.2731814 34.9807634,22.5938302 C27.4047328,33.2860395 36.8046819,31.7951791 40.8696692,31.5055465" id="Stroke-41" stroke="#BFB4A5" stroke-width="3" stroke-dasharray="2.966,1.977"></path>
                    <path id="Stroke-42" stroke="#BFB4A5" stroke-width="3"></path>
                </g>
            </g>
        </g>
    </g>
</svg>