<?xml version="1.0" encoding="UTF-8" standalone="no"?>
<svg width="19px" height="20px" viewBox="0 0 19 20" version="1.1" xmlns="http://www.w3.org/2000/svg" xmlns:xlink="http://www.w3.org/1999/xlink">
    <!-- Generator: Sketch 3.8.3 (29802) - http://www.bohemiancoding.com/sketch -->
    <title>ticketdetail_moreinfo_normal</title>
    <desc>Created with Sketch.</desc>
    <defs></defs>
    <g id="Tickets" stroke="none" stroke-width="1" fill="none" fill-rule="evenodd">
        <g id="Artboard-5" transform="translate(-3.000000, -3.000000)">
            <g id="Group-11">
                <g id="ticketdetail_moreinfo_normal" transform="translate(1.000000, 1.000000)">
                    <rect id="Rectangle-48" x="0" y="0" width="22" height="22"></rect>
                    <g id="Group" transform="translate(3.000000, 3.000000)" stroke="#493762" stroke-linecap="round" stroke-linejoin="round">
                        <path d="M14.3366667,16.1242105 L3.04111111,16.1242105 C2.56061556,16.1242105 2.17222222,15.7337432 2.17222222,15.2526316 L2.17222222,3.48631579 C2.17222222,1.80068211 3.53290222,0.435789474 5.21333333,0.435789474 L12.1644444,0.435789474 C13.8440067,0.435789474 15.2055556,1.80068211 15.2055556,3.48631579 L15.2055556,15.2526316 C15.2055556,15.7337432 14.8162933,16.1242105 14.3366667,16.1242105 Z" id="Stroke-1433"></path>
                        <polygon id="Stroke-1434" points="4.77888889 17.8673684 3.04111111 17.8673684 3.04111111 16.1242105 4.77888889 16.1242105"></polygon>
                        <polygon id="Stroke-1435" points="14.3366667 17.8673684 12.5988889 17.8673684 12.5988889 16.1242105 14.3366667 16.1242105"></polygon>
                        <polygon id="Stroke-1436" points="15.2055556 10.8947368 2.17222222 10.8947368 2.17222222 5.66526316 15.2055556 5.66526316"></polygon>
                        <polygon id="Stroke-1437" points="10.8611111 3.92210526 6.51666667 3.92210526 6.51666667 2.17894737 10.8611111 2.17894737"></polygon>
                        <path d="M3.91,13.5094737 L6.51666667,13.5094737" id="Stroke-1438"></path>
                        <path d="M10.8611111,13.5094737 L13.4677778,13.5094737" id="Stroke-1439"></path>
                        <polygon id="Stroke-1440" points="0.434444444 7.40842105 2.17222222 7.40842105 2.17222222 3.92210526 0.434444444 3.92210526"></polygon>
                        <polygon id="Stroke-1441" points="15.2055556 7.40842105 16.9433333 7.40842105 16.9433333 3.92210526 15.2055556 3.92210526"></polygon>
                    </g>
                </g>
            </g>
        </g>
    </g>
</svg>