<?xml version="1.0" encoding="UTF-8" standalone="no"?>
<svg width="94px" height="86px" viewBox="0 0 94 86" version="1.1" xmlns="http://www.w3.org/2000/svg" xmlns:xlink="http://www.w3.org/1999/xlink">
    <!-- Generator: Sketch 3.8.3 (29802) - http://www.bohemiancoding.com/sketch -->
    <title>CancelledTrip</title>
    <desc>Created with Sketch.</desc>
    <defs></defs>
    <g id="Tickets" stroke="none" stroke-width="1" fill="none" fill-rule="evenodd" stroke-linejoin="round">
        <g id="CancelledTrip" transform="translate(2.000000, 2.000000)">
            <path d="M12.7723083,81.8616311 C7.24532339,81.8616311 4.89553243,77.9277735 7.53111082,73.0618071 L43.4384621,6.76745385 C46.0708136,1.90744521 50.3354716,1.90148746 52.97105,6.76745385 L88.8784013,73.0618071 C91.5107527,77.9218157 89.1689462,81.8616311 83.6372038,81.8616311 L12.7723083,81.8616311 Z" id="Stroke-1379" stroke="#FFE76E" stroke-width="3" stroke-linecap="round" fill="#FFE76E"></path>
            <path d="M6.10564162,78.5282978 C0.578656727,78.5282978 -1.77113424,74.5944401 0.86444415,69.7284737 L36.7717954,3.43412051 C39.4041469,-1.42588812 43.6688049,-1.43184587 46.3043833,3.43412051 L82.2117346,69.7284737 C84.8440861,74.5884824 82.5022795,78.5282978 76.9705371,78.5282978 L6.10564162,78.5282978 Z" id="Stroke-1379" stroke="#493762" stroke-width="3" stroke-linecap="round"></path>
            <g id="Group-10" transform="translate(40.000000, 24.444444)" stroke="#493762">
                <path d="M1.11111111,28.8888889 L1.11111111,0" id="Stroke-1378" stroke-width="5" stroke-linecap="round"></path>
                <path d="M2.22222222,40 C2.22222222,40.6133333 1.72444444,41.1111111 1.11111111,41.1111111 C0.497777778,41.1111111 0,40.6133333 0,40 C0,39.3866667 0.497777778,38.8888889 1.11111111,38.8888889 C1.72444444,38.8888889 2.22222222,39.3866667 2.22222222,40 L2.22222222,40 Z" id="Stroke-1380" stroke-width="3" fill="#493762"></path>
            </g>
        </g>
    </g>
</svg>