<?xml version="1.0" encoding="UTF-8" standalone="no"?>
<svg width="22px" height="21px" viewBox="0 0 22 21" version="1.1" xmlns="http://www.w3.org/2000/svg" xmlns:xlink="http://www.w3.org/1999/xlink">
    <!-- Generator: Sketch 3.8.3 (29802) - http://www.bohemiancoding.com/sketch -->
    <title>TicketDetail_Ticket</title>
    <desc>Created with Sketch.</desc>
    <defs></defs>
    <g id="Tickets" stroke="none" stroke-width="1" fill="none" fill-rule="evenodd">
        <g id="Artboard-5" transform="translate(-1.000000, -2.000000)">
            <g id="Group-11">
                <g id="TicketDetail_Ticket">
                    <rect id="Rectangle-48" x="0" y="0" width="25" height="25"></rect>
                    <g transform="translate(12.318521, 12.217833) rotate(-45.000000) translate(-12.318521, -12.217833) translate(3.818521, 6.717833)" id="Group-2">
                        <g transform="translate(0.000000, 0.000000)">
                            <path d="M16.7224855,7.63417819 C15.5177395,7.63417819 14.5412918,6.65773044 14.5412918,5.45298442 C14.5412918,4.24896546 15.5177395,3.27179065 16.7224855,3.27179065 L16.7224855,2.13162821e-14 L-1.95399252e-14,2.13162821e-14 L-1.95399252e-14,3.27179065 C1.20401896,3.27179065 2.18119377,4.24896546 2.18119377,5.45298442 C2.18119377,6.65773044 1.20401896,7.63417819 -1.95399252e-14,7.63417819 L-1.95399252e-14,10.9059688 L16.7224855,10.9059688 L16.7224855,7.63417819 L16.7224855,7.63417819 Z" id="Stroke-54" stroke="#493762" stroke-linecap="round" stroke-linejoin="round"></path>
                            <polygon id="Fill-55" fill="#493762" points="6.90696818 1.09052418 6.17990359 1.09052418 6.17990359 1.81758877 6.90696818 1.81758877"></polygon>
                            <polygon id="Fill-56" fill="#493762" points="6.90696818 2.54465336 6.17990359 2.54465336 6.17990359 3.27171794 6.90696818 3.27171794"></polygon>
                            <polygon id="Fill-57" fill="#493762" points="6.90696818 3.99878253 6.17990359 3.99878253 6.17990359 4.72584712 6.90696818 4.72584712"></polygon>
                            <polygon id="Fill-58" fill="#493762" points="6.90696818 6.1799763 6.17990359 6.1799763 6.17990359 6.90704089 6.90696818 6.90704089"></polygon>
                            <polygon id="Fill-59" fill="#493762" points="6.90696818 7.63410548 6.17990359 7.63410548 6.17990359 8.36117007 6.90696818 8.36117007"></polygon>
                            <polygon id="Fill-60" fill="#493762" points="6.90696818 9.08823466 6.17990359 9.08823466 6.17990359 9.81529925 6.90696818 9.81529925"></polygon>
                        </g>
                    </g>
                </g>
            </g>
        </g>
    </g>
</svg>