<?xml version="1.0" encoding="UTF-8"?>
<svg width="25px" height="25px" viewBox="0 0 25 25" version="1.1" xmlns="http://www.w3.org/2000/svg" xmlns:xlink="http://www.w3.org/1999/xlink">
    <!-- Generator: Sketch 48.2 (47327) - http://www.bohemiancoding.com/sketch -->
    <title>Icon_NormalWShadow</title>
    <desc>Created with Sketch.</desc>
    <defs>
        <circle id="path-1" cx="12.5" cy="12.5" r="6.5"></circle>
        <filter x="-53.8%" y="-38.5%" width="207.7%" height="207.7%" filterUnits="objectBoundingBox" id="filter-2">
            <feOffset dx="0" dy="2" in="SourceAlpha" result="shadowOffsetOuter1"></feOffset>
            <feGaussianBlur stdDeviation="2" in="shadowOffsetOuter1" result="shadowBlurOuter1"></feGaussianBlur>
            <feColorMatrix values="0 0 0 0 0   0 0 0 0 0   0 0 0 0 0  0 0 0 0.5 0" type="matrix" in="shadowBlurOuter1"></feColorMatrix>
        </filter>
    </defs>
    <g id="Symbols" stroke="none" stroke-width="1" fill="none" fill-rule="evenodd">
        <g id="Icon_NormalWShadow">
            <g id="Oval">
                <use fill="black" fill-opacity="1" filter="url(#filter-2)" xlink:href="#path-1"></use>
                <use fill="#FFFFFF" fill-rule="evenodd" xlink:href="#path-1"></use>
            </g>
            <g id="icon_normal" transform="translate(5.000000, 5.000000)" fill="#493762">
                <path d="M7.5,3.08984375 C8.68490176,3.11588555 9.66796484,3.51952734 10.4492188,4.30078125 C11.2304727,5.08203516 11.6341145,6.06509824 11.6601562,7.25 C11.6341145,8.43490176 11.2304727,9.41796484 10.4492188,10.1992188 C9.66796484,10.9804727 8.68490176,11.3841145 7.5,11.4101562 C6.31509824,11.3841145 5.33203516,10.9804727 4.55078125,10.1992188 C3.76952734,9.41796484 3.36588555,8.43490176 3.33984375,7.25 C3.36588555,6.06509824 3.76952734,5.08203516 4.55078125,4.30078125 C5.33203516,3.51952734 6.31509824,3.11588555 7.5,3.08984375 Z" id="ï¤"></path>
            </g>
        </g>
    </g>
</svg>