<?xml version="1.0" encoding="utf-8"?>
<!-- Generator: Adobe Illustrator 19.2.1, SVG Export Plug-In . SVG Version: 6.00 Build 0)  -->
<svg width="26px" height="27px" version="1.1" id="Layer_1" xmlns="http://www.w3.org/2000/svg" xmlns:xlink="http://www.w3.org/1999/xlink" x="0px" y="0px"
	 viewBox="0 0 19 26" style="enable-background:new 0 0 19 26;" xml:space="preserve">
<style type="text/css">
	.st0{fill:none;stroke:#00B140;stroke-linecap:round;stroke-linejoin:round;}
	.st1{fill:#00B140;stroke:#00B140;stroke-linecap:round;stroke-linejoin:round;}
</style>
<title>MenuSuggestActive</title>
<desc>Created with Sketch.</desc>
<path id="Stroke-220" class="st0" d="M7.3,8.9h4.2"/>
<path id="Stroke-222" class="st0" d="M9.4,11V6.8"/>
<path class="st1" d="M9.5,1C4.8,1,1,5,1,10c0,5,8.5,15.7,8.5,15.7s8.5-10.7,8.5-15.7C18.1,5,14.3,1,9.5,1z M9.4,14c-2.8,0-5-2.3-5-5
	c0-2.8,2.2-5,5-5c2.8,0,5,2.3,5,5C14.4,11.7,12.2,14,9.4,14z"/>
</svg>
