<?xml version="1.0" encoding="UTF-8" standalone="no"?>
<svg width="30px" height="30px" viewBox="0 0 30 30" version="1.1" xmlns="http://www.w3.org/2000/svg" xmlns:xlink="http://www.w3.org/1999/xlink">
    <!-- Generator: Sketch 40.2 (33826) - http://www.bohemiancoding.com/sketch -->
    <title>MenuTicketsActive</title>
    <desc>Created with Sketch.</desc>
    <defs></defs>
    <g id="Add-Payment-Method" stroke="none" stroke-width="1" fill="none" fill-rule="evenodd">
        <g id="Main_Settings_Payment-Method-Added" transform="translate(-125.000000, -926.000000)">
            <g id="Menu-Bar" transform="translate(0.000000, 914.000000)">
                <g id="Icons" transform="translate(27.000000, 12.500000)">
                    <g id="MenuTickets" transform="translate(113.540585, 14.500000) rotate(-45.000000) translate(-113.540585, -14.500000) translate(101.040585, 6.500000)">
                        <g id="MenuTicketsActive" transform="translate(0.117749, 0.117749)">
                            <g transform="translate(0.000000, -0.000000)">
                                <path d="M20.8695652,7.5 C20.8695652,5.844 22.2709565,4.5 24,4.5 L24,-8.52651283e-14 L-1.13686838e-13,-8.52651283e-14 L-1.13686838e-13,4.5 C1.728,4.5 3.13043478,5.844 3.13043478,7.5 C3.13043478,9.157 1.728,10.5 -1.13686838e-13,10.5 L-1.13686838e-13,15 L24,15 L24,10.5 C22.2709565,10.5 20.8695652,9.157 20.8695652,7.5 Z" id="Combined-Shape" stroke="#FFE76E" stroke-width="1.026" stroke-linecap="round" stroke-linejoin="round" fill="#FFE76E"></path>
                                <g id="Group-2" transform="translate(8.000000, 1.000000)" fill="#493861">
                                    <path d="M1.91283478,11.4999 L0.869356522,11.4999 L0.869356522,12.4999 L1.91283478,12.4999 L1.91283478,11.4999 Z M1.91283478,9.4999 L0.869356522,9.4999 L0.869356522,10.4999 L1.91283478,10.4999 L1.91283478,9.4999 Z M1.91283478,7.4999 L0.869356522,7.4999 L0.869356522,8.4999 L1.91283478,8.4999 L1.91283478,7.4999 Z M1.91283478,4.4999 L0.869356522,4.4999 L0.869356522,5.4999 L1.91283478,5.4999 L1.91283478,4.4999 Z M1.91283478,2.4999 L0.869356522,2.4999 L0.869356522,3.4999 L1.91283478,3.4999 L1.91283478,2.4999 Z M1.91283478,0.4999 L0.869356522,0.4999 L0.869356522,1.4999 L1.91283478,1.4999 L1.91283478,0.4999 Z" id="Combined-Shape"></path>
                                </g>
                            </g>
                        </g>
                    </g>
                </g>
            </g>
        </g>
    </g>
</svg>