<?xml version="1.0" encoding="UTF-8" standalone="no"?>
<svg width="220px" height="40px" viewBox="0 0 220 40" version="1.1" xmlns="http://www.w3.org/2000/svg" xmlns:xlink="http://www.w3.org/1999/xlink">
    <!-- Generator: Sketch 3.7.2 (28276) - http://www.bohemiancoding.com/sketch -->
    <title>ProgressBar03_ReviewBooking</title>
    <desc>Created with Sketch.</desc>
    <defs></defs>
    <g id="Booking" stroke="none" stroke-width="1" fill="none" fill-rule="evenodd">
        <g id="ProgressBar03_ReviewBooking">
            <path d="M140.683941,20.0942983 L193.529661,20.0942982" id="Line3" stroke="#BDBDBD" stroke-width="5" stroke-linecap="square"></path>
            <path d="M92.9134634,20.0942982 L125.632015,20.0942982" id="Line2" stroke="#493762" stroke-width="5" stroke-linecap="square"></path>
            <path d="M35.0187266,20.0942982 L67.7372786,20.0942982" id="Line1" stroke="#493762" stroke-width="5" stroke-linecap="square"></path>
            <ellipse id="Bubble1" fill="#493762" cx="19.7752809" cy="19.6842105" rx="19.7752809" ry="19.6842105"></ellipse>
            <g id="ProgressBar_Icon1_ChooseDates" transform="translate(9.887640, 9.842105)" stroke-linecap="round" stroke-linejoin="round">
                <path d="M15.536367,6.03321053 C15.536367,9.13921491 9.88805243,17.6534561 9.88805243,17.6534561 C9.88805243,17.6534561 4.23891386,9.13921491 4.23891386,6.03321053 C4.23891386,2.92802632 6.76685393,0.410087719 9.88805243,0.410087719 C13.006779,0.410087719 15.536367,2.92802632 15.536367,6.03321053 L15.536367,6.03321053 Z" id="Stroke-1780" stroke="#FFFFFF" fill="#FFFFFF"></path>
                <path d="M12.7715356,5.74122807 C12.7715356,7.32662719 11.4803745,8.61184211 9.88764045,8.61184211 C8.2940824,8.61184211 7.00374532,7.32662719 7.00374532,5.74122807 C7.00374532,4.15582895 8.2940824,2.87061404 9.88764045,2.87061404 C11.4803745,2.87061404 12.7715356,4.15582895 12.7715356,5.74122807 L12.7715356,5.74122807 Z" id="Stroke-1779" stroke="#493762" fill="#493762"></path>
                <path d="M14.0074906,16.1563899 C17.1781273,16.4221268 19.3632959,16.9839469 19.3632959,17.6335259 C19.3632959,18.5398197 15.1214981,19.2738768 9.88764045,19.2738768 C4.65460674,19.2738768 0.411985019,18.5398197 0.411985019,17.6335259 C0.411985019,16.9855873 2.58314607,16.4262276 5.73318352,16.1588504" id="Stroke-1781" stroke="#FFFFFF"></path>
            </g>
            <path d="M79.9250936,39.3684211 C90.8466797,39.3684211 99.7003745,30.5554998 99.7003745,19.6842105 C99.7003745,8.81292124 90.8466797,0 79.9250936,0 C69.0035076,0 60.1498127,8.81292124 60.1498127,19.6842105 C60.1498127,30.5554998 69.0035076,39.3684211 79.9250936,39.3684211 Z" id="Bubble2" fill="#493762"></path>
            <g id="ProgressBar_Icon2_ChooseDates" transform="translate(71.728760, 11.578947)">
                <polyline id="Stroke-1351" stroke="#FFFFFF" fill="#FFFFFF" points="3.08988764 1.60427835 0.343320849 1.60427835 0.343320849 16.3070175 16.1360799 16.3070175 16.1360799 1.60427835 13.3895131 1.60427835"></polyline>
                <polygon id="Stroke-1352" stroke="#FFFFFF" fill="#FFFFFF" points="5.14981273 2.88770102 3.08988764 2.88770102 3.08988764 0.320855669 5.14981273 0.320855669"></polygon>
                <polygon id="Stroke-1353" stroke="#FFFFFF" fill="#FFFFFF" points="13.3895131 2.88770102 11.329588 2.88770102 11.329588 0.320855669 13.3895131 0.320855669"></polygon>
                <path d="M5.14981273,1.60427835 L11.329588,1.60427835" id="Stroke-1354" stroke="#FFFFFF" stroke-linecap="round" stroke-linejoin="round"></path>
                <g id="Group-10" transform="translate(0.000000, 4.631579)" stroke="#493762">
                    <path d="M0.343320849,0.181256092 L16.1360799,0.181256092" id="Stroke-1355" stroke-linecap="square" stroke-linejoin="round"></path>
                    <path d="M4.46317104,2.55181327 L4.46317104,10.2523493" id="Stroke-1356"></path>
                    <path d="M7.89637953,2.55181327 L7.89637953,10.2523493" id="Stroke-1357"></path>
                    <path d="M11.329588,2.55181327 L11.329588,10.2523493" id="Stroke-1358"></path>
                    <path d="M1.71660424,3.83523595 L14.7627965,3.83523595" id="Stroke-1359"></path>
                    <path d="M1.71660424,6.4020813 L14.7627965,6.4020813" id="Stroke-1360"></path>
                    <path d="M1.71660424,8.96892666 L14.7627965,8.96892666" id="Stroke-1361"></path>
                </g>
            </g>
            <ellipse id="Bubble3" fill="#493762" cx="140.196334" cy="19.6842105" rx="19.7752809" ry="19.6842105"></ellipse>
            <g id="ProgressBar_Icon3_ReviewBooking" transform="translate(132.000000, 9.263158)" fill="#FFFFFF">
                <path d="M6.85257544,12.7371509 C6.7506807,12.7371509 6.65187368,12.6970105 6.57931228,12.6244491 L4.64948772,10.6946246 C4.4989614,10.5433263 4.4989614,10.2993965 4.64948772,10.1480982 C4.80078596,9.99757193 5.04471579,9.99757193 5.19601404,10.1480982 L6.82015439,11.7737825 L10.1209263,7.64550175 C10.2544702,7.47953684 10.4976281,7.4525193 10.663593,7.58606316 C10.8303298,7.71806316 10.8573474,7.96199298 10.7245754,8.12795789 L7.1544,12.5928 C7.08569825,12.6784842 6.98380351,12.7302035 6.87418947,12.7363789 C6.86724211,12.7371509 6.85952281,12.7371509 6.85257544,12.7371509" id="Fill-71"></path>
                <path d="M11.1946807,1.54416842 L9.61222456,1.54416842 C9.43236491,0.664168421 8.65271579,0.00030877193 7.72099649,0.00030877193 C6.78850526,0.00030877193 6.00962807,0.664168421 5.82976842,1.54416842 L4.24731228,1.54416842 C4.03425965,1.54416842 3.86134737,1.7170807 3.86134737,1.93013333 L3.86134737,5.01785263 C3.86134737,5.23090526 4.03425965,5.40381754 4.24731228,5.40381754 L11.1946807,5.40381754 C11.4077333,5.40381754 11.5806456,5.23090526 11.5806456,5.01785263 L11.5806456,1.93013333 C11.5806456,1.7170807 11.4077333,1.54416842 11.1946807,1.54416842" id="Fill-73"></path>
                <path d="M15.0543298,2.31609825 L12.3525754,2.31609825 L12.3525754,3.85995789 L13.5104702,3.85995789 C13.7235228,3.85995789 13.8964351,4.03287018 13.8964351,4.24592281 L13.8964351,13.5098526 C13.8964351,13.6032561 13.8624702,13.6935719 13.8007158,13.7638175 L11.0989614,16.8515368 C11.0256281,16.9356772 10.9198737,16.9835368 10.8087158,16.9835368 L1.93152281,16.9827649 C1.71847018,16.9827649 1.54555789,16.8098526 1.54555789,16.5968 L1.54555789,4.24592281 C1.54555789,4.03287018 1.71847018,3.85995789 1.93152281,3.85995789 L3.08941754,3.85995789 L3.08941754,2.31609825 L0.387663158,2.31609825 C0.174610526,2.31609825 0.00169824561,2.48901053 0.00169824561,2.70206316 L0.00169824561,18.1406596 C0.00169824561,18.3537123 0.174610526,18.5266246 0.387663158,18.5266246 L15.0543298,18.5266246 C15.2673825,18.5266246 15.4402947,18.3537123 15.4402947,18.1406596 L15.4402947,2.70206316 C15.4402947,2.48901053 15.2673825,2.31609825 15.0543298,2.31609825" id="Fill-75"></path>
                <path d="M13.3559298,13.1231158 L11.1945263,13.1231158 C10.9814737,13.1231158 10.8085614,13.2960281 10.8085614,13.5090807 L10.8085614,15.8248702 L13.3559298,13.1231158 Z" id="Fill-77"></path>
            </g>
            <ellipse id="Bubble4" fill="#BDBDBD" cx="200.224719" cy="19.6842105" rx="19.7752809" ry="19.6842105"></ellipse>
            <g id="ProgressBar_Icon4_Payment" transform="translate(191.052632, 12.736842)" fill="#FFFFFF">
                <path d="M1.93013333,0 C0.865642105,0 0.00030877193,0.873322807 0.00030877193,1.94590643 L0.00030877193,3.11345029 L18.5266246,3.11345029 L18.5266246,1.94590643 C18.5266246,0.873322807 17.6605193,0 16.5968,0 L1.93013333,0 Z" id="Fill-5"></path>
                <path d="M2.70206316,8.06705585 L5.01785263,8.06705585 C5.23013333,8.06705585 5.40381754,8.24140906 5.40381754,8.45623713 C5.40381754,8.6710652 5.23013333,8.84541842 5.01785263,8.84541842 L2.70206316,8.84541842 C2.48901053,8.84541842 2.31609825,8.6710652 2.31609825,8.45623713 C2.31609825,8.24140906 2.48901053,8.06705585 2.70206316,8.06705585 L2.70206316,8.06705585 Z M2.70206316,6.5103307 L8.87750175,6.5103307 C9.08978246,6.5103307 9.26346667,6.68468392 9.26346667,6.89951199 C9.26346667,7.11434006 9.08978246,7.28869327 8.87750175,7.28869327 L2.70206316,7.28869327 C2.48901053,7.28869327 2.31609825,7.11434006 2.31609825,6.89951199 C2.31609825,6.68468392 2.48901053,6.5103307 2.70206316,6.5103307 L2.70206316,6.5103307 Z M13.5090807,6.5103307 L15.8248702,6.5103307 C16.0371509,6.5103307 16.2108351,6.68468392 16.2108351,6.89951199 C16.2108351,7.11434006 16.0371509,7.28869327 15.8248702,7.28869327 L13.5090807,7.28869327 C13.2960281,7.28869327 13.1231158,7.11434006 13.1231158,6.89951199 C13.1231158,6.68468392 13.2960281,6.5103307 13.5090807,6.5103307 L13.5090807,6.5103307 Z M0.00030877193,10.7913249 C0.00030877193,11.8639085 0.865642105,12.7372313 1.93013333,12.7364529 L16.5968,12.7364529 C17.6605193,12.7372313 18.5266246,11.8639085 18.5266246,10.7913249 L18.5266246,4.95282719 L0.00030877193,4.95282719 L0.00030877193,10.7913249 Z" id="Fill-7"></path>
            </g>
        </g>
    </g>
</svg>