<?xml version="1.0" encoding="UTF-8" standalone="no"?>
<svg width="600px" height="108px" viewBox="0 0 600 108" version="1.1" xmlns="http://www.w3.org/2000/svg" xmlns:xlink="http://www.w3.org/1999/xlink">
    <!-- Generator: Sketch 3.7.2 (28276) - http://www.bohemiancoding.com/sketch -->
    <title>ProgressBar01_ChooseStops</title>
    <desc>Created with Sketch.</desc>
    <defs></defs>
    <g id="Booking" stroke="none" stroke-width="1" fill="none" fill-rule="evenodd">
        <g id="ProgressBar01_ChooseStops">
            <path d="M383.933031,55.0833335 L528.057722,55.0833333" id="Line3" stroke="#BDBDBD" stroke-width="12" stroke-linecap="square"></path>
            <path d="M253,56 L342.232415,56" id="Line2" stroke="#BDBDBD" stroke-width="12" stroke-linecap="square"></path>
            <path d="M96,56 L185.232415,56" id="Line1" stroke="#BDBDBD" stroke-width="12" stroke-linecap="square"></path>
            <ellipse id="Bubble1" fill="#493762" cx="53.9325843" cy="53.6842105" rx="53.9325843" ry="53.6842105"></ellipse>
            <g id="ProgressBar_Icon1_ChooseDates" transform="translate(27.966292, 27.842105)" stroke-linejoin="round">
                <path d="M41.3719101,15.4542105 C41.3719101,23.9251316 25.9674157,47.1457895 25.9674157,47.1457895 C25.9674157,47.1457895 10.5606742,23.9251316 10.5606742,15.4542105 C10.5606742,6.98552632 17.4550562,0.118421053 25.9674157,0.118421053 C34.4730337,0.118421053 41.3719101,6.98552632 41.3719101,15.4542105 L41.3719101,15.4542105 Z" id="Stroke-1780" stroke="#FFFFFF" stroke-linecap="round" fill="#FFFFFF"></path>
                <path d="M33.8314607,14.6578947 C33.8314607,18.9817105 30.3101124,22.4868421 25.9662921,22.4868421 C21.6202247,22.4868421 18.1011236,18.9817105 18.1011236,14.6578947 C18.1011236,10.3340789 21.6202247,6.82894737 25.9662921,6.82894737 C30.3101124,6.82894737 33.8314607,10.3340789 33.8314607,14.6578947 L33.8314607,14.6578947 Z" id="Stroke-1779" stroke="#493762" stroke-linecap="round" fill="#493762"></path>
                <path d="M37.2022472,43.0628816 C45.8494382,43.7876184 51.8089888,45.3198553 51.8089888,47.0914342 C51.8089888,49.5631447 40.2404494,51.5651184 25.9662921,51.5651184 C11.694382,51.5651184 0.123595506,49.5631447 0.123595506,47.0914342 C0.123595506,45.3243289 6.04494382,43.7988026 14.6359551,43.0695921" id="Stroke-1781" stroke="#FFFFFF" stroke-width="3"></path>
            </g>
            <path d="M217.977528,107.368421 C247.763672,107.368421 271.910112,83.3331813 271.910112,53.6842105 C271.910112,24.0352397 247.763672,0 217.977528,0 C188.191384,0 164.044944,24.0352397 164.044944,53.6842105 C164.044944,83.3331813 188.191384,107.368421 217.977528,107.368421 Z" id="Bubble2" fill="#BDBDBD"></path>
            <g id="ProgressBar_Icon2_ChooseDates" transform="translate(195.623891, 31.578947)">
                <polyline id="Stroke-1351" stroke="#FFFFFF" fill="#FFFFFF" points="8.42696629 4.37530458 0.936329588 4.37530458 0.936329588 44.4736842 44.0074906 44.4736842 44.0074906 4.37530458 36.5168539 4.37530458"></polyline>
                <polygon id="Stroke-1352" stroke="#FFFFFF" fill="#FFFFFF" points="14.0449438 7.87554825 8.42696629 7.87554825 8.42696629 0.875060916 14.0449438 0.875060916"></polygon>
                <polygon id="Stroke-1353" stroke="#FFFFFF" fill="#FFFFFF" points="36.5168539 7.87554825 30.8988764 7.87554825 30.8988764 0.875060916 36.5168539 0.875060916"></polygon>
                <path d="M14.0449438,4.37530458 L30.8988764,4.37530458" id="Stroke-1354" stroke="#FFFFFF" stroke-linecap="round" stroke-linejoin="round"></path>
                <g id="Group-10" transform="translate(0.000000, 12.631579)" stroke="#BDBDBD" stroke-width="3">
                    <path d="M0.936329588,0 L44.0074906,0" id="Stroke-1355" stroke-linecap="square" stroke-linejoin="round"></path>
                    <path d="M12,6.95949074 L12,27.9609527" id="Stroke-1356"></path>
                    <path d="M21,6.95949074 L21,27.9609527" id="Stroke-1357"></path>
                    <path d="M30,6.95949074 L30,27.9609527" id="Stroke-1358"></path>
                    <path d="M4.68164794,10 L40.2621723,10" id="Stroke-1359"></path>
                    <path d="M4.68164794,17 L40.2621723,17" id="Stroke-1360"></path>
                    <path d="M4.68164794,24 L40.2621723,24" id="Stroke-1361"></path>
                </g>
            </g>
            <ellipse id="Bubble3" fill="#BDBDBD" cx="382.353637" cy="53.6842105" rx="53.9325843" ry="53.6842105"></ellipse>
            <g id="ProgressBar_Icon3_ReviewBooking" transform="translate(360.000000, 25.263158)" fill="#FFFFFF">
                <path d="M18.6888421,34.7376842 C18.4109474,34.7376842 18.1414737,34.6282105 17.9435789,34.4303158 L12.6804211,29.1671579 C12.2698947,28.7545263 12.2698947,28.0892632 12.6804211,27.6766316 C13.0930526,27.2661053 13.7583158,27.2661053 14.1709474,27.6766316 L18.6004211,32.1103158 L27.6025263,20.8513684 C27.9667368,20.3987368 28.6298947,20.3250526 29.0825263,20.6892632 C29.5372632,21.0492632 29.6109474,21.7145263 29.2488421,22.1671579 L19.512,34.344 C19.3246316,34.5776842 19.0467368,34.7187368 18.7477895,34.7355789 C18.7288421,34.7376842 18.7077895,34.7376842 18.6888421,34.7376842" id="Fill-71"></path>
                <path d="M30.5309474,4.21136842 L26.2151579,4.21136842 C25.7246316,1.81136842 23.5983158,0.000842105263 21.0572632,0.000842105263 C18.5141053,0.000842105263 16.3898947,1.81136842 15.8993684,4.21136842 L11.5835789,4.21136842 C11.0025263,4.21136842 10.5309474,4.68294737 10.5309474,5.264 L10.5309474,13.6850526 C10.5309474,14.2661053 11.0025263,14.7376842 11.5835789,14.7376842 L30.5309474,14.7376842 C31.112,14.7376842 31.5835789,14.2661053 31.5835789,13.6850526 L31.5835789,5.264 C31.5835789,4.68294737 31.112,4.21136842 30.5309474,4.21136842" id="Fill-73"></path>
                <path d="M41.0572632,6.31663158 L33.6888421,6.31663158 L33.6888421,10.5271579 L36.8467368,10.5271579 C37.4277895,10.5271579 37.8993684,10.9987368 37.8993684,11.5797895 L37.8993684,36.8450526 C37.8993684,37.0997895 37.8067368,37.3461053 37.6383158,37.5376842 L30.2698947,45.9587368 C30.0698947,46.1882105 29.7814737,46.3187368 29.4783158,46.3187368 L5.26778947,46.3166316 C4.68673684,46.3166316 4.21515789,45.8450526 4.21515789,45.264 L4.21515789,11.5797895 C4.21515789,10.9987368 4.68673684,10.5271579 5.26778947,10.5271579 L8.42568421,10.5271579 L8.42568421,6.31663158 L1.05726316,6.31663158 C0.476210526,6.31663158 0.00463157895,6.78821053 0.00463157895,7.36926316 L0.00463157895,49.4745263 C0.00463157895,50.0555789 0.476210526,50.5271579 1.05726316,50.5271579 L41.0572632,50.5271579 C41.6383158,50.5271579 42.1098947,50.0555789 42.1098947,49.4745263 L42.1098947,7.36926316 C42.1098947,6.78821053 41.6383158,6.31663158 41.0572632,6.31663158" id="Fill-75"></path>
                <path d="M36.4252632,35.7903158 L30.5305263,35.7903158 C29.9494737,35.7903158 29.4778947,36.2618947 29.4778947,36.8429474 L29.4778947,43.1587368 L36.4252632,35.7903158 Z" id="Fill-77"></path>
            </g>
            <ellipse id="Bubble4" fill="#BDBDBD" cx="546.067416" cy="53.6842105" rx="53.9325843" ry="53.6842105"></ellipse>
            <g id="ProgressBar_Icon4_Payment" transform="translate(521.052632, 34.736842)" fill="#FFFFFF">
                <path d="M5.264,0 C2.36084211,0 0.000842105263,2.38178947 0.000842105263,5.30701754 L0.000842105263,8.49122807 L50.5271579,8.49122807 L50.5271579,5.30701754 C50.5271579,2.38178947 48.1650526,0 45.264,0 L5.264,0 Z" id="Fill-5"></path>
                <path d="M7.36926316,22.0010614 L13.6850526,22.0010614 C14.264,22.0010614 14.7376842,22.4765702 14.7376842,23.0624649 C14.7376842,23.6483596 14.264,24.1238684 13.6850526,24.1238684 L7.36926316,24.1238684 C6.78821053,24.1238684 6.31663158,23.6483596 6.31663158,23.0624649 C6.31663158,22.4765702 6.78821053,22.0010614 7.36926316,22.0010614 L7.36926316,22.0010614 Z M7.36926316,17.7554474 L24.2113684,17.7554474 C24.7903158,17.7554474 25.264,18.2309561 25.264,18.8168509 C25.264,19.4027456 24.7903158,19.8782544 24.2113684,19.8782544 L7.36926316,19.8782544 C6.78821053,19.8782544 6.31663158,19.4027456 6.31663158,18.8168509 C6.31663158,18.2309561 6.78821053,17.7554474 7.36926316,17.7554474 L7.36926316,17.7554474 Z M36.8429474,17.7554474 L43.1587368,17.7554474 C43.7376842,17.7554474 44.2113684,18.2309561 44.2113684,18.8168509 C44.2113684,19.4027456 43.7376842,19.8782544 43.1587368,19.8782544 L36.8429474,19.8782544 C36.2618947,19.8782544 35.7903158,19.4027456 35.7903158,18.8168509 C35.7903158,18.2309561 36.2618947,17.7554474 36.8429474,17.7554474 L36.8429474,17.7554474 Z M0.000842105263,29.430886 C0.000842105263,32.356114 2.36084211,34.7379035 5.264,34.7357807 L45.264,34.7357807 C48.1650526,34.7379035 50.5271579,32.356114 50.5271579,29.430886 L50.5271579,13.5077105 L0.000842105263,13.5077105 L0.000842105263,29.430886 Z" id="Fill-7"></path>
            </g>
        </g>
    </g>
</svg>