<?xml version="1.0" encoding="utf-8"?>
<!-- Generator: Adobe Illustrator 19.2.1, SVG Export Plug-In . SVG Version: 6.00 Build 0)  -->
<svg width="26px" height="27px" version="1.1" id="Layer_1" xmlns="http://www.w3.org/2000/svg" xmlns:xlink="http://www.w3.org/1999/xlink" x="0px" y="0px"
	 viewBox="0 0 26 27" style="enable-background:new 0 0 26 27;" xml:space="preserve">
<style type="text/css">
	.st0{fill:none;stroke:#898D97;stroke-width:1.08;stroke-linecap:round;stroke-linejoin:round;}
</style>
<title>MenuSettingsNormal</title>
<desc>Created with Sketch.</desc>
<g id="Main">
	<g id="_x31_MainTabMap" transform="translate(-315.000000, -616.000000)">
		<g id="Menu-Bar" transform="translate(0.000000, 603.000000)">
			<g id="Icons" transform="translate(27.000000, 11.500000)">
				<g id="MenuSettings" transform="translate(288.000000, 2.000000)">
					<g id="MenuSettingsNormal">
						<path id="Stroke-814" class="st0" d="M21.9,14.6h3.5v-3.2h-3.5c-0.2-0.9-0.6-2.4-1.1-3.2l2.5-2.5l-3.1-3.1l-2.5,2.5
							c-0.8-0.5-2.2-0.9-3.2-1.1V0.5h-3.2V4C10.4,4.3,9,4.7,8.2,5.1L5.7,2.7l-3,3l2.5,2.5C4.7,9,4.3,10.4,4.1,11.4H0.5v3.2H4
							c0.2,0.9,0.6,2.4,1.1,3.2l-2.5,2.5l3.1,3.1l2.5-2.5c0.8,0.5,2.2,0.9,3.2,1.1v3.5h3.2V22c0.9-0.2,2.4-0.6,3.2-1.1l2.5,2.5
							l3.1-3.1l-2.5-2.5C21.3,17,21.7,15.6,21.9,14.6L21.9,14.6z"/>
						<path id="Stroke-815" class="st0" d="M17.9,13c0,2.7-2.2,4.9-4.9,4.9S8.1,15.7,8.1,13s2.2-4.9,4.9-4.9S17.9,10.3,17.9,13
							L17.9,13z"/>
					</g>
				</g>
			</g>
		</g>
	</g>
</g>
</svg>
