<?xml version="1.0" encoding="utf-8"?>
<!-- Generator: Adobe Illustrator 19.2.1, SVG Export Plug-In . SVG Version: 6.00 Build 0)  -->
<svg version="1.1" id="Layer_1" xmlns="http://www.w3.org/2000/svg" xmlns:xlink="http://www.w3.org/1999/xlink" x="0px" y="0px"
	 viewBox="0 0 30 30" style="enable-background:new 0 0 30 30;" xml:space="preserve">
<style type="text/css">
	.st0{fill:none;stroke:#898D97;stroke-width:1.026;stroke-linecap:round;stroke-linejoin:round;}
	.st1{fill:#898D97;}
</style>
<title>MenuTicketsNormal</title>
<desc>Created with Sketch.</desc>
<g id="Main">
	<g id="_x31_MainTabMap" transform="translate(-221.000000, -615.000000)">
		<g id="Menu-Bar" transform="translate(0.000000, 603.000000)">
			<g id="Icons" transform="translate(27.000000, 11.500000)">
				
					<g id="MenuTickets" transform="translate(209.000000, 15.500000) rotate(-45.000000) translate(-209.000000, -15.500000) translate(197.000000, 8.000000)">
					<g id="MenuTicketsNormal" transform="translate(-0.000000, 0.000000)">
						<path id="Stroke-54" class="st0" d="M24,10.5c-1.7,0-3.1-1.3-3.1-3c0-1.7,1.4-3,3.1-3V0H0v4.5c1.7,0,3.1,1.3,3.1,3
							c0,1.7-1.4,3-3.1,3V15h24V10.5L24,10.5z"/>
						<polygon id="Fill-55" class="st1" points="9.9,1.5 8.9,1.5 8.9,2.5 9.9,2.5 						"/>
						<polygon id="Fill-56" class="st1" points="9.9,3.5 8.9,3.5 8.9,4.5 9.9,4.5 						"/>
						<polygon id="Fill-57" class="st1" points="9.9,5.5 8.9,5.5 8.9,6.5 9.9,6.5 						"/>
						<polygon id="Fill-58" class="st1" points="9.9,8.5 8.9,8.5 8.9,9.5 9.9,9.5 						"/>
						<polygon id="Fill-59" class="st1" points="9.9,10.5 8.9,10.5 8.9,11.5 9.9,11.5 						"/>
						<polygon id="Fill-60" class="st1" points="9.9,12.5 8.9,12.5 8.9,13.5 9.9,13.5 						"/>
					</g>
				</g>
			</g>
		</g>
	</g>
</g>
</svg>
