<?xml version="1.0" encoding="UTF-8" standalone="no"?>
<svg width="169px" height="108px" viewBox="0 0 169 108" version="1.1" xmlns="http://www.w3.org/2000/svg" xmlns:xlink="http://www.w3.org/1999/xlink">
    <!-- Generator: Sketch 3.7.2 (28276) - http://www.bohemiancoding.com/sketch -->
    <title>bgTickets</title>
    <desc>Created with Sketch.</desc>
    <defs></defs>
    <g id="Main" stroke="none" stroke-width="1" fill="none" fill-rule="evenodd">
        <g id="1MainTicketsNew" transform="translate(-106.000000, -176.000000)">
            <g id="bgTickets" transform="translate(105.000000, 175.000000)">
                <path d="M58.9214415,11.1635918 C61.3702787,11.1635918 63.3519531,13.1175384 63.3519531,15.5840984 L63.3519531,100.743085 C63.3519531,103.185832 61.3891159,105.163592 58.9214415,105.163592 L14.8021857,105.163592 C12.3533485,105.163592 10.371674,103.209645 10.371674,100.743085 L10.371674,15.5840984 C10.371674,13.1413518 12.3345112,11.1635918 14.8021857,11.1635918 L58.9214415,11.1635918 Z" id="Path" fill="#00C4A5" transform="translate(36.861814, 58.163592) rotate(-13.000000) translate(-36.861814, -58.163592) "></path>
                <g id="Page-1" transform="translate(40.755573, 52.000000) rotate(-13.000000) translate(-40.755573, -52.000000) translate(13.755573, 5.000000)" fill="#493762">
                    <path d="M21.1127442,56.69328 L21.1127442,55.8121867 C21.1127442,55.8121867 24.0563721,55.0927733 27,55.0927733 C29.9436279,55.0927733 32.8872558,55.8121867 32.8872558,55.8121867 L32.8872558,56.69328 C32.8872558,56.69328 32.8872558,61.6878133 27,61.6878133 C21.1127442,61.6878133 21.1127442,56.69328 21.1127442,56.69328 L21.1127442,56.69328 Z M38.7732558,43.7689067 C38.7732558,43.5044533 38.8423256,43.0194133 39.028186,42.5694667 C39.2730698,41.97664 39.6071163,41.7121867 40.2450698,41.7121867 C40.8830233,41.7121867 41.215814,41.97664 41.4619535,42.5694667 C41.647814,43.0194133 41.7168837,43.5044533 41.7168837,43.7689067 L41.7168837,44.94328 C41.7168837,45.7566933 42.3736744,46.4121867 43.1886977,46.4121867 C44.0024651,46.4121867 44.6592558,45.7566933 44.6592558,44.94328 L44.6592558,43.7689067 C44.6592558,43.1522667 44.5424651,42.31504 44.1795349,41.44272 C43.5076744,39.8321867 42.1827907,38.7756267 40.2450698,38.7756267 C38.3073488,38.7756267 36.9824651,39.8321867 36.3106047,41.44272 C35.9476744,42.31504 35.8296279,43.1522667 35.8296279,43.7689067 L35.8296279,44.94328 C35.8296279,45.7566933 36.4876744,46.4121867 37.3014419,46.4121867 C38.1164651,46.4121867 38.7732558,45.7566933 38.7732558,44.94328 L38.7732558,43.7689067 Z M12.2831163,43.7689067 C12.2831163,43.5044533 12.352186,43.0194133 12.5380465,42.5694667 C12.784186,41.97664 13.1169767,41.7121867 13.7549302,41.7121867 C14.3928837,41.7121867 14.7269302,41.97664 14.971814,42.5694667 C15.1576744,43.0194133 15.2267442,43.5044533 15.2267442,43.7689067 L15.2267442,44.94328 C15.2267442,45.7566933 15.8835349,46.4121867 16.6985581,46.4121867 C17.5123256,46.4121867 18.1703721,45.7566933 18.1703721,44.94328 L18.1703721,43.7689067 C18.1703721,43.1522667 18.0523256,42.31504 17.6893953,41.44272 C17.0175349,39.8321867 15.6926512,38.7756267 13.7549302,38.7756267 C11.8172093,38.7756267 10.4923256,39.8321867 9.82046512,41.44272 C9.45753488,42.31504 9.34074419,43.1522667 9.34074419,43.7689067 L9.34074419,44.94328 C9.34074419,45.7566933 9.99753488,46.4121867 10.8113023,46.4121867 C11.6263256,46.4121867 12.2831163,45.7566933 12.2831163,44.94328 L12.2831163,43.7689067 Z" id="Fill-1"></path>
                    <path d="M4.94037209,1.98951966e-13 L49.0596279,1.98951966e-13 C51.5084651,1.98951966e-13 53.4901395,1.95394667 53.4901395,4.42050667 L53.4901395,89.5794933 C53.4901395,92.02224 51.5273023,94 49.0596279,94 L4.94037209,94 C2.49153488,94 0.509860465,92.0460533 0.509860465,89.5794933 L0.509860465,4.42050667 C0.509860465,1.97776 2.47269767,1.98951966e-13 4.94037209,1.98951966e-13 L4.94037209,1.98951966e-13 Z M3.45348837,79.3121867 L50.5465116,79.3121867 L50.5465116,14.6878133 L3.45348837,14.6878133 L3.45348837,79.3121867 Z M3.45348837,4.39669333 C3.45348837,3.58829333 4.10148837,2.93781333 4.92027907,2.93781333 L49.0797209,2.93781333 C49.8897209,2.93781333 50.5465116,3.59832 50.5465116,4.39669333 L50.5465116,11.75 L3.45348837,11.75 L3.45348837,4.39669333 Z M3.45348837,89.6033067 C3.45348837,90.40168 4.11027907,91.0621867 4.92027907,91.0621867 L49.0797209,91.0621867 C49.8985116,91.0621867 50.5465116,90.4117067 50.5465116,89.6033067 L50.5465116,82.25 L3.45348837,82.25 L3.45348837,89.6033067 Z M25.4993023,5.87562667 L34.3879535,5.87562667 C35.1828837,5.87562667 35.8296279,6.55493333 35.8296279,7.34328 C35.8296279,8.15669333 35.1966977,8.81218667 34.3879535,8.81218667 L25.4993023,8.81218667 C24.7043721,8.81218667 24.0563721,8.13162667 24.0563721,7.34328 C24.0563721,6.53112 24.6893023,5.87562667 25.4993023,5.87562667 L25.4993023,5.87562667 Z M19.642186,8.81218667 C20.4559535,8.81218667 21.1127442,8.15669333 21.1127442,7.34328 C21.1127442,6.53112 20.4559535,5.87562667 19.642186,5.87562667 C18.8271628,5.87562667 18.1703721,6.53112 18.1703721,7.34328 C18.1703721,8.15669333 18.8271628,8.81218667 19.642186,8.81218667 L19.642186,8.81218667 Z M27,89.59328 C28.6237674,89.59328 29.9436279,88.27728 29.9436279,86.65672 C29.9436279,85.03616 28.6237674,83.7189067 27,83.7189067 C25.3762326,83.7189067 24.0563721,85.03616 24.0563721,86.65672 C24.0563721,88.27728 25.3762326,89.59328 27,89.59328 L27,89.59328 Z" id="Fill-2"></path>
                </g>
                <g id="Page-1" transform="translate(126.590993, 58.918657) rotate(-240.000000) translate(-126.590993, -58.918657) translate(86.090993, 31.918657)" fill="#493762">
                    <path d="M12.3816922,26.9301804 C12.3816922,20.9473468 7.53054517,16.0961998 1.54771152,16.0961998 C0.692136592,16.0961998 0,16.7883364 0,17.6439113 C0,18.4994863 0.692136592,19.1916228 1.54771152,19.1916228 C5.82310982,19.1916228 9.28626912,22.6547821 9.28626912,26.9301804 C9.28626912,31.2055787 5.82310982,34.668738 1.54771152,34.668738 C0.692136592,34.668738 0,35.3608746 0,36.2164496 C0,37.0720245 0.692136592,37.7641611 1.54771152,37.7641611 C7.53054517,37.7641611 12.3816922,32.9130141 12.3816922,26.9301804" id="Fill-1"></path>
                    <path d="M68.0993069,26.9301804 C68.0993069,20.9473468 72.9504538,16.0961998 78.9332875,16.0961998 C79.7888624,16.0961998 80.480999,16.7883364 80.480999,17.6439113 C80.480999,18.4994863 79.7888624,19.1916228 78.9332875,19.1916228 C74.6578892,19.1916228 71.1947299,22.6547821 71.1947299,26.9301804 C71.1947299,31.2055787 74.6578892,34.668738 78.9332875,34.668738 C79.7888624,34.668738 80.480999,35.3608746 80.480999,36.2164496 C80.480999,37.0720245 79.7888624,37.7641611 78.9332875,37.7641611 C72.9504538,37.7641611 68.0993069,32.9130141 68.0993069,26.9301804" id="Fill-3"></path>
                    <path d="M3.09542304,3.71450765 L77.385576,3.71450765 L77.385576,17.6439113 L80.480999,17.6439113 L80.480999,2.16679613 C80.480999,1.3112212 79.7888624,0.619084608 78.9332875,0.619084608 L1.54771152,0.619084608 C0.692136592,0.619084608 -1.13686838e-13,1.3112212 -1.13686838e-13,2.16679613 L-1.13686838e-13,17.6439113 L3.09542304,17.6439113 L3.09542304,3.71450765 Z" id="Fill-5"></path>
                    <path d="M3.09542304,50.1458532 L77.385576,50.1458532 L77.385576,36.2164496 L80.480999,36.2164496 L80.480999,51.6935648 C80.480999,52.5491397 79.7888624,53.2412763 78.9332875,53.2412763 L1.54771152,53.2412763 C0.692136592,53.2412763 -1.98951966e-13,52.5491397 -1.98951966e-13,51.6935648 L-1.98951966e-13,36.2164496 L3.09542304,36.2164496 L3.09542304,50.1458532 Z" id="Fill-7"></path>
                    <path d="M61.9084608,8.35764221 C61.9084608,10.4229085 58.8130377,10.4229085 58.8130377,8.35764221 C58.8130377,6.29237595 61.9084608,6.29237595 61.9084608,8.35764221" id="Fill-9"></path>
                    <path d="M61.9084608,14.5484883 C61.9084608,16.6137545 58.8130377,16.6137545 58.8130377,14.5484883 C58.8130377,12.483222 61.9084608,12.483222 61.9084608,14.5484883" id="Fill-11"></path>
                    <path d="M61.9084608,20.7393344 C61.9084608,22.8046006 58.8130377,22.8046006 58.8130377,20.7393344 C58.8130377,18.6740681 61.9084608,18.6740681 61.9084608,20.7393344" id="Fill-13"></path>
                    <path d="M61.9084608,26.9301804 C61.9084608,28.9954467 58.8130377,28.9954467 58.8130377,26.9301804 C58.8130377,24.8649142 61.9084608,24.8649142 61.9084608,26.9301804" id="Fill-15"></path>
                    <path d="M61.9084608,33.1210265 C61.9084608,35.1862928 58.8130377,35.1862928 58.8130377,33.1210265 C58.8130377,31.0557603 61.9084608,31.0557603 61.9084608,33.1210265" id="Fill-17"></path>
                    <path d="M61.9084608,39.3118726 C61.9084608,41.3771388 58.8130377,41.3771388 58.8130377,39.3118726 C58.8130377,37.2466063 61.9084608,37.2466063 61.9084608,39.3118726" id="Fill-19"></path>
                    <path d="M61.9084608,45.5027187 C61.9084608,47.5679849 58.8130377,47.5679849 58.8130377,45.5027187 C58.8130377,43.4374524 61.9084608,43.4374524 61.9084608,45.5027187" id="Fill-21"></path>
                </g>
            </g>
        </g>
    </g>
</svg>