<?xml version="1.0" encoding="utf-8"?>
<!-- Generator: Adobe Illustrator 19.2.1, SVG Export Plug-In . SVG Version: 6.00 Build 0)  -->
<svg version="1.1" xmlns="http://www.w3.org/2000/svg" xmlns:xlink="http://www.w3.org/1999/xlink" x="0px" y="0px"
   width="66px" height="86px" 
	 viewBox="0 0 66 86" style="enable-background:new 0 0 66 86;" xml:space="preserve">
<style type="text/css">
	.st0{filter:url(#filter-2);}
	.st1{fill:#493762;stroke:#FFFFFF;stroke-width:3;stroke-linecap:round;stroke-linejoin:round;}
	.st2{fill:#FFFFFF;stroke:#FFFFFF;stroke-linecap:round;stroke-linejoin:round;}
	.st3{fill:#493762;stroke:#FFFFFF;stroke-linecap:round;stroke-linejoin:round;}
	.st4{fill:#493762;stroke:#FFFFFF;}
	.st5{display:none;}
	.st6{display:inline;fill:#FFFFFF;}
	.st7{font-family:'Lato-Bold';}
	.st8{font-size:17px;}
	.st9{display:inline;}
	.st10{fill:#FFFFFF;}
</style>
<filter  filterUnits="objectBoundingBox" height="200%" id="filter-2" width="200%" x="-50%" y="-50%">
	<feMorphology  in="SourceAlpha" operator="dilate" radius="1.5" result="shadowSpreadOuter1"></feMorphology>
	<feOffset  dx="0" dy="5" in="shadowSpreadOuter1" result="shadowOffsetOuter1"></feOffset>
	<feGaussianBlur  in="shadowOffsetOuter1" result="shadowBlurOuter1" stdDeviation="2.5"></feGaussianBlur>
	<feComposite  in="shadowBlurOuter1" in2="SourceAlpha" operator="out" result="shadowBlurOuter1"></feComposite>
	<feColorMatrix  in="shadowBlurOuter1" type="matrix" values="0 0 0 0 0   0 0 0 0 0   0 0 0 0 0  0 0 0 0.5 0"></feColorMatrix>
</filter>
<g id="Layer_1">
	<title>BusMarker</title>
	<desc>Created with Sketch.</desc>
	<g id="Tickets">
		<g id="_x36_TicketDriver" transform="translate(-223.000000, -476.000000)">
			<g id="BusMarker" transform="translate(229.000000, 478.000000)">
				<g id="User-Location">
					<g id="Stroke-128-_x2B_-Stroke-130">
						<g id="Stroke-128">
							<g class="st0">
								<path id="path-1_2_" d="M27,0C12.1,0,0.1,12.2,0.1,27.3c0,13.1,9.1,24.1,21.3,26.7L27,73.9L32.6,54
									c12.2-2.6,21.3-13.6,21.3-26.7C53.9,12.2,41.9,0,27,0z"/>
							</g>
							<g>
								<path id="path-1_1_" class="st1" d="M27,0C12.1,0,0.1,12.2,0.1,27.3c0,13.1,9.1,24.1,21.3,26.7L27,73.9L32.6,54
									c12.2-2.6,21.3-13.6,21.3-26.7C53.9,12.2,41.9,0,27,0z"/>
							</g>
						</g>
					</g>
				</g>
				<g id="Group" transform="translate(13.000000, 13.000000)">
					<path id="Stroke-1433" class="st2" d="M25.9,27.2H2.4c-1,0-1.8-0.8-1.8-1.7V2.4c0-3.3,2.8-6,6.3-6h14.4c3.5,0,6.3,2.7,6.3,6
						v23.1C27.7,26.4,26.9,27.2,25.9,27.2z"/>
					<polygon id="Stroke-1434" class="st2" points="5.5,30.9 1.8,30.9 1.8,27.2 5.5,27.2 					"/>
					<polygon id="Stroke-1435" class="st2" points="26.4,30.9 22.7,30.9 22.7,27.2 26.4,27.2 					"/>
					<polygon id="Stroke-1436" class="st3" points="26.4,21 1.8,21 1.8,2.3 26.4,2.3 					"/>
					<polygon id="Stroke-1437" class="st3" points="17.8,1.3 9.2,1.3 9.2,-2.4 17.8,-2.4 					"/>
					<polygon id="Stroke-1440" class="st2" points="-3.1,11.2 0.6,11.2 0.6,6.3 -3.1,6.3 					"/>
					<polygon id="Stroke-1441" class="st2" points="27.7,11.2 31.4,11.2 31.4,6.3 27.7,6.3 					"/>
				</g>
				<path id="Oval-19" class="st4" d="M20.6,39c1.4,0,2.5-1.1,2.5-2.5S22,34,20.6,34s-2.5,1.1-2.5,2.5S19.2,39,20.6,39z"/>
				<circle id="Oval-19_1_" class="st4" cx="33.6" cy="36.5" r="2.5"/>
			</g>
		</g>
	</g>
</g>
<g id="NumberFont" class="st5">
	<text transform="matrix(1 0 0 1 28.0701 32.78)" class="st6 st7 st8">3</text>
</g>
<g id="_x31_" class="st5">
	<g class="st9">
		<path class="st10" d="M30.4,31.2h2.5V24c0-0.3,0-0.6,0-0.9l-1.8,1.5c-0.1,0.1-0.1,0.1-0.2,0.1c-0.1,0-0.2,0-0.2,0
			c-0.1,0-0.2,0-0.3-0.1c-0.1,0-0.2-0.1-0.2-0.2l-0.7-0.9l3.7-3.2h1.7v10.7h2.2v1.6h-6.8V31.2z"/>
	</g>
</g>
<g id="_x32_" class="st5">
	<g class="st9">
		<path class="st10" d="M33.2,20.4c0.6,0,1.1,0.1,1.6,0.3c0.5,0.2,0.9,0.4,1.2,0.7c0.3,0.3,0.6,0.7,0.8,1.1c0.2,0.4,0.3,0.9,0.3,1.4
			c0,0.5-0.1,0.9-0.2,1.3s-0.3,0.8-0.5,1.1c-0.2,0.4-0.5,0.7-0.8,1c-0.3,0.3-0.6,0.7-0.9,1l-2.8,2.8c0.3-0.1,0.5-0.1,0.8-0.2
			c0.3,0,0.5-0.1,0.7-0.1h3.2c0.2,0,0.4,0.1,0.5,0.2c0.1,0.1,0.2,0.3,0.2,0.5v1.3h-8.4v-0.7c0-0.1,0-0.3,0.1-0.4
			c0.1-0.2,0.2-0.3,0.3-0.4l3.7-3.7c0.3-0.3,0.6-0.6,0.8-0.9c0.2-0.3,0.5-0.6,0.6-0.9s0.3-0.6,0.4-0.9c0.1-0.3,0.1-0.6,0.1-0.9
			c0-0.3,0-0.6-0.1-0.8s-0.2-0.4-0.4-0.6c-0.2-0.2-0.3-0.3-0.6-0.3c-0.2-0.1-0.5-0.1-0.7-0.1c-0.5,0-0.9,0.1-1.2,0.4
			c-0.3,0.3-0.6,0.6-0.7,1c-0.1,0.2-0.2,0.4-0.3,0.5c-0.1,0.1-0.3,0.1-0.5,0.1c-0.1,0-0.2,0-0.3,0L29,23.9c0.1-0.6,0.2-1.1,0.5-1.6
			c0.2-0.4,0.5-0.8,0.9-1.1c0.4-0.3,0.8-0.5,1.3-0.7C32.1,20.4,32.6,20.4,33.2,20.4z"/>
	</g>
</g>
<g id="_x33_" class="st5">
	<g class="st9">
		<path class="st10" d="M33.4,20.4c0.6,0,1.1,0.1,1.5,0.2c0.5,0.2,0.8,0.4,1.2,0.7c0.3,0.3,0.6,0.6,0.7,1s0.3,0.8,0.3,1.2
			c0,0.4,0,0.7-0.1,1s-0.2,0.6-0.4,0.8c-0.2,0.2-0.4,0.4-0.6,0.6c-0.2,0.2-0.5,0.3-0.8,0.4c0.7,0.2,1.3,0.6,1.6,1.1
			c0.4,0.5,0.5,1.1,0.5,1.8c0,0.6-0.1,1.2-0.3,1.6c-0.2,0.5-0.5,0.9-0.9,1.2c-0.4,0.3-0.8,0.6-1.3,0.7c-0.5,0.2-1,0.2-1.6,0.2
			c-0.6,0-1.2-0.1-1.6-0.2s-0.9-0.4-1.2-0.6c-0.3-0.3-0.6-0.6-0.9-1s-0.4-0.9-0.6-1.4l0.9-0.4c0.2-0.1,0.3-0.1,0.5-0.1
			c0.1,0,0.3,0,0.4,0.1s0.2,0.2,0.3,0.3c0.1,0.2,0.2,0.4,0.3,0.6c0.1,0.2,0.3,0.4,0.4,0.5s0.4,0.3,0.6,0.4s0.5,0.1,0.8,0.1
			c0.4,0,0.7-0.1,0.9-0.2c0.3-0.1,0.5-0.3,0.7-0.5c0.2-0.2,0.3-0.4,0.4-0.6c0.1-0.2,0.1-0.5,0.1-0.7c0-0.3,0-0.6-0.1-0.8
			c-0.1-0.2-0.2-0.4-0.4-0.6s-0.5-0.3-0.9-0.4c-0.4-0.1-0.9-0.1-1.5-0.1v-1.5c0.5,0,0.9,0,1.3-0.1c0.3-0.1,0.6-0.2,0.8-0.4
			c0.2-0.2,0.3-0.4,0.4-0.6c0.1-0.2,0.1-0.5,0.1-0.7c0-0.6-0.2-1-0.5-1.3c-0.3-0.3-0.8-0.4-1.3-0.4c-0.5,0-0.9,0.1-1.2,0.4
			c-0.3,0.3-0.6,0.6-0.7,1c-0.1,0.2-0.2,0.4-0.3,0.5c-0.1,0.1-0.3,0.1-0.5,0.1c-0.1,0-0.2,0-0.3,0l-1.1-0.2c0.1-0.6,0.2-1.1,0.5-1.6
			c0.2-0.4,0.5-0.8,0.9-1.1c0.4-0.3,0.8-0.5,1.3-0.7C32.3,20.4,32.8,20.4,33.4,20.4z"/>
	</g>
</g>
<g id="_x34_" class="st5">
	<g class="st9">
		<path class="st10" d="M36.1,28.1h1.5v1.2c0,0.1,0,0.2-0.1,0.3s-0.2,0.1-0.3,0.1h-1.1v3h-1.8v-3h-5.2c-0.1,0-0.3,0-0.4-0.1
			c-0.1-0.1-0.2-0.2-0.2-0.3l-0.2-1.1l5.8-7.8h2V28.1z M34.2,24.1c0-0.2,0-0.4,0-0.6c0-0.2,0-0.4,0.1-0.7l-3.8,5.3h3.7V24.1z"/>
	</g>
</g>
<g id="_x35_" class="st5">
	<g class="st9">
		<path class="st10" d="M36.5,21.4c0,0.3-0.1,0.5-0.3,0.7c-0.2,0.2-0.5,0.3-0.9,0.3h-3.4L31.4,25c0.6-0.1,1.1-0.2,1.5-0.2
			c0.6,0,1.2,0.1,1.7,0.3c0.5,0.2,0.9,0.5,1.2,0.8c0.3,0.3,0.6,0.7,0.8,1.2s0.3,0.9,0.3,1.5c0,0.7-0.1,1.2-0.3,1.8
			c-0.2,0.5-0.5,1-1,1.4c-0.4,0.4-0.9,0.7-1.4,0.9c-0.6,0.2-1.2,0.3-1.8,0.3c-0.4,0-0.8,0-1.1-0.1c-0.3-0.1-0.7-0.2-1-0.3
			c-0.3-0.1-0.6-0.3-0.8-0.5c-0.3-0.2-0.5-0.4-0.7-0.5l0.6-0.9c0.1-0.2,0.3-0.3,0.5-0.3c0.1,0,0.3,0,0.4,0.1s0.3,0.2,0.5,0.3
			c0.2,0.1,0.4,0.2,0.7,0.3c0.3,0.1,0.6,0.1,0.9,0.1c0.4,0,0.7-0.1,1-0.2c0.3-0.1,0.5-0.3,0.7-0.5s0.3-0.5,0.4-0.8
			c0.1-0.3,0.1-0.6,0.1-1c0-0.7-0.2-1.2-0.6-1.6c-0.4-0.4-1-0.6-1.7-0.6c-0.6,0-1.2,0.1-1.8,0.3l-1.3-0.4l1-6h6.1V21.4z"/>
	</g>
</g>
<g id="_x36_" class="st5">
	<g class="st9">
		<path class="st10" d="M33.8,25.1c0.5,0,0.9,0.1,1.4,0.2c0.4,0.2,0.8,0.4,1.2,0.7c0.3,0.3,0.6,0.7,0.8,1.2s0.3,1,0.3,1.6
			c0,0.6-0.1,1.1-0.3,1.6c-0.2,0.5-0.5,0.9-0.9,1.3c-0.4,0.4-0.8,0.7-1.4,0.9c-0.5,0.2-1.1,0.3-1.8,0.3c-0.7,0-1.2-0.1-1.8-0.3
			c-0.5-0.2-1-0.5-1.3-0.9c-0.4-0.4-0.7-0.8-0.8-1.4c-0.2-0.5-0.3-1.1-0.3-1.8c0-0.6,0.1-1.2,0.4-1.8c0.2-0.6,0.6-1.2,1.1-1.9
			l2.9-3.9c0.1-0.1,0.3-0.3,0.4-0.3s0.4-0.1,0.7-0.1h1.9L32.5,25c-0.1,0.1-0.2,0.2-0.2,0.3c-0.1,0.1-0.1,0.2-0.2,0.3
			c0.2-0.1,0.5-0.2,0.8-0.3C33.1,25.1,33.4,25.1,33.8,25.1z M30.8,28.9c0,0.3,0,0.7,0.1,0.9c0.1,0.3,0.2,0.5,0.4,0.7
			c0.2,0.2,0.4,0.4,0.7,0.5c0.3,0.1,0.6,0.2,0.9,0.2c0.3,0,0.6-0.1,0.9-0.2c0.3-0.1,0.5-0.3,0.7-0.5c0.2-0.2,0.4-0.4,0.5-0.7
			c0.1-0.3,0.2-0.6,0.2-0.9c0-0.4-0.1-0.7-0.2-0.9c-0.1-0.3-0.3-0.5-0.5-0.7s-0.4-0.3-0.7-0.4c-0.3-0.1-0.6-0.2-0.9-0.2
			c-0.3,0-0.6,0.1-0.9,0.2c-0.3,0.1-0.5,0.3-0.7,0.5c-0.2,0.2-0.3,0.4-0.5,0.7C30.9,28.3,30.8,28.6,30.8,28.9z"/>
	</g>
</g>
<g id="_x37_" class="st5">
	<g class="st9">
		<path class="st10" d="M37.4,20.5v0.9c0,0.3,0,0.5-0.1,0.7s-0.1,0.3-0.2,0.4l-4.6,9.6c-0.1,0.2-0.2,0.4-0.4,0.5s-0.4,0.2-0.7,0.2
			h-1.5l4.8-9.4c0.2-0.4,0.4-0.7,0.7-1h-5.9c-0.1,0-0.2,0-0.3-0.1c-0.1-0.1-0.1-0.2-0.1-0.3v-1.4H37.4z"/>
	</g>
</g>
<g id="_x38_">
	<g>
		<path class="st10" d="M33,32.9c-0.6,0-1.2-0.1-1.7-0.3c-0.5-0.2-1-0.4-1.3-0.7c-0.4-0.3-0.7-0.7-0.9-1.1c-0.2-0.4-0.3-0.9-0.3-1.5
			c0-0.7,0.2-1.3,0.5-1.8c0.4-0.5,0.9-0.9,1.7-1.1c-0.6-0.2-1-0.6-1.3-1.1c-0.3-0.5-0.4-1-0.4-1.7c0-0.5,0.1-0.9,0.3-1.3
			c0.2-0.4,0.5-0.8,0.8-1c0.3-0.3,0.7-0.5,1.2-0.7c0.5-0.2,1-0.3,1.6-0.3s1.1,0.1,1.6,0.3c0.5,0.2,0.9,0.4,1.2,0.7
			c0.3,0.3,0.6,0.6,0.8,1c0.2,0.4,0.3,0.8,0.3,1.3c0,0.6-0.2,1.2-0.5,1.7c-0.3,0.5-0.7,0.8-1.3,1.1c0.8,0.2,1.3,0.6,1.7,1.1
			c0.4,0.5,0.5,1.1,0.5,1.8c0,0.5-0.1,1-0.3,1.5c-0.2,0.4-0.5,0.8-0.9,1.1c-0.4,0.3-0.8,0.6-1.3,0.7S33.6,32.9,33,32.9z M33,31.3
			c0.3,0,0.6,0,0.9-0.1c0.3-0.1,0.5-0.2,0.7-0.4s0.3-0.4,0.4-0.6c0.1-0.2,0.1-0.5,0.1-0.8c0-0.7-0.2-1.2-0.6-1.5s-0.9-0.5-1.5-0.5
			s-1.2,0.2-1.5,0.5s-0.6,0.9-0.6,1.5c0,0.3,0,0.5,0.1,0.8c0.1,0.2,0.2,0.5,0.4,0.6c0.2,0.2,0.4,0.3,0.7,0.4
			C32.4,31.2,32.7,31.3,33,31.3z M33,25.6c0.3,0,0.6-0.1,0.9-0.2s0.4-0.3,0.6-0.4s0.2-0.4,0.3-0.6c0.1-0.2,0.1-0.5,0.1-0.7
			c0-0.2,0-0.5-0.1-0.7s-0.2-0.4-0.3-0.6c-0.1-0.2-0.3-0.3-0.6-0.4c-0.2-0.1-0.5-0.1-0.8-0.1s-0.6,0-0.8,0.1
			c-0.2,0.1-0.4,0.2-0.6,0.4c-0.2,0.2-0.3,0.3-0.3,0.6c-0.1,0.2-0.1,0.4-0.1,0.7c0,0.2,0,0.5,0.1,0.7c0.1,0.2,0.2,0.4,0.3,0.6
			s0.3,0.3,0.6,0.4S32.7,25.6,33,25.6z"/>
	</g>
</g>
<g id="_x39_" class="st5">
	<g class="st9">
		<path class="st10" d="M32.6,27.9c-0.4,0-0.8-0.1-1.2-0.2c-0.4-0.1-0.8-0.4-1.1-0.7c-0.3-0.3-0.6-0.7-0.8-1.1
			c-0.2-0.4-0.3-1-0.3-1.5c0-0.5,0.1-1.1,0.3-1.5s0.5-0.9,0.9-1.3s0.8-0.6,1.3-0.9s1.1-0.3,1.7-0.3c0.6,0,1.2,0.1,1.7,0.3
			c0.5,0.2,0.9,0.5,1.3,0.8c0.4,0.4,0.6,0.8,0.8,1.3c0.2,0.5,0.3,1,0.3,1.6c0,0.4,0,0.7-0.1,1.1s-0.2,0.7-0.3,1s-0.3,0.6-0.4,0.9
			c-0.2,0.3-0.4,0.6-0.6,0.9l-2.8,4c-0.1,0.1-0.2,0.3-0.4,0.3c-0.2,0.1-0.4,0.1-0.7,0.1h-1.9l3.8-4.8c0.1-0.1,0.2-0.2,0.3-0.3
			s0.2-0.2,0.2-0.3c-0.3,0.2-0.6,0.3-0.9,0.4S32.9,27.9,32.6,27.9z M35.4,24.2c0-0.3-0.1-0.6-0.2-0.9c-0.1-0.3-0.2-0.5-0.4-0.7
			c-0.2-0.2-0.4-0.3-0.7-0.4c-0.3-0.1-0.5-0.1-0.8-0.1c-0.3,0-0.6,0.1-0.9,0.2s-0.5,0.3-0.6,0.4c-0.2,0.2-0.3,0.4-0.4,0.7
			c-0.1,0.3-0.1,0.5-0.1,0.8c0,0.7,0.2,1.2,0.5,1.6c0.4,0.4,0.9,0.5,1.5,0.5c0.3,0,0.6-0.1,0.9-0.2c0.3-0.1,0.5-0.3,0.7-0.4
			c0.2-0.2,0.3-0.4,0.4-0.7C35.4,24.8,35.4,24.5,35.4,24.2z"/>
	</g>
</g>
<g id="_x31_0" class="st5">
	<g class="st9">
		<path class="st10" d="M25.4,31.2h2.5V24c0-0.3,0-0.6,0-0.9l-1.8,1.5c-0.1,0.1-0.1,0.1-0.2,0.1c-0.1,0-0.2,0-0.2,0
			c-0.1,0-0.2,0-0.3-0.1c-0.1,0-0.2-0.1-0.2-0.2l-0.7-0.9l3.7-3.2H30v10.7h2.2v1.6h-6.8V31.2z"/>
		<path class="st10" d="M42.4,26.6c0,1.1-0.1,2-0.3,2.8c-0.2,0.8-0.5,1.4-1,2s-0.9,0.9-1.4,1.2s-1.1,0.4-1.8,0.4s-1.2-0.1-1.8-0.4
			s-1-0.6-1.4-1.2c-0.4-0.5-0.7-1.2-0.9-2c-0.2-0.8-0.3-1.7-0.3-2.8c0-1.1,0.1-2,0.3-2.8c0.2-0.8,0.5-1.4,0.9-2
			c0.4-0.5,0.9-0.9,1.4-1.2s1.1-0.4,1.8-0.4s1.2,0.1,1.8,0.4s1,0.6,1.4,1.2c0.4,0.5,0.7,1.2,1,2C42.3,24.6,42.4,25.6,42.4,26.6z
			 M40.3,26.6c0-0.9-0.1-1.6-0.2-2.2c-0.1-0.6-0.3-1-0.5-1.4c-0.2-0.3-0.5-0.6-0.8-0.7c-0.3-0.1-0.6-0.2-0.9-0.2
			c-0.3,0-0.6,0.1-0.9,0.2c-0.3,0.1-0.5,0.4-0.7,0.7c-0.2,0.3-0.4,0.8-0.5,1.4c-0.1,0.6-0.2,1.3-0.2,2.2s0.1,1.6,0.2,2.2
			c0.1,0.6,0.3,1,0.5,1.4c0.2,0.3,0.5,0.6,0.7,0.7s0.6,0.2,0.9,0.2c0.3,0,0.6-0.1,0.9-0.2s0.5-0.4,0.8-0.7c0.2-0.3,0.4-0.8,0.5-1.4
			C40.2,28.3,40.3,27.5,40.3,26.6z"/>
	</g>
</g>
</svg>
