<?xml version="1.0" encoding="utf-8"?>
<!-- Generator: Adobe Illustrator 19.2.1, SVG Export Plug-In . SVG Version: 6.00 Build 0)  -->
<svg width="140px" height="229px" version="1.1" id="Layer_1" xmlns="http://www.w3.org/2000/svg" xmlns:xlink="http://www.w3.org/1999/xlink" x="0px" y="0px"
	 viewBox="0 0 140 229" style="enable-background:new 0 0 140 229;" xml:space="preserve">
<style type="text/css">
	.st0{fill:#FFFFFF;}
	.st1{fill:#EDB072;}
	.st2{fill:#6A6C75;}
	.st3{fill:#E1E1E1;}
	.st4{fill:#BFB4A5;}
	.st5{fill:#BEBEBE;}
	.st6{fill:#FFD09C;}
	.st7{fill:#261E3D;}
</style>
<g>
	<path id="path-47" class="st0" d="M90.4,129.2h9.3c1.1,0,2,0.9,2,2v9.2c0,1.1-0.9,2-2,2h-9.3c-1.1,0-2-0.9-2-2v-9.2
		C88.4,130.1,89.3,129.2,90.4,129.2z"/>
</g>
<g>
	<path id="path-45" class="st0" d="M57,129.2h9.3c1.1,0,2,0.9,2,2v9.2c0,1.1-0.9,2-2,2H57c-1.1,0-2-0.9-2-2v-9.2
		C55,130.1,55.9,129.2,57,129.2z"/>
</g>
<g>
	<path id="path-43" class="st0" d="M40.3,129.2h9.3c1.1,0,2,0.9,2,2v9.2c0,1.1-0.9,2-2,2h-9.3c-1.1,0-2-0.9-2-2v-9.2
		C38.3,130.1,39.2,129.2,40.3,129.2z"/>
</g>
<g>
	<path id="path-41" class="st0" d="M73.7,129.2H83c1.1,0,2,0.9,2,2v9.2c0,1.1-0.9,2-2,2h-9.3c-1.1,0-2-0.9-2-2v-9.2
		C71.7,130.1,72.6,129.2,73.7,129.2z"/>
</g>
<g>
	<path id="path-39" class="st0" d="M90.4,104.6h9.3c1.1,0,2,0.9,2,2v9.2c0,1.1-0.9,2-2,2h-9.3c-1.1,0-2-0.9-2-2v-9.2
		C88.4,105.5,89.3,104.6,90.4,104.6z"/>
</g>
<g>
	<path id="path-37" class="st0" d="M57,104.6h9.3c1.1,0,2,0.9,2,2v9.2c0,1.1-0.9,2-2,2H57c-1.1,0-2-0.9-2-2v-9.2
		C55,105.5,55.9,104.6,57,104.6z"/>
</g>
<g>
	<path id="path-35" class="st0" d="M40.3,104.6h9.3c1.1,0,2,0.9,2,2v9.2c0,1.1-0.9,2-2,2h-9.3c-1.1,0-2-0.9-2-2v-9.2
		C38.3,105.5,39.2,104.6,40.3,104.6z"/>
</g>
<g>
	<path id="path-33" class="st0" d="M73.7,104.6H83c1.1,0,2,0.9,2,2v9.2c0,1.1-0.9,2-2,2h-9.3c-1.1,0-2-0.9-2-2v-9.2
		C71.7,105.5,72.6,104.6,73.7,104.6z"/>
</g>
<g>
	<path id="path-31" class="st0" d="M90.4,86.6h9.3c1.1,0,2,0.9,2,2v9.2c0,1.1-0.9,2-2,2h-9.3c-1.1,0-2-0.9-2-2v-9.2
		C88.4,87.5,89.3,86.6,90.4,86.6z"/>
</g>
<g>
	<path id="path-29" class="st0" d="M57,86.6h9.3c1.1,0,2,0.9,2,2v9.2c0,1.1-0.9,2-2,2H57c-1.1,0-2-0.9-2-2v-9.2
		C55,87.5,55.9,86.6,57,86.6z"/>
</g>
<g>
	<path id="path-27" class="st0" d="M40.3,86.6h9.3c1.1,0,2,0.9,2,2v9.2c0,1.1-0.9,2-2,2h-9.3c-1.1,0-2-0.9-2-2v-9.2
		C38.3,87.5,39.2,86.6,40.3,86.6z"/>
</g>
<g>
	<path id="path-25" class="st0" d="M73.7,86.6H83c1.1,0,2,0.9,2,2v9.2c0,1.1-0.9,2-2,2h-9.3c-1.1,0-2-0.9-2-2v-9.2
		C71.7,87.5,72.6,86.6,73.7,86.6z"/>
</g>
<g>
	<path id="path-23" class="st0" d="M90.4,31h9.3c1.1,0,2,0.9,2,2v9.2c0,1.1-0.9,2-2,2h-9.3c-1.1,0-2-0.9-2-2V33
		C88.4,31.9,89.3,31,90.4,31z"/>
</g>
<g>
	<path id="path-21" class="st0" d="M57,31h9.3c1.1,0,2,0.9,2,2v9.2c0,1.1-0.9,2-2,2H57c-1.1,0-2-0.9-2-2V33C55,31.9,55.9,31,57,31z"
		/>
</g>
<g>
	<path id="path-19" class="st0" d="M40.3,31h9.3c1.1,0,2,0.9,2,2v9.2c0,1.1-0.9,2-2,2h-9.3c-1.1,0-2-0.9-2-2V33
		C38.3,31.9,39.2,31,40.3,31z"/>
</g>
<g>
	<path id="path-17" class="st0" d="M73.7,31H83c1.1,0,2,0.9,2,2v9.2c0,1.1-0.9,2-2,2h-9.3c-1.1,0-2-0.9-2-2V33
		C71.7,31.9,72.6,31,73.7,31z"/>
</g>
<g>
	<path id="path-15" class="st0" d="M90.4,49.9h9.3c1.1,0,2,0.9,2,2v9.2c0,1.1-0.9,2-2,2h-9.3c-1.1,0-2-0.9-2-2v-9.2
		C88.4,50.8,89.3,49.9,90.4,49.9z"/>
</g>
<g>
	<path id="path-13" class="st0" d="M57,49.9h9.3c1.1,0,2,0.9,2,2v9.2c0,1.1-0.9,2-2,2H57c-1.1,0-2-0.9-2-2v-9.2
		C55,50.8,55.9,49.9,57,49.9z"/>
</g>
<g>
	<path id="path-11" class="st0" d="M40.3,49.9h9.3c1.1,0,2,0.9,2,2v9.2c0,1.1-0.9,2-2,2h-9.3c-1.1,0-2-0.9-2-2v-9.2
		C38.3,50.8,39.2,49.9,40.3,49.9z"/>
</g>
<g>
	<path id="path-9" class="st0" d="M73.7,49.9H83c1.1,0,2,0.9,2,2v9.2c0,1.1-0.9,2-2,2h-9.3c-1.1,0-2-0.9-2-2v-9.2
		C71.7,50.8,72.6,49.9,73.7,49.9z"/>
</g>
<g>
	<path id="path-7" class="st0" d="M90.4,67.5h9.3c1.1,0,2,0.9,2,2v9.2c0,1.1-0.9,2-2,2h-9.3c-1.1,0-2-0.9-2-2v-9.2
		C88.4,68.4,89.3,67.5,90.4,67.5z"/>
</g>
<g>
	<path id="path-5" class="st0" d="M57,67.5h9.3c1.1,0,2,0.9,2,2v9.2c0,1.1-0.9,2-2,2H57c-1.1,0-2-0.9-2-2v-9.2
		C55,68.4,55.9,67.5,57,67.5z"/>
</g>
<g>
	<path id="path-3" class="st0" d="M40.3,67.5h9.3c1.1,0,2,0.9,2,2v9.2c0,1.1-0.9,2-2,2h-9.3c-1.1,0-2-0.9-2-2v-9.2
		C38.3,68.4,39.2,67.5,40.3,67.5z"/>
</g>
<title>introHomeScreen</title>
<desc>Created with Sketch.</desc>
<g id="Main">
	<g id="New0IntroTutorial1" transform="translate(-118.000000, -169.000000)">
		<g id="introHomeScreen" transform="translate(118.000000, 169.000000)">
			<path id="Fill-24" class="st1" d="M96.4,79.3H47.2v121.8h88.4v-82.8C135.6,96.8,118.1,79.3,96.4,79.3"/>
			<path id="Fill-26" class="st1" d="M0,89.5L0,89.5c0,5.7,4.9,10.3,11,10.3h46.5V89.5H0z"/>
			<path id="Fill-28" class="st1" d="M0,89.5L0,89.5c0-5.7,4.9-10.3,11-10.3h46.5v10.3H0z"/>
			<path id="Fill-30" class="st1" d="M0,111.6L0,111.6c0,5.7,4.9,10.3,11,10.3h46.5v-10.3H0z"/>
			<path id="Fill-32" class="st1" d="M0,113L0,113c0-5.7,4.9-10.3,11-10.3h46.5V113H0z"/>
			<path id="Fill-34" class="st1" d="M0,135.1L0,135.1c0,5.7,4.9,10.3,11,10.3h46.5v-10.3H0z"/>
			<path id="Fill-36" class="st1" d="M0,136.5L0,136.5c0-5.7,4.9-10.3,11-10.3h46.5v10.3H0z"/>
			<path id="Fill-38" class="st1" d="M4.4,158.5L4.4,158.5c0,5.7,4.9,10.3,11,10.3h46.5v-10.3H4.4z"/>
			<path id="Fill-40" class="st1" d="M4.4,160L4.4,160c0-5.7,4.9-10.3,11-10.3h46.5V160H4.4z"/>
			<path id="Fill-42" class="st2" d="M117.9,14.3c0-7.9-6.4-14.3-14.4-14.3h-67c-7.9,0-14.4,6.4-14.4,14.3V153
				c0,7.9,6.4,14.3,14.4,14.3h67c7.9,0,14.4-6.4,14.4-14.3V14.3z"/>
			<polygon id="Fill-44" class="st3" points="107.6,148.3 32.4,148.3 32.4,22 107.6,22 			"/>
			<path id="Fill-46" class="st4" d="M84.1,10.3H57.4c-1.6,0-2.8,1.3-2.8,2.9s1.3,2.9,2.8,2.9h26.8c1.6,0,2.8-1.3,2.8-2.9
				S85.7,10.3,84.1,10.3"/>
			<path id="Fill-47" class="st4" d="M70.7,162.9L70.7,162.9c-3.2,0-5.9-2.6-5.9-5.9c0-3.2,2.7-5.9,5.9-5.9s5.9,2.6,5.9,5.9
				C76.6,160.3,74,162.9,70.7,162.9"/>
			<g id="Group-3" transform="translate(38.315789, 30.826923)">
				<g id="Group" transform="translate(0.000000, 36.698718)">
					<g id="Group-2" transform="translate(33.403509, 0.000000)">
						<g id="Rectangle-248">
							<path id="path-1_1_" class="st5" d="M2,0h9.3c1.1,0,2,0.9,2,2v9.2c0,1.1-0.9,2-2,2H2c-1.1,0-2-0.9-2-2V2C0,0.9,0.9,0,2,0z"/>
						</g>
					</g>
					<g id="Rectangle-248_1_">
						<path id="path-3_1_" class="st5" d="M2,0h9.3c1.1,0,2,0.9,2,2v9.2c0,1.1-0.9,2-2,2H2c-1.1,0-2-0.9-2-2V2C0,0.9,0.9,0,2,0z"/>
					</g>
					<g id="Rectangle-248_2_">
						<path id="path-5_1_" class="st5" d="M18.7,0H28c1.1,0,2,0.9,2,2v9.2c0,1.1-0.9,2-2,2h-9.3c-1.1,0-2-0.9-2-2V2
							C16.7,0.9,17.6,0,18.7,0z"/>
					</g>
					<g id="Rectangle-248_3_">
						<path id="path-7_1_" class="st5" d="M52.1,0h9.3c1.1,0,2,0.9,2,2v9.2c0,1.1-0.9,2-2,2h-9.3c-1.1,0-2-0.9-2-2V2
							C50.1,0.9,51,0,52.1,0z"/>
					</g>
				</g>
				<g id="Group_1_" transform="translate(0.000000, 19.083333)">
					<g id="Rectangle-248_4_">
						<path id="path-9_1_" class="st5" d="M35.4,0h9.3c1.1,0,2,0.9,2,2v9.2c0,1.1-0.9,2-2,2h-9.3c-1.1,0-2-0.9-2-2V2
							C33.4,0.9,34.3,0,35.4,0z"/>
					</g>
					<g id="Rectangle-248_5_">
						<path id="path-11_1_" class="st5" d="M2,0h9.3c1.1,0,2,0.9,2,2v9.2c0,1.1-0.9,2-2,2H2c-1.1,0-2-0.9-2-2V2C0,0.9,0.9,0,2,0z"/>
					</g>
					<g id="Rectangle-248_6_">
						<path id="path-13_1_" class="st5" d="M18.7,0H28c1.1,0,2,0.9,2,2v9.2c0,1.1-0.9,2-2,2h-9.3c-1.1,0-2-0.9-2-2V2
							C16.7,0.9,17.6,0,18.7,0z"/>
					</g>
					<g id="Rectangle-248_7_">
						<path id="path-15_1_" class="st5" d="M52.1,0h9.3c1.1,0,2,0.9,2,2v9.2c0,1.1-0.9,2-2,2h-9.3c-1.1,0-2-0.9-2-2V2
							C50.1,0.9,51,0,52.1,0z"/>
					</g>
				</g>
				<g id="Group_2_" transform="translate(0.000000, 0.183494)">
					<g id="Rectangle-248_8_">
						<path id="path-17_1_" class="st5" d="M35.4,0h9.3c1.1,0,2,0.9,2,2v9.2c0,1.1-0.9,2-2,2h-9.3c-1.1,0-2-0.9-2-2V2
							C33.4,0.9,34.3,0,35.4,0z"/>
					</g>
					<g id="Rectangle-248_9_">
						<path id="path-19_1_" class="st5" d="M2,0h9.3c1.1,0,2,0.9,2,2v9.2c0,1.1-0.9,2-2,2H2c-1.1,0-2-0.9-2-2V2C0,0.9,0.9,0,2,0z"/>
					</g>
					<g id="Rectangle-248_10_">
						<path id="path-21_1_" class="st5" d="M18.7,0H28c1.1,0,2,0.9,2,2v9.2c0,1.1-0.9,2-2,2h-9.3c-1.1,0-2-0.9-2-2V2
							C16.7,0.9,17.6,0,18.7,0z"/>
					</g>
					<g id="Rectangle-248_11_">
						<path id="path-23_1_" class="st5" d="M52.1,0h9.3c1.1,0,2,0.9,2,2v9.2c0,1.1-0.9,2-2,2h-9.3c-1.1,0-2-0.9-2-2V2
							C50.1,0.9,51,0,52.1,0z"/>
					</g>
				</g>
				<g id="Group_3_" transform="translate(0.000000, 55.782051)">
					<g id="Rectangle-248_12_">
						<path id="path-25_1_" class="st5" d="M35.4,0h9.3c1.1,0,2,0.9,2,2v9.2c0,1.1-0.9,2-2,2h-9.3c-1.1,0-2-0.9-2-2V2
							C33.4,0.9,34.3,0,35.4,0z"/>
					</g>
					<g id="Rectangle-248_13_">
						<path id="path-27_1_" class="st5" d="M2,0h9.3c1.1,0,2,0.9,2,2v9.2c0,1.1-0.9,2-2,2H2c-1.1,0-2-0.9-2-2V2C0,0.9,0.9,0,2,0z"/>
					</g>
					<g id="Rectangle-248_14_">
						<path id="path-29_1_" class="st5" d="M18.7,0H28c1.1,0,2,0.9,2,2v9.2c0,1.1-0.9,2-2,2h-9.3c-1.1,0-2-0.9-2-2V2
							C16.7,0.9,17.6,0,18.7,0z"/>
					</g>
					<g id="Rectangle-248_15_">
						<path id="path-31_1_" class="st5" d="M52.1,0h9.3c1.1,0,2,0.9,2,2v9.2c0,1.1-0.9,2-2,2h-9.3c-1.1,0-2-0.9-2-2V2
							C50.1,0.9,51,0,52.1,0z"/>
					</g>
				</g>
				<g id="Group_4_" transform="translate(0.000000, 73.764423)">
					<g id="Rectangle-248_16_">
						<path id="path-33_1_" class="st5" d="M35.4,0h9.3c1.1,0,2,0.9,2,2v9.2c0,1.1-0.9,2-2,2h-9.3c-1.1,0-2-0.9-2-2V2
							C33.4,0.9,34.3,0,35.4,0z"/>
					</g>
					<g id="Rectangle-248_17_">
						<path id="path-35_1_" class="st5" d="M2,0h9.3c1.1,0,2,0.9,2,2v9.2c0,1.1-0.9,2-2,2H2c-1.1,0-2-0.9-2-2V2C0,0.9,0.9,0,2,0z"/>
					</g>
					<g id="Rectangle-248_18_">
						<path id="path-37_1_" class="st5" d="M18.7,0H28c1.1,0,2,0.9,2,2v9.2c0,1.1-0.9,2-2,2h-9.3c-1.1,0-2-0.9-2-2V2
							C16.7,0.9,17.6,0,18.7,0z"/>
					</g>
					<g id="Rectangle-248_19_">
						<path id="path-39_1_" class="st5" d="M52.1,0h9.3c1.1,0,2,0.9,2,2v9.2c0,1.1-0.9,2-2,2h-9.3c-1.1,0-2-0.9-2-2V2
							C50.1,0.9,51,0,52.1,0z"/>
					</g>
				</g>
				<g id="Group_5_" transform="translate(0.000000, 98.352564)">
					<g id="Rectangle-248_20_">
						<path id="path-41_1_" class="st5" d="M35.4,0h9.3c1.1,0,2,0.9,2,2v9.2c0,1.1-0.9,2-2,2h-9.3c-1.1,0-2-0.9-2-2V2
							C33.4,0.9,34.3,0,35.4,0z"/>
					</g>
					<g id="Rectangle-248_21_">
						<path id="path-43_1_" class="st5" d="M2,0h9.3c1.1,0,2,0.9,2,2v9.2c0,1.1-0.9,2-2,2H2c-1.1,0-2-0.9-2-2V2C0,0.9,0.9,0,2,0z"/>
					</g>
					<g id="Rectangle-248_22_">
						<path id="path-45_1_" class="st5" d="M18.7,0H28c1.1,0,2,0.9,2,2v9.2c0,1.1-0.9,2-2,2h-9.3c-1.1,0-2-0.9-2-2V2
							C16.7,0.9,17.6,0,18.7,0z"/>
					</g>
					<g id="Rectangle-248_23_">
						<path id="path-47_1_" class="st5" d="M52.1,0h9.3c1.1,0,2,0.9,2,2v9.2c0,1.1-0.9,2-2,2h-9.3c-1.1,0-2-0.9-2-2V2
							C50.1,0.9,51,0,52.1,0z"/>
					</g>
				</g>
			</g>
			<path id="Fill-48" class="st6" d="M116.4,118.9h-1.3h-38c0,11.7,9.5,21.2,21.2,21.2h12.3v6.3c-25.7,6.8-39.8,27.1-39.8,51v3.8
				h63.4v-40.9v-16.3v-3.8v-3.4C134.1,126.9,126.2,118.9,116.4,118.9"/>
			<polygon id="Fill-49" class="st7" points="140,229 39.8,229 39.8,195.2 140,195.2 			"/>
			<path id="Fill-50" class="st0" d="M63.4,212.9c0,4.1-3.3,7.3-7.4,7.3c-4.1,0-7.4-3.3-7.4-7.3c0-4.1,3.3-7.3,7.4-7.3
				C60.1,205.5,63.4,208.8,63.4,212.9"/>
		</g>
	</g>
</g>
</svg>
