<?xml version="1.0" encoding="UTF-8" standalone="no"?>
<svg width="16px" height="17px" viewBox="0 0 16 17" version="1.1" xmlns="http://www.w3.org/2000/svg" xmlns:xlink="http://www.w3.org/1999/xlink">
    <!-- Generator: Sketch 40.2 (33826) - http://www.bohemiancoding.com/sketch -->
    <title>Icon_Notification</title>
    <desc>Created with Sketch.</desc>
    <defs></defs>
    <g id="Symbols" stroke="none" stroke-width="1" fill="none" fill-rule="evenodd" stroke-linecap="round" stroke-linejoin="round">
        <g id="Icon_Notification" transform="translate(0.000000, 1.000000)" stroke="#6A6A6A">
            <g>
                <path d="M13.4868421,7.23684211 C13.4868421,4.83486842 11.9677632,2.79210526 9.84210526,2.00065789 C9.69605263,1.05460526 8.88157895,0.328947368 7.89473684,0.328947368 C6.90789474,0.328947368 6.09078947,1.05460526 5.94539474,2.00065789 C3.81907895,2.79210526 2.30263158,4.83486842 2.30263158,7.23684211 L2.30263158,10.8552632 C2.30263158,11.9453947 1.41842105,12.8289474 0.328947368,12.8289474 L15.4605263,12.8289474 C14.3690789,12.8289474 13.4868421,11.9453947 13.4868421,10.8552632 L13.4868421,7.23684211 Z" id="Stroke-1310"></path>
                <path d="M9.86842105,12.8289474 C9.86842105,13.9190789 8.98421053,14.8026316 7.89473684,14.8026316 C6.80328947,14.8026316 5.92105263,13.9190789 5.92105263,12.8289474" id="Stroke-1311"></path>
            </g>
        </g>
    </g>
</svg>