<?xml version="1.0" encoding="UTF-8" standalone="no"?>
<svg width="26px" height="27px" viewBox="0 0 26 27" version="1.1" xmlns="http://www.w3.org/2000/svg" xmlns:xlink="http://www.w3.org/1999/xlink">
    <!-- Generator: Sketch 3.7.2 (28276) - http://www.bohemiancoding.com/sketch -->
    <title>MenuSettingsNormal</title>
    <desc>Created with Sketch.</desc>
    <defs></defs>
    <g id="Main" stroke="none" stroke-width="1" fill="none" fill-rule="evenodd" stroke-linecap="round" stroke-linejoin="round">
        <g id="1MainTabMap" transform="translate(-315.000000, -616.000000)" stroke-width="1.08" stroke="#FFFFFF">
            <g id="Menu-Bar" transform="translate(0.000000, 603.000000)">
                <g id="Icons" transform="translate(27.000000, 11.500000)">
                    <g id="MenuSettings" transform="translate(288.000000, 2.000000)">
                        <g id="MenuSettingsNormal">
                            <path d="M21.941725,14.625 L25.458225,14.625 L25.458225,11.375 L21.9406417,11.375 C21.714225,10.43575 21.343725,9.01225 20.8540583,8.2095 L23.3413917,5.72325 L20.2766417,2.6585 L17.788225,5.14583333 C16.9865583,4.65616667 15.5641417,4.28675 14.6248917,4.06033333 L14.6248917,0.541666667 L11.3748917,0.541666667 L11.3748917,4.06033333 C10.4356417,4.28675 9.01214167,4.65616667 8.210475,5.14583333 L5.72205833,2.6585 L2.65730833,5.72325 L5.145725,8.21058333 C4.65605833,9.01225 4.28555833,10.43575 4.05805833,11.375 L0.541558333,11.375 L0.541558333,14.625 L4.05805833,14.625 C4.28555833,15.56425 4.65605833,16.98775 5.145725,17.7894167 L2.65730833,20.2778333 L5.72205833,23.3415 L8.20939167,20.8530833 C9.01214167,21.3438333 10.4356417,21.7143333 11.3748917,21.9418333 L11.3748917,25.4583333 L14.6248917,25.4583333 L14.6248917,21.9418333 C15.5641417,21.7143333 16.9876417,21.3438333 17.788225,20.8541667 L20.277725,23.3415 L23.3413917,20.2778333 L20.8540583,17.7894167 C21.343725,16.98775 21.714225,15.56425 21.941725,14.625 L21.941725,14.625 Z" id="Stroke-814"></path>
                            <path d="M17.875,13 C17.875,15.6931667 15.6920833,17.875 13,17.875 C10.3079167,17.875 8.125,15.6931667 8.125,13 C8.125,10.3079167 10.3079167,8.125 13,8.125 C15.6920833,8.125 17.875,10.3079167 17.875,13 L17.875,13 Z" id="Stroke-815"></path>
                        </g>
                    </g>
                </g>
            </g>
        </g>
    </g>
</svg>