<?xml version="1.0" encoding="UTF-8" standalone="no"?>
<svg width="31px" height="43px" viewBox="0 0 31 43" version="1.1" xmlns="http://www.w3.org/2000/svg" xmlns:xlink="http://www.w3.org/1999/xlink">
    <!-- Generator: Sketch 3.8.3 (29802) - http://www.bohemiancoding.com/sketch -->
    <title>SelectedPinStop</title>
    <desc>Created with Sketch.</desc>
    <defs>
        <filter x="-50%" y="-50%" width="200%" height="200%" filterUnits="objectBoundingBox" id="filter-1">
            <feOffset dx="0" dy="2" in="SourceAlpha" result="shadowOffsetOuter1"></feOffset>
            <feGaussianBlur stdDeviation="2" in="shadowOffsetOuter1" result="shadowBlurOuter1"></feGaussianBlur>
            <feColorMatrix values="0 0 0 0 0   0 0 0 0 0   0 0 0 0 0  0 0 0 0.5 0" type="matrix" in="shadowBlurOuter1" result="shadowMatrixOuter1"></feColorMatrix>
            <feMerge>
                <feMergeNode in="shadowMatrixOuter1"></feMergeNode>
                <feMergeNode in="SourceGraphic"></feMergeNode>
            </feMerge>
        </filter>
    </defs>
    <g id="Routes" stroke="none" stroke-width="1" fill="none" fill-rule="evenodd" stroke-linecap="round" stroke-linejoin="round">
        <g id="2SearchRoutesStartPin" transform="translate(-167.000000, -343.000000)" stroke="#493762">
            <g id="SelectedPinStop" filter="url(#filter-1)" transform="translate(171.000000, 345.000000)">
                <path d="M22.28125,11.6666667 C22.28125,17.71 11.5,34.2708333 11.5,34.2708333 C11.5,34.2708333 0.71875,17.71 0.71875,11.6666667 C0.71875,5.62625 5.5444375,0.729166667 11.5,0.729166667 C17.454125,0.729166667 22.28125,5.62625 22.28125,11.6666667 L22.28125,11.6666667 Z" id="Stroke-4" fill="#FFFFFF"></path>
                <path d="M11.5,16.0416667 C9.1180625,16.0416667 7.1875,14.083125 7.1875,11.6666667 C7.1875,9.25166667 9.1180625,7.29166667 11.5,7.29166667 C13.8805,7.29166667 15.8125,9.25166667 15.8125,11.6666667 C15.8125,14.083125 13.8805,16.0416667 11.5,16.0416667 Z" id="Stroke-6" fill="#FF6C6A"></path>
            </g>
        </g>
    </g>
</svg>