<?xml version="1.0" encoding="UTF-8" standalone="no"?>
<svg width="20px" height="20px" viewBox="0 0 20 20" version="1.1" xmlns="http://www.w3.org/2000/svg" xmlns:xlink="http://www.w3.org/1999/xlink">
    <!-- Generator: Sketch 3.8.3 (29802) - http://www.bohemiancoding.com/sketch -->
    <title>ticketdetail_ticket_normal</title>
    <desc>Created with Sketch.</desc>
    <defs></defs>
    <g id="Tickets" stroke="none" stroke-width="1" fill="none" fill-rule="evenodd">
        <g id="Artboard-5" transform="translate(-3.000000, -3.000000)">
            <g id="Group-11">
                <g id="ticketdetail_ticket_normal">
                    <rect id="Rectangle-48" x="0" y="0" width="25" height="25"></rect>
                    <g id="TicketDetail_Ticket" transform="translate(13.297783, 12.904201) rotate(-45.000000) translate(-13.297783, -12.904201) translate(5.297783, 7.904201)">
                        <g id="Group-2" transform="translate(-0.000000, -0.000000)">
                            <path d="M15.2468444,6.96051592 C14.1484087,6.96051592 13.2581256,6.07023278 13.2581256,4.97179708 C13.2581256,3.87402429 14.1484087,2.98307825 15.2468444,2.98307825 L15.2468444,7.63833441e-14 L8.34887715e-14,7.63833441e-14 L8.34887715e-14,2.98307825 C1.0977728,2.98307825 1.98871883,3.87402429 1.98871883,4.97179708 C1.98871883,6.07023278 1.0977728,6.96051592 8.34887715e-14,6.96051592 L8.34887715e-14,9.94359417 L15.2468444,9.94359417 L15.2468444,6.96051592 L15.2468444,6.96051592 Z" id="Stroke-54" stroke="#493762" stroke-linecap="round" stroke-linejoin="round"></path>
                            <polygon id="Fill-55" fill="#493762" points="6.29747706 0.994293126 5.63457078 0.994293126 5.63457078 1.6571994 6.29747706 1.6571994"></polygon>
                            <polygon id="Fill-56" fill="#493762" points="6.29747706 2.32010568 5.63457078 2.32010568 5.63457078 2.98301196 6.29747706 2.98301196"></polygon>
                            <polygon id="Fill-57" fill="#493762" points="6.29747706 3.64591824 5.63457078 3.64591824 5.63457078 4.30882451 6.29747706 4.30882451"></polygon>
                            <polygon id="Fill-58" fill="#493762" points="6.29747706 5.63463707 5.63457078 5.63463707 5.63457078 6.29754335 6.29747706 6.29754335"></polygon>
                            <polygon id="Fill-59" fill="#493762" points="6.29747706 6.96044963 5.63457078 6.96044963 5.63457078 7.6233559 6.29747706 7.6233559"></polygon>
                            <polygon id="Fill-60" fill="#493762" points="6.29747706 8.28626218 5.63457078 8.28626218 5.63457078 8.94916846 6.29747706 8.94916846"></polygon>
                        </g>
                    </g>
                </g>
            </g>
        </g>
    </g>
</svg>